<svg xmlns="http://www.w3.org/2000/svg" xmlns:xlink="http://www.w3.org/1999/xlink" width="88" height="78" viewBox="0 0 88 78">
  <defs>
    <clipPath id="clip-path">
      <rect id="Rectangle_1721" data-name="Rectangle 1721" width="45.605" height="42.92" fill="#18a291"/>
    </clipPath>
  </defs>
  <g id="care_routines" data-name="care routines" transform="translate(8174 -3251)">
    <rect id="Rectangle_1699" data-name="Rectangle 1699" width="88" height="78" rx="12" transform="translate(-8174 3251)" fill="#ccede9"/>
    <g id="Groupe_1354" data-name="Groupe 1354" transform="translate(-8152.802 3268.54)">
      <g id="Groupe_1353" data-name="Groupe 1353" clip-path="url(#clip-path)">
        <path id="Tracé_2033" data-name="Tracé 2033" d="M45.6,27.078a1.434,1.434,0,0,0-1.479-1.518c-.194-.006-.382-.005-.579,0V24.3A1.447,1.447,0,0,0,44.9,22.641v-.2c0-.752,0-1.531,0-2.3a1.469,1.469,0,0,0-1.567-1.579c-.221,0-.442,0-.655,0-.012-.065-.022-.125-.032-.185s-.015-.118-.021-.177c-.009-.086-.018-.175-.034-.267A20.954,20.954,0,0,0,35.478,5.271,20.952,20.952,0,0,0,16.186.668,20.634,20.634,0,0,0,4.931,7.762,20.736,20.736,0,0,0,.355,17.567c-.094.534-.171,1.077-.246,1.6-.035.244-.069.488-.106.732l0,3.034,0,.049c.028.2.054.391.081.587.056.417.115.848.185,1.273A20.631,20.631,0,0,0,8.761,38.708a20.941,20.941,0,0,0,12.413,4.211A23.454,23.454,0,0,0,29.6,41.26c.48-.184.932-.4,1.411-.625l.2-.095a1.482,1.482,0,0,0,1.717,1.491q5.217,0,10.434,0c.065,0,.12,0,.179,0A5.237,5.237,0,0,0,44.285,42,1.441,1.441,0,0,0,45.6,40.494c0-4.557,0-9.071,0-13.416M33.951,20.632h8.9v1.591h-8.9Zm-.684,6.947h.787c.971,0,1.974,0,2.955,0h.01a1.021,1.021,0,0,0,1.107-.753.984.984,0,0,0-.143-.86,1.054,1.054,0,0,0-.839-.407c-.492-.01-.974-.008-1.484-.006h-.3V24.345h6.106v1.211h-.18c-.4,0-.793,0-1.186,0-.85.007-1.154.523-1.154,1a1.022,1.022,0,0,0,1.149,1.018q1.206,0,2.412,0h1.062v8.477h-10.3ZM31.2,27.172c-.006,2.09-.01,4.339.005,6.624a.442.442,0,0,1-.218.437A15.712,15.712,0,0,1,20.67,37.384,15.92,15.92,0,0,1,5.8,24.694,16.085,16.085,0,0,1,12.888,7.962l.124-.076c.074-.045.148-.089.219-.137a1.035,1.035,0,0,0,.408-1.441.99.99,0,0,0-.632-.465,1.11,1.11,0,0,0-.856.194l-.433.291A19.71,19.71,0,0,0,9.844,7.692,17.585,17.585,0,0,0,3.6,19.179,18.066,18.066,0,0,0,6.612,31.653a18.026,18.026,0,0,0,24.591,4.9c0,.561.005,1.09-.014,1.613a.362.362,0,0,1-.109.111,18.157,18.157,0,0,1-5.919,2.209A19.032,19.032,0,0,1,9.316,36.57,18.864,18.864,0,0,1,2.349,24.905,19.472,19.472,0,0,1,12.817,4.061,18.5,18.5,0,0,1,23.2,2.136a18.992,18.992,0,0,1,15.67,10.741,17.569,17.569,0,0,1,1.753,5.68h-.057c-.467,0-.911,0-1.358-.01a.118.118,0,0,1-.008-.021,17.818,17.818,0,0,0-9.06-12.818,17.494,17.494,0,0,0-10.5-2.162,18.01,18.01,0,0,0-4.213.935c-1.081.377-.911,1.147-.834,1.375s.405.907,1.508.551A15.715,15.715,0,0,1,32.14,9.615a15.341,15.341,0,0,1,4.994,8.944H35.852q-1.15,0-2.3,0a1.477,1.477,0,0,0-1.641,1.64c0,.516,0,1.032,0,1.549v.646c0,1.225.271,1.649,1.334,1.9v1.257c-.143,0-.285,0-.427,0A1.455,1.455,0,0,0,31.2,27.172M43.559,39.941h-10.3V38.124h10.3Z" transform="translate(0 0)" fill="#18a291"/>
        <path id="Tracé_2034" data-name="Tracé 2034" d="M120.052,110.723c-.056-.025-.078-.041-.079-.04a.293.293,0,0,1-.006-.079c.011-.652.009-1.314.007-1.953q0-.363,0-.727V105.35c0-.067,0-.135,0-.2a1.018,1.018,0,0,0-1.013-1.052h-.007a1,1,0,0,0-1,1.075c-.006,1.624-.01,3.512,0,5.352,0,.155,0,.161-.141.222a2.785,2.785,0,0,0-1.505,3.62c.05.127.053.135-.071.256-1.369,1.351-2.754,2.73-4.094,4.064l-1.132,1.127-.071.07a2.739,2.739,0,0,0-.228.239,1.01,1.01,0,0,0,.051,1.384.981.981,0,0,0,.693.286,1.082,1.082,0,0,0,.69-.258,3.17,3.17,0,0,0,.236-.224l.07-.071,5.225-5.19.029-.029a1.167,1.167,0,0,1,.086-.081.305.305,0,0,1,.047.016,2.864,2.864,0,0,0,2.2.029,2.816,2.816,0,0,0,1.546-1.531,2.845,2.845,0,0,0-1.538-3.728m-.273,2.616a.789.789,0,0,1-.23.565.821.821,0,0,1-.585.246h0a.818.818,0,0,1-.825-.8.787.787,0,0,1,.229-.564.822.822,0,0,1,.586-.246h.005a.808.808,0,0,1,.824.8" transform="translate(-97.524 -91.9)" fill="#18a291"/>
        <path id="Tracé_2035" data-name="Tracé 2035" d="M59.953,176.292c.087,0,.175,0,.264,0,.113,0,.227,0,.343-.012a1.022,1.022,0,0,0,1.01-1.055,1.009,1.009,0,0,0-1.027-.983c-.545-.02-1.111-.02-1.681,0a1.017,1.017,0,0,0-.063,2.032,5.28,5.28,0,0,0,.626.011H59.7c.083,0,.166,0,.25,0" transform="translate(-51.049 -153.817)" fill="#18a291"/>
        <path id="Tracé_2036" data-name="Tracé 2036" d="M174.344,59.9c0,.091,0,.182,0,.273,0,.2,0,.41.005.619a1,1,0,0,0,.962,1h.043a.988.988,0,0,0,.677-.268,1.03,1.03,0,0,0,.327-.731c.016-.541.017-1.106,0-1.728a1,1,0,0,0-1.006-1.014h-.005a.987.987,0,0,0-1,1c-.008.2-.006.406,0,.6,0,.082,0,.163,0,.245" transform="translate(-153.914 -51.243)" fill="#18a291"/>
        <path id="Tracé_2037" data-name="Tracé 2037" d="M176.344,277.987c0-.086,0-.173,0-.26,0-.206.006-.42-.006-.635a1.023,1.023,0,0,0-1.006-1H175.3a.99.99,0,0,0-.972,1c-.015.6-.015,1.2,0,1.771a.971.971,0,0,0,.994.972h0a.992.992,0,0,0,1.008-.949c.014-.214.011-.426.008-.631,0-.09,0-.179,0-.269" transform="translate(-153.897 -243.747)" fill="#18a291"/>
        <path id="Tracé_2038" data-name="Tracé 2038" d="M271.591,116.818a.757.757,0,0,0,.2-.026,2.4,2.4,0,0,0,1.043-.6,1.16,1.16,0,0,0,.2-1.048,1.079,1.079,0,0,0-.457-.517c-.074-.054-.15-.11-.222-.172l-.207-.181-.225.158c-.12.084-.238.161-.353.237a4.62,4.62,0,0,0-.833.64,1.047,1.047,0,0,0,.041,1.144,1.062,1.062,0,0,0,.808.37" transform="translate(-238.884 -100.881)" fill="#18a291"/>
        <path id="Tracé_2039" data-name="Tracé 2039" d="M75.458,114.7c-.115-.075-.234-.152-.354-.236l-.226-.157-.207.181c-.07.061-.146.118-.22.172a1,1,0,0,0-.251,1.581,2.326,2.326,0,0,0,1.061.592.692.692,0,0,0,.158.017,1.187,1.187,0,0,0,.853-.412,1,1,0,0,0,0-1.122,4.742,4.742,0,0,0-.816-.617" transform="translate(-65.273 -100.911)" fill="#18a291"/>
        <path id="Tracé_2040" data-name="Tracé 2040" d="M75.124,230.216a1.891,1.891,0,0,0-.974.54,1.175,1.175,0,0,0-.288,1.019,1.222,1.222,0,0,0,.452.572c.073.062.148.125.218.194l.2.2.24-.162c.127-.086.252-.164.371-.239a4.359,4.359,0,0,0,.829-.613,1.015,1.015,0,0,0-.017-1.165,1.208,1.208,0,0,0-1.035-.351" transform="translate(-65.183 -203.231)" fill="#18a291"/>
        <path id="Tracé_2041" data-name="Tracé 2041" d="M117.59,270.268l-.056,0-.045.013-.027,0a.593.593,0,0,0-.452.235l-.072.112a5.676,5.676,0,0,0-.621,1.147c-.134.374.3.871.585.987a.914.914,0,0,0,.347.063,1.043,1.043,0,0,0,.7-.25,2.893,2.893,0,0,0,.624-1.009.89.89,0,0,0-.1-.821,1.1,1.1,0,0,0-.887-.479" transform="translate(-102.667 -238.601)" fill="#18a291"/>
        <path id="Tracé_2042" data-name="Tracé 2042" d="M116.626,75.878a.955.955,0,0,0,.769.408,1.063,1.063,0,0,0,.551-.164.941.941,0,0,0,.384-1.282,3.482,3.482,0,0,0-.445-.751,1.305,1.305,0,0,0-.424-.311c-.021-.011-.04-.02-.053-.028l-.085-.055h-.1a1.134,1.134,0,0,0-.988.467.924.924,0,0,0-.087.882,3.789,3.789,0,0,0,.479.835" transform="translate(-102.474 -65.059)" fill="#18a291"/>
        <path id="Tracé_2043" data-name="Tracé 2043" d="M231.469,270.659a1.276,1.276,0,0,0-.435-.312c-.024-.012-.046-.022-.062-.032l-.089-.055h-.1a1.127,1.127,0,0,0-.946.479.962.962,0,0,0-.087.9,3.412,3.412,0,0,0,.492.841.956.956,0,0,0,.753.387,1.058,1.058,0,0,0,.576-.182.93.93,0,0,0,.367-1.246,3.717,3.717,0,0,0-.467-.785" transform="translate(-202.766 -238.596)" fill="#18a291"/>
        <path id="Tracé_2044" data-name="Tracé 2044" d="M232.362,74.526a1.083,1.083,0,0,0-.569-.462,1.318,1.318,0,0,0-1.037.271,1.618,1.618,0,0,0-.533.916,1.269,1.269,0,0,0,.267,1.047,1.111,1.111,0,0,0,.721.248.671.671,0,0,0,.465-.152,4.673,4.673,0,0,0,.655-.841c.078-.117.158-.238.245-.36l.166-.234-.2-.21c-.065-.07-.126-.148-.185-.223" transform="translate(-203.232 -65.366)" fill="#18a291"/>
        <path id="Tracé_2045" data-name="Tracé 2045" d="M308.466,249.579c-.241-.006-.48,0-.712,0q0-.072,0-.144c0-.151,0-.3-.006-.453-.02-.879-.539-1.195-1.018-1.2h-.005a1.069,1.069,0,0,0-1.025,1.194c0,.2,0,.4,0,.589l-.123,0c-.194,0-.388.005-.582.011a1.009,1.009,0,1,0-.012,2.015c.233.007.466.005.712,0h.005c0,.234,0,.455,0,.676a1.018,1.018,0,0,0,1.019,1.1h.006a1.007,1.007,0,0,0,1.019-1.087c.009-.228.008-.451.005-.687h0c.247,0,.479,0,.711,0a1.009,1.009,0,1,0,0-2.014" transform="translate(-268.322 -218.751)" fill="#18a291"/>
      </g>
    </g>
  </g>
</svg>
