<svg xmlns="http://www.w3.org/2000/svg" xmlns:xlink="http://www.w3.org/1999/xlink" width="88" height="78" viewBox="0 0 88 78">
  <defs>
    <clipPath id="clip-path">
      <rect id="Rectangle_1713" data-name="Rectangle 1713" width="48.596" height="49.763" fill="#18a291"/>
    </clipPath>
  </defs>
  <g id="emergency" transform="translate(8753 -3251)">
    <rect id="Rectangle_1699" data-name="Rectangle 1699" width="88" height="78" rx="12" transform="translate(-8753 3251)" fill="#ccede9"/>
    <g id="Groupe_1314" data-name="Groupe 1314" transform="translate(-8733.298 3265.118)" clip-path="url(#clip-path)">
      <path id="Tracé_2000" data-name="Tracé 2000" d="M54.374,119.934a1.935,1.935,0,0,1-1.257-2.063c.032-2.267.009-4.536.011-6.8,0-1.339.616-1.951,1.961-1.958.4,0,.8,0,1.269,0,.01-.22.026-.405.026-.591,0-4.536.009-9.071,0-13.607a14.9,14.9,0,0,1,1.019-5.74,14.283,14.283,0,0,1,8.181-8.212,14.044,14.044,0,0,1,12.079.6,14.28,14.28,0,0,1,6.863,7.612,15.072,15.072,0,0,1,1.017,5.741c-.011,4.519,0,9.039,0,13.558v.64c.467,0,.882,0,1.3,0,1.345.007,1.96.62,1.961,1.958,0,2.268-.022,4.536.011,6.8a1.935,1.935,0,0,1-1.257,2.063Zm27.907-10.859c.009-.157.02-.269.02-.381,0-4.68.014-9.359,0-14.039a11.6,11.6,0,0,0-2.408-7.124A11.344,11.344,0,0,0,65.3,84.7,11.226,11.226,0,0,0,59.631,94.77c-.04,4.6-.009,9.2-.009,13.8v.51ZM56.42,116.633H85.488v-4.239H56.42Z" transform="translate(-46.663 -70.171)" fill="#18a291"/>
      <path id="Tracé_2001" data-name="Tracé 2001" d="M188.473,0a1.89,1.89,0,0,1,1.257,2.059c-.037.873,0,1.748-.009,2.623a1.645,1.645,0,1,1-3.271,0c-.006-.874.028-1.75-.009-2.623A1.89,1.89,0,0,1,187.7,0Z" transform="translate(-163.786)" fill="#18a291"/>
      <path id="Tracé_2002" data-name="Tracé 2002" d="M60.128,58.475a1.744,1.744,0,0,1-.966,1.468,1.4,1.4,0,0,1-1.641-.139c-.928-.851-1.83-1.738-2.671-2.676A1.528,1.528,0,0,1,55,55.053a1.509,1.509,0,0,1,2.031-.194c.964.857,1.857,1.8,2.741,2.741a2.679,2.679,0,0,1,.352.875" transform="translate(-47.889 -47.92)" fill="#18a291"/>
      <path id="Tracé_2003" data-name="Tracé 2003" d="M305.272,56.55a4.082,4.082,0,0,1-.532.935c-.708.777-1.462,1.513-2.222,2.239a1.625,1.625,0,1,1-2.277-2.317q1.092-1.138,2.228-2.234a1.554,1.554,0,0,1,1.829-.348,1.712,1.712,0,0,1,.976,1.725" transform="translate(-263.307 -48.025)" fill="#18a291"/>
      <path id="Tracé_2004" data-name="Tracé 2004" d="M3.227,190.216c-.565,0-1.131.018-1.7,0A1.6,1.6,0,0,1,0,188.637a1.565,1.565,0,0,1,1.468-1.626c1.177-.041,2.358-.04,3.535,0a1.547,1.547,0,0,1,1.475,1.613,1.581,1.581,0,0,1-1.556,1.592c-.565.019-1.131,0-1.7,0v0" transform="translate(0 -164.264)" fill="#18a291"/>
      <path id="Tracé_2005" data-name="Tracé 2005" d="M349.852,190.207c-.549,0-1.1.017-1.647,0a1.583,1.583,0,0,1-1.546-1.6,1.549,1.549,0,0,1,1.488-1.6q1.742-.057,3.487,0a1.572,1.572,0,0,1,1.5,1.641A1.6,1.6,0,0,1,351.6,190.2c-.581.021-1.163,0-1.744,0" transform="translate(-304.542 -164.254)" fill="#18a291"/>
      <path id="Tracé_2006" data-name="Tracé 2006" d="M188.482,133.617a8.111,8.111,0,0,1,7.775,7.42,4.782,4.782,0,0,1,.015.869,1.565,1.565,0,0,1-1.7,1.429,1.589,1.589,0,0,1-1.516-1.585,4.9,4.9,0,0,0-1.909-3.857,4.687,4.687,0,0,0-2.478-.991c-.193-.019-.386-.032-.578-.057a1.617,1.617,0,1,1,.2-3.228h.194" transform="translate(-163.898 -117.384)" fill="#18a291"/>
    </g>
  </g>
</svg>
