<svg xmlns="http://www.w3.org/2000/svg" xmlns:xlink="http://www.w3.org/1999/xlink" width="88" height="78" viewBox="0 0 88 78">
  <defs>
    <clipPath id="clip-path">
      <rect id="Rectangle_1723" data-name="Rectangle 1723" width="45.47" height="45.471" fill="#18a291"/>
    </clipPath>
  </defs>
  <g id="sos_medecin" data-name="sos medecin" transform="translate(7594.826 -3625.532)">
    <rect id="Rectangle_1699" data-name="Rectangle 1699" width="88" height="78" rx="12" transform="translate(-7594.826 3625.532)" fill="#ccede9"/>
    <g id="Groupe_1358" data-name="Groupe 1358" transform="translate(-7573.562 3641.797)">
      <g id="Groupe_1357" data-name="Groupe 1357" clip-path="url(#clip-path)">
        <path id="Tracé_2049" data-name="Tracé 2049" d="M5.558,68.178l8.922,8.941a13.172,13.172,0,0,0-1.015,2.1,3.388,3.388,0,0,0,.985,3.4c.705.725,1.429,1.433,2.144,2.148,1.765,1.765,3.567,3.5,5.285,5.306a3.7,3.7,0,0,0,5.436.194.215.215,0,0,1,.077-.047l9.054,9.06c-.042.047-.121.147-.21.236-1.2,1.2-2.394,2.405-3.6,3.6a4.884,4.884,0,0,1-7.259-.013Q13.5,91.237,1.629,79.36a4.887,4.887,0,0,1,.009-7.293q1.745-1.751,3.5-3.5c.113-.113.233-.217.423-.393" transform="translate(0 -59.257)" fill="#18a291"/>
        <path id="Tracé_2050" data-name="Tracé 2050" d="M169.109,22.182c.327-.868.592-1.634.9-2.381a1.352,1.352,0,0,0-.156-1.412,11.743,11.743,0,1,1,11.376,5,11.348,11.348,0,0,1-8.238-1.889,1.467,1.467,0,0,0-1.582-.178c-.71.317-1.457.55-2.3.863M182.7,11.792h-.033c0-.554.018-1.11,0-1.663a3.154,3.154,0,0,0-2.976-3.064,3.022,3.022,0,0,0-3.2,2.618,21.937,21.937,0,0,0-.056,3.9,3.1,3.1,0,0,0,6.16.252,18.2,18.2,0,0,0,.107-2.046m-7.049-1.616c-.044-.36-.057-.67-.121-.969a2.722,2.722,0,0,0-5.32,1.152,2.738,2.738,0,0,0,2.745,2.188,1.174,1.174,0,1,1-1.252,1.227c-.009-.14-.018-.28-.027-.414h-1.579a10.253,10.253,0,0,0,.14,1.05,2.726,2.726,0,1,0,2.606-3.435A1.173,1.173,0,1,1,174.046,9.8c.006.124.017.247.027.38Zm13.318,0a9.9,9.9,0,0,0-.132-1.039,2.724,2.724,0,0,0-5.31,1.213,2.736,2.736,0,0,0,2.738,2.2,1.173,1.173,0,1,1-1.242,1.232c-.009-.14-.015-.281-.023-.419h-1.584a10.232,10.232,0,0,0,.139,1.049,2.726,2.726,0,1,0,2.6-3.434,1.173,1.173,0,1,1,1.215-1.2c.007.126,0,.252,0,.4Z" transform="translate(-145.821 0)" fill="#18a291"/>
        <path id="Tracé_2051" data-name="Tracé 2051" d="M51.361,52.22l1.083-1.134,9.033,9.032L60.345,61.2,51.361,52.22" transform="translate(-44.641 -44.402)" fill="#18a291"/>
        <path id="Tracé_2052" data-name="Tracé 2052" d="M219.055,220.227l1.076-1.017,9.012,9.01-1.069,1.026-9.019-9.019" transform="translate(-190.393 -190.528)" fill="#18a291"/>
        <path id="Tracé_2053" data-name="Tracé 2053" d="M248.78,69.058c0,.539.008,1.077,0,1.616a1.563,1.563,0,0,1-3.125-.015q-.015-1.591,0-3.183a1.563,1.563,0,0,1,3.125.015c.009.522,0,1.045,0,1.567" transform="translate(-213.504 -57.316)" fill="#18a291"/>
      </g>
    </g>
  </g>
</svg>
