<svg xmlns="http://www.w3.org/2000/svg" width="40" height="41" viewBox="0 0 40 41">
  <g id="icon_female_" data-name="icon female " transform="translate(-457 -1288)">
    <ellipse id="Ellipse_26" data-name="Ellipse 26" cx="20" cy="20.5" rx="20" ry="20.5" transform="translate(457 1288)" fill="#e21818"/>
    <path id="female" d="M96.286,23.143a7.143,7.143,0,1,0-8.046,7.086v1.289H86.762a.9.9,0,0,0,0,1.806H88.24V34.8a.9.9,0,1,0,1.806,0V33.324h1.478a.9.9,0,0,0,0-1.806H90.046V30.229A7.153,7.153,0,0,0,96.286,23.143Zm-12.48,0a5.337,5.337,0,1,1,5.337,5.337A5.343,5.343,0,0,1,83.806,23.143Z" transform="translate(388.296 1282.404)" fill="#fff"/>
  </g>
</svg>
