<?xml version="1.0" encoding="UTF-8"?><svg id="a" xmlns="http://www.w3.org/2000/svg" xmlns:xlink="http://www.w3.org/1999/xlink" viewBox="0 0 437.05 305"><defs><style>.gj{clip-path:url(#al);}.gk{clip-path:url(#el);}.gl{fill:#fff;}.gm{clip-path:url(#dw);}.gn{fill:#455a64;}.go{clip-path:url(#ah);}.gp{fill:#e0e0e0;}.gq{clip-path:url(#g`);}.gr{clip-path:url(#bs);}.gs{clip-path:url(#dk);}.gt{clip-path:url(#ab);}.gu{clip-path:url(#d`);}.gv{fill:#eb996e;}.gw{opacity:.6;}.gx{clip-path:url(#fi);}.gy{fill:#5da190;}.h`{clip-path:url(#bx);}.ha{fill:#ffbe9d;}.hb{clip-path:url(#d);}.hc{clip-path:url(#v);}.hd{fill:#ebebeb;}.he{fill:none;}.hf{clip-path:url(#p);}.hg{fill:#774f44;}.hh{opacity:.2;}.hi{clip-path:url(#cb);}.hj{clip-path:url(#ge);}.hk{fill:#bf897b;}.hl{clip-path:url(#k);}.hm{fill:#263238;}.hn{clip-path:url(#g);}</style><clipPath id="d"><rect class="he" y="-120.26" width="437.05" height="525.46"/></clipPath><clipPath id="g"><rect class="he" y="-120.26" width="437.05" height="525.46"/></clipPath><clipPath id="k"><rect class="he" y="-120.26" width="437.05" height="525.46"/></clipPath><clipPath id="p"><rect class="he" x="118.76" y="20.61" width="32.23" height="27.17"/></clipPath><clipPath id="v"><rect class="he" x="268.88" y="82.56" width="24.24" height="20.43"/></clipPath><clipPath id="ab"><rect class="he" x="272.93" y="13.74" width="16.15" height="13.74"/></clipPath><clipPath id="ah"><rect class="he" x="60.51" y="12.84" width="16.11" height="13.95"/></clipPath><clipPath id="al"><rect class="he" y="-120.26" width="437.05" height="525.46"/></clipPath><clipPath id="bs"><rect class="he" x="338.85" y="153.94" width="49.65" height="70.37"/></clipPath><clipPath id="bx"><rect class="he" x="341.67" y="257.07" width="33.44" height="16.49"/></clipPath><clipPath id="cb"><rect class="he" y="-120.26" width="437.05" height="525.46"/></clipPath><clipPath id="d`"><rect class="he" x="83.64" y="299.4" width="39.14" height="27.67"/></clipPath><clipPath id="dk"><rect class="he" x="94.37" y="204.26" width="21.76" height="42.98"/></clipPath><clipPath id="dw"><rect class="he" x="36.66" y="181.25" width="36.36" height="17.54"/></clipPath><clipPath id="el"><rect class="he" y="-120.26" width="437.05" height="525.46"/></clipPath><clipPath id="fi"><rect class="he" x="148.07" y="301.75" width="126.39" height="24.41"/></clipPath><clipPath id="g`"><rect class="he" x="166.74" y="282.95" width="95.27" height="25.2"/></clipPath><clipPath id="ge"><rect class="he" x="256.89" y="217.25" width="5.58" height="48.49"/></clipPath></defs><rect class="he" x="-493.31" y="0" width="979" height="305" rx="24" ry="24"/><g id="b" transform="translate(-391 -212)"><g id="c" transform="translate(884.312 91.74)"><g class="hb"><g id="e"><g id="f"><g class="hn"><g id="h"><path id="i" class="hd" d="M206.58-5.65c-.07-1.02-.46-2-1.1-2.8-.6-.81-1.44-1.4-2.4-1.71-1.68-.49-3.49,.21-4.4,1.71-.75-1.52-2.39-2.37-4.06-2.12-.99,.17-1.9,.65-2.61,1.37-.75,.71-1.26,1.62-1.47,2.63-.24,1.29-.07,2.62,.51,3.79,.68,1.2,1.63,2.22,2.78,2.98,1.86,1.3,4.31,2.93,4.31,2.93,0,0,2.26-1.47,4.28-2.51,1.24-.6,2.32-1.48,3.15-2.58,.72-1.09,1.08-2.39,1.01-3.69"/></g></g></g><g id="j"><g class="hl"><g id="l"><path id="m" class="gy" d="M150.94,29.58c-.23-2.04-1.07-3.96-2.43-5.5-1.27-1.56-2.99-2.68-4.93-3.21-3.4-.84-6.94,.71-8.64,3.77-1.61-2.96-4.96-4.54-8.28-3.9-1.96,.43-3.74,1.46-5.09,2.96-1.43,1.47-2.37,3.34-2.7,5.37-.38,2.58,.08,5.22,1.32,7.52,1.45,2.34,3.43,4.29,5.79,5.71,3.82,2.43,8.84,5.49,8.84,5.49,0,0,4.4-3.12,8.33-5.35,2.43-1.29,4.51-3.15,6.07-5.41,1.35-2.24,1.95-4.85,1.7-7.45"/><g id="n" class="gw" transform="translate(118.762 140.874)"><g id="o"><g class="hf"><g id="q"><path id="r" class="gl" d="M150.94,29.58c-.23-2.04-1.07-3.96-2.43-5.5-1.27-1.56-2.99-2.68-4.93-3.21-3.4-.84-6.94,.71-8.64,3.77-1.61-2.96-4.96-4.54-8.28-3.9-1.96,.43-3.74,1.46-5.09,2.96-1.43,1.47-2.37,3.34-2.7,5.37-.38,2.58,.08,5.22,1.32,7.52,1.45,2.34,3.43,4.29,5.79,5.71,3.82,2.43,8.84,5.49,8.84,5.49,0,0,4.4-3.12,8.33-5.35,2.43-1.29,4.51-3.15,6.07-5.41,1.35-2.24,1.95-4.85,1.7-7.45"/></g></g></g></g><path id="s" class="gy" d="M293.08,89.3c-.17-1.53-.81-2.97-1.83-4.13-.95-1.17-2.25-2.02-3.71-2.41-2.56-.63-5.22,.53-6.5,2.84-1.21-2.23-3.73-3.42-6.22-2.93-1.48,.32-2.81,1.1-3.82,2.22-1.08,1.1-1.79,2.51-2.03,4.03-.28,1.94,.06,3.93,.99,5.66,1.09,1.76,2.58,3.23,4.35,4.29,2.87,1.83,6.65,4.13,6.65,4.13,0,0,3.3-2.34,6.26-4.02,1.82-.97,3.39-2.37,4.57-4.07,1.02-1.68,1.47-3.64,1.28-5.6"/><g id="t" class="gw" transform="translate(268.882 202.825)"><g id="u"><g class="hc"><g id="w"><path id="x" class="gl" d="M293.08,89.3c-.17-1.53-.81-2.97-1.83-4.13-.95-1.17-2.25-2.02-3.71-2.41-2.56-.63-5.22,.53-6.5,2.84-1.21-2.23-3.73-3.42-6.22-2.93-1.48,.32-2.81,1.1-3.82,2.22-1.08,1.1-1.79,2.51-2.03,4.03-.28,1.94,.06,3.93,.99,5.66,1.09,1.76,2.58,3.23,4.35,4.29,2.87,1.83,6.65,4.13,6.65,4.13,0,0,3.3-2.34,6.26-4.02,1.82-.97,3.39-2.37,4.57-4.07,1.02-1.68,1.47-3.64,1.28-5.6"/></g></g></g></g><path id="y" class="gy" d="M289.07,19.02c0-.71-.15-1.42-.45-2.06-.59-1.3-1.7-2.3-3.05-2.76-1.68-.49-3.49,.21-4.4,1.71-.75-1.52-2.39-2.38-4.06-2.12-1.41,.27-2.64,1.12-3.4,2.33-.39,.6-.64,1.28-.72,1.98-.17,1.19,.03,2.4,.55,3.48,.67,1.2,1.63,2.22,2.78,2.98,1.86,1.3,4.31,2.93,4.31,2.93,0,0,2.26-1.47,4.28-2.5,1.24-.6,2.32-1.48,3.15-2.58,.67-1,1.02-2.18,1.01-3.38"/><g id="a`" class="gw" transform="translate(272.926 134.002)"><g id="aa"><g class="gt"><g id="ac"><path id="ad" class="gl" d="M289.07,19.02c0-.71-.15-1.42-.45-2.06-.59-1.3-1.7-2.3-3.05-2.76-1.68-.49-3.49,.21-4.4,1.71-.75-1.52-2.39-2.38-4.06-2.12-1.41,.27-2.64,1.12-3.4,2.33-.39,.6-.64,1.28-.72,1.98-.17,1.19,.03,2.4,.55,3.48,.67,1.2,1.63,2.22,2.78,2.98,1.86,1.3,4.31,2.93,4.31,2.93,0,0,2.26-1.47,4.28-2.5,1.24-.6,2.32-1.48,3.15-2.58,.67-1,1.02-2.18,1.01-3.38"/></g></g></g></g><path id="ae" class="gy" d="M76.54,17.04c-.11-.7-.38-1.37-.79-1.96-.8-1.19-2.06-1.99-3.47-2.21-1.74-.2-3.4,.79-4.06,2.42-.99-1.37-2.75-1.94-4.36-1.42-1.34,.5-2.41,1.54-2.96,2.86-.28,.65-.41,1.36-.38,2.08,.03,1.2,.43,2.37,1.12,3.34,.87,1.07,1.97,1.92,3.24,2.47,2.05,.97,4.74,2.17,4.74,2.17,0,0,1.99-1.82,3.8-3.18,1.13-.79,2.04-1.85,2.68-3.07,.49-1.1,.64-2.32,.44-3.5"/><g id="af" class="gw" transform="translate(60.512 133.096)"><g id="ag"><g class="go"><g id="ai"><path id="aj" class="gl" d="M76.54,17.04c-.11-.7-.38-1.37-.79-1.96-.8-1.19-2.06-1.99-3.47-2.21-1.74-.2-3.4,.79-4.06,2.42-.99-1.37-2.75-1.94-4.36-1.42-1.34,.5-2.41,1.54-2.96,2.86-.28,.65-.41,1.36-.38,2.08,.03,1.2,.43,2.37,1.12,3.34,.87,1.07,1.97,1.92,3.24,2.47,2.05,.97,4.74,2.17,4.74,2.17,0,0,1.99-1.82,3.8-3.18,1.13-.79,2.04-1.85,2.68-3.07,.49-1.1,.64-2.32,.44-3.5"/></g></g></g></g></g></g></g><g id="ak"><g class="gj"><g id="am"><path id="an" class="hm" d="M419.33,73.18c-3.05-3.39-6.76-6.61-7.76-11.07-.92-4.09,.6-8.73-1.48-12.37-2.57-4.48-9.18-4.97-12.29-9.09-1.51-2-2-4.61-3.48-6.62-2.54-3.42-7.36-4.27-11.59-3.76s-8.29,2.08-12.53,2.44c-5.82,.49-11.86-1.34-17.44,.41-6.15,1.93-9.86,7.45-13.8,12.79l-5.16,6.21c-1.05,1.07-2.21,2.03-3.45,2.88-2.18,1.46-4.69,2.47-6.56,4.31-4,3.94-3.56,11.41,.88,14.86-4.57,1.64-7.53,6.07-7.29,10.92,.18,2.59,1.29,5,2.1,7.46s1.31,5.21,.31,7.6-4.02,4.06-6.29,2.82c.88,3.39,3.25,6.2,6.43,7.65-1.22,1.28-2.88,2.04-4.64,2.14,4.88,11.04,17.83,16.69,29.89,16.58s23.55-4.85,34.68-9.52l32.37-8.92c2.84-.69,3.98-4.18,3.9-7.11s-.87-5.96,.14-8.71c1.38-3.77,5.71-5.82,7.15-9.57,1.64-4.26-1.02-8.94-4.07-12.33"/><path id="ao" class="ha" d="M372.66,38.41l-1.79-.08c-19.34,.3-29.89,16.89-29.05,36.21l-.72,66.56c-.13,12.5,9.89,22.74,22.4,22.88,12.18,.13,22.27-9.4,22.85-21.56,.17-3.49,.29-5.94,.31-5.94s18.67-2.09,19.69-20.62c.49-8.95,.02-27.46-.61-44.21-.68-18-15.07-32.47-33.07-33.24"/><path id="ap" class="gv" d="M386.65,136.47s-11.71,.18-23.83-8.17c0,0,5.01,13.78,23.58,12.9l.25-4.73Z"/><path id="aq" class="hm" d="M397.96,86.46c-.05,1.44-1.23,2.57-2.67,2.56-1.4,.05-2.57-1.04-2.62-2.44v-.06c.05-1.43,1.23-2.57,2.66-2.56,1.4-.05,2.58,1.04,2.63,2.44v.07"/><path id="ar" class="hm" d="M401.43,79.16c-.34,.33-2.29-1.24-5.13-1.35-2.84-.15-5,1.22-5.29,.86-.14-.16,.22-.77,1.15-1.39,1.27-.8,2.76-1.19,4.26-1.11,1.48,.06,2.91,.59,4.07,1.51,.85,.71,1.12,1.35,.95,1.49"/><path id="as" class="hm" d="M370.92,86.46c-.05,1.44-1.23,2.57-2.67,2.56-1.4,.05-2.57-1.04-2.63-2.44v-.06c.05-1.44,1.23-2.57,2.66-2.56,1.4-.05,2.58,1.04,2.63,2.44v.06"/><path id="at" class="hm" d="M373.48,79.12c-.34,.33-2.29-1.24-5.14-1.35-2.84-.15-5,1.22-5.29,.86-.14-.16,.21-.77,1.15-1.39,1.27-.8,2.75-1.19,4.25-1.12,1.48,.06,2.91,.59,4.07,1.51,.85,.71,1.12,1.35,.95,1.49"/><path id="au" class="hm" d="M382.76,101.45c0-.16,1.78-.39,4.66-.64,.73-.04,1.42-.16,1.57-.65,.09-.75-.04-1.51-.39-2.18-.61-1.79-1.25-3.67-1.91-5.63-2.65-8.02-4.53-14.59-4.21-14.7s2.73,6.31,5.38,14.32c.64,1.98,1.24,3.86,1.82,5.66,.42,.9,.51,1.91,.26,2.87-.24,.51-.69,.88-1.24,1.01-.41,.09-.83,.13-1.24,.12-2.89,.03-4.69-.03-4.69-.2"/><path id="av" class="hm" d="M374.29,103.06c.46,0,.34,3.09,2.89,5.4s5.86,2.11,5.87,2.54c.03,.2-.76,.57-2.15,.55-1.81-.05-3.55-.74-4.9-1.95-1.3-1.16-2.1-2.78-2.23-4.51-.06-1.3,.32-2.05,.52-2.02"/><path id="aw" class="hm" d="M373.82,67.56c-.31,.76-3.14,.27-6.5,.53-3.36,.19-6.1,1.05-6.52,.34-.18-.34,.32-1.05,1.44-1.75,3.03-1.74,6.69-1.98,9.92-.67,1.21,.55,1.8,1.18,1.66,1.54"/><path id="ax" class="hm" d="M400.66,69.65c-.53,.63-2.46-.13-4.82-.26-2.35-.21-4.38,.25-4.81-.45-.19-.34,.15-.97,1.05-1.55,2.46-1.4,5.53-1.17,7.76,.57,.8,.7,1.05,1.38,.82,1.68"/><path id="ay" class="ha" d="M342.74,88.33c-.31-.15-12.58-4.31-12.72,8.38s12.63,10.21,12.66,9.85,.06-18.23,.06-18.23"/><path id="b`" class="gv" d="M338.86,101.71c-.06-.04-.22,.15-.6,.32-.53,.22-1.12,.22-1.65,.01-1.33-.51-2.44-2.65-2.48-4.94-.02-1.09,.2-2.17,.65-3.16,.25-.8,.88-1.43,1.68-1.68,.53-.13,1.07,.13,1.3,.62,.17,.36,.08,.61,.15,.63,.04,.03,.27-.21,.18-.74-.07-.31-.24-.6-.49-.8-.35-.27-.78-.39-1.22-.34-1.06,.2-1.94,.93-2.33,1.94-.55,1.09-.83,2.3-.81,3.53,.05,2.56,1.34,4.97,3.17,5.52,.69,.21,1.43,.09,2.03-.32,.4-.31,.47-.59,.42-.62"/><path id="ba" class="hm" d="M342.32,51.13c2-3.63,4.83-6.74,8.25-9.09,3.61-3.04,7.75-5.38,12.21-6.91,6.98-2.32,14.92-2.18,21.44,1.22,2.41,1.21,4.49,2.98,6.06,5.17,4.55,2.82,9.07,8.09,7.27,9.08l-2.52-2.67s-1.1,2.27-5.7,5.75c-.1,.08-.21,.15-.33,.21-.41,.3-.86,.56-1.34,.75l-.25,.16c-5.42,1.81-8.94,1.08-14.33-.8-3.73-1.3-7.12-3.42-10.74-5.01-3.19,0-6.28,1.14-8.69,3.24-.38,.31-.72,.66-1.03,1.04-1.22,1.88-1.55,4.19-.91,6.34,.5,2.15,1.49,4.15,2.11,6.27,1.13,3.89,.96,8.02,.78,12.07-.26,5.7-.58,11.63-3.38,16.6-1.31,2.32-4.16,4.64-6.47,2.16-.94-1.07-1.41-2.46-1.31-3.88,.16-3.87-3.24-5.65-5.01-8.46-1.43-2.27-1.7-5.07-1.77-7.76-.23-8.8,1.39-17.78,5.66-25.48"/><path id="bb" class="gy" d="M342.74,139.85s15.26,14.15,27.55,14.09,15.25-6.52,15.25-6.52l6.92,8.81s.65,57.48,1.42,58.49-7.23,6.01-7.23,6.01l-40.8-58.56-3.11-22.31Z"/><path id="bc" class="hd" d="M429.15,351.06s5.77-1.9,7.35-7.26-2.73-58.86-2.73-58.86l-3.25-3.23,2.48-1.99v-17l-5.79-35.79s-5.68-49.16-12.59-52.68l-10.7,48.68,7.87,114.18,17.36,13.95Z"/><path id="bd" class="hd" d="M385.54,147.41h0l.81-5c1.86,1.45,6.79,9.17,6.79,9.17,6.78,5.73,20.92,20.21,23.49,25.87,3.66,8.04,4.02,44.96,4.02,44.96l-1.81,182.6-122.11,.18,1.97-82.72,3.88-163.2,29.98-15.09,8.03-8.84,50.49,82.3-.36-55.42c-.03-5.38-1.86-10.59-5.18-14.82"/><path id="be" class="hd" d="M256.76,297.15c-3.18-6.21-3.82-13.4-1.79-20.07,6.87-22.95,28.23-93.98,32.12-102.82,4.27-9.7,16.46-15.48,16.46-15.48l18.75,49.24-4.77,22.96-17.18,49.04,50.26,58.8-35.92,29.55s-54.17-64.08-57.82-71.03c-.04-.07-.07-.14-.11-.21"/><path id="bf" class="hm" d="M393.11,405.2c-.02-.17-.03-.33-.03-.5,0-.36-.01-.85-.02-1.47v-5.64c.03-4.93,.07-12,.12-20.73,.13-17.5,.42-41.68,.37-68.38-.03-13.36-.15-26.08-.37-37.65-.13-5.78-.26-11.28-.37-16.42-.23-5.14-.45-9.92-.65-14.3-.38-8.72-.68-15.78-.89-20.7-.09-2.42-.16-4.31-.21-5.63-.02-.62-.03-1.1-.04-1.46-.01-.17,0-.33,0-.5,.03,.16,.05,.33,.06,.5,.03,.36,.06,.84,.1,1.46,.08,1.32,.19,3.21,.33,5.62,.26,4.92,.64,11.99,1.1,20.7,.22,4.38,.47,9.16,.73,14.3,.14,5.15,.28,10.64,.43,16.43,.24,11.57,.39,24.3,.42,37.66,.05,26.71-.32,50.89-.56,68.39-.14,8.73-.25,15.8-.33,20.73-.05,2.42-.09,4.31-.12,5.64-.02,.62-.04,1.1-.05,1.46,0,.17-.01,.33-.04,.5"/><path id="bg" class="hm" d="M332.54,144.19c.16,.17,.3,.35,.42,.55,.28,.42,.66,.96,1.13,1.65,1,1.51,2.4,3.62,4.15,6.26,3.55,5.43,8.51,13.02,14.3,21.89l-.18-.13,10.71,2.68,.39,.1-.18,.36-3.73,7.29c-.2,.38-.39,.77-.57,1.12l-.03-.35,23.47,30.46,7.03,9.24c.79,1.07,1.42,1.91,1.88,2.53,.19,.27,.35,.49,.48,.67,.06,.07,.11,.15,.15,.24,0,0-.08-.06-.2-.2l-.53-.63-1.98-2.45-7.19-9.11-23.63-30.35-.13-.16,.09-.18,.57-1.12c1.28-2.49,2.54-4.95,3.74-7.28l.21,.46c-3.72-.94-7.32-1.85-10.7-2.71l-.12-.03-.06-.1c-5.71-8.92-10.6-16.55-14.1-22.01-1.69-2.68-3.04-4.83-4.01-6.35-.43-.71-.78-1.28-1.05-1.71-.13-.19-.24-.39-.33-.61"/><path id="bh" class="hm" d="M391.94,228.74c.06-.28,.16-.56,.28-.82,.19-.54,.53-1.3,.88-2.32,.73-2.03,1.67-5,2.7-8.73,2.02-7.46,4.32-17.95,6.33-29.7l.04,.22-.94-1.53-5.06-8.25-.4-.65,.74,.18,6.01,1.44-.36,.39-6.6-19.68-1.84-5.67c-.19-.62-.34-1.12-.46-1.52-.07-.17-.11-.35-.12-.54,.09,.16,.17,.33,.22,.5l.55,1.49,2,5.61c1.7,4.88,4.06,11.67,6.82,19.6l.18,.52-.54-.13-6.01-1.42,.34-.47,5.08,8.25,.94,1.53,.06,.1-.02,.12c-1.67,10.01-3.85,19.93-6.54,29.71-1.08,3.72-2.1,6.69-2.9,8.7-.38,1.01-.77,1.76-.99,2.28-.11,.27-.24,.53-.39,.77"/><path id="bi" class="hm" d="M419.98,203.91c.18,0,.32,27.99,.32,62.5s-.14,62.51-.32,62.51-.32-27.98-.32-62.51,.14-62.5,.32-62.5"/><path id="bj" class="hm" d="M284.43,332.19s.21,.2,.58,.63l1.63,1.89,6.15,7.24,22.11,26.27-.37-.04c10.33-8.52,22.6-18.63,35.89-29.59l-.04,.45-11.57-13.53-38.65-45.3-.1-.12,.05-.15c5.21-14.73,9.54-26.97,12.58-35.56,1.52-4.25,2.72-7.6,3.55-9.91,.41-1.12,.73-1.98,.95-2.6,.22-.59,.35-.88,.35-.88,0,0-.08,.31-.27,.91-.21,.62-.5,1.5-.88,2.63-.8,2.33-1.95,5.69-3.41,9.96-2.99,8.61-7.24,20.87-12.36,35.64l-.05-.27,38.73,45.24,11.57,13.54,.21,.25-.25,.21-35.96,29.51-.2,.17-.17-.2-21.94-26.42-6.04-7.34-1.57-1.93c-.35-.44-.52-.68-.52-.68"/><path id="bk" class="hm" d="M295.05,165.51c.17-.04,.35-.06,.52-.05,.34,0,.85-.04,1.51,0,1.85,.07,3.69,.32,5.5,.74,12.3,2.72,21.95,12.25,24.82,24.52,.44,1.8,.7,3.64,.8,5.49,.05,.65,.02,1.16,.02,1.51,.01,.18,0,.35-.04,.52-.12-.67-.2-1.34-.23-2.01-.19-1.82-.52-3.63-.99-5.4-3.06-11.97-12.47-21.28-24.48-24.19-1.78-.45-3.58-.76-5.41-.93-.68-.02-1.35-.09-2.02-.2"/><path id="bl" class="hm" d="M281,283.7c.71-.69,1.54-1.26,2.44-1.68,4.27-2.27,9.16-3.08,13.93-2.3,.99,.11,1.95,.38,2.85,.81-.03,.22-4.45-1.1-9.9-.16-5.46,.86-9.23,3.53-9.32,3.34"/><path id="bm" class="hm" d="M370.29,229.44c.93,.77,1.46,1.92,1.44,3.12-.12,1.92,0,15,0,15,0,0,.48,1.92-1.44,1.92v-20.04Z"/><rect id="bn" class="hm" x="366.66" y="227.31" width="4.01" height="6.57"/><path id="bo" class="hm" d="M367.46,228.06h2.46v-2.53c0-.68-.55-1.23-1.23-1.23-.68,0-1.22,.55-1.23,1.23v2.53Z"/><path id="bp" class="hm" d="M336.37,233.48c0-.18,9.01-.32,20.12-.32s20.12,.14,20.12,.32-9.01,.32-20.12,.32-20.12-.14-20.12-.32"/><g id="bq" class="hh" transform="translate(338.849 274.196)"><g id="br"><g class="gr"><g id="bt"><path id="bu" d="M388.5,224.3l-1.85-1.77-33.86-32.37,3.71-10.6h-5.87l-11.77-25.63,13.43,20.77,10.7,2.69-4.31,8.4"/></g></g></g></g><g id="bv" class="hh" transform="translate(341.666 377.328)"><g id="bw"><g class="h`"><g id="by"><path id="c`" d="M360.27,267.92c3.36-.12,6.63-1.12,9.47-2.9,2.75-1.89,4.65-5.65,5.36-7.95-.23,2.88-.76,5.72-1.57,8.49-.83,2.58-2.5,4.81-4.74,6.34-2.63,1.64-5.91,1.82-9,1.57-4.15-.34-8.21-1.36-12.02-3.01-2.71-1.18-5.55-3.03-6.11-5.94,5.81,2.71,12.22,3.89,18.61,3.41"/></g></g></g></g></g></g></g><g id="ca"><g class="hi"><g id="cc"><path id="cd" class="hm" d="M29.61,74.29s-7.95,29.73-8.64,50.76l-.23,7.01s17.55,14.57,32.26,15.46l12.33-30.33L29.61,74.29Z"/><path id="ce" class="hm" d="M107.53,92.52c-3.35-14.5-4.64-31.37-16.7-40.83-8.95-7.01-19.14-8.97-30.5-8.49-5.59,.23-11.91,2.81-16.78,5.57-6.68,3.78-9.51,11.45-12.73,18.42-6.46,13.96-5.64,32.85-1.26,38.11l58.32,30.8c11.65-6.06,18.94-8.48,20.8-24,.75-6.54,.37-13.16-1.15-19.57"/><path id="cf" class="hk" d="M89.57,63.21l-36.7-10.83c-11.82-1.72-20.29,12.59-21.51,24.47-1.35,13.2-2.49,29.38-1.31,39.32,2.37,19.99,17.5,23.11,17.5,23.11,0-.07,.04,.3-.08,6.2l-.39,9.57c-.23,3.88,.92,7.71,3.23,10.83,5.41,7.01,15.28,7.95,26.91,3.65,6.74-2.49,11.43-7.51,11.95-14.35l6.38-84.63c.21-3.62-2.38-6.81-5.97-7.33"/><path id="cg" class="hm" d="M38.14,94.99c-.07,1.38,.98,2.56,2.35,2.67,1.34,.16,2.55-.8,2.71-2.13v-.06c.07-1.38-.97-2.56-2.35-2.67-1.34-.16-2.55,.8-2.71,2.13v.06"/><path id="ch" class="hm" d="M34.43,88.83c.3,.35,2.29-1.01,5.03-.89,2.74,.08,4.69,1.57,5.01,1.24,.15-.14-.15-.76-1-1.43-1.15-.87-2.55-1.36-3.99-1.4-1.43-.06-2.83,.33-4.02,1.12-.87,.61-1.18,1.2-1.03,1.36"/><path id="ci" class="hm" d="M63.69,94.74c-.07,1.38,.98,2.56,2.35,2.67,1.34,.16,2.55-.8,2.71-2.14v-.06c.07-1.38-.97-2.56-2.35-2.67-1.34-.16-2.55,.8-2.71,2.13v.06"/><path id="cj" class="hm" d="M61.39,89.15c.3,.35,2.29-1.01,5.03-.89,2.74,.08,4.7,1.57,5.01,1.24,.15-.14-.14-.76-1-1.43-1.15-.87-2.55-1.36-3.99-1.4-1.43-.06-2.83,.33-4.02,1.12-.87,.61-1.18,1.2-1.03,1.36"/><path id="ck" class="hm" d="M50.71,106.93c.02-.16-1.67-.52-4.42-.98-.7-.1-1.35-.26-1.45-.75-.03-.73,.16-1.44,.55-2.06,.72-1.67,1.48-3.42,2.28-5.25,3.17-7.48,5.5-13.63,5.2-13.76s-3.12,5.83-6.29,13.31c-.76,1.84-1.5,3.6-2.19,5.28-.47,.83-.64,1.79-.47,2.73,.19,.51,.6,.9,1.11,1.07,.38,.12,.78,.19,1.18,.21,2.77,.26,4.5,.34,4.51,.18"/><path id="cl" class="hg" d="M47.54,139.29c9.35,.51,18.65-1.58,26.88-6.05,0,0-7.12,13.64-26.93,11l.05-4.95Z"/><path id="cm" class="hg" d="M59.57,112.4c-.76-1.27-2.11-2.07-3.58-2.14-2.07-.24-4.11,.68-5.32,2.38-.43,.78-.55,1.7-.33,2.56,.17,.44,.03,.22,.36,.54,1.09,1.21,2.47,2.14,4,2.7,1.7,.5,3.52-.09,4.61-1.49,.93-1.35,1.04-3.1,.27-4.55"/><path id="cn" class="hm" d="M59.2,109.26c-.44-.05-.58,2.93-3.22,4.93s-5.79,1.53-5.83,1.94c-.05,.18,.68,.61,2.02,.71,1.74,.1,3.46-.41,4.86-1.45,1.34-1,2.24-2.48,2.51-4.14,.17-1.24-.13-1.99-.33-1.98"/><path id="co" class="hm" d="M60.35,79.12c.2,.77,2.96,.68,6.12,1.38,3.18,.63,5.67,1.82,6.16,1.2,.22-.3-.16-1.04-1.14-1.86-2.65-2.06-6.1-2.78-9.36-1.96-1.22,.36-1.87,.89-1.79,1.25"/><path id="cp" class="hm" d="M34.65,81.45c.62,.54,2.62-.4,5.13-.8,2.49-.47,4.7-.26,5.1-.97,.17-.35-.26-.91-1.27-1.36-1.37-.54-2.87-.68-4.32-.41-1.45,.23-2.81,.86-3.92,1.83-.8,.76-1,1.44-.72,1.71"/><path id="cq" class="hm" d="M53.38,50.24c-.03,.14-.06,.29-.09,.43l.07,.03c0-.15,.01-.31,.03-.46"/><path id="cr" class="hm" d="M79.04,147.31c.56-5.21-1.53-10.44-.93-15.64,.64-5.52,4.22-10.24,5.68-15.6,2.35-8.58-.88-17.7-2.06-26.57-4.97-.61-9.61-3.6-12.92-7.46-3.98-4.64-6.39-10.4-8.74-16.05,.15,5.58,2.04,10.98,5.4,15.44-2.27,.35-4.56-.4-6.19-2.01-1.59-1.61-2.83-3.53-3.63-5.64-2.15-5.03-3.34-10.42-3.51-15.89-.74,7.83,.14,15.73,2.6,23.2-1.43-.26-2.91-.21-4.32,.16-1.44,.21-3.09,.17-4.11-.87-.62-.76-1.01-1.68-1.12-2.65-1.37-6.65-1.6-13.49-.67-20.21-1.88,3.57-3.41,7.33-4.56,11.2-1.15,3.9-1.17,8.04-.08,11.96-.69,.67-1.79,.66-2.47-.02-.63-.69-1.01-1.57-1.08-2.49-.52-3.34,.07-6.74,.65-10.06-1.99,3.52-2.65,7.61-3.74,11.5s-2.85,7.88-6.23,10.1c-.57-5.08-.4-10.21,.5-15.24,.67-4.16,2.65-8.3,4.47-12.1,1.94-4.22,4.67-8.03,8.05-11.21,5.85-5.13,8.3-2.92,12.04-.96l.44,.18c.01-.09,.02-.18,.03-.27l.17-.8c9.79-2.19,19.98-1.71,29.52,1.38,7.04,2.3,15.71,9.54,19.3,16.03l.2,.37c8.31,14.99,13.79,32.37,14.19,69.94l-36.9,10.3Z"/><path id="cs" class="hm" d="M94.69,194.47c-.05-.5-.04-1,.04-1.5,.13-1.36,.38-2.7,.73-4.02,2.34-8.9,8.88-16.1,17.51-19.29,1.28-.48,2.59-.85,3.93-1.11,.49-.12,.98-.18,1.49-.18,.03,.12-2.09,.44-5.25,1.72-8.36,3.35-14.71,10.35-17.24,18.99-.97,3.27-1.08,5.41-1.21,5.39"/><path id="ct" class="gp" d="M7.62,303.25s-2.3,38.59,7.85,53.68l7.5-25.42v-27.98l-15.36-.28Z"/><path id="cu" class="gy" d="M85.92,148.59s-21.37,16.16-31.78,14.33c-8.34-1.46-6.9-14.14-6.9-14.14l-4.05,8.76-8.74,34.98,3.7,16.46,19.85-12.25,27.92-48.13Z"/><path id="cv" class="gp" d="M12.95,218.46c2.24-23.08,30-63.06,30-63.06l4.39-7.1-4.37,19.61s-4.35,28.62-4.97,29.22l24.47-23.7,27.51-29.14,5.45,7.8,24.15,13.39-2.46,75.82-8.65,22.22s25.51,69.82,28.81,94.57l5.52,46.93-130.22-.21s4.57-73.41,5.08-89.08,1.64-50.36,1.64-50.36c0,0-8.59-23.83-6.35-46.91"/><path id="cw" class="hm" d="M142.8,405.01c-.04-.14-.07-.28-.08-.42-.05-.32-.11-.73-.18-1.25-.15-1.14-.36-2.76-.63-4.83-.52-4.24-1.27-10.3-2.19-17.78-.46-3.76-.95-7.87-1.49-12.28-.27-2.21-.54-4.49-.82-6.84-.28-2.36-.55-4.77-1-7.22-1.86-9.8-4.93-20.38-8.25-31.41-1.84-5.99-3.65-11.83-5.55-17.38s-3.73-10.89-5.45-15.92c-3.43-10.06-6.45-18.95-8.89-26.09l-.03-.08,.03-.07c2.43-6.07,4.37-10.92,5.72-14.29l1.56-3.81c.17-.41,.31-.73,.42-.98,.04-.11,.1-.22,.16-.33-.02,.12-.05,.24-.1,.35-.09,.25-.21,.58-.36,1-.35,.91-.83,2.2-1.46,3.85-1.31,3.39-3.19,8.27-5.54,14.36v-.15l9.04,26.04,5.49,15.91c1.91,5.56,3.72,11.4,5.57,17.39,3.32,11.05,6.38,21.63,8.22,31.5,.44,2.47,.71,4.91,.98,7.26s.53,4.64,.79,6.85c.5,4.41,.97,8.53,1.4,12.29,.84,7.49,1.52,13.56,1.99,17.8,.22,2.07,.39,3.7,.51,4.84,.05,.53,.09,.94,.12,1.26,.02,.14,.03,.29,.02,.43"/><g id="cx" class="hh" transform="translate(83.637 419.656)"><g id="cy"><g class="gu"><g id="da"><path id="db" d="M122.78,305.04s-17.6,22.73-21.77,22-8.3-8.67-8.3-8.67l-4.59-2.14-4.49-8.18,9.69-8.66,29.45,5.65Z"/></g></g></g></g><path id="dc" class="gp" d="M38.94,161.23s-10.29,4.38-13.65,9.63-5.6,28.11-5.6,28.11l16.35-27.54,2.9-10.21Z"/><path id="dd" class="hk" d="M54.03,306.32l16.18-6,12.32-8.29,10.49,16.8-4.75,2.85s-.13,4.07-.15,4.56-1.61,4.52-14.66,4.25-16.09-6.89-16.09-6.89c0,0-6.78,7.77-9.59,8.99s-5.47-2.46-5.47-2.46l11.7-13.81Z"/><path id="de" class="hk" d="M19.07,272.56s-6.16,6.46-7.66,11.52-.63,19.3-.63,19.3l1.77,.06s-.04,9.33,2.57,9.63,5.09,.39,5.23-3.83c-.09-3.89-.48-7.76-1.18-11.58l-.12-25.1Z"/><path id="df" class="hm" d="M31.53,405.01c-.03-.18-.04-.36-.04-.54-.01-.39-.03-.91-.06-1.58-.04-1.42-.09-3.47-.16-6.09-.11-5.32-.26-12.97-.45-22.4-.32-18.95-.76-45.06-1.25-73.92-.93-28.86-1.1-55.05,.49-73.94,.59-7.47,2.14-14.83,4.6-21.91,.43-1.25,.88-2.34,1.3-3.27,.39-.94,.75-1.73,1.07-2.35,.3-.6,.54-1.07,.71-1.42,.07-.16,.16-.32,.26-.47-.05,.17-.12,.34-.2,.5-.16,.35-.38,.83-.65,1.44-.3,.63-.64,1.42-1.01,2.37-.39,.94-.82,2.03-1.24,3.28-2.36,7.08-3.84,14.43-4.39,21.87-1.46,18.85-1.23,45.02-.3,73.87,.42,28.86,.79,54.98,1.07,73.93,.1,9.44,.19,17.08,.25,22.41,.01,2.62,.03,4.67,.04,6.09,0,.67,0,1.2,0,1.58,0,.18,0,.36-.02,.54"/><path id="dg" class="hm" d="M38.94,161.23c.01,.28,0,.56-.03,.84-.04,.6-.1,1.4-.18,2.42-.18,2.17-.44,5.24-.76,9.09v.1l-.1,.05-2.77,1.59,.11-.2c.47,6.37,1.06,14.47,1.74,23.65l-.4-.26,21.98-7.95,7.03-2.53-.21,.35c-.35-2.41-.69-4.77-1.03-7.08l-.07-.52,.49,.18,8.37,2.97-.35,.11,16.23-23.06,4.69-6.58c.53-.73,.95-1.3,1.27-1.74,.14-.21,.29-.4,.47-.58-.11,.22-.24,.43-.38,.63-.29,.44-.69,1.04-1.19,1.79-1.09,1.59-2.62,3.85-4.55,6.67l-16.05,23.21-.13,.19-.22-.08-8.38-2.95,.42-.34c.34,2.31,.68,4.67,1.04,7.08l.04,.26-.25,.09-7.02,2.53-22,7.9-.37,.14-.03-.4c-.61-9.18-1.14-17.29-1.56-23.66v-.13l.11-.06,2.8-1.55-.1,.15c.4-3.84,.71-6.91,.93-9.07,.11-1.01,.21-1.82,.27-2.41,.02-.28,.06-.56,.13-.83"/><path id="dh" class="hm" d="M19.18,297.66c-.03-.19-.05-.39-.05-.58-.01-.42-.03-.99-.05-1.69-.02-1.53-.06-3.7-.1-6.44-.05-5.6-.13-13.53-.22-23.07v.08c-1.45-5.08-2.75-10.72-4-16.76-.62-3.02-1.21-6.14-1.78-9.34-.64-3.27-1.02-6.59-1.14-9.92-.27-8.92,1.26-17.8,4.48-26.11v.02c1.92-5.33,4.22-10.51,6.87-15.51,2.33-4.53,4.53-8.42,6.4-11.62s3.4-5.7,4.48-7.39c.53-.81,.94-1.45,1.25-1.93,.14-.23,.29-.44,.46-.64-.11,.24-.23,.48-.38,.7l-1.17,1.98c-1.02,1.72-2.51,4.25-4.33,7.47s-3.98,7.13-6.27,11.67c-2.61,5-4.87,10.17-6.76,15.47h0v.02c-3.16,8.24-4.66,17.03-4.39,25.85,.12,3.3,.49,6.59,1.12,9.83,.56,3.2,1.15,6.31,1.76,9.33,1.23,6.03,2.51,11.67,3.92,16.73v.08c.01,9.54,0,17.47,0,23.07-.02,2.74-.03,4.91-.05,6.44-.01,.71-.02,1.27-.03,1.69,0,.19,0,.39-.04,.58"/><g id="di" class="hh" transform="translate(94.37 324.519)"><g id="dj"><g class="gs"><g id="dl"><path id="dm" d="M116.13,247.24c-13.47-9.63-21.54-26.42-21.76-42.98l21.76,42.98Z"/></g></g></g></g><path id="dn" class="gp" d="M110.08,161.14s11.5,2.24,16.04,12.1,34.6,84.4,35.17,89.65-1.88,11.89-8.07,18.41-52.81,39.36-52.81,39.36l-20.23-32.4,41.18-29.65-26.83-55.4s1.98-38.03,15.56-42.07"/><path id="do" class="hm" d="M138.52,266c-.13,.16-3.18-2.52-7.65-4.62-4.46-2.14-8.46-2.82-8.42-3.02,.89-.03,1.78,.09,2.63,.34,4.19,.95,8.13,2.82,11.51,5.48,.73,.5,1.38,1.12,1.93,1.83"/><path id="dp" class="hm" d="M136.99,254.24c0,.2-3.42,.08-7.44,1.16-4.03,1.05-6.93,2.86-7.04,2.68-.1-.11,2.73-2.22,6.87-3.3,4.14-1.11,7.64-.69,7.6-.54"/><path id="dq" class="hm" d="M153.22,281.3c.08-.12,.17-.23,.27-.33l.83-.93c.46-.49,.9-1,1.31-1.54,.58-.71,1.13-1.45,1.62-2.22,1.42-2.07,2.5-4.37,3.17-6.79,.43-1.5,.65-3.06,.68-4.62,.09-1.75-.22-3.49-.91-5.1l-21.01-54.17-9.19-22.21c-1.45-3.51-2.85-6.89-4.2-10.16-1.49-2.99-3.67-5.58-6.36-7.56l.03,.02-23.19-12.98-.03-.02-.02-.02c-2.02-2.69-3.58-4.77-4.66-6.21l-1.19-1.62c-.14-.18-.27-.37-.38-.57,.16,.16,.31,.33,.45,.51l1.25,1.57c1.11,1.43,2.71,3.48,4.78,6.12l-.05-.04,23.3,12.79h.02v.02c2.79,2.02,5.05,4.68,6.59,7.76,1.36,3.26,2.77,6.65,4.24,10.15l9.22,22.21c8.23,21.15,15.53,40.36,20.84,54.25,.69,1.67,.99,3.46,.89,5.26-.04,1.59-.29,3.18-.74,4.71-1.04,3.31-2.73,6.39-4.99,9.03-.42,.53-.88,1.03-1.36,1.51l-.88,.89c-.1,.11-.2,.2-.32,.29"/><path id="dr" class="hm" d="M123.86,303.88c-.12,.12-.26,.23-.4,.33l-1.2,.9-4.64,3.4-17.07,12.34-.2,.15-.14-.21-20.29-32.36-.16-.25,.24-.17,18.54-13.37,22.64-16.28-.1,.39-19.7-39.95-5.64-11.56c-.63-1.32-1.13-2.36-1.48-3.09-.15-.33-.28-.6-.37-.8-.05-.09-.08-.18-.11-.28,.06,.08,.11,.17,.16,.26l.42,.78c.37,.73,.9,1.74,1.57,3.05,1.37,2.71,3.33,6.6,5.8,11.48,4.93,9.86,11.86,23.72,19.91,39.84l.11,.23-.21,.15-22.62,16.3-18.56,13.35,.08-.42,20.17,32.44-.34-.07c7.22-5.11,13.1-9.27,17.2-12.17l4.71-3.3,1.24-.84c.14-.1,.28-.19,.44-.27"/><path id="ds" class="hm" d="M94.69,194.47c-.05-.5-.04-1,.04-1.5,.13-1.36,.38-2.7,.73-4.02,2.34-8.9,8.88-16.1,17.51-19.29,1.28-.48,2.59-.85,3.93-1.11,.49-.12,.98-.18,1.49-.18,.03,.12-2.09,.44-5.25,1.72-8.36,3.35-14.71,10.35-17.24,18.99-.97,3.27-1.08,5.41-1.21,5.39"/><path id="dt" class="hm" d="M123.86,303.88c-.12,.12-.26,.23-.4,.33l-1.2,.9-4.64,3.4-17.07,12.34-.2,.15-.14-.21-20.29-32.36-.16-.25,.24-.17,18.54-13.37,22.64-16.28-.1,.39-19.7-39.95-5.64-11.56c-.63-1.32-1.13-2.36-1.48-3.09-.15-.33-.28-.6-.37-.8-.05-.09-.08-.18-.11-.28,.06,.08,.11,.17,.16,.26l.42,.78c.37,.73,.9,1.74,1.57,3.05,1.37,2.71,3.33,6.6,5.8,11.48,4.93,9.86,11.86,23.72,19.91,39.84l.11,.23-.21,.15-22.62,16.3-18.56,13.35,.08-.42,20.17,32.44-.34-.07c7.22-5.11,13.1-9.27,17.2-12.17l4.71-3.3,1.24-.84c.14-.1,.28-.19,.44-.27"/><g id="du" class="hh" transform="translate(36.661 301.514)"><g id="dv"><g class="gm"><g id="dx"><path id="dy" d="M73.02,184.21l-6.87-.22,1.43,6.95-30.93,7.86,29.02-10.46-1.03-7.08,8.37,2.96Z"/></g></g></g></g><path id="e`" class="hm" d="M12.58,404.8c-.03-.32-.03-.64,0-.95,.03-.68,.06-1.59,.11-2.74,.12-2.44,.3-5.89,.51-10.14,.5-8.65,1.18-20.6,1.95-34.05l.06,.21c-1.18-1.63-2.14-3.42-2.86-5.31-1.79-4.94-3-10.07-3.62-15.29-.66-4.93-1.01-9.58-1.21-13.82-.39-8.47-.24-15.27-.05-19.47v-.14h.14l3.67,.21,.94,.07c.11,0,.21,.02,.32,.05-.11,.02-.21,.03-.32,.02h-.95l-3.68-.07,.14-.13c-.08,4.19-.13,10.98,.32,19.43,.24,4.22,.61,8.86,1.28,13.76,.62,5.17,1.83,10.24,3.6,15.14,.69,1.84,1.62,3.57,2.77,5.16l.07,.1v.12c-.86,13.45-1.62,25.39-2.17,34.04-.3,4.25-.54,7.69-.71,10.13-.09,1.15-.17,2.06-.22,2.73-.01,.32-.05,.64-.12,.95"/><path id="ea" class="gn" d="M89.49,179.99l-1.68-.7c.04-.09,3.78-9.07,7.47-18.6,1.46-3.77,1.99-6.93,1.57-9.36-.4-2.1-2.26-3.6-4.4-3.53l-1.15-1.64c3.34-.52,6.52,1.59,7.34,4.86,.48,2.76-.08,6.24-1.66,10.33-3.7,9.54-7.45,18.55-7.49,18.64"/><path id="eb" class="gn" d="M92.19,200.99l-2.31-.9c1.89-4.88,4.49-13.52,3.37-15.96-.67-1.47-2.62-2.76-4.97-3.28-2.52-.67-5.2-.12-7.25,1.49-2.65,2.24-6.65,10.14-7.96,13l-2.25-1.04c.2-.44,5-10.81,8.61-13.86,2.64-2.11,6.12-2.86,9.39-2.01,3.12,.69,5.68,2.48,6.68,4.67,1.87,4.09-2.43,15.62-3.31,17.89"/><path id="ec" class="hm" d="M67.23,238.7c-2.86,0-5.67-1.53-8.36-4.57l.93-.82c2.97,3.35,6.01,4.67,9.06,3.96,12.36-2.91,21.77-37.26,21.87-37.6l1.2,.32c-.39,1.45-9.7,35.41-22.78,38.49-.62,.15-1.26,.22-1.91,.22"/><path id="ed" class="hm" d="M61.25,235.55h0c-.52,.51-1.34,.57-1.93,.13l-2.68-2c-.82-.54-1.05-1.64-.51-2.46,.54-.82,1.64-1.05,2.46-.51,.1,.07,.2,.14,.28,.23l2.41,2.51c.56,.59,.55,1.52-.03,2.09"/><path id="ee" class="hm" d="M72.48,239.82c-3.82,0-6.65-1.26-8.43-3.76-7.6-10.66,6.73-40.26,7.34-41.51l1.11,.54c-.15,.3-14.62,30.19-7.45,40.25,1.87,2.62,5.16,3.66,9.77,3.09l.15,1.23c-.83,.11-1.66,.16-2.5,.16"/><path id="ef" class="hm" d="M72.25,239.15h0c.05,.73,.63,1.31,1.36,1.37l3.33,.28c.97,.14,1.87-.54,2.01-1.51,.14-.97-.54-1.87-1.51-2.01-.12-.02-.24-.02-.36-.01l-3.47,.29c-.81,.07-1.41,.78-1.36,1.59"/><path id="eg" class="hm" d="M22.34,210.11c0,5.36-4.35,9.71-9.71,9.71-5.36,0-9.71-4.35-9.71-9.71,0-5.36,4.35-9.71,9.71-9.71h0c5.36,0,9.71,4.35,9.71,9.71"/><path id="eh" class="hm" d="M22.34,210.11c0,5.36-4.35,9.71-9.71,9.71-5.36,0-9.71-4.35-9.71-9.71,0-5.36,4.35-9.71,9.71-9.71h0c5.36,0,9.71,4.35,9.71,9.71"/><path id="ei" class="gp" d="M19.81,210.11c0,3.96-3.21,7.17-7.17,7.17-3.96,0-7.17-3.21-7.17-7.17,0-3.96,3.21-7.17,7.17-7.17s7.17,3.21,7.17,7.17h0"/><path id="ej" class="gn" d="M16.63,201.35l-1.62-.83c.81-1.59,20-38.9,21.16-40.59,.2-.3,.45-.71,.72-1.17,.57-1,1.21-1.97,1.92-2.89,1.93-2.39,4.24-4.6,7.01-5.1l-1.61,2.6c-1.48,.58-2.26,1.51-3.99,3.64-.65,.86-1.24,1.75-1.77,2.68-.3,.49-.56,.94-.78,1.26-.9,1.32-15.49,29.61-21.04,40.4"/></g></g></g><g id="ek"><g class="gk"><g id="em"><path id="en" class="ha" d="M227.31,83.35l.92,74.43c.16,12.66-2.2,31.28-22.22,30.62-17.33-1.89-21.93-18.29-22.06-30.11-.06-5.6-.13-10.27-.17-10.85,0,0-18.97-1.55-20.57-20.29-.77-9.06-.85-27.84-.72-44.83,.15-18.25,14.29-33.33,32.49-34.65l1.81-.13c19.6-.29,30.79,16.2,30.53,35.79"/><path id="eo" class="gv" d="M183.77,147.45s11.87-.17,23.89-9c0,0-4.96,14.13-23.79,13.81l-.1-4.81Z"/><path id="ep" class="hm" d="M194.52,90.02c.37,.38,2.54-1.36,5.68-1.45,3.13-.13,5.48,1.46,5.81,1.05,.16-.18-.23-.87-1.25-1.59-1.38-.92-3.01-1.39-4.67-1.33-1.64,.05-3.22,.62-4.5,1.64-.94,.79-1.25,1.5-1.07,1.67"/><path id="eq" class="hm" d="M197.72,96.47c.09,1.37,1.25,2.43,2.63,2.38,1.34,0,2.44-1.07,2.44-2.41,0-.02,0-.04,0-.06-.09-1.37-1.25-2.43-2.63-2.38-1.34,0-2.44,1.07-2.45,2.42,0,.02,0,.04,0,.06"/><path id="er" class="hm" d="M186.65,111.85c0-.16-1.81-.34-4.74-.5-.74-.02-1.45-.12-1.61-.61-.12-.76,0-1.53,.33-2.22,.56-1.83,1.15-3.75,1.77-5.76,2.44-8.2,4.15-14.92,3.82-15.01s-2.58,6.47-5.02,14.67c-.58,2.02-1.14,3.95-1.67,5.79-.4,.92-.46,1.95-.17,2.92,.26,.51,.73,.87,1.29,.99,.42,.08,.84,.11,1.26,.08,2.93-.06,4.75-.18,4.74-.34"/><path id="es" class="hm" d="M195.85,78.21c.3,.7,2.82,.17,5.83,.33,3.01,.09,5.48,.82,5.83,.15,.15-.32-.31-.96-1.34-1.58-1.35-.77-2.86-1.19-4.41-1.24-1.54-.08-3.08,.22-4.48,.88-1.06,.54-1.57,1.14-1.44,1.47"/><path id="et" class="hm" d="M166.04,84.03c.33,.57,2.78-.06,5.75-.15,2.97-.15,5.43,.29,5.75-.3,.14-.28-.35-.79-1.39-1.24-1.39-.56-2.89-.8-4.39-.73-1.51,.04-3,.41-4.37,1.07-1.02,.53-1.5,1.08-1.35,1.35"/><path id="eu" class="ha" d="M226.79,97.35c.31-.16,12.61-4.75,13.13,8.1s-12.49,10.73-12.52,10.36-.61-18.46-.61-18.46"/><path id="ev" class="gv" d="M231.13,110.78c.05-.04,.23,.15,.62,.31,.54,.21,1.14,.19,1.68-.04,1.34-.55,2.39-2.76,2.36-5.07-.01-1.1-.27-2.19-.76-3.18-.28-.81-.93-1.42-1.76-1.65-.54-.12-1.09,.16-1.3,.67-.16,.37-.06,.62-.13,.64-.04,.03-.28-.2-.2-.74,.06-.32,.23-.61,.47-.82,.34-.28,.78-.42,1.22-.38,1.08,.17,2,.89,2.42,1.9,.59,1.09,.91,2.31,.92,3.55,.02,2.59-1.2,5.07-3.04,5.68-.69,.23-1.45,.14-2.06-.26-.41-.3-.49-.59-.45-.61"/><path id="ew" class="hm" d="M189.69,120.75c-.14-.32,2.38-1.08,4.15-3.44,.74-1.04,1.34-2.16,1.78-3.36,.37-.93,.66-1.52,.8-1.48s.1,.67-.11,1.69c-.27,1.36-.84,2.64-1.65,3.76-.84,1.12-1.98,1.99-3.28,2.51-.98,.4-1.65,.42-1.68,.31"/><path id="ex" class="hm" d="M243.88,76.54c-2.68-4.53-3.3-9.94-4.76-15s-4.28-10.3-9.24-12.06l-.11,.05c-4.45-1.79-9.94-1.82-13.6,1.27-.91-6.68-6.76-11.97-13.28-13.68s-16.98-.69-23.23,1.83c-4.83,1.95-9.51,5.93-15.19,11.79-2.4,2.47-4.59,5.12-6.56,7.95l-5.67,17.51,4.86,9.18c.29,.62,.59,1.25,.95,1.87v-.04l4.38,19.35c.28-5.28-.11-23.63,.17-28.9,8.02-.24,15.59-3.73,20.97-9.68,2.88-3.19,5.15-7.19,9-9.1,4.97-2.46,10.89-.67,16.13,1.15l-.22-.2c2.73,1.27,5.2,3.04,7.26,5.24-1.18,10.43-.1,20.98,3.17,30.96,.49,1.5,1.83,4.58,3.3,5.15,2.89,1.12,3.66-1.82,5.4-3.38,1.28-1.15,3.18-1.3,5.25-1.29,1.44-4.37,2.62-8.82,3.53-13.34,1.75,.54,3.59,.66,5.4,.36-.55-1.32-1.11-2.65-1.66-3.97,.69,.5,1.48,.86,2.31,1.04,.86,.17,1.73-.21,2.19-.95,.49-.99-.18-2.12-.74-3.07"/><path id="ey" class="gn" d="M210.26,52.95c.67,.52,1.3,1.1,1.88,1.72,1.48,1.79,2.47,3.94,2.88,6.22,.32,1.57,.48,3.16,.48,4.76,0,1.73-.13,3.57-.26,5.52-.17,2.04-.22,4.1-.14,6.15,.06,1.09,.2,2.17,.42,3.24,.17,1.14,.62,2.23,1.32,3.15,.66,.74,1.67,1.08,2.64,.89,.92-.17,1.76-.64,2.38-1.35,1.02-1.4,1.64-3.04,1.81-4.77l-.39,.05c.57,1.41,1.33,2.73,2.28,3.93,.92,1.11,2.22,1.82,3.65,1.99,.66,.07,1.33-.05,1.93-.34,.56-.29,1.02-.74,1.32-1.29,.28-.51,.42-1.08,.4-1.66-.02-.54-.24-1.06-.6-1.46l-.2,.18c1.12,1.28,2.49,2.31,4.03,3.02,.41,.19,.82,.35,1.25,.49,.15,.05,.3,.09,.45,.11-.13-.07-.28-.13-.42-.18-.28-.12-.69-.28-1.21-.54-1.49-.75-2.81-1.79-3.89-3.07l-.2,.18c.63,.81,.68,1.92,.12,2.79-.27,.49-.69,.89-1.19,1.15-.55,.25-1.15,.35-1.75,.29-1.33-.17-2.54-.85-3.39-1.89-.91-1.17-1.65-2.46-2.2-3.84l-.27-.6-.12,.65c-.16,1.64-.76,3.21-1.72,4.55-.56,.62-1.31,1.05-2.13,1.2-.83,.17-1.69-.12-2.25-.75-.65-.86-1.07-1.87-1.22-2.94-.22-1.05-.36-2.11-.42-3.18-.09-2.03-.05-4.07,.12-6.1,.12-1.95,.24-3.8,.22-5.55-.01-1.62-.19-3.24-.54-4.83-.44-2.33-1.49-4.49-3.05-6.27-.57-.65-1.25-1.19-2.01-1.61"/><path id="f`" class="gn" d="M152.28,71.19s.05,.05,.15,.13l.47,.34c.25,.19,.52,.36,.79,.51,.37,.22,.75,.42,1.14,.6,2.51,1.14,5.27,1.64,8.02,1.44,4.1-.27,8.02-1.72,11.31-4.18,3.97-3.04,7.27-6.85,9.72-11.2,1.36-2.27,2.47-4.6,3.7-6.74,1.12-2.09,2.53-4.01,4.19-5.71,1.5-1.53,3.35-2.65,5.4-3.28,.93-.26,1.89-.37,2.85-.33,.89,.05,1.76,.22,2.61,.5,2.58,.88,4.73,2.7,6.02,5.1,.43,.9,.75,1.84,.97,2.81,0-.07,0-.13-.01-.2-.02-.16-.05-.35-.09-.57-.15-.73-.39-1.44-.71-2.12-.54-1.06-1.25-2.02-2.1-2.84-1.13-1.1-2.49-1.94-3.98-2.47-.87-.3-1.77-.48-2.69-.54-1-.05-2,.05-2.96,.32-2.11,.63-4.03,1.77-5.59,3.34-1.7,1.71-3.14,3.66-4.28,5.79-1.24,2.16-2.35,4.49-3.7,6.73-2.42,4.31-5.67,8.08-9.58,11.1-3.22,2.43-7.08,3.89-11.1,4.2-2.71,.22-5.43-.23-7.93-1.29-.9-.42-1.78-.9-2.62-1.42"/><path id="fa" class="hm" d="M165.9,91.2c.37,.38,2.54-1.36,5.68-1.45,3.13-.13,5.48,1.46,5.81,1.05,.16-.18-.23-.87-1.25-1.59-1.38-.92-3.01-1.38-4.67-1.32-1.64,.05-3.22,.62-4.5,1.64-.94,.79-1.25,1.5-1.07,1.67"/><path id="fb" class="hm" d="M170.21,96.47c.09,1.37,1.25,2.43,2.63,2.38,1.34,0,2.44-1.07,2.44-2.42,0-.02,0-.04,0-.06-.09-1.37-1.25-2.43-2.63-2.38-1.34,0-2.44,1.07-2.45,2.42,0,.02,0,.04,0,.06"/><path id="fc" class="hm" d="M159.48,56.53c-1.57,2.13-4,4.08-6.63,3.83-.95-.19-1.89-.45-2.81-.79-.91,.57-.66,3.71-.01,4.57,.61,.73,1.28,1.4,2,2.01-3.06,1.7-5.88,.91-9.18-.24,.73,5.7,4.44,10.57,9.73,12.8,1.66,.68,3.68,1.03,5.18,.04,1.32-.88,1.84-2.53,2.22-4.06,1.4-5.65,2.11-11.44,2.09-17.26l-2.59-.89Z"/><path id="fd" class="gn" d="M174.95,161.88l8.74-4.61s9.18,13.61,22.81,12.27,22.29-13.41,22.29-13.41l8.7,4.4-29.7,48.79-32.83-47.44Z"/><path id="fe" class="gy" d="M272.69,303.84l-10.06-68.81,7.38-64.61-34.32-12-28.08,45.84-32.14-44.4-19.02,8.34c-16.59,7.27-31.57,22.99-35,40.77-.04,.24-.09,.47-.13,.71-4.4,23.82,.47,57.77,.47,57.77l32.55-14.4-2.63-11.48,6.24,26.21s-26.59,96.89-22.81,128.65c0,0,50.19,11.19,96.4,3.58s58.75-9.71,58.75-9.71l-17.59-86.46Z"/><path id="ff" class="gy" d="M270.01,170.42s19.97,17.3,22.17,41.45c2.2,24.15,6.29,45.65,6.29,45.65l-40.24,4.3s-.94-16.54,0-17.53,7.54-50.61,7.54-50.61l4.24-23.26Z"/><g id="fg" class="hh" transform="translate(148.068 422.012)"><g id="fh"><g class="gx"><g id="fj"><path id="fk" d="M149.51,301.75l-1.44,6.66,24.38,8.7c8.69,3.1,17.43,6.21,26.52,7.77,16.68,2.86,33.76,.39,50.5-2.09,9.35-1.38,19.85-3.47,24.99-11.41-41.9,2.55-83.94-.69-124.96-9.63"/></g></g></g></g><path id="fl" class="gn" d="M124.77,266.1c.32,.33,11.16,31.78,17.45,37.4s42.75,3.64,58.16-1.98,48.12-12.45,48.12-12.45l-5.01-25.38s-11.96,1.19-27.71,3.76c-5.7,.93-57.85,.33-57.85,.33l-3.61-14.74-29.56,13.06Z"/><path id="fm" class="gn" d="M296.32,257.75c-.1,.01-1,41.45-5.4,46.74s-19.79,11.58-31.43,12.9-82.37-1.89-92.75-10.54l40.87-28.49,41.65,10.29,11.67-5.02,1.06-22.21,34.32-3.67Z"/><path id="fn" class="hm" d="M245.58,161.88c-.04,.12-.09,.23-.15,.34-.13,.25-.3,.57-.51,.97-.48,.89-1.16,2.13-2.01,3.71l-7.52,13.6c-6.43,11.49-15.3,27.34-25.13,44.91l-.24,.44-.3-.4-.97-1.32-30.99-42.46c-3.92-5.42-7.1-9.82-9.33-12.91l-2.51-3.53-.64-.93c-.08-.1-.15-.21-.2-.33,.1,.09,.18,.18,.25,.29l.69,.89c.62,.83,1.5,1.98,2.61,3.46,2.27,3.05,5.51,7.42,9.5,12.79l31.14,42.35,.97,1.32-.54,.03,25.3-44.81,7.7-13.5c.9-1.55,1.61-2.78,2.12-3.65l.56-.94c.06-.11,.13-.22,.21-.31"/><path id="fo" class="hm" d="M221.59,264.88c-.05-.25-.07-.51-.06-.77-.02-.57-.04-1.3-.06-2.21-.03-2-.06-4.75-.1-8.11-.02-3.45-.04-7.52-.07-12.03,0-2.27-.01-4.64-.02-7.1v-5.95c.01-.14,.06-.28,.15-.39,.16-.2,.41-.31,.66-.3l.99-.05c10.48-.18,19.93,.03,26.78,.13l8.11,.19,2.2,.09c.26,0,.52,.02,.77,.08-.25,.05-.51,.06-.77,.05l-2.21,.03h-8.11c-6.85,.03-16.32-.11-26.76,.07l-.96,.05c-.22,.01-.16,.01-.2,.04-.01,.02-.02,.04-.02,.05v5.9c0,2.46-.01,4.84-.02,7.1-.03,4.51-.05,8.58-.07,12.03-.04,3.36-.08,6.11-.1,8.11-.02,.9-.04,1.63-.06,2.21,0,.26-.01,.52-.06,.77"/><path id="fp" class="hm" d="M262,261.42c.02,.13,.03,.26,.02,.39,0,.3-.01,.67-.02,1.14-.03,1.05-.08,2.5-.14,4.35-.16,3.82-.38,9.24-.65,15.88v.16l-.16,.06c-4.72,1.85-10.18,3.94-16.2,6.07-6.02,2.15-12.67,4.11-19.64,6-15.92,4.25-30.63,6.78-41.25,8.61l-12.59,2.1-3.43,.55-.9,.13c-.1,.02-.21,.03-.31,.02,.1-.04,.2-.07,.3-.09l.88-.19,3.41-.67,12.56-2.3c10.6-1.94,25.27-4.54,41.16-8.78,6.96-1.89,13.6-3.83,19.6-5.95,6.02-2.1,11.49-4.15,16.22-5.96l-.16,.22c.36-6.63,.66-12.05,.87-15.87,.12-1.84,.21-3.29,.27-4.34,.04-.46,.07-.83,.09-1.13,0-.13,.02-.26,.06-.38"/><path id="fq" class="ha" d="M243.97,265.74c3.93-.51,7.89-.8,11.85-.86,2.01,.11,4.01,.39,5.97,.85l-.85,17.91-12.56,5.02-4.41-22.92Z"/><path id="fr" class="hm" d="M141.65,200.13c.25,.69,.45,1.4,.59,2.12,.35,1.48,.82,3.45,1.39,5.83,1.18,5.02,2.76,11.78,4.52,19.24,1.78,7.51,3.43,14.3,4.66,19.21l1.46,5.81c.21,.7,.37,1.42,.47,2.15-.29-.68-.53-1.37-.71-2.08-.43-1.35-.98-3.32-1.66-5.76-1.34-4.88-3.07-11.66-4.84-19.18s-3.29-14.34-4.33-19.29c-.49-2.4-.89-4.38-1.19-5.87-.17-.71-.29-1.44-.35-2.17"/><path id="fs" class="hm" d="M261.12,237.57c-.51,.11-1.03,.17-1.55,.17-1,.07-2.45,.14-4.25,.2-3.59,.13-8.54,.23-14.02,.23s-10.43-.12-14.02-.26c-1.79-.07-3.24-.14-4.24-.21-.52,0-1.04-.06-1.55-.17,.52-.08,1.04-.11,1.56-.08h4.25l14.01,.08,14.01-.04h4.25c.52-.03,1.04,0,1.56,.08"/><path id="ft" class="hm" d="M188.5,267.95c-.3-.31-.56-.66-.77-1.04-.53-.81-1.18-1.79-1.93-2.94-1.63-2.48-3.92-5.87-6.6-9.51s-5.25-6.83-7.14-9.12c-.87-1.06-1.62-1.96-2.24-2.71-.3-.31-.56-.66-.77-1.04,.35,.25,.67,.54,.95,.88,.59,.59,1.41,1.47,2.4,2.58,1.98,2.22,4.61,5.38,7.31,9.04s4.94,7.1,6.47,9.65c.77,1.27,1.37,2.32,1.76,3.05,.23,.36,.42,.76,.55,1.17"/><path id="fu" class="hm" d="M195.62,268.28c-.13,.1-1.79-2.05-3.07-5.12-1.29-3.06-1.66-5.75-1.5-5.77,.19-.04,.83,2.53,2.09,5.53,1.25,3,2.63,5.26,2.47,5.37"/><path id="fv" class="hm" d="M215.55,215.31c-.17-.16-.33-.33-.46-.52l-1.22-1.58c-1.09-1.46-2.57-3.45-4.38-5.88l-14.24-19.55-14.09-19.66c-1.74-2.48-3.16-4.51-4.21-6-.45-.67-.82-1.22-1.12-1.65-.14-.18-.26-.39-.35-.6,.17,.15,.33,.33,.46,.52l1.22,1.58,4.38,5.88c3.69,5.07,8.71,11.95,14.25,19.55,5.48,7.64,10.44,14.56,14.09,19.66,1.74,2.48,3.16,4.51,4.21,6l1.12,1.65c.14,.18,.26,.39,.35,.6"/><path id="fw" class="hm" d="M232.6,158.43c-.04,.22-.11,.44-.2,.65-.21,.62-.46,1.22-.74,1.81-1.03,2.19-2.39,4.2-4.03,5.98-2.44,2.64-5.36,4.78-8.61,6.32-3.98,1.89-8.3,2.95-12.7,3.1-4.41,.13-8.8-.75-12.81-2.58-3.28-1.46-6.27-3.5-8.82-6.03-1.73-1.68-3.22-3.59-4.44-5.67-.33-.56-.64-1.14-.91-1.74-.11-.2-.2-.41-.26-.63,1.61,2.83,3.61,5.43,5.93,7.71,2.55,2.43,5.51,4.4,8.75,5.81,3.94,1.76,8.23,2.61,12.55,2.48,4.32-.15,8.56-1.17,12.47-3,3.2-1.49,6.09-3.56,8.53-6.1,1.64-1.72,3.04-3.67,4.14-5.77,.77-1.5,1.11-2.38,1.17-2.35"/><g id="fx" class="hh" transform="translate(166.745 403.207)"><g id="fy"><g class="gq"><g id="ga"><path id="gb" d="M166.74,306.86c33.08,2.76,67.9,3.49,95.27-23.92-28.78,11.81-64.5,19.33-95.27,23.92"/></g></g></g></g><g id="gc" class="hh" transform="translate(256.885 337.514)"><g id="gd"><g class="hj"><g id="gf"><path id="gg" d="M261.92,265.68c-4.51-4.11-5.16-10.91-5.02-17.02,.23-10.22,2.71-21.59,5.57-31.41-.59,17.44-1.88,32.77-.74,48.49"/></g></g></g></g><path id="gh" class="hm" d="M157.94,267.78c.05,.09-.6,.51-1.59,1.24-1.28,.93-2.4,2.08-3.3,3.38-.84,1.36-1.59,2.78-2.23,4.24-.23,.64-.56,1.24-.97,1.77,.08-.67,.26-1.33,.55-1.95,.53-1.55,1.24-3.04,2.12-4.43,.94-1.38,2.15-2.53,3.57-3.4,.55-.4,1.18-.7,1.84-.86"/><path id="gi" class="hm" d="M266.11,189.88c0,.26-.01,.52-.06,.77-.08,.57-.18,1.29-.31,2.18-.29,1.89-.68,4.63-1.13,8.02-.91,6.77-1.95,16.16-2.58,26.57s-.71,19.86-.62,26.7c.04,3.42,.1,6.18,.16,8.1,.02,.9,.03,1.63,.04,2.2,.02,.26,0,.52-.03,.77-.06-.25-.09-.51-.1-.77-.04-.57-.1-1.3-.16-2.2-.14-1.91-.27-4.68-.37-8.1-.21-6.84-.2-16.31,.43-26.74s1.75-19.83,2.78-26.6c.51-3.39,.97-6.12,1.34-8,.17-.88,.32-1.6,.43-2.16,.04-.26,.1-.51,.19-.75"/></g></g></g></g></g></g></g></svg>