<svg xmlns="http://www.w3.org/2000/svg" width="73" height="67" viewBox="0 0 73 67">
  <g id="today_patients" data-name="today patients" transform="translate(-422 -583.383)">
    <rect id="Rectangle_1077" data-name="Rectangle 1077" width="73" height="67" rx="11" transform="translate(422 583.383)" fill="#18a291"/>
    <path id="today_patient" data-name="today patient" d="M36.787,49.119c4.034,0,7.6-3.8,7.948-8.469a8.053,8.053,0,0,0-2.073-6.16,8.205,8.205,0,0,0-11.76-.015,8.092,8.092,0,0,0-2.063,6.173C29.182,45.319,32.746,49.119,36.787,49.119ZM52.635,63.162a13.082,13.082,0,0,0-5.823-8.693,18.756,18.756,0,0,0-20.052,0,13.082,13.082,0,0,0-5.823,8.693,2.7,2.7,0,0,0,.549,2.225,2.365,2.365,0,0,0,1.849.851h26.9a2.365,2.365,0,0,0,1.85-.851A2.706,2.706,0,0,0,52.635,63.162Zm-29.91-11.6V48.507h3.057a1.223,1.223,0,0,0,0-2.446H22.725V43a1.223,1.223,0,1,0-2.446,0v3.057H17.223a1.223,1.223,0,0,0,0,2.446H20.28v3.057a1.223,1.223,0,0,0,2.446,0Z" transform="translate(423.667 567.859)" fill="#fff"/>
  </g>
</svg>
