<svg xmlns="http://www.w3.org/2000/svg" width="21" height="21" viewBox="0 0 21 21">
  <path id="today_appoitment" data-name="today appoitment" d="M19.85,4.1H18.8V3.05a1.05,1.05,0,0,0-2.1,0V4.1H8.3V3.05A.992.992,0,0,0,7.25,2,.992.992,0,0,0,6.2,3.05V4.1H5.15A3.094,3.094,0,0,0,2,7.25V8.3H23V7.25A3.094,3.094,0,0,0,19.85,4.1ZM2,19.85A3.094,3.094,0,0,0,5.15,23h14.7A3.094,3.094,0,0,0,23,19.85V10.4H2ZM17.75,12.5a1.05,1.05,0,1,1-1.05,1.05A.992.992,0,0,1,17.75,12.5Zm0,4.2a1.05,1.05,0,1,1-1.05,1.05A.992.992,0,0,1,17.75,16.7ZM12.5,12.5a1.05,1.05,0,1,1-1.05,1.05A.992.992,0,0,1,12.5,12.5Zm0,4.2a1.05,1.05,0,1,1-1.05,1.05A.992.992,0,0,1,12.5,16.7ZM7.25,12.5a1.05,1.05,0,1,1,0,2.1,1.05,1.05,0,1,1,0-2.1Zm0,4.2a1.05,1.05,0,0,1,0,2.1,1.05,1.05,0,0,1,0-2.1Z" transform="translate(-2 -2)" fill="#cbcbcb"/>
</svg>
