<svg xmlns="http://www.w3.org/2000/svg" xmlns:xlink="http://www.w3.org/1999/xlink" width="73.001" height="67.386" viewBox="0 0 73.001 67.386">
  <defs>
    <clipPath id="clip-path">
      <rect id="Rectangle_1084" data-name="Rectangle 1084" width="35.724" height="35.668" fill="#e63535"/>
    </clipPath>
  </defs>
  <g id="urgent_care" data-name="urgent care" transform="translate(-1095.437 -583.014)">
    <rect id="Rectangle_1077" data-name="Rectangle 1077" width="73.001" height="67.386" rx="11" transform="translate(1095.437 583.014)" fill="#feede8"/>
    <g id="Groupe_985" data-name="Groupe 985" transform="translate(1114.154 598.924)">
      <g id="Groupe_985-2" data-name="Groupe 985" clip-path="url(#clip-path)">
        <path id="Tracé_1824" data-name="Tracé 1824" d="M21.584,364.8a1.092,1.092,0,0,1-.534-1.057c.021-.627-.011-1.257.045-1.88A2.621,2.621,0,0,1,23.7,359.5q13.434,0,26.867,0a2.66,2.66,0,0,1,2.645,2.676c.028.568.005,1.139.007,1.708a1.027,1.027,0,0,1-.531.918Z" transform="translate(-19.271 -329.131)" fill="#e63535"/>
        <path id="Tracé_1825" data-name="Tracé 1825" d="M370.037,85.619a5.426,5.426,0,0,1-.756.676c-.9.549-1.819,1.065-2.737,1.584a.9.9,0,0,1-1.146-.14.861.861,0,0,1-.1-1.087,1.478,1.478,0,0,1,.44-.381c.9-.53,1.8-1.047,2.707-1.568.751-.434,1.119-.351,1.591.358Z" transform="translate(-334.314 -77.306)" fill="#e63535"/>
        <path id="Tracé_1826" data-name="Tracé 1826" d="M89.987,125.286h-24.7c.132-.728.258-1.433.388-2.137q.823-4.463,1.648-8.925c.319-1.721.613-3.447.975-5.159a4.286,4.286,0,0,1,4.1-3.4q5.177-.056,10.355,0a4.464,4.464,0,0,1,4.027,3.61c.663,3.437,1.363,6.866,2.05,10.3.377,1.886.76,3.771,1.151,5.711M75.451,109.215h0c-.395,0-.79-.01-1.184,0a2.628,2.628,0,0,0-2.56,2.147c-.136.728-.211,1.468-.28,2.206a.855.855,0,0,0,.8.989.9.9,0,0,0,.952-.824c.078-.574.151-1.15.212-1.726.079-.738.382-1.021,1.13-1.024.72,0,1.44.007,2.16,0a.894.894,0,0,0,.963-.88.912.912,0,0,0-.969-.886c-.406-.008-.813,0-1.219,0" transform="translate(-59.776 -96.715)" fill="#e63535"/>
        <path id="Tracé_1827" data-name="Tracé 1827" d="M200.868,2.7c0-.581,0-1.162,0-1.743a.9.9,0,1,1,1.8.011q.008,1.708,0,3.417a.906.906,0,1,1-1.8-.011c0-.558,0-1.116,0-1.673" transform="translate(-183.904 0.001)" fill="#e63535"/>
        <path id="Tracé_1828" data-name="Tracé 1828" d="M4.967,86.942a.956.956,0,0,1-1.337.871c-1.1-.594-2.177-1.23-3.247-1.876A.845.845,0,0,1,.13,84.77.836.836,0,0,1,1.237,84.4q1.659.911,3.276,1.9c.206.126.305.428.454.649" transform="translate(0 -77.186)" fill="#e63535"/>
        <path id="Tracé_1829" data-name="Tracé 1829" d="M85.4,5.624a.976.976,0,0,1,.971.466c.589,1.011,1.179,2.021,1.754,3.04a.894.894,0,0,1-.324,1.263.875.875,0,0,1-1.226-.357C85.978,9.029,85.389,8.018,84.819,7a.886.886,0,0,1,.58-1.373" transform="translate(-77.53 -5.149)" fill="#e63535"/>
        <path id="Tracé_1830" data-name="Tracé 1830" d="M299.821,6.516a1.7,1.7,0,0,1-.123.356c-.6,1.047-1.194,2.092-1.805,3.13a.888.888,0,0,1-1.642-.322,1.028,1.028,0,0,1,.113-.6c.575-1.032,1.166-2.054,1.766-3.072a.883.883,0,0,1,1.043-.428.953.953,0,0,1,.648.931" transform="translate(-271.227 -5.078)" fill="#e63535"/>
      </g>
    </g>
  </g>
</svg>
