<svg xmlns="http://www.w3.org/2000/svg" width="24.001" height="24" viewBox="0 0 24.001 24">
  <g id="chat" transform="translate(-31.999 -32)">
    <path id="Tracé_1831" data-name="Tracé 1831" d="M60.364,51.134a.046.046,0,0,1,0,.02C60.362,51.148,60.363,51.141,60.364,51.134Zm20.328.88a1.434,1.434,0,0,1-.514-.107l-3.042-1.078-.022-.009a.529.529,0,0,0-.209-.041.553.553,0,0,0-.194.035c-.074.028-.74.278-1.438.47a12,12,0,0,1-2.755.443A9.988,9.988,0,0,1,65.4,48.8a9.824,9.824,0,0,1-2.9-6.992,9.425,9.425,0,0,1,.218-2.014,9.77,9.77,0,0,1,3.512-5.571A10.434,10.434,0,0,1,72.678,32a10.291,10.291,0,0,1,7.339,3.01,9.552,9.552,0,0,1,1.2,12.108l-.01.015-.04.054-.027.036-.008.014a1.16,1.16,0,0,0-.058.112l.843,3a1.415,1.415,0,0,1,.06.381,1.286,1.286,0,0,1-1.287,1.287Z" transform="translate(-26.842)" fill="#cbcbcb"/>
    <path id="Tracé_1832" data-name="Tracé 1832" d="M46.349,227.22a.843.843,0,0,0-.551-.434,5.182,5.182,0,0,0-.947-.088,10.81,10.81,0,0,1-6.9-3.147,10.672,10.672,0,0,1-3.037-6.039,6.161,6.161,0,0,1-.075-.651.857.857,0,0,0-1.5-.567,3.962,3.962,0,0,0-.621.921,8.683,8.683,0,0,0,.589,8.039.718.718,0,0,1,.108.58c-.146.756-.4,2.089-.536,2.781a1.286,1.286,0,0,0,.429,1.228l.025.021a1.3,1.3,0,0,0,.81.283,1.255,1.255,0,0,0,.482-.1l2.867-1.106a.431.431,0,0,1,.306,0,9.9,9.9,0,0,0,3.417.643,9.428,9.428,0,0,0,4.013-.892,2.9,2.9,0,0,0,1.018-.6.8.8,0,0,0,.1-.878Z" transform="translate(0 -174.146)" fill="#cbcbcb"/>
  </g>
</svg>
