<svg xmlns="http://www.w3.org/2000/svg" width="73.001" height="67.386" viewBox="0 0 73.001 67.386">
  <g id="client_helped" data-name="client helped" transform="translate(-758.661 -583.014)">
    <rect id="Rectangle_1077" data-name="Rectangle 1077" width="73.001" height="67.386" rx="11" transform="translate(758.661 583.014)" fill="#18a291"/>
    <path id="client_helped-2" data-name="client helped" d="M18.043,0a17.642,17.642,0,0,1,7.008,1.429,17.725,17.725,0,0,1,9.606,9.606,17.9,17.9,0,0,1,.01,14,17.986,17.986,0,0,1-3.836,5.76,18.259,18.259,0,0,1-5.76,3.856,17.933,17.933,0,0,1-14.056.01A17.907,17.907,0,0,1,5.267,30.8a18.382,18.382,0,0,1-3.836-5.76,17.862,17.862,0,0,1,0-14.006,17.725,17.725,0,0,1,9.606-9.606A17.642,17.642,0,0,1,18.043,0ZM30.508,27.206a15.225,15.225,0,0,0,3-9.163,15.054,15.054,0,0,0-1.228-6,15.284,15.284,0,0,0-8.237-8.237,15.279,15.279,0,0,0-12,0A15.284,15.284,0,0,0,3.8,12.042a15.045,15.045,0,0,0-1.228,6,15.228,15.228,0,0,0,3,9.163q1.329-6.585,6.162-6.585a8.705,8.705,0,0,0,6.3,2.577,8.705,8.705,0,0,0,6.3-2.577q4.833,0,6.162,6.585ZM25.776,14.177A7.45,7.45,0,0,0,23.51,8.71a7.45,7.45,0,0,0-5.467-2.265A7.45,7.45,0,0,0,12.576,8.71a7.45,7.45,0,0,0-2.265,5.467,7.45,7.45,0,0,0,2.265,5.467,7.45,7.45,0,0,0,5.467,2.265,7.45,7.45,0,0,0,5.467-2.265A7.45,7.45,0,0,0,25.776,14.177Z" transform="translate(777.331 598.193)" fill="#fff"/>
  </g>
</svg>
