<svg xmlns="http://www.w3.org/2000/svg" width="12.616" height="15.375" viewBox="0 0 12.616 15.375">
  <g id="icon_notification" data-name="icon notification" transform="translate(0 0)">
    <path id="Icon" d="M333.308-49.625a1.381,1.381,0,0,0,.315-.032,1.6,1.6,0,0,0,1.135-.93,1.582,1.582,0,0,0,.118-.615h-3.154a1.588,1.588,0,0,0,1.585,1.577Zm4.731-8.673a4.8,4.8,0,0,0-3.548-4.983v-.536A1.181,1.181,0,0,0,333.308-65a1.181,1.181,0,0,0-1.183,1.183v.536a4.79,4.79,0,0,0-3.548,4.983v3.942L327-52.778v.788h12.616v-.788l-1.577-1.577V-58.3Z" transform="translate(-327 65)" fill="#909090" fill-rule="evenodd"/>
    <circle id="Ellipse_31" data-name="Ellipse 31" cx="1.849" cy="1.849" r="1.849" transform="translate(7.192 1.726)" fill="#d51818"/>
  </g>
</svg>
