<svg xmlns="http://www.w3.org/2000/svg" width="24" height="24" viewBox="0 0 24 24">
  <path id="notification" d="M17.273,5.818a4.431,4.431,0,0,1,.033-.545H4.182A2.188,2.188,0,0,0,2,7.455V23.818A2.188,2.188,0,0,0,4.182,26H20.545a2.188,2.188,0,0,0,2.182-2.182V10.695a4.431,4.431,0,0,1-.545.033,4.916,4.916,0,0,1-4.909-4.909ZM22.182,2a3.82,3.82,0,0,0-3.775,3.273,2.988,2.988,0,0,0-.044.545,3.822,3.822,0,0,0,3.818,3.818,2.983,2.983,0,0,0,.545-.044A3.816,3.816,0,0,0,22.182,2Z" transform="translate(-2 -2)" fill="#cbcbcb"/>
</svg>
