<svg xmlns="http://www.w3.org/2000/svg" width="23.871" height="24.001" viewBox="0 0 23.871 24.001">
  <g id="profile" transform="translate(-1.053 -0.96)">
    <circle id="Ellipse_30" data-name="Ellipse 30" cx="4.794" cy="4.794" r="4.794" transform="translate(8.201 0.96)" fill="#cbcbcb"/>
    <path id="Tracé_1833" data-name="Tracé 1833" d="M24.867,24.459a12.04,12.04,0,0,0-3.284-5.968A9.963,9.963,0,0,0,20.289,17.4,11.984,11.984,0,0,0,12.995,15a12.176,12.176,0,0,0-8.6,3.491,12.04,12.04,0,0,0-3.284,5.968,2.732,2.732,0,0,0,.551,2.3,2.812,2.812,0,0,0,2.205,1.023H22.119a2.812,2.812,0,0,0,2.2-1.055A2.732,2.732,0,0,0,24.867,24.459Z" transform="translate(0 -2.823)" fill="#cbcbcb"/>
  </g>
</svg>
