<svg xmlns="http://www.w3.org/2000/svg" width="23.993" height="24.667" viewBox="0 0 23.993 24.667">
  <path id="settings" d="M106.163-291.458a9.61,9.61,0,0,0,.086-1.209,9.61,9.61,0,0,0-.086-1.209l2.6-2.035a.622.622,0,0,0,.148-.789l-2.467-4.267a.62.62,0,0,0-.752-.271l-3.071,1.233a9.012,9.012,0,0,0-2.084-1.209l-.469-3.268a.6.6,0,0,0-.6-.518H94.533a.6.6,0,0,0-.6.518l-.469,3.268a9.477,9.477,0,0,0-2.084,1.209L88.3-301.238a.6.6,0,0,0-.752.271L85.086-296.7a.608.608,0,0,0,.148.789l2.6,2.035a9.782,9.782,0,0,0-.086,1.209,9.782,9.782,0,0,0,.086,1.209l-2.6,2.035a.622.622,0,0,0-.148.789l2.467,4.267a.62.62,0,0,0,.752.271l3.071-1.233a9.012,9.012,0,0,0,2.084,1.209l.469,3.268a.6.6,0,0,0,.6.518h4.933a.6.6,0,0,0,.6-.518l.469-3.268a9.477,9.477,0,0,0,2.084-1.209l3.071,1.233a.6.6,0,0,0,.752-.271l2.467-4.267a.622.622,0,0,0-.148-.789l-2.6-2.035ZM97-288.35a4.321,4.321,0,0,1-4.317-4.317A4.321,4.321,0,0,1,97-296.983a4.321,4.321,0,0,1,4.317,4.317A4.321,4.321,0,0,1,97-288.35Z" transform="translate(-85 305)" fill="#cbcbcb" fill-rule="evenodd"/>
</svg>
