<svg xmlns="http://www.w3.org/2000/svg" xmlns:xlink="http://www.w3.org/1999/xlink" width="88" height="78" viewBox="0 0 88 78">
  <defs>
    <linearGradient id="linear-gradient" x1="0.5" x2="0.5" y2="1" gradientUnits="objectBoundingBox">
      <stop offset="0" stop-color="#18a291"/>
      <stop offset="1" stop-color="#0098a9"/>
    </linearGradient>
    <clipPath id="clip-path">
      <rect id="Rectangle_1722" data-name="Rectangle 1722" width="39.063" height="39.118" fill="url(#linear-gradient)"/>
    </clipPath>
  </defs>
  <g id="Groupe_1386" data-name="Groupe 1386" transform="translate(6073.826 -2705.532)">
    <rect id="Rectangle_1699" data-name="Rectangle 1699" width="88" height="78" rx="12" transform="translate(-6073.826 2705.532)" fill="#fff"/>
    <g id="Groupe_1356" data-name="Groupe 1356" transform="translate(-6049.358 2724.973)">
      <g id="Groupe_1355" data-name="Groupe 1355" clip-path="url(#clip-path)">
        <path id="Tracé_2046" data-name="Tracé 2046" d="M29.89,39.118A20,20,0,0,1,24.839,37.9,37.148,37.148,0,0,1,14.2,31.535,46.341,46.341,0,0,1,3.129,18.476,26.235,26.235,0,0,1,.081,10.368,2.989,2.989,0,0,1,.51,7.937,43.245,43.245,0,0,1,6.478.9,8.7,8.7,0,0,1,7.411.191.912.912,0,0,1,8.582.236a4.148,4.148,0,0,1,.791.8,54.724,54.724,0,0,1,4.78,7.938c.082.17.127.357.215.523a1.421,1.421,0,0,1-.419,1.9c-.851.749-1.679,1.526-2.563,2.233A1.2,1.2,0,0,0,11,15.2,20.337,20.337,0,0,0,23.683,27.981c1.053.388,1.079.369,1.834-.45.62-.673,1.2-1.383,1.8-2.074.124-.143.259-.275.387-.414a1.437,1.437,0,0,1,1.8-.386,40.389,40.389,0,0,1,5.64,3.1c.948.591,1.884,1.208,2.787,1.866,1.395,1.017,1.467,1.572.3,2.846a37.613,37.613,0,0,1-7.5,6.279,5,5,0,0,1-.844.371" transform="translate(0 0)" fill="url(#linear-gradient)"/>
        <path id="Tracé_2047" data-name="Tracé 2047" d="M179.415,2.825V.036a17.719,17.719,0,0,1,11.63,4.251,18.028,18.028,0,0,1,6.527,13.872h-2.808A15.442,15.442,0,0,0,179.415,2.825" transform="translate(-158.509 -0.032)" fill="url(#linear-gradient)"/>
        <path id="Tracé_2048" data-name="Tracé 2048" d="M179.5,63.054V60.316a11.033,11.033,0,0,1,11.1,11.1h-2.734a8.449,8.449,0,0,0-8.364-8.362" transform="translate(-158.587 -53.282)" fill="url(#linear-gradient)"/>
      </g>
    </g>
  </g>
</svg>
