<svg xmlns="http://www.w3.org/2000/svg" xmlns:xlink="http://www.w3.org/1999/xlink" width="88" height="78" viewBox="0 0 88 78">
  <defs>
    <linearGradient id="linear-gradient" x1="0.5" x2="0.5" y2="1" gradientUnits="objectBoundingBox">
      <stop offset="0" stop-color="#18a291"/>
      <stop offset="1" stop-color="#0098a9"/>
    </linearGradient>
    <clipPath id="clip-path">
      <rect id="Rectangle_1717" data-name="Rectangle 1717" width="42.608" height="46.697" fill="url(#linear-gradient)"/>
    </clipPath>
  </defs>
  <g id="Groupe_1387" data-name="Groupe 1387" transform="translate(6652.826 -2705.532)">
    <rect id="Rectangle_1699" data-name="Rectangle 1699" width="88" height="78" rx="12" transform="translate(-6652.826 2705.532)" fill="#fff"/>
    <g id="Groupe_1324" data-name="Groupe 1324" transform="translate(-6630.13 2721.184)">
      <g id="Groupe_1323" data-name="Groupe 1323" clip-path="url(#clip-path)">
        <path id="Tracé_2025" data-name="Tracé 2025" d="M33.758,2.241H30.424c-.01.182-.026.353-.026.525,0,1.15,0,2.3,0,3.45,0,1.195-.764,1.673-1.828,1.156-2.312-1.123-4.626-2.241-6.93-3.38a.94.94,0,0,0-.937,0Q11.365,8.578,2.018,13.145a4.593,4.593,0,0,1-.622.269,1.072,1.072,0,0,1-1.247-.505,1.055,1.055,0,0,1,.235-1.361,2.764,2.764,0,0,1,.537-.325q9.492-4.655,18.985-9.31a2.672,2.672,0,0,1,2.546.012c1.734.87,3.484,1.706,5.229,2.554.143.069.29.13.511.229,0-.888.045-1.723-.01-2.551A1.893,1.893,0,0,1,30.347,0c1.165.04,2.334.037,3.5,0A1.9,1.9,0,0,1,36,2.13c-.053,1.958,0,3.919-.024,5.878a.752.752,0,0,0,.51.8c1.78.849,3.543,1.733,5.313,2.6a1.216,1.216,0,0,1,.808,1,1.077,1.077,0,0,1-1.375,1.16,3,3,0,0,1-.49-.206c-2.031-1-4.054-2.014-6.095-2.994a1.438,1.438,0,0,1-.892-1.46c.016-2.041.006-4.081.006-6.122v-.55" transform="translate(0 0)" fill="url(#linear-gradient)"/>
        <path id="Tracé_2026" data-name="Tracé 2026" d="M140.166,354.989q-2.818,0-5.636,0a2.029,2.029,0,0,1-2.31-2.332c.009-1.569-.061-3.147.081-4.706a5.275,5.275,0,0,1,5.137-4.774q2.792-.076,5.586,0a5.3,5.3,0,0,1,5.093,5.184c.042,1.537.026,3.076.008,4.613a1.937,1.937,0,0,1-2.081,2.012c-1.96.01-3.919,0-5.879,0M146,352.852a1.429,1.429,0,0,0,.031-.2c0-1.409.029-2.819-.018-4.226a3.152,3.152,0,0,0-3.207-3.147q-2.575-.038-5.152,0a3.266,3.266,0,0,0-3.324,3.373c-.01,1.279,0,2.559,0,3.838,0,.123.022.247.033.364h.876c0-.223,0-.414,0-.606,0-1.166-.011-2.332.006-3.5a.9.9,0,0,1,.846-1,.887.887,0,0,1,.86.978c.011.421,0,.842,0,1.263q0,1.425,0,2.85h6.8c0-.284,0-.525,0-.766,0-1.166-.007-2.332.014-3.5a.831.831,0,0,1,.842-.829.847.847,0,0,1,.812.812c.018.225.011.453.011.68,0,1.195,0,2.389,0,3.612Z" transform="translate(-118.786 -308.295)" fill="url(#linear-gradient)"/>
        <path id="Tracé_2027" data-name="Tracé 2027" d="M26.925,230.394v-.585c0-1.8,0-3.6,0-5.393a2.412,2.412,0,0,1,.083-.668.822.822,0,0,1,1.548-.007,2.143,2.143,0,0,1,.083.619c.006,1.814,0,3.628,0,5.442v.591c.23,0,.419,0,.609,0,1.3.007,2.592,0,3.887.033a1,1,0,0,1,.949,1.036,1.062,1.062,0,0,1-.961.995,2.223,2.223,0,0,1-.243.007c-2.592,0-5.185.005-7.777,0a2.2,2.2,0,0,1-2.283-2.257c-.013-2.2-.024-4.406.008-6.608a7.085,7.085,0,0,1,5.857-6.571,12.029,12.029,0,0,1,1.547-.1c2.22-.011,4.44,0,6.659-.007A7.088,7.088,0,0,1,40.769,218a1.079,1.079,0,0,1,.509,1.515,1.01,1.01,0,0,1-1.515.3,5.7,5.7,0,0,0-3.193-.812c-2.155.015-4.31-.011-6.465.008a5.029,5.029,0,0,0-5.213,5.152c-.022,1.911,0,3.822-.01,5.733,0,.376.117.53.5.512.5-.023,1-.006,1.54-.006" transform="translate(-20.498 -194.889)" fill="url(#linear-gradient)"/>
        <path id="Tracé_2028" data-name="Tracé 2028" d="M269.8,288.243c0-1.782,0-3.5,0-5.212a3.4,3.4,0,0,1,.059-.625.819.819,0,0,1,1.588-.05,2.291,2.291,0,0,1,.062.574c0,1.747,0,3.495,0,5.277H272.7a2.179,2.179,0,0,0,.045-.325c-.015-1.943,0-3.886-.061-5.827a4.151,4.151,0,0,0-3.8-3.823c-2.428-.066-4.858-.044-7.287-.052a1.147,1.147,0,0,1-1.112-.547.84.84,0,0,1,.058-1.042,1.491,1.491,0,0,1,.89-.473c2.511-.036,5.024-.081,7.533,0a6.222,6.222,0,0,1,5.743,5.3,36.044,36.044,0,0,1,.113,3.682c.015.939,0,1.878,0,2.818a2.151,2.151,0,0,1-2.4,2.4c-2.236.008-4.472,0-6.707,0a5.773,5.773,0,0,1-.582-.018,1.027,1.027,0,1,1,.078-2.052c1.328-.013,2.657,0,3.985,0h.6" transform="translate(-233.899 -248.04)" fill="url(#linear-gradient)"/>
        <path id="Tracé_2029" data-name="Tracé 2029" d="M86.365,105.734a5.359,5.359,0,1,1-5.322-5.38,5.383,5.383,0,0,1,5.322,5.38m-8.622.015a3.258,3.258,0,0,0,3.3,3.241,3.265,3.265,0,1,0-.1-6.528,3.257,3.257,0,0,0-3.2,3.287" transform="translate(-67.965 -90.163)" fill="url(#linear-gradient)"/>
        <path id="Tracé_2030" data-name="Tracé 2030" d="M260.092,174.075a4.926,4.926,0,1,1,4.948,4.938,4.967,4.967,0,0,1-4.948-4.938m4.924-2.837a2.835,2.835,0,1,0,2.852,2.827,2.857,2.857,0,0,0-2.852-2.827" transform="translate(-233.681 -151.958)" fill="url(#linear-gradient)"/>
        <path id="Tracé_2031" data-name="Tracé 2031" d="M174.885,262.512a4.136,4.136,0,1,1,.15-8.271,4.136,4.136,0,1,1-.15,8.271M177,258.369a2.054,2.054,0,0,0-4.107-.006,2.054,2.054,0,1,0,4.107.006" transform="translate(-153.46 -228.424)" fill="url(#linear-gradient)"/>
      </g>
    </g>
  </g>
</svg>
