<?xml version="1.0" encoding="UTF-8"?><svg id="a" xmlns="http://www.w3.org/2000/svg" xmlns:xlink="http://www.w3.org/1999/xlink" viewBox="0 0 60.85 41.22"><defs><style>.j{fill:url(#c);}.k{fill:url(#f);}.l{fill:url(#g);}.m{fill:url(#b);}.n{fill:url(#i);}.o{fill:url(#h);}.p{fill:url(#d);}.q{fill:url(#e);}.r{fill:#1d1d1b;}</style><linearGradient id="b" x1="34.06" y1="8.3" x2="34.68" y2="23.56" gradientTransform="matrix(1, 0, 0, 1, 0, 0)" gradientUnits="userSpaceOnUse"><stop offset="0" stop-color="#e1dd1a"/><stop offset=".47" stop-color="#319937"/><stop offset="1" stop-color="#0e4423"/></linearGradient><linearGradient id="c" x1="35.87" y1="19.77" x2="26.6" y2="19.71" gradientTransform="matrix(1, 0, 0, 1, 0, 0)" gradientUnits="userSpaceOnUse"><stop offset="0" stop-color="#d4d615"/><stop offset=".16" stop-color="#aac61d"/><stop offset=".35" stop-color="#7fb626"/><stop offset=".53" stop-color="#5da92d"/><stop offset=".71" stop-color="#44a032"/><stop offset=".87" stop-color="#369a35"/><stop offset="1" stop-color="#319937"/></linearGradient><linearGradient id="d" x1="34.06" y1="8.3" x2="34.68" y2="23.56" xlink:href="#b"/><linearGradient id="e" x1="36.34" y1="5.2" x2="28.71" y2="5.56" gradientTransform="matrix(1, 0, 0, 1, 0, 0)" gradientUnits="userSpaceOnUse"><stop offset="0" stop-color="#e1dd1a"/><stop offset=".06" stop-color="#d1d71c"/><stop offset=".18" stop-color="#a9c723"/><stop offset=".33" stop-color="#68ae2d"/><stop offset=".46" stop-color="#319937"/><stop offset=".53" stop-color="#288432"/><stop offset=".65" stop-color="#1c682b"/><stop offset=".76" stop-color="#145426"/><stop offset=".88" stop-color="#0f4823"/><stop offset="1" stop-color="#0e4423"/></linearGradient><linearGradient id="f" x1="30.95" y1="17.95" x2="33.02" y2="14.48" gradientTransform="matrix(1, 0, 0, 1, 0, 0)" gradientUnits="userSpaceOnUse"><stop offset="0" stop-color="#138ac6"/><stop offset=".21" stop-color="#1286c2"/><stop offset=".41" stop-color="#117db6"/><stop offset=".61" stop-color="#0f6ea2"/><stop offset=".81" stop-color="#0d5987"/><stop offset="1" stop-color="#0a3f66"/></linearGradient><linearGradient id="g" x1="24.23" y1="11.63" x2="26.62" y2="21.5" gradientTransform="matrix(1, 0, 0, 1, 0, 0)" gradientUnits="userSpaceOnUse"><stop offset="0" stop-color="#e1dd1a"/><stop offset=".17" stop-color="#dfdc19"/><stop offset=".23" stop-color="#d8d917"/><stop offset=".27" stop-color="#ccd414"/><stop offset=".31" stop-color="#bbcd0f"/><stop offset=".32" stop-color="#b7cb0e"/><stop offset=".37" stop-color="#a9c512"/><stop offset=".48" stop-color="#86b81c"/><stop offset=".62" stop-color="#4da32e"/><stop offset=".68" stop-color="#319937"/><stop offset="1" stop-color="#0e4323"/></linearGradient><linearGradient id="h" x1="32.7" y1="29" x2="20.38" y2="16.63" gradientTransform="matrix(1, 0, 0, 1, 0, 0)" gradientUnits="userSpaceOnUse"><stop offset="0" stop-color="#6bc6ec"/><stop offset=".12" stop-color="#5bbbe5"/><stop offset=".36" stop-color="#33a0d4"/><stop offset=".53" stop-color="#138ac6"/><stop offset=".73" stop-color="#0f6ca0"/><stop offset="1" stop-color="#0a3f66"/></linearGradient><radialGradient id="i" cx="23.09" cy="9.65" fx="23.09" fy="9.65" r="1.76" gradientTransform="matrix(1, 0, 0, 1, 0, 0)" gradientUnits="userSpaceOnUse"><stop offset="0" stop-color="#fff"/><stop offset=".19" stop-color="#bcd6eb"/><stop offset=".47" stop-color="#5a9cd0"/><stop offset=".54" stop-color="#2a8fc9"/><stop offset=".59" stop-color="#138ac6"/><stop offset=".75" stop-color="#0f6ea3"/><stop offset="1" stop-color="#0a3f66"/></radialGradient></defs><g><path class="m" d="M31.02,23.01h-.02c1.99,.78,4.35,.52,6.12-.67s2.91-3.28,2.94-5.41-1.04-4.26-2.77-5.5c-1.22-.88-2.71-1.32-4-2.09s-2.46-2.09-2.34-3.59c.1-1.28,1.18-2.35,2.43-2.65,.9-.21,1.88-.06,2.67,.41-.99-.9-2.49-1.13-3.78-.76-1.76,.5-3.29,2-3.74,3.78-.42,1.67,0,3.58,1.18,4.85,.05,.05,.1,.1,.15,.15,1.56,1.52,3.99,1.91,5.48,3.5,1.36,1.45,1.63,3.79,.67,5.53s-3.04,2.75-5,2.48Z"/><path class="j" d="M36.28,16.53c.03,.71,.04,1.36-.21,2.02-.35,.91-1.13,1.63-2.05,1.95s-1.96,.25-2.85-.15c-1.1-.49-1.94-1.43-2.65-2.41-.14-.2-.29-.41-.5-.54-.2-.12-.61-.4-.77-.19-.2,.27-.15,.98-.12,1.29,.16,1.36,.82,2.69,1.89,3.54,.59,.47,1.29,.79,2.02,.93,1.34,.26,2.78-.12,3.83-.99,.78-.65,1.34-1.56,1.58-2.55,.16-.63,.16-1.22,.08-1.86-.05-.36-.17-.79-.29-1.14l.03,.09Z"/><path class="p" d="M37.3,11.43c-1.22-.88-2.71-1.32-4-2.09-1.29-.77-2.46-2.09-2.34-3.59,.1-1.28,1.18-2.35,2.43-2.65,.9-.21,1.88-.06,2.67,.41-.99-.9-2.49-1.13-3.78-.76-1.76,.5-3.29,2-3.74,3.78-.42,1.67,0,3.58,1.18,4.85,.05,.05,.1,.1,.15,.15,1.56,1.52,3.99,1.91,5.48,3.5,.39,.42,.7,.92,.9,1.45h0s.03,.07,.03,.07h0c.12,.33,.21,.67,.26,1.01v.07s.02,.1,.03,.15c.06,.58,.04,1.12-.1,1.69-.24,.99-.8,1.9-1.58,2.55-.89,.74-2.08,1.12-3.24,1.06-.21,0-.42-.01-.62-.04h-.02c1.99,.78,4.35,.52,6.12-.67,1.77-1.19,2.91-3.28,2.94-5.41,.03-2.14-1.04-4.26-2.77-5.5Z"/><path class="q" d="M36.06,3.5c-.8-.47-1.78-.62-2.67-.41-1.17,.28-2.19,1.24-2.4,2.41-.07,.5,0,.92,.05,1.13v.05l.02,.03s.02,.08,.03,.11h0s.03,.08,.04,.12h0c.1,.28,.24,.54,.4,.78,.04-.19,.09-.72,.3-1.26,.31-.83,1.1-1.25,1.3-1.36,.94-.5,2.03-.41,2.8-.06,.85,.39,.81,.49,1.3,.91,0-.69-.05-1.48-.97-2.33-.08-.08-.23-.21-.44-.34,.08,.06,.17,.13,.24,.2Z"/><path class="k" d="M35.35,15.01c-.92-.98-2.2-1.51-3.42-2.13-.15-.03-.3-.04-.45-.03-.48,.01-.94,.2-1.35,.45-.38,.23-.75,.53-1.08,.91-.05,.06-.13,.15-.19,.24,.75,.72,1.32,1.62,1.7,2.59,.07,.18,.13,.36,.19,.55h0c.02-.08,.23-.47,.29-.56,.25-.33,.72-.84,1.34-1.07,1.18-.44,2.55-.37,3.66,.22,.04,.02,.08,.04,.12,.05-.2-.45-.47-.86-.81-1.22Z"/><path class="l" d="M28.13,20.89c.15,.19,.45,.18,.7,.14,.65-.09,1.36-.24,1.76-.75,.23-.3,.33-.68,.36-1.05,.06-.75-.12-1.49-.39-2.19-.56-1.44-1.55-2.74-2.9-3.49-1.69-.94-4.01-.87-5.46,.5-.63,.59-1.06,1.39-1.26,2.22-.3,1.24-.12,2.56,.31,3.76,.29,.8,.69,1.57,1.25,2.21-.46-.86-.92-1.74-1.09-2.7s-.02-2.03,.64-2.75c.6-.66,1.54-.94,2.44-.9,.56,.02,1.12,.15,1.6,.44,.75,.46,1.24,1.25,1.58,2.07,.26,.6,.46,1.24,.4,1.89-.02,.2-.06,.43,.06,.59h0Z"/><path class="o" d="M32.67,25.3c-1.12-1.29-2.72-2.03-4.3-2.69-1.57-.66-3.21-1.29-4.48-2.43-.44-.4-.83-.86-1.04-1.41-.27-.73-.09-1.87,.11-2.62-.35,.15-.67,.36-.93,.64-.66,.72-.81,1.79-.64,2.75,.17,.96,.64,1.84,1.09,2.7-.07-.08-.14-.16-.2-.24,.16,.26,.35,.51,.55,.74,1.12,1.29,2.7,2.06,4.17,2.91,.98,.57,1.93,1.19,2.77,1.94,.45,.4,.88,.86,1.06,1.44,.04,.12,.08,.26,.2,.3,.14,.05,.28-.08,.37-.19,.53-.66,1.04-1.34,1.51-2.05,.09-.14,.19-.28,.23-.44,.01-.04,.02-.08,.03-.12,.07-.44-.2-.88-.5-1.23Z"/><circle class="n" cx="23.06" cy="10.36" r="1.53"/></g><g><path class="r" d="M4.3,31.64c.05,0,.1-.02,.14-.06,.04-.04,.06-.09,.06-.15s-.02-.11-.05-.15c-.04-.04-.08-.06-.13-.06s-.1,.02-.14,.06c-.04,.04-.06,.09-.06,.14,0,.06,.02,.11,.06,.15,.04,.04,.08,.06,.14,.06Z"/><path class="r" d="M3.82,31.64c.05,0,.1-.02,.14-.06,.04-.04,.06-.09,.06-.15s-.02-.11-.05-.15c-.04-.04-.08-.06-.13-.06s-.1,.02-.14,.06c-.04,.04-.06,.09-.06,.14,0,.06,.02,.11,.06,.15,.04,.04,.08,.06,.14,.06Z"/><path class="r" d="M10.28,33.33c.14-.43,.07-.75-.2-.96-.12-.08-.3-.12-.55-.12h-1.57l-.15,.34h1.52c.2,0,.34,0,.41,.02,.07,.01,.14,.05,.2,.13,.06,.07,.08,.17,.07,.28s-.04,.2-.1,.25c-.05,.05-.16,.07-.31,.07H5.08v-1.27h-.32v.23c-.4-.3-.81-.36-1.22-.17-.44,.28-.62,.64-.55,1.09,.06,.21,.23,.36,.5,.46h6.29c.25-.07,.41-.18,.49-.34Zm-5.52-.06s-.02,.06-.05,.06h-1.14c-.13,0-.22-.08-.26-.2-.05-.48,.17-.75,.68-.81,.59,.03,.85,.35,.78,.95Z"/><path class="r" d="M15.62,33.33c.14-.43,.07-.75-.2-.96-.12-.08-.3-.12-.55-.12h-1.72v.34h1.52c.2,0,.34,0,.41,.02,.07,.01,.14,.05,.2,.13,.06,.07,.08,.17,.07,.28s-.04,.2-.1,.25c-.05,.05-.16,.07-.31,.07h-1.84v-1.29l-.31,.12v1.17h-2.49c-.02,.11-.16,.23-.4,.34h5.22c.25-.06,.41-.18,.49-.34Z"/><path class="r" d="M16.19,33.33h-.53c-.02,.11-.16,.23-.4,.34h1.25v-2.48h-.31v2.14Z"/><rect class="r" x="16.81" y="31.19" width=".31" height="2.48"/><path class="r" d="M20.13,32.5c-.46,.08-.7,.36-.72,.83-.39,0-.64,.17-.76,.52-.07,.55,.25,.81,.94,.77l.2-.3c-.47,.02-.74-.06-.81-.22-.05-.33,.13-.48,.52-.43,.1,0,.16-.05,.19-.14l.06-.36c.07-.18,.16-.29,.28-.32,.12-.03,.25,0,.42,.08,.1,.11,.14,.24,.11,.38,0,.15-.07,.22-.22,.2l-.47-.27-.03,.32,.57,.37,.09-.03c.33-.24,.46-.53,.38-.87-.11-.37-.36-.55-.74-.54Z"/><path class="r" d="M29.61,33.33h-.62c.04-.13,.06-.25,.06-.35,0-.77-.51-1.13-1.5-1.09h-.66l-.15,.34h.22c-.25,.35-.32,.72-.2,1.1h-.54v-2.14h-.31v2.14h-2.64c.08-.99-.33-1.44-1.23-1.36-.66,.19-.9,.65-.72,1.38,.08,.16,.19,.27,.34,.32h1.25c-.05,.16-.14,.28-.27,.37h-.99l.18,.34h.73c.33-.04,.55-.28,.65-.71h6.7v-2.48h-.31v2.14Zm-7.87,0c-.14-.09-.21-.21-.19-.37,.01-.37,.17-.6,.49-.69,.67-.08,.98,.27,.93,1.03v.03h-1.23Zm6.84,0h-1.44c-.08-.14-.12-.28-.11-.41,.05-.42,.32-.65,.81-.69,.28,0,.52,.07,.71,.23,.23,.3,.24,.6,.03,.87Z"/><path class="r" d="M33.28,33.98c-.05,0-.1,.02-.14,.06-.04,.04-.06,.09-.06,.14,0,.06,.02,.11,.06,.15,.04,.04,.08,.06,.14,.06s.1-.02,.14-.06c.04-.04,.06-.09,.06-.15s-.02-.11-.05-.15c-.04-.04-.08-.06-.13-.06Z"/><path class="r" d="M32.81,33.98c-.05,0-.1,.02-.14,.06-.04,.04-.06,.09-.06,.14,0,.06,.02,.11,.06,.15,.04,.04,.08,.06,.14,.06s.1-.02,.14-.06c.04-.04,.06-.09,.06-.15s-.02-.11-.05-.15c-.04-.04-.08-.06-.13-.06Z"/><path class="r" d="M37.93,33.33h-2.67l-.19-.42c-.06-.06-.16-.1-.32-.1h-1.88l.24,.34h1.09c.08,.06,.08,.12,0,.18h-1.97c-.24,.01-.39-.04-.45-.18-.06-.13-.06-.3,.03-.51,.2-.3,.45-.45,.75-.45l-.09-.32c-.68,.16-1.03,.55-1.06,1.18,0,.15,.06,.29,.15,.4,.12,.12,.27,.19,.44,.22h2.17c.37-.05,.51-.22,.39-.52h.22l.26,.53h3.2v-2.48h-.31v2.14Z"/><path class="r" d="M42.23,33.33h-.62c.04-.13,.06-.25,.06-.35,0-.77-.51-1.13-1.5-1.09h-.66l-.15,.34h.22c-.25,.35-.32,.72-.2,1.1h-.57v-2.14h-.31v2.48h4.04v-2.48h-.31v2.14Zm-1.03,0h-1.44c-.08-.14-.12-.28-.11-.41,.05-.42,.32-.65,.81-.69,.28,0,.52,.07,.71,.23,.23,.3,.24,.6,.03,.87Z"/><rect class="r" x="42.85" y="31.19" width=".31" height="2.48"/><path class="r" d="M56.93,33.33h-.59c.01-.09,0-.19-.02-.29-.11-.37-.36-.55-.74-.54-.46,.08-.7,.36-.72,.83h-.65c.04-.13,.06-.25,.06-.35,0-.77-.51-1.13-1.5-1.09h-.66l-.15,.34h.22c-.25,.35-.32,.72-.2,1.1h-.36c.14-.8-.16-1.25-.89-1.33v-.23l-.31,.13v.11c-.73,.09-1.03,.53-.89,1.32h-2.67c.05-.1,.08-.2,.09-.32-.02-.69-.4-1.06-1.12-1.11-.62,.08-.98,.42-1.08,1.03h.34c.1-.36,.32-.58,.65-.67,.68-.02,.95,.29,.82,.94-.05,.08-.11,.12-.2,.14h-1.64l.17,.34h1.3c.08,0,.15,0,.21,0h8.38c.22,0,.34-.05,.36-.14l.06-.36c.07-.18,.16-.29,.28-.32,.12-.03,.25,0,.42,.08,.1,.11,.14,.24,.11,.38,0,.15-.07,.22-.22,.2l-.47-.27-.03,.32,.57,.37,.09-.04c.1-.07,.18-.15,.25-.24h1.05v-2.48h-.31v2.14Zm-6.51,0c-.47,.03-.69-.11-.65-.43,.03-.41,.24-.61,.65-.61v1.04Zm.31,0v-1.04c.41,0,.62,.2,.65,.61,.04,.32-.18,.47-.65,.43Zm3.08,0h-1.44c-.08-.14-.12-.28-.11-.41,.05-.42,.32-.65,.81-.69,.28,0,.52,.07,.71,.23,.23,.3,.24,.6,.03,.87Z"/><rect class="r" x="57.56" y="31.19" width=".31" height="2.48"/></g><g><path class="r" d="M3.37,38.65h-.38v-2.55h.38v2.55Z"/><path class="r" d="M4.98,38.65h-.33l-.61-1.61c.02,.08,.02,.14,.02,.18v1.42h-.37v-2.55h.33l.61,1.57c-.02-.08-.02-.14-.02-.18v-1.39h.37v2.55Z"/><path class="r" d="M6.51,38.41c0,.16-.08,.23-.23,.23h-.77c-.15,0-.23-.08-.23-.23v-.61h.38v.52h.47v-.5l-.76-.72c-.06-.05-.08-.12-.08-.2v-.57c0-.16,.08-.23,.23-.23h.77c.15,0,.23,.08,.23,.23v.57h-.38v-.48h-.47v.46l.76,.72c.06,.05,.08,.12,.08,.21v.61Z"/><path class="r" d="M7.92,36.43h-.42v2.21h-.38v-2.21h-.42v-.34h1.22v.34Z"/><path class="r" d="M8.5,38.65h-.38v-2.55h.38v2.55Z"/><path class="r" d="M9.92,36.43h-.42v2.21h-.38v-2.21h-.42v-.34h1.22v.34Z"/><path class="r" d="M11.39,38.41c0,.16-.08,.23-.23,.23h-.81c-.15,0-.23-.08-.23-.23v-2.32h.38v2.22h.51v-2.22h.38v2.32Z"/><path class="r" d="M12.81,36.43h-.42v2.21h-.38v-2.21h-.42v-.34h1.22v.34Z"/><path class="r" d="M14.91,38.41c0,.16-.08,.23-.23,.23h-.77c-.15,0-.23-.08-.23-.23v-.61h.38v.52h.47v-.5l-.76-.72c-.06-.05-.08-.12-.08-.2v-.57c0-.16,.08-.23,.23-.23h.77c.15,0,.23,.08,.23,.23v.57h-.38v-.48h-.47v.46l.76,.72c.06,.05,.08,.12,.08,.21v.61Z"/><path class="r" d="M16.49,38.41c0,.16-.08,.23-.23,.23h-.81c-.15,0-.23-.08-.23-.23v-2.32h.38v2.22h.51v-2.22h.38v2.32Z"/><path class="r" d="M18.03,37.48c0,.16-.08,.24-.23,.24h-.62v.92h-.38v-2.55h1c.16,0,.23,.08,.23,.23v1.15Zm-.38-.09v-.97h-.47v.97h.47Z"/><path class="r" d="M19.36,38.65h-1.06v-2.55h1.05v.34h-.67v.74h.57v.33h-.57v.8h.68v.34Zm-.08-3.09l-.47,.43h-.27l.28-.44h.47Z"/><path class="r" d="M20.92,38.65h-.4l-.42-1.18v-.23h.37v-.81h-.48v2.22h-.38v-2.55h1.01c.15,0,.23,.08,.23,.23v.93c0,.11-.04,.18-.11,.21-.04,.02-.12,.02-.25,.02l.42,1.16Z"/><path class="r" d="M21.54,38.65h-.38v-2.55h.38v2.55Z"/><path class="r" d="M22.92,38.65h-1.06v-2.55h1.05v.34h-.67v.74h.57v.33h-.57v.8h.68v.34Z"/><path class="r" d="M24.45,38.41c0,.16-.08,.23-.23,.23h-.81c-.15,0-.23-.08-.23-.23v-2.32h.38v2.22h.51v-2.22h.38v2.32Z"/><path class="r" d="M26.06,38.65h-.4l-.42-1.18v-.23h.37v-.81h-.48v2.22h-.38v-2.55h1.01c.15,0,.23,.08,.23,.23v.93c0,.11-.04,.18-.11,.21-.04,.02-.12,.02-.25,.02l.42,1.16Z"/><path class="r" d="M28.26,38.16c0,.15-.04,.27-.13,.35-.09,.09-.21,.13-.36,.13h-.78v-2.55h.78c.15,0,.27,.04,.36,.13,.09,.09,.13,.2,.13,.35v1.59Zm-.38-.06v-1.47c0-.14-.07-.21-.22-.21h-.28v1.9h.27c.16,0,.23-.07,.23-.22Z"/><path class="r" d="M29.61,38.65h-1.06v-2.55h1.05v.34h-.67v.74h.57v.33h-.57v.8h.68v.34Z"/><path class="r" d="M31.09,38.41c0,.16-.08,.23-.23,.23h-.77c-.15,0-.23-.08-.23-.23v-.61h.38v.52h.47v-.5l-.76-.72c-.06-.05-.08-.12-.08-.2v-.57c0-.16,.08-.23,.23-.23h.77c.15,0,.23,.08,.23,.23v.57h-.38v-.48h-.47v.46l.76,.72c.06,.05,.08,.12,.08,.21v.61Z"/><path class="r" d="M33.31,38.41c0,.16-.08,.23-.23,.23h-.77c-.15,0-.23-.08-.23-.23v-.61h.38v.52h.47v-.5l-.76-.72c-.06-.05-.08-.12-.08-.2v-.57c0-.16,.08-.23,.23-.23h.77c.15,0,.23,.08,.23,.23v.57h-.38v-.48h-.47v.46l.76,.72c.06,.05,.08,.12,.08,.21v.61Z"/><path class="r" d="M34.86,38.41c0,.16-.08,.23-.23,.23h-.8c-.15,0-.23-.08-.23-.23v-2.08c0-.16,.08-.23,.23-.23h.8c.16,0,.23,.08,.23,.23v.6h-.38v-.5h-.49v1.9h.49v-.54h.38v.63Z"/><path class="r" d="M35.55,38.65h-.38v-2.55h.38v2.55Z"/><path class="r" d="M36.92,38.65h-1.06v-2.55h1.05v.34h-.67v.74h.57v.33h-.57v.8h.68v.34Z"/><path class="r" d="M38.48,38.65h-.33l-.61-1.61c.02,.08,.02,.14,.02,.18v1.42h-.37v-2.55h.33l.61,1.57c-.02-.08-.02-.14-.02-.18v-1.39h.37v2.55Z"/><path class="r" d="M40.04,38.41c0,.16-.08,.23-.23,.23h-.8c-.15,0-.23-.08-.23-.23v-2.08c0-.16,.08-.23,.23-.23h.8c.16,0,.23,.08,.23,.23v.6h-.38v-.5h-.49v1.9h.49v-.54h.38v.63Z"/><path class="r" d="M41.4,38.65h-1.06v-2.55h1.05v.34h-.67v.74h.57v.33h-.57v.8h.68v.34Z"/><path class="r" d="M42.88,38.41c0,.16-.08,.23-.23,.23h-.77c-.15,0-.23-.08-.23-.23v-.61h.38v.52h.47v-.5l-.76-.72c-.06-.05-.08-.12-.08-.2v-.57c0-.16,.08-.23,.23-.23h.77c.15,0,.23,.08,.23,.23v.57h-.38v-.48h-.47v.46l.76,.72c.06,.05,.08,.12,.08,.21v.61Z"/><path class="r" d="M45.14,38.16c0,.15-.04,.27-.13,.35-.09,.09-.21,.13-.36,.13h-.78v-2.55h.78c.15,0,.27,.04,.36,.13,.09,.09,.13,.2,.13,.35v1.59Zm-.38-.06v-1.47c0-.14-.07-.21-.22-.21h-.28v1.9h.27c.16,0,.23-.07,.23-.22Z"/><path class="r" d="M46.49,38.65h-1.06v-2.55h1.05v.34h-.67v.74h.57v.33h-.57v.8h.68v.34Z"/><path class="r" d="M48.44,38.65h-1v-2.55h.38v2.21h.62v.34Z"/><path class="r" d="M49.96,38.65h-.38l-.08-.48h-.48l-.08,.48h-.38l.49-2.55h.4l.49,2.55Zm-.51-.81l-.19-1.15-.19,1.15h.37Z"/><path class="r" d="M52.09,38.41c0,.16-.08,.23-.23,.23h-.77c-.15,0-.23-.08-.23-.23v-.61h.38v.52h.47v-.5l-.76-.72c-.06-.05-.08-.12-.08-.2v-.57c0-.16,.08-.23,.23-.23h.77c.15,0,.23,.08,.23,.23v.57h-.38v-.48h-.47v.46l.76,.72c.06,.05,.08,.12,.08,.21v.61Z"/><path class="r" d="M53.68,38.65h-.38l-.08-.48h-.48l-.08,.48h-.38l.49-2.55h.4l.49,2.55Zm-.51-.81l-.19-1.15-.19,1.15h.37Z"/><path class="r" d="M55.19,38.65h-.33l-.61-1.61c.02,.08,.02,.14,.02,.18v1.42h-.37v-2.55h.33l.61,1.57c-.02-.08-.02-.14-.02-.18v-1.39h.37v2.55Z"/><path class="r" d="M56.6,36.43h-.42v2.21h-.38v-2.21h-.42v-.34h1.22v.34Z"/><path class="r" d="M57.86,38.65h-1.06v-2.55h1.05v.34h-.67v.74h.57v.33h-.57v.8h.68v.34Zm-.08-3.09l-.47,.43h-.27l.28-.44h.47Z"/></g></svg>