<svg xmlns="http://www.w3.org/2000/svg" xmlns:xlink="http://www.w3.org/1999/xlink" width="170.732" height="95.777" viewBox="0 0 170.732 95.777">
  <defs>
    <clipPath id="clip-path">
      <rect id="Rectangle_1068" data-name="Rectangle 1068" width="170.732" height="95.777" fill="none"/>
    </clipPath>
  </defs>
  <g id="Group_942" data-name="Group 942" transform="translate(0 0.001)">
    <path id="Path_1755" data-name="Path 1755" d="M254.964,0,221.4,59.169H288.53Z" transform="translate(-172.316)" fill="#ffe300"/>
    <g id="Group_941" data-name="Group 941" transform="translate(0 -0.001)">
      <g id="Group_940" data-name="Group 940" clip-path="url(#clip-path)">
        <path id="Path_1756" data-name="Path 1756" d="M270.8,175.888,269.15,182.4c-.677-1.029-2.115-1.172-3.345-1.111-2.229.11-4.446.541-6.675.442a7.913,7.913,0,0,1-5.952-2.583,7.455,7.455,0,0,1-6.163.441,4.579,4.579,0,0,1-2.74-5.157,10.428,10.428,0,0,1-5.668,3.971,30.045,30.045,0,0,1-6.96,1.066,62.077,62.077,0,0,1-9.954.154c-1.989-.178-4.051-.53-5.94.117-.531.182-1.034.439-1.568.609a16.123,16.123,0,0,1-2.208.424,28.59,28.59,0,0,0-7.63,2.878l.183-4.318a15.583,15.583,0,0,1-4.648,4.683c-1.943,1.069-4.616,1.15-6.185-.416a4.736,4.736,0,0,0-1.2-1.1c-1.179-.549-2.417.584-3.227,1.6a48.316,48.316,0,0,1-5.193-3.922c-.307-.266,2.623-2.84,2.945-3.029a9.569,9.569,0,0,1,3.814-1.284c2.711-.33,5.672.048,8.164-1.288,1.674-.9,2.876-2.489,4.487-3.5,2.372-1.482,5.333-1.541,8.13-1.554q.085,1.974.171,3.947c1.484-.789,1.766-3.332,3.442-3.463.862-.068,1.58.6,2.26,1.133a12.712,12.712,0,0,0,7.81,2.4,37.847,37.847,0,0,0,8.22-1.178,11.807,11.807,0,0,0,4.318-1.56c1.594-1.112,2.527-2.919,3.763-4.418a8.911,8.911,0,0,1,6.181-3.473,5.491,5.491,0,0,1,5.6,3.742c.423,1.66-.136,3.388-.431,5.076a5.961,5.961,0,0,1,4.689,1.834,3.875,3.875,0,0,0,1.5,1.267,3.123,3.123,0,0,0,1.366-.016,20.892,20.892,0,0,1,10.288,1.065" transform="translate(-143.248 -126.797)" fill="#257327"/>
        <path id="Path_1757" data-name="Path 1757" d="M291.557,259.1l1.7,5.247a14.992,14.992,0,0,1,3.695-1.182,16.922,16.922,0,0,0,4.508-1.034c.887-.443,1.552-1.256,2.956-2.069a9.887,9.887,0,0,1,5.154-.961,56.419,56.419,0,0,1,7.889.961c1.737.443,6.983,2.143,6.983,2.143l1.478-5.321a71.781,71.781,0,0,0-7.02-2.291c-1.478-.222-6.655-.074-8.943,0s-4.727-.148-6.132.3-3.621,2.023-4.951,2.342-6.281,1.427-6.281,1.427Z" transform="translate(-226.922 -198.062)" fill="#257327"/>
        <path id="Path_1758" data-name="Path 1758" d="M335.418,73.791a11.827,11.827,0,0,0-4.34-2.8,7.489,7.489,0,0,0-3.818-.142,2.41,2.41,0,0,0-2.481,2.168c-.055.417-.049,7.753-.031,12.582l-.665,0c0-1.246-.042-12.188.04-12.691a3.852,3.852,0,0,1,.409-1.22A3.74,3.74,0,0,1,327.11,70.2a8.168,8.168,0,0,1,4.163.154,10.279,10.279,0,0,1,2.869,1.494,12.957,12.957,0,0,0-2.412-2.316,3.994,3.994,0,0,0,2.866-3.876,3.876,3.876,0,1,0-7.747,0,4.121,4.121,0,0,0,.372,1.71A13.688,13.688,0,0,0,323.7,66.9c-.441,0-.877.021-1.308.062a4.32,4.32,0,0,0,1.9-3.64,3.889,3.889,0,1,0-7.747,0,4.149,4.149,0,0,0,3.179,4.165,12.642,12.642,0,0,0-9.162,11.975,12.273,12.273,0,0,0,4.12,9.131v1.228c1.268.175,2.925.394,3.27.394a1.334,1.334,0,0,0,1.292-.756,1.583,1.583,0,0,0-.321-1.683,11.808,11.808,0,0,0-1.136-.784,17.366,17.366,0,0,1-2.134-1.524,9.633,9.633,0,0,1-1.938-3.7,12.246,12.246,0,0,1-.233-2.984l.664.027a11.852,11.852,0,0,0,.21,2.78,8.932,8.932,0,0,0,1.756,3.395,17.473,17.473,0,0,0,2.037,1.447,8.585,8.585,0,0,1,1.271.9,2.248,2.248,0,0,1,.431,2.4,2,2,0,0,1-1.9,1.149c-.4,0-2.075-.222-3.27-.387v15.757h3.935v-13.2h1.275v13.2h4.089v-13.2h1.275v13.2h8.436V87.618a12.192,12.192,0,0,0,3.147-8.153,12.062,12.062,0,0,0-1.417-5.674" transform="translate(-241.71 -45.989)" fill="#00579b"/>
        <path id="Path_1759" data-name="Path 1759" d="M335.418,73.791a11.827,11.827,0,0,0-4.34-2.8,7.489,7.489,0,0,0-3.818-.142,2.41,2.41,0,0,0-2.481,2.168c-.055.417-.049,7.753-.031,12.582l-.665,0c0-1.246-.042-12.188.04-12.691a3.852,3.852,0,0,1,.409-1.22A3.74,3.74,0,0,1,327.11,70.2a8.168,8.168,0,0,1,4.163.154,10.279,10.279,0,0,1,2.869,1.494,12.957,12.957,0,0,0-2.412-2.316,3.994,3.994,0,0,0,2.866-3.876,3.876,3.876,0,1,0-7.747,0,4.121,4.121,0,0,0,.372,1.71A13.688,13.688,0,0,0,323.7,66.9c-.441,0-.877.021-1.308.062a4.32,4.32,0,0,0,1.9-3.64,3.889,3.889,0,1,0-7.747,0,4.149,4.149,0,0,0,3.179,4.165,12.642,12.642,0,0,0-9.162,11.975,12.273,12.273,0,0,0,4.12,9.131v1.228c1.268.175,2.925.394,3.27.394a1.334,1.334,0,0,0,1.292-.756,1.583,1.583,0,0,0-.321-1.683,11.808,11.808,0,0,0-1.136-.784,17.366,17.366,0,0,1-2.134-1.524,9.633,9.633,0,0,1-1.938-3.7,12.246,12.246,0,0,1-.233-2.984l.664.027a11.852,11.852,0,0,0,.21,2.78,8.932,8.932,0,0,0,1.756,3.395,17.473,17.473,0,0,0,2.037,1.447,8.585,8.585,0,0,1,1.271.9,2.248,2.248,0,0,1,.431,2.4,2,2,0,0,1-1.9,1.149c-.4,0-2.075-.222-3.27-.387v15.757h3.935v-13.2h1.275v13.2h4.089v-13.2h1.275v13.2h8.436V87.618a12.192,12.192,0,0,0,3.147-8.153,12.062,12.062,0,0,0-1.417-5.674" transform="translate(-241.71 -45.989)" fill="#00579b"/>
        <path id="Path_1760" data-name="Path 1760" d="M353.346,195.671a9.556,9.556,0,0,1-7.861,1.45,6.712,6.712,0,0,1-2.175-1.084,1.733,1.733,0,0,1-.859.9,2.845,2.845,0,0,1-1.745.18c-.034,0,1.509.878,1.616.931.624.31,1.251.617,1.9.868.219.084,1.619.391,1.621.667v6.318a3.57,3.57,0,0,1-.267.868q-.3.962-.589,1.925c-.333,1.1-1.106,2.619-.488,3.724a.991.991,0,0,0,.3.351.89.89,0,0,0,.9-.014,2.082,2.082,0,0,0,.929-1.13,26.421,26.421,0,0,0,1.193-5.575h.462c.175,0,.91,4.049,1.044,4.418.266.735.649,1.86,1.391,2.237a.793.793,0,0,0,.654.062c1.1-.466.441-2.744.21-3.546-.17-.59-.376-1.168-.563-1.752a5.774,5.774,0,0,1-.437-1.457v-6.392a7.091,7.091,0,0,0,1.737-.28,5.707,5.707,0,0,0,1.556-.812,4.551,4.551,0,0,0,1.834-2.862Z" transform="translate(-265.174 -152.293)" fill="#fff"/>
        <path id="Path_1761" data-name="Path 1761" d="M364.815,184.312a2.549,2.549,0,1,0-2.549-2.549,2.549,2.549,0,0,0,2.549,2.549" transform="translate(-281.955 -139.483)" fill="#fff"/>
        <path id="Path_1762" data-name="Path 1762" d="M450.224,264.286,452,267.611l10.567-6.208-2.217-3.4Z" transform="translate(-350.414 -200.807)" fill="#257327"/>
        <path id="Path_1763" data-name="Path 1763" d="M11.017,327.4a.648.648,0,0,0,.491-.215.788.788,0,0,0,.009-1.043.624.624,0,0,0-.473-.206.684.684,0,0,0-.5.219.7.7,0,0,0-.215.509.724.724,0,0,0,.206.521.652.652,0,0,0,.487.215" transform="translate(-8.035 -253.679)" fill="#00579b"/>
        <path id="Path_1764" data-name="Path 1764" d="M18.571,327.4a.648.648,0,0,0,.491-.215.788.788,0,0,0,.009-1.043.624.624,0,0,0-.473-.206.685.685,0,0,0-.5.219.705.705,0,0,0-.215.509.724.724,0,0,0,.206.521.652.652,0,0,0,.487.215" transform="translate(-13.915 -253.679)" fill="#00579b"/>
        <path id="Path_1765" data-name="Path 1765" d="M9.146,332.966H7.418V328.5H6.3v.815a4.02,4.02,0,0,0-4.314-.587,3.556,3.556,0,0,0-1.929,3.832,2.509,2.509,0,0,0,1.771,1.6l6.129-.009H10.25v-8.7h-1.1Zm-2.858-.219q-.018.21-.175.228H2.088a.971.971,0,0,1-.921-.719q-.289-2.525,2.385-2.85,3.148.158,2.736,3.341" transform="translate(0 -253.309)" fill="#00579b"/>
        <path id="Path_1766" data-name="Path 1766" d="M99.848,326.292a.648.648,0,0,0,.491-.215.788.788,0,0,0,.009-1.043.624.624,0,0,0-.473-.206.684.684,0,0,0-.5.219.7.7,0,0,0-.215.509.725.725,0,0,0,.206.521.652.652,0,0,0,.487.215" transform="translate(-77.173 -252.817)" fill="#00579b"/>
        <path id="Path_1767" data-name="Path 1767" d="M76.656,332.966q.737-2.271-.693-3.367a3.664,3.664,0,0,0-1.938-.439H67.949v1.2h5.366a9.927,9.927,0,0,1,1.451.057,1.178,1.178,0,0,1,.706.443,1.3,1.3,0,0,1,.263.986,1.256,1.256,0,0,1-.342.864,1.7,1.7,0,0,1-1.087.254H67.818v-7.505h-1.1v7.505h-1.35a2.426,2.426,0,0,0,.088-.368q.307-4.568-3.3-4.612-3.191.053-3.016,4.621.026.307.1.359H57.621q.4-5.2-4.349-4.77-3.472,1.017-2.543,4.831a2.217,2.217,0,0,0,1.2,1.131h4.427a2.711,2.711,0,0,1-.946,1.315H51.93l.649,1.192h2.578q1.768-.213,2.288-2.508H74.911a2.485,2.485,0,0,0,1.745-1.192m-24.428,0a1.257,1.257,0,0,1-.658-1.315A2.305,2.305,0,0,1,53.3,329.24q3.56-.4,3.279,3.6c0,.042-.006.081-.007.123Zm12.179-.368a.778.778,0,0,1-.088.368H60.26a.815.815,0,0,1-.105-.342q-.245-3.674,1.981-3.559,2.744-.176,2.271,3.533" transform="translate(-39.33 -253.309)" fill="#00579b"/>
        <path id="Path_1768" data-name="Path 1768" d="M166,332.966h-1.964q-.132.6-1.4,1.192h4.472v-8.7H166Z" transform="translate(-126.58 -253.309)" fill="#00579b"/>
        <rect id="Rectangle_1062" data-name="Rectangle 1062" width="1.105" height="8.698" transform="translate(41.631 72.152)" fill="#00579b"/>
        <path id="Path_1769" data-name="Path 1769" d="M227.755,327.4a.648.648,0,0,0,.491-.215.788.788,0,0,0,.009-1.043.624.624,0,0,0-.473-.206.684.684,0,0,0-.5.219.7.7,0,0,0-.215.509.724.724,0,0,0,.206.521.652.652,0,0,0,.487.215" transform="translate(-176.724 -253.679)" fill="#00579b"/>
        <path id="Path_1770" data-name="Path 1770" d="M235.309,327.4a.648.648,0,0,0,.491-.215.788.788,0,0,0,.009-1.043.624.624,0,0,0-.473-.206.685.685,0,0,0-.5.219.705.705,0,0,0-.215.509.724.724,0,0,0,.206.521.652.652,0,0,0,.487.215" transform="translate(-182.604 -253.679)" fill="#00579b"/>
        <path id="Path_1771" data-name="Path 1771" d="M260.688,369.52a.683.683,0,0,0-.5.219.7.7,0,0,0-.215.508.726.726,0,0,0,.206.522.664.664,0,0,0,.978,0,.788.788,0,0,0,.009-1.043.623.623,0,0,0-.474-.206" transform="translate(-202.336 -287.601)" fill="#00579b"/>
        <path id="Path_1772" data-name="Path 1772" d="M227.673,344.3v-4.428H226.48v3.235h-2.324v-4.463h-1.114v.815a4.02,4.02,0,0,0-4.314-.587A3.556,3.556,0,0,0,216.8,342.7a2.509,2.509,0,0,0,1.771,1.6l6.129-.009Zm-4.647-1.411q-.018.21-.175.228h-4.025a.971.971,0,0,1-.921-.719q-.289-2.525,2.385-2.85,3.148.158,2.736,3.341" transform="translate(-168.69 -263.45)" fill="#00579b"/>
        <path id="Path_1773" data-name="Path 1773" d="M253.134,369.52a.683.683,0,0,0-.5.219.7.7,0,0,0-.215.508.725.725,0,0,0,.206.522.664.664,0,0,0,.977,0,.788.788,0,0,0,.009-1.043.623.623,0,0,0-.474-.206" transform="translate(-196.457 -287.601)" fill="#00579b"/>
        <path id="Path_1774" data-name="Path 1774" d="M289.531,332.966q.737-2.271-.693-3.367a3.665,3.665,0,0,0-1.938-.438h-5.55l-.526,1.2h5.366a9.9,9.9,0,0,1,1.451.057,1.178,1.178,0,0,1,.706.443,1.3,1.3,0,0,1,.263.986,1.255,1.255,0,0,1-.342.864,1.7,1.7,0,0,1-1.087.254h-8.625a2.688,2.688,0,0,0-.055-1.017,2.416,2.416,0,0,0-2.622-1.9,2.831,2.831,0,0,0-2.543,2.92h-2.771v-7.505h-1.1v8.7h3.6q1.149,0,1.271-.482l.211-1.263q.359-.973.973-1.122a2.185,2.185,0,0,1,1.464.272,1.473,1.473,0,0,1,.386,1.341q-.009.816-.771.719l-1.666-.956-.123,1.131,2.025,1.315.333-.122a4.167,4.167,0,0,0,.872-.833h9.746a2.485,2.485,0,0,0,1.745-1.192" transform="translate(-209.724 -253.309)" fill="#00579b"/>
        <path id="Path_1775" data-name="Path 1775" d="M357.507,332.966h-2.043q-.132.6-1.4,1.192h4.55v-8.7h-1.1Z" transform="translate(-275.569 -253.309)" fill="#00579b"/>
        <path id="Path_1776" data-name="Path 1776" d="M409.491,327.4a.648.648,0,0,0,.491-.215.788.788,0,0,0,.009-1.043.624.624,0,0,0-.473-.206.684.684,0,0,0-.5.219.7.7,0,0,0-.215.509.725.725,0,0,0,.206.521.652.652,0,0,0,.487.215" transform="translate(-318.171 -253.679)" fill="#00579b"/>
        <path id="Path_1777" data-name="Path 1777" d="M417.046,327.4a.649.649,0,0,0,.491-.215.789.789,0,0,0,.009-1.043.624.624,0,0,0-.474-.206.684.684,0,0,0-.5.219.7.7,0,0,0-.215.509.724.724,0,0,0,.206.521.651.651,0,0,0,.487.215" transform="translate(-324.051 -253.679)" fill="#00579b"/>
        <path id="Path_1778" data-name="Path 1778" d="M442.423,369.52a.682.682,0,0,0-.5.219.7.7,0,0,0-.215.508.726.726,0,0,0,.206.522.664.664,0,0,0,.978,0,.788.788,0,0,0,.009-1.043.623.623,0,0,0-.473-.206" transform="translate(-343.782 -287.601)" fill="#00579b"/>
        <path id="Path_1779" data-name="Path 1779" d="M434.87,369.52a.683.683,0,0,0-.5.219.7.7,0,0,0-.215.508.725.725,0,0,0,.206.522.664.664,0,0,0,.977,0,.788.788,0,0,0,.009-1.043.623.623,0,0,0-.474-.206" transform="translate(-337.904 -287.601)" fill="#00579b"/>
        <path id="Path_1780" data-name="Path 1780" d="M412.513,339.872H411.32v3.235h-1.912v-3.235h-1.192v3.235h-2.324v-4.463h-1.114v.815a4.02,4.02,0,0,0-4.314-.587,3.555,3.555,0,0,0-1.929,3.832,2.509,2.509,0,0,0,1.771,1.6l6.129-.009h6.077Zm-7.751,3.016q-.018.21-.175.228h-4.024a.972.972,0,0,1-.921-.719q-.289-2.525,2.385-2.85,3.148.158,2.736,3.341" transform="translate(-310.136 -263.45)" fill="#00579b"/>
        <path id="Path_1781" data-name="Path 1781" d="M456.664,369.52a.682.682,0,0,0-.5.219.736.736,0,0,0-.009,1.03.664.664,0,0,0,.978,0,.789.789,0,0,0,.009-1.043.624.624,0,0,0-.474-.206" transform="translate(-354.866 -287.601)" fill="#00579b"/>
        <path id="Path_1782" data-name="Path 1782" d="M502.871,326.292a.648.648,0,0,0,.491-.215.788.788,0,0,0,.009-1.043.624.624,0,0,0-.473-.206.684.684,0,0,0-.5.219.7.7,0,0,0-.215.509.725.725,0,0,0,.206.521.651.651,0,0,0,.487.215" transform="translate(-390.85 -252.817)" fill="#00579b"/>
        <path id="Path_1783" data-name="Path 1783" d="M487.05,332.966h-2.084a2.693,2.693,0,0,0-.055-1.017,2.416,2.416,0,0,0-2.622-1.9,2.831,2.831,0,0,0-2.543,2.92h-2.289a3.752,3.752,0,0,0,.21-1.245q-.053-4.069-5.287-3.814h-2.324l-.526,1.192h.772a4.165,4.165,0,0,0-.71,3.867h-1.105v-3.4h-1.131v4.595a2.039,2.039,0,0,1-.9,1.179,2.959,2.959,0,0,1-2.205.092l-.123,1.114q3.648.561,4.358-2.385h10.987q1.148,0,1.271-.482l.211-1.263q.359-.973.973-1.122a2.185,2.185,0,0,1,1.464.272,1.473,1.473,0,0,1,.386,1.341q-.009.816-.772.719l-1.666-.956-.123,1.131,2.025,1.315.333-.122a4.171,4.171,0,0,0,.872-.833h3.7v-8.7h-1.1Zm-11.022,0h-5.077a2.6,2.6,0,0,1-.395-1.447q.281-2.192,2.85-2.42a3.827,3.827,0,0,1,2.508.8,2.3,2.3,0,0,1,.114,3.069" transform="translate(-361.237 -253.309)" fill="#00579b"/>
        <rect id="Rectangle_1063" data-name="Rectangle 1063" width="1.105" height="8.698" transform="translate(128.022 72.152)" fill="#00579b"/>
        <path id="Path_1784" data-name="Path 1784" d="M625,327.4a.649.649,0,0,0,.491-.215.789.789,0,0,0,.009-1.043.624.624,0,0,0-.474-.206.684.684,0,0,0-.5.219.7.7,0,0,0-.215.509.724.724,0,0,0,.206.521.651.651,0,0,0,.487.215" transform="translate(-485.908 -253.679)" fill="#00579b"/>
        <path id="Path_1785" data-name="Path 1785" d="M617.45,327.4a.648.648,0,0,0,.491-.215.788.788,0,0,0,.009-1.043.624.624,0,0,0-.473-.206.684.684,0,0,0-.5.219.7.7,0,0,0-.215.509.725.725,0,0,0,.206.521.652.652,0,0,0,.487.215" transform="translate(-480.028 -253.679)" fill="#00579b"/>
        <path id="Path_1786" data-name="Path 1786" d="M649.039,369.52a.683.683,0,0,0-.5.219.736.736,0,0,0-.009,1.03.664.664,0,0,0,.978,0,.789.789,0,0,0,.009-1.043.624.624,0,0,0-.474-.206" transform="translate(-504.593 -287.601)" fill="#00579b"/>
        <path id="Path_1787" data-name="Path 1787" d="M628.012,343.107q.736-2.271-.693-3.367a3.664,3.664,0,0,0-1.938-.439H619.3v1.2h5.366a9.935,9.935,0,0,1,1.451.057,1.177,1.177,0,0,1,.706.443,1.3,1.3,0,0,1,.263.986,1.256,1.256,0,0,1-.342.864,1.7,1.7,0,0,1-1.087.254h-6.488v-4.533l-1.1.421v4.112h-1.052v-3.235h-1.192v3.235h-1.973v-4.463h-1.114v.815a4.02,4.02,0,0,0-4.314-.587A3.555,3.555,0,0,0,606.5,342.7a2.509,2.509,0,0,0,1.771,1.6l6.129-.009h11.872a2.485,2.485,0,0,0,1.745-1.193m-15.292-.219q-.018.21-.175.228h-4.024a.972.972,0,0,1-.921-.719q-.289-2.525,2.385-2.85,3.148.158,2.736,3.341" transform="translate(-471.993 -263.45)" fill="#00579b"/>
        <path id="Path_1788" data-name="Path 1788" d="M710.7,332.966h-2.192a3.753,3.753,0,0,0,.21-1.245q-.053-4.069-5.287-3.814h-2.324l-.526,1.192h.772a4.165,4.165,0,0,0-.71,3.867h-1.21q-.132.6-1.4,1.192h13.774v-8.7h-1.1Zm-3.621,0h-5.077a2.6,2.6,0,0,1-.395-1.447q.281-2.192,2.85-2.42a3.827,3.827,0,0,1,2.508.8,2.3,2.3,0,0,1,.114,3.069" transform="translate(-543.286 -253.309)" fill="#00579b"/>
        <rect id="Rectangle_1064" data-name="Rectangle 1064" width="1.105" height="8.698" transform="translate(169.627 72.152)" fill="#00579b"/>
        <path id="Path_1789" data-name="Path 1789" d="M4.683,404.074H1.554v-7.962h1.19v6.9H4.683Z" transform="translate(-1.21 -308.298)" fill="#00579b"/>
        <rect id="Rectangle_1065" data-name="Rectangle 1065" width="1.19" height="7.962" transform="translate(4.201 87.814)" fill="#00579b"/>
        <path id="Path_1790" data-name="Path 1790" d="M32.664,403.347a.643.643,0,0,1-.728.727h-2.5a.634.634,0,0,1-.707-.727v-6.5a.643.643,0,0,1,.722-.733h2.488a.645.645,0,0,1,.728.733v1.7h-1.2v-1.409H29.916v5.917h1.552v-2.228h-.885v-1.012h2.081Z" transform="translate(-22.358 -308.298)" fill="#00579b"/>
        <path id="Path_1791" data-name="Path 1791" d="M54.765,403.347a.645.645,0,0,1-.733.727H51.5a.641.641,0,0,1-.722-.727v-7.235h1.19v6.94h1.6v-6.94h1.19Z" transform="translate(-39.523 -308.298)" fill="#00579b"/>
        <path id="Path_1792" data-name="Path 1792" d="M76.366,404.074h-3.3v-7.962h3.271v1.053H74.255v2.325h1.791v1.033H74.255v2.5h2.111Z" transform="translate(-56.867 -308.298)" fill="#00579b"/>
        <path id="Path_1793" data-name="Path 1793" d="M106.128,404.074h-1.145v-3.928a7.22,7.22,0,0,1,.071-.865l-1.028,4.065h-.605l-1.033-4.065a7.481,7.481,0,0,1,.071.865v3.928h-1.145v-7.962h1.124l1.251,4.4a2.108,2.108,0,0,1,.031.361,3,3,0,0,1,.031-.361l1.251-4.4h1.124Z" transform="translate(-78.854 -308.298)" fill="#00579b"/>
        <path id="Path_1794" data-name="Path 1794" d="M130.333,404.039h-1.18l-.239-1.511h-1.491l-.239,1.511h-1.175v-.02l1.542-7.952H128.8Zm-1.587-2.534-.58-3.592-.585,3.592Z" transform="translate(-98.073 -308.263)" fill="#00579b"/>
        <path id="Path_1795" data-name="Path 1795" d="M152.6,404.074h-1.241l-1.313-3.7v-.717h1.17v-2.524h-1.5v6.94h-1.19v-7.962h3.159a.641.641,0,0,1,.717.733v2.895a.632.632,0,0,1-.341.651,2.454,2.454,0,0,1-.773.076Z" transform="translate(-115.596 -308.298)" fill="#00579b"/>
        <path id="Path_1796" data-name="Path 1796" d="M174.2,403.347a.641.641,0,0,1-.722.727h-2.584a.634.634,0,0,1-.707-.727v-6.5q0-.733.707-.733h2.584a.643.643,0,0,1,.722.733Zm-1.191-6.212h-1.633v5.917h1.633Z" transform="translate(-132.457 -308.298)" fill="#00579b"/>
        <path id="Path_1797" data-name="Path 1797" d="M196.524,403.347a.643.643,0,0,1-.728.727h-2.483a.634.634,0,0,1-.707-.727v-6.5q0-.733.707-.733H195.8a.645.645,0,0,1,.728.733v1.862h-1.185v-1.572H193.8v5.917h1.542v-1.674h1.185Z" transform="translate(-149.908 -308.298)" fill="#00579b"/>
        <path id="Path_1798" data-name="Path 1798" d="M217.517,404.039h-1.18l-.239-1.511h-1.491l-.239,1.511h-1.175v-.02l1.542-7.952h1.251Zm-1.587-2.534-.58-3.592-.585,3.592Z" transform="translate(-165.929 -308.263)" fill="#00579b"/>
        <rect id="Rectangle_1066" data-name="Rectangle 1066" width="1.19" height="7.962" transform="translate(52.274 87.814)" fill="#00579b"/>
        <path id="Path_1799" data-name="Path 1799" d="M249.609,404.074h-1.043l-1.908-5.011a3,3,0,0,1,.076.575v4.436h-1.16v-7.962h1.043l1.908,4.91a2.994,2.994,0,0,1-.076-.575v-4.335h1.16Z" transform="translate(-191.133 -308.298)" fill="#00579b"/>
        <path id="Path_1800" data-name="Path 1800" d="M271.389,404.074h-3.3v-7.962h3.271v1.053h-2.081v2.325h1.791v1.033h-1.791v2.5h2.111Z" transform="translate(-208.655 -308.298)" fill="#00579b"/>
        <path id="Path_1801" data-name="Path 1801" d="M300.306,402.574a1.451,1.451,0,0,1-.417,1.1,1.558,1.558,0,0,1-1.124.4h-2.427v-7.962h2.427a1.546,1.546,0,0,1,1.124.4,1.469,1.469,0,0,1,.417,1.106Zm-1.2-.2V397.8q0-.666-.7-.666h-.885v5.917h.855q.728,0,.728-.677" transform="translate(-230.643 -308.298)" fill="#00579b"/>
        <path id="Path_1802" data-name="Path 1802" d="M321.694,404.074h-3.3v-7.962h3.271v1.053h-2.081v2.325h1.791v1.033h-1.791v2.5h2.111Z" transform="translate(-247.807 -308.298)" fill="#00579b"/>
        <path id="Path_1803" data-name="Path 1803" d="M350.488,400.447a.65.65,0,0,1-.728.743h-1.928v2.885h-1.19v-7.962h3.119a.645.645,0,0,1,.728.733Zm-1.2-3.312h-1.455v3.032h1.455Z" transform="translate(-269.795 -308.298)" fill="#00579b"/>
        <path id="Path_1804" data-name="Path 1804" d="M371.877,404.074h-1.242l-1.312-3.7v-.717h1.17v-2.524h-1.5v6.94H367.8v-7.962h3.159a.641.641,0,0,1,.717.733v2.895a.631.631,0,0,1-.341.651,2.454,2.454,0,0,1-.773.076Z" transform="translate(-286.264 -308.298)" fill="#00579b"/>
        <path id="Path_1805" data-name="Path 1805" d="M393.48,403.347a.641.641,0,0,1-.722.727h-2.585a.634.634,0,0,1-.707-.727v-6.5q0-.733.707-.733h2.585a.643.643,0,0,1,.722.733Zm-1.19-6.212h-1.633v5.917h1.633Z" transform="translate(-303.125 -308.298)" fill="#00579b"/>
        <path id="Path_1806" data-name="Path 1806" d="M414.115,397.165H412.8v6.909h-1.186v-6.909H410.3v-1.053h3.81Z" transform="translate(-319.344 -308.298)" fill="#00579b"/>
        <path id="Path_1807" data-name="Path 1807" d="M433.525,404.074h-3.3v-7.962h3.271v1.053h-2.081v2.325H433.2v1.033h-1.791v2.5h2.111Z" transform="translate(-334.847 -308.298)" fill="#00579b"/>
        <path id="Path_1808" data-name="Path 1808" d="M452.706,403.347a.643.643,0,0,1-.727.727H449.5a.634.634,0,0,1-.707-.727v-6.5a.637.637,0,0,1,.707-.733h2.483a.645.645,0,0,1,.727.733v1.862h-1.186v-1.572h-1.541v5.917h1.541v-1.674h1.186Z" transform="translate(-349.297 -308.298)" fill="#00579b"/>
        <path id="Path_1809" data-name="Path 1809" d="M472.912,397.165H471.6v6.909h-1.186v-6.909H469.1v-1.053h3.81Z" transform="translate(-365.106 -308.298)" fill="#00579b"/>
        <rect id="Rectangle_1067" data-name="Rectangle 1067" width="1.19" height="7.962" transform="translate(108.432 87.814)" fill="#00579b"/>
        <path id="Path_1810" data-name="Path 1810" d="M502.9,403.347a.641.641,0,0,1-.722.727H499.6a.634.634,0,0,1-.707-.727v-6.5q0-.733.707-.733h2.585a.643.643,0,0,1,.722.733Zm-1.19-6.212h-1.633v5.917h1.633Z" transform="translate(-388.289 -308.298)" fill="#00579b"/>
        <path id="Path_1811" data-name="Path 1811" d="M525.343,404.074H524.3l-1.908-5.011a2.987,2.987,0,0,1,.076.575v4.436h-1.16v-7.962h1.043l1.908,4.91a3.011,3.011,0,0,1-.076-.575v-4.335h1.16Z" transform="translate(-405.74 -308.298)" fill="#00579b"/>
        <path id="Path_1812" data-name="Path 1812" d="M557.476,402.574a1.452,1.452,0,0,1-.417,1.1,1.559,1.559,0,0,1-1.125.4h-2.427v-7.962h2.427a1.547,1.547,0,0,1,1.125.4,1.47,1.47,0,0,1,.417,1.106Zm-1.2-.2V397.8q0-.666-.7-.666H554.7v5.917h.855q.727,0,.727-.677" transform="translate(-430.8 -308.298)" fill="#00579b"/>
        <path id="Path_1813" data-name="Path 1813" d="M578.862,404.074h-3.3v-7.962h3.272v1.053h-2.081v2.325h1.791v1.033h-1.791v2.5h2.111Z" transform="translate(-447.964 -308.298)" fill="#00579b"/>
        <path id="Path_1814" data-name="Path 1814" d="M606.941,404.074h-3.129v-7.962H605v6.9h1.938Z" transform="translate(-469.952 -308.298)" fill="#00579b"/>
        <path id="Path_1815" data-name="Path 1815" d="M621.864,396.112l-.7,2.493H620.4l.264-2.493Z" transform="translate(-482.866 -308.298)" fill="#00579b"/>
        <path id="Path_1816" data-name="Path 1816" d="M633.62,404.074h-3.3v-7.962h3.271v1.053h-2.081v2.325H633.3v1.033h-1.791v2.5h2.111Z" transform="translate(-490.582 -308.298)" fill="#00579b"/>
        <path id="Path_1817" data-name="Path 1817" d="M652.918,404.074h-1.043l-1.908-5.011a2.983,2.983,0,0,1,.076.575v4.436h-1.16v-7.962h1.043l1.908,4.91a3.015,3.015,0,0,1-.076-.575v-4.335h1.16Z" transform="translate(-505.032 -308.298)" fill="#00579b"/>
        <path id="Path_1818" data-name="Path 1818" d="M674.648,397.165h-2.061v2.356h1.76v1.033h-1.76v3.521H671.4v-7.962h3.251Z" transform="translate(-522.554 -308.298)" fill="#00579b"/>
        <path id="Path_1819" data-name="Path 1819" d="M692.129,404.039h-1.18l-.239-1.511h-1.491l-.239,1.511H687.8v-.02l1.541-7.952H690.6Zm-1.587-2.534-.58-3.592-.585,3.592Z" transform="translate(-535.325 -308.263)" fill="#00579b"/>
        <path id="Path_1820" data-name="Path 1820" d="M714.353,404.074H713.31l-1.908-5.011a2.978,2.978,0,0,1,.076.575v4.436h-1.16v-7.962h1.043l1.908,4.91a3.01,3.01,0,0,1-.076-.575v-4.335h1.16Z" transform="translate(-552.848 -308.298)" fill="#00579b"/>
        <path id="Path_1821" data-name="Path 1821" d="M736.749,403.347a.643.643,0,0,1-.727.727h-2.483a.634.634,0,0,1-.707-.727v-6.5a.637.637,0,0,1,.707-.733h2.483a.645.645,0,0,1,.727.733v1.862h-1.186v-1.572h-1.541v5.917h1.541v-1.674h1.186Z" transform="translate(-570.37 -308.298)" fill="#00579b"/>
        <path id="Path_1822" data-name="Path 1822" d="M758.027,404.074h-3.3v-7.962H758v1.053h-2.081v2.325h1.791v1.033h-1.791v2.5h2.111Z" transform="translate(-587.41 -308.298)" fill="#00579b"/>
      </g>
    </g>
  </g>
</svg>
