<svg xmlns="http://www.w3.org/2000/svg" width="805.854" height="721" viewBox="0 0 805.854 721">
  <g id="have_question_" data-name="have question ?" transform="translate(-61.942 -27.737)">
    <path id="Tracé_652" data-name="Tracé 652" d="M716.32,723.529s187.309-389.271,289.473-333.717-182.461,232.624-233.447,347.7L716.32,723.529Z" transform="translate(-295.122 -160.847)" fill="#8be3d7"/>
    <g id="Groupe_767" data-name="Groupe 767" transform="translate(444.992 442.343)">
      <path id="Tracé_653" data-name="Tracé 653" d="M759.66,926.458S911.75,744.084,969.692,790.5,835.225,888.324,792.974,942.928Z" transform="translate(-759.66 -782.934)" fill="#8be3d7"/>
      <path id="Tracé_654" data-name="Tracé 654" d="M792.224,959.313c28.5-38.249,72.194-69.537,103.822-89.048A564.924,564.924,0,0,1,958.5,836.742l-.747-1.762a564.391,564.391,0,0,0-62.685,33.643c-31.771,19.6-75.664,51.041-104.344,89.532l1.5,1.158Z" transform="translate(-773.668 -806.406)" fill="#44474f"/>
    </g>
    <g id="Groupe_769" data-name="Groupe 769" transform="translate(411.1 528.82)">
      <path id="Tracé_655" data-name="Tracé 655" d="M942.724,1078.02c-35.537-.373-41.565,52.957-78,34.4-30.81-15.718-32.874-19.407-46.308-12.468a54.565,54.565,0,0,0-12.578,9.064c-4.518,4.3-12.72,10.277-23.031,9.756-62.982-3.19-125.431-113.2-51.019-148.72,5.375-2.564,12.325-2.427,19.94-1.9,41.3,2.888,49.57,24.337,91.678-16.119s69.443,37.788,96.734,41.554,52.688,1.065,67.083,34.642c14.395,33.6-28.965,50.2-64.5,49.795Z" transform="translate(-697.928 -940.45)" fill="#18a291"/>
      <g id="Groupe_768" data-name="Groupe 768" transform="translate(37.498 10.508)" opacity="0.5">
        <path id="Tracé_656" data-name="Tracé 656" d="M767.07,1107.209l-.84-2.213c.961-.379,98.195-37.3,274.765-.922l-.466,2.328C864.617,1070.162,768.025,1106.836,767.07,1107.209Z" transform="translate(-766.23 -1017.53)" fill="#44474f"/>
        <path id="Tracé_657" data-name="Tracé 657" d="M979.513,1006.527c-18.424-26.511-18.737-44.25-18.743-44.991l2.339-.016c0,.176.362,17.81,18.315,43.64Z" transform="translate(-853.967 -960.461)" fill="#44474f"/>
        <path id="Tracé_658" data-name="Tracé 658" d="M990.894,1031.537c-3.9-13.143.477-29.778,12.654-48.109a158.257,158.257,0,0,1,19.632-23.838l1.6,1.724c-.406.39-40.615,39.309-31.65,69.537l-2.24.681Z" transform="translate(-866.928 -959.59)" fill="#44474f"/>
        <path id="Tracé_659" data-name="Tracé 659" d="M1075.051,1097.681c-2.235-2.975-3.382-4.842-3.431-4.93l1.993-1.241c.236.4,24.48,39.671,71.167,48.955l-.45,2.328c-37.618-7.483-60.961-34.016-69.279-45.112Z" transform="translate(-903.96 -1019.085)" fill="#44474f"/>
        <path id="Tracé_660" data-name="Tracé 660" d="M1091.284,1169.057c-7.895-14.428-8.235-27.1-7.126-35.186a41.846,41.846,0,0,1,4.4-14.362l2.015,1.208c-.121.2-11.7,20.774,2.756,47.187l-2.042,1.153Z" transform="translate(-909.405 -1031.713)" fill="#8be3d7"/>
      </g>
    </g>
    <path id="Tracé_661" data-name="Tracé 661" d="M1134.585,286.426c2.921-10.557,7.093-12.753,11.172-11.595s6.511,5.243,3.591,15.8c-5.32,19.232-15.274,26.418-15.274,26.418s-4.886-11.117.511-30.629Z" transform="translate(-482.613 -111.313)" fill="#8be3d7"/>
    <path id="Tracé_662" data-name="Tracé 662" d="M1245.262,640.646c9.157.11,11.847,3.1,11.8,6.742s-2.8,6.566-11.963,6.451c-16.684-.2-24.672-6.9-24.672-6.9s7.9-6.5,24.826-6.3Z" transform="translate(-522.474 -276.418)" fill="#8be3d7"/>
    <path id="Tracé_663" data-name="Tracé 663" d="M1225.556,599.54c6.489-5.753,10.217-5.375,12.44-2.794s2.092,6.385-4.392,12.138c-11.82,10.481-21.554,10.876-21.554,10.876S1213.565,610.174,1225.556,599.54Z" transform="translate(-518.695 -255.811)" fill="#8be3d7"/>
    <g id="Groupe_771" data-name="Groupe 771" transform="translate(274.888 309.669)">
      <path id="Tracé_664" data-name="Tracé 664" d="M595.805,613.067c-3.8,5.463-6.643,5.858-8.751,4.348s-2.685-4.365,1.114-9.827c6.928-9.948,14.093-12.018,14.093-12.018S602.833,602.971,595.805,613.067Z" transform="translate(-510.962 -565.759)" fill="#8be3d7"/>
      <path id="Tracé_665" data-name="Tracé 665" d="M627.869,684.242c-1.856,6.418-4.419,7.724-6.9,6.989s-3.936-3.245-2.075-9.663c3.382-11.688,9.5-16,9.5-16s2.9,6.819-.532,18.677Z" transform="translate(-525.694 -597.329)" fill="#8be3d7"/>
      <g id="Groupe_770" data-name="Groupe 770">
        <path id="Tracé_666" data-name="Tracé 666" d="M618.33,792.959l-1.175.417c-.066-.181-6.583-18.677-24.129-42.1-16.19-21.609-45.353-51.952-92.337-73.786l.522-1.153c47.242,21.955,76.564,52.479,92.842,74.214,17.651,23.569,24.217,42.213,24.282,42.4Z" transform="translate(-472.762 -602.186)" fill="#8be3d7"/>
        <path id="Tracé_667" data-name="Tracé 667" d="M571.411,665.1l-1.235-.181c6.539-45.485-25.946-82.153-26.275-82.515l.922-.856c.335.368,33.22,37.464,26.594,83.553Z" transform="translate(-492.25 -559.436)" fill="#8be3d7"/>
        <path id="Tracé_668" data-name="Tracé 668" d="M528.759,710.714a43.573,43.573,0,0,1-23.009,3.415l.209-1.246c.143.027,14.664,2.394,27.3-6.132l.692,1.054A36.13,36.13,0,0,1,528.759,710.714Z" transform="translate(-475.044 -615.901)" fill="#8be3d7"/>
        <path id="Tracé_669" data-name="Tracé 669" d="M474.119,664.6c8.466,2.745,10.343,5.583,9.558,8.081s-3.942,3.706-12.408.961c-15.416-5-21.45-11.935-21.45-11.935s8.652-2.179,24.293,2.893Z" transform="translate(-449.82 -595.377)" fill="#8be3d7"/>
        <path id="Tracé_670" data-name="Tracé 670" d="M488.544,710.84c8.883.028,11.524,2.158,11.513,4.782s-2.657,4.738-11.54,4.71c-16.185-.049-24-4.82-24-4.82s7.6-4.721,24.024-4.672Z" transform="translate(-456.45 -617.745)" fill="#8be3d7"/>
        <path id="Tracé_671" data-name="Tracé 671" d="M541.968,661.391c4.013,5.3,3.547,8.175,1.5,9.772s-4.9,1.312-8.916-3.991c-7.307-9.662-7.132-17.222-7.132-17.222S534.557,651.591,541.968,661.391Z" transform="translate(-484.817 -590.284)" fill="#8be3d7"/>
        <path id="Tracé_672" data-name="Tracé 672" d="M531.024,557.614c5.446,7.126,5.413,10.546,3.371,12.155s-5.314.791-10.76-6.336c-9.92-12.978-11.024-22.163-11.024-22.163S520.955,544.443,531.024,557.614Z" transform="translate(-478.138 -541.27)" fill="#8be3d7"/>
      </g>
    </g>
    <path id="Tracé_673" data-name="Tracé 673" d="M582.026,1002.75S512.253,796.2,457.742,817.521s76.97,127.89,95.406,188.676l28.878-3.442Z" transform="translate(-172.577 -355.493)" fill="#8be3d7"/>
    <g id="Groupe_772" data-name="Groupe 772" transform="translate(218.747 474.147)">
      <path id="Tracé_674" data-name="Tracé 674" d="M502.664,987.809s-93.989-173.99-144.35-143.317S449.372,945.266,474.989,996.9l27.67-9.092Z" transform="translate(-347.559 -840.865)" fill="#18a291"/>
      <path id="Tracé_675" data-name="Tracé 675" d="M509.628,1013.469c-17.107-36.015-46.753-68.34-68.609-89.114a447.645,447.645,0,0,0-43.789-36.838l.8-1.367a450.018,450.018,0,0,1,43.953,36.97c21.955,20.868,51.738,53.352,68.955,89.592l-1.3.758Z" transform="translate(-369.961 -861.288)" fill="#44474f"/>
    </g>
    <g id="Groupe_774" data-name="Groupe 774" transform="translate(208.039 570.404)">
      <path id="Tracé_676" data-name="Tracé 676" d="M516.119,1133.646c-16.52,15.378-42.778,16.569-61.516,11.172-9.218-2.657-17.156-19.742-44.557-14.807-19.654,3.53-21.96-14.038-30.3-26.758-.148-.231-.307-.461-.461-.692-3.217-4.71-7.351-8.669-13.637-10.5a79.636,79.636,0,0,1-19.44-8.614c-.494-.308-.983-.615-1.471-.939-11.826-7.763-19.792-18.452-15.5-29.509.1-.264.209-.521.324-.785a23.574,23.574,0,0,1,3.475-5.5c15.877-19.111,31.969-12.314,50.541-9.372,10.272,1.625,24.919-11.639,39.314-17.941.2-.093.412-.181.62-.269,11.425-4.848,22.646-5.1,31.332,10.184h0c.176.308.351.62.527.922,19.407,33.665,29.009,21.548,56.339,27.78,5.084,1.164,9.657,2.449,12.682,5.193,28.175,25.567,19.863,53.215-8.263,70.421Z" transform="translate(-328.055 -1016.196)" fill="#8be3d7"/>
      <g id="Groupe_773" data-name="Groupe 773" transform="translate(1.106 2.874)">
        <path id="Tracé_677" data-name="Tracé 677" d="M508.782,1138.081l.977-1.279c-.554-.439-57.058-43.849-179.546-55.032l-.143,1.614C452.1,1094.523,508.233,1137.648,508.782,1138.081Z" transform="translate(-330.07 -1048.643)" fill="#44474f"/>
        <path id="Tracé_678" data-name="Tracé 678" d="M521.478,1065.868c17.151-13.692,20.763-25.232,20.912-25.715l-1.526-.472c-.033.115-3.662,11.579-20.374,24.919l.988,1.274Z" transform="translate(-415.949 -1029.661)" fill="#44474f"/>
        <path id="Tracé_679" data-name="Tracé 679" d="M507.993,1074.881c5.078-7.823,5.413-19.572.972-33.972a109.043,109.043,0,0,0-8.257-19.479l-1.378.813c.192.335,19.006,33.758,7.329,51.755l1.334.889Z" transform="translate(-406.406 -1021.43)" fill="#44474f"/>
        <path id="Tracé_680" data-name="Tracé 680" d="M412.279,1106.625c2.031-1.5,3.146-2.5,3.2-2.547l-1.065-1.208c-.231.214-23.64,21.1-55.965,17.925l-.154,1.609c26.045,2.558,46.418-10.173,53.989-15.784Z" transform="translate(-342.797 -1058.159)" fill="#44474f"/>
        <path id="Tracé_681" data-name="Tracé 681" d="M422.284,1149.63c7.939-7.873,10.6-16.091,11.425-21.6a28.8,28.8,0,0,0-.115-10.266l-1.548.39c.038.159,3.662,15.9-10.876,30.322Z" transform="translate(-371.156 -1064.875)" fill="#44474f"/>
      </g>
    </g>
    <path id="Tracé_682" data-name="Tracé 682" d="M374.14,1020.485c-7.6-1.115-9.514-3.9-9.086-6.923s3.042-5.144,10.645-4.03c13.846,2.031,19.764,8.488,19.764,8.488s-7.269,4.524-21.318,2.465Z" transform="translate(-136.677 -442.65)" fill="#8be3d7"/>
    <path id="Tracé_683" data-name="Tracé 683" d="M386.977,985.92c-5.594-5.342-5.583-8.735-3.519-10.964s5.4-2.438,10.991,2.9c10.19,9.734,11.375,18.468,11.375,18.468s-8.51-.532-18.847-10.409Z" transform="translate(-144.43 -426.526)" fill="#8be3d7"/>
    <g id="Groupe_781" data-name="Groupe 781" transform="translate(515.659 421.693)">
      <path id="Tracé_684" data-name="Tracé 684" d="M1034.081,1307.945s-.17,6.8-4.7,8.719-17.672,3.651-12.764,8.021c2.816,2.509,16.091.889,19.841.889s7.269,1.658,10.052-.889c3.063-2.8,0-16.745,0-16.745a14.782,14.782,0,0,1-6.143,1.636,11.783,11.783,0,0,1-6.286-1.636Z" transform="translate(-945.724 -999.06)" fill="#33353b"/>
      <path id="Tracé_685" data-name="Tracé 685" d="M1128.941,1307.945s-.17,6.8-4.7,8.719-17.673,3.651-12.765,8.021c2.817,2.509,16.091.889,19.841.889s7.269,1.658,10.052-.889c3.063-2.8,0-16.745,0-16.745a14.783,14.783,0,0,1-6.144,1.636,11.783,11.783,0,0,1-6.286-1.636Z" transform="translate(-988.506 -999.06)" fill="#33353b"/>
      <path id="Tracé_686" data-name="Tracé 686" d="M987.913,968.32s-.84,28.471,8.114,83.092c6.462,39.43,14.093,79.161,17.837,98.211a14.706,14.706,0,0,0,13.676,12.067l3.6.148c7.236.3,13.11-6.011,12.578-13.511l-9.086-128.873-2.24-42.416L987.9,968.326Z" transform="translate(-933.259 -845.892)" fill="#fff2e2"/>
      <path id="Tracé_687" data-name="Tracé 687" d="M1067.294,1001.983c-.411,3.464-19.72,3.047-43.355.006s-42.037-8.235-41.625-11.7,19.479-3.887,43.119-.851,42.273,9.075,41.861,12.539Z" transform="translate(-930.741 -854.498)" fill="#33353b"/>
      <path id="Tracé_688" data-name="Tracé 688" d="M1037.347,1003.166l50.464,164.531a16.311,16.311,0,0,0,15.18,11.726l3.036.055c7.159.126,12.638-6.6,11.332-13.912l-27.6-154.6a5.05,5.05,0,0,0-3.486-3.81c-9.465-2.773-49.85-10.8-48.922-3.991Z" transform="translate(-955.556 -860.403)" fill="#fff2e2"/>
      <path id="Tracé_689" data-name="Tracé 689" d="M1057.915,1096.655l-10.854-33.484a31.67,31.67,0,0,0-14.131-17.694l.423-.747a32.5,32.5,0,0,1,14.516,18.172l10.854,33.484Z" transform="translate(-953.571 -880.353)" fill="#33353b"/>
      <path id="Tracé_690" data-name="Tracé 690" d="M988.71,997.66a141.577,141.577,0,0,1,27.483-.313,276.024,276.024,0,0,1,47.253,7.922l-8.109,1.384-50.788,2.042-10.222-8.51-5.616-2.52Z" transform="translate(-933.628 -858.768)" fill="#fff2e2"/>
      <g id="Groupe_775" data-name="Groupe 775" transform="translate(0 18.458)">
        <path id="Tracé_691" data-name="Tracé 691" d="M904.317,869.312a21.307,21.307,0,0,0,9.174-.851c9.882-3.118,18.441-12.9,27.747-31.694,4.288-8.658,12.852-18.216,12.94-18.309l-6.423-5.979a12.874,12.874,0,0,0-19.325,2,91.056,91.056,0,0,0-7.34,12.007c-3.234,6.533,3.091-31.035,5.968-40.2l-12.331-7.351a319.453,319.453,0,0,0-17.036,36.6,177.886,177.886,0,0,0-8.076,25.369,44.33,44.33,0,0,0-1.186,11.765c.516,8.608,5.161,12.44,7.884,13.961a22.322,22.322,0,0,0,8,2.69Z" transform="translate(-888.379 -778.94)" fill="#d38854"/>
        <path id="Tracé_692" data-name="Tracé 692" d="M941.617,888.431a.262.262,0,0,1-.11-.022.3.3,0,0,1-.165-.384c.044-.115,4.507-11.776,2.482-22.317a.294.294,0,1,1,.576-.115c2.059,10.711-2.465,22.531-2.514,22.646a.291.291,0,0,1-.274.187Z" transform="translate(-912.256 -817.911)" fill="#d38854"/>
      </g>
      <path id="Tracé_693" data-name="Tracé 693" d="M1033.983,813.105s-24.969-15.976-48.658-6.281c-11.315,4.628-20.516,14.422-20.445,31.958.049,11.99,1.449,48.625,9.575,68.658,0,0,32.633-10.184,84.98,11.694C1059.435,919.134,1054.263,841.763,1033.983,813.105Z" transform="translate(-922.881 -771.65)" fill="#44474f"/>
      <path id="Tracé_694" data-name="Tracé 694" d="M1046.891,811.118l-28.274,10.793s-36.953,15.081-49.317,17.206-20.78-6.451-20.78-6.451,3.92-13.2,23.569-24.733a61.2,61.2,0,0,1,5.863-3.036,45.526,45.526,0,0,1,10.7-3.662c41.675-7.3,58.244,9.888,58.244,9.888Z" transform="translate(-915.503 -769.723)" fill="#44474f"/>
      <path id="Tracé_695" data-name="Tracé 695" d="M1104.474,820.027c.862,1.938-4.749,6.594-12.534,10.4s-14.79,5.32-15.652,3.382,4.749-6.593,12.534-10.4S1103.612,818.089,1104.474,820.027Z" transform="translate(-973.086 -778.632)" fill="#33353b"/>
      <g id="Groupe_778" data-name="Groupe 778" transform="translate(34.549)">
        <path id="Tracé_696" data-name="Tracé 696" d="M971.233,806.905c-.955,0-3.1-.17-4.288-1.576a4.379,4.379,0,0,1-.609-4c.181-.758.346-1.438.505-2.07,1.076-4.359,1.438-5.83-.06-8.466l.236-.137c1.548,2.734,1.153,4.354.088,8.674-.154.626-.324,1.312-.505,2.064a4.118,4.118,0,0,0,.549,3.75c1.438,1.7,4.513,1.466,4.54,1.466l.022.274C971.683,806.888,971.508,806.905,971.233,806.905Z" transform="translate(-957.996 -765.768)" fill="#33353b"/>
        <path id="Tracé_697" data-name="Tracé 697" d="M967.52,790.78a14.252,14.252,0,0,1,1.01,9.959c-1.438,5.737,3.343,9.47,6.775,6.308s6.418,4.469,10.986-3.415c3.124-5.4-18.765-12.852-18.765-12.852Z" transform="translate(-958.62 -765.822)" fill="#33353b"/>
        <path id="Tracé_698" data-name="Tracé 698" d="M999.182,795.462l-4.826-5.572-1.411-1.631-8.3-9.569,4.524,11.266,2.718,6.764.763,1.9c.631,1.576-3.2,5.281.549,6.495,4.288,1.383,11.348-2.811,12.479-7.45,0,0-4.93-.406-6.489-2.207Z" transform="translate(-966.346 -760.37)" fill="#d38854"/>
        <path id="Tracé_699" data-name="Tracé 699" d="M998.019,797.543c.016.066.033.132.049.192.922,3.81-2.437,6.841-2.437,6.841l-.033-.011L992.88,797.8c1.054-.84,2.613-1.867,3.772-1.7.6.088,1.1.5,1.362,1.433Z" transform="translate(-970.057 -768.215)" fill="#33353b"/>
        <path id="Tracé_700" data-name="Tracé 700" d="M964.645,774.535c-2.372-7.384.489-14.955,6.39-16.9s12.6,2.454,14.971,9.844-.489,14.955-6.39,16.9S967.017,781.924,964.645,774.535Z" transform="translate(-956.948 -750.664)" fill="#d38854"/>
        <path id="Tracé_701" data-name="Tracé 701" d="M998.843,776.794c-.834,1.57-2.487,2.251-3.695,1.515s-1.51-2.6-.675-4.178,2.487-2.251,3.689-1.515,1.51,2.6.675,4.178Z" transform="translate(-970.563 -757.497)" fill="#ad612d"/>
        <path id="Tracé_702" data-name="Tracé 702" d="M982.76,782.229a.265.265,0,0,1-.209-.093.259.259,0,0,1,.033-.362,2.735,2.735,0,0,1,3.371-.329.267.267,0,0,1,.1.351.277.277,0,0,1-.346.1,4.325,4.325,0,0,0-2.8.269.268.268,0,0,1-.148.06Z" transform="translate(-965.373 -761.416)" fill="#33353b"/>
        <path id="Tracé_703" data-name="Tracé 703" d="M986.747,786.34a1.008,1.008,0,0,1-.379,1.329c-.417.154-.922-.2-1.131-.78a1.008,1.008,0,0,1,.379-1.329C986.033,785.407,986.538,785.758,986.747,786.34Z" transform="translate(-966.57 -763.452)" fill="#33353b"/>
        <path id="Tracé_704" data-name="Tracé 704" d="M967.638,789.156a.281.281,0,0,1-.231,0,.267.267,0,0,1-.11-.351,2.765,2.765,0,0,1,3-1.609.255.255,0,0,1,.225.285.284.284,0,0,1-.28.23,4.342,4.342,0,0,0-2.487,1.334.29.29,0,0,1-.115.115Z" transform="translate(-958.508 -764.193)" fill="#33353b"/>
        <path id="Tracé_705" data-name="Tracé 705" d="M972.792,791.955a1.013,1.013,0,0,1,.148,1.378.979.979,0,0,1-1.334-.28,1.013,1.013,0,0,1-.148-1.378A.98.98,0,0,1,972.792,791.955Z" transform="translate(-960.302 -766.152)" fill="#33353b"/>
        <path id="Tracé_706" data-name="Tracé 706" d="M961.636,756.212s1.718,4.562,7.68,3.47,10.689.055,11.26,4.48-5.44,19.314,2.4,20.434,3.986-7.845,11.781-8.823,9.855-10.491-.972-15.449c-7.285-3.338-10-20.7-28.471-13.1-25.984,10.689-7.851,21.257-7.851,21.257s5.825-7.148,4.167-12.27Z" transform="translate(-951.309 -745.32)" fill="#33353b"/>
        <path id="Tracé_707" data-name="Tracé 707" d="M992.616,790.1a3.83,3.83,0,0,1-3.124-1.658c-2.267-3.464.5-11.732,2.526-17.771.384-1.153.752-2.245,1.054-3.217,1.049-3.371.214-6.555-2.245-8.515-2.69-2.152-6.511-2.174-9.97-.06-6.594,4.041-11,.642-11.046.609l.1-.132c.044.033,4.365,3.354,10.865-.62,3.514-2.152,7.406-2.125,10.151.071a7.845,7.845,0,0,1,2.295,8.7c-.3.972-.67,2.064-1.054,3.217-2.015,6.006-4.771,14.236-2.547,17.628a3.651,3.651,0,0,0,3,1.587l-.011.165Z" transform="translate(-959.653 -750.653)" fill="#fff"/>
        <path id="Tracé_708" data-name="Tracé 708" d="M968.2,783.882a2.351,2.351,0,0,0-.3.357,12.266,12.266,0,0,1,1.186,3.321c.071.028.143.055.209.082a12.269,12.269,0,0,0-1.087-3.761Zm.044-.044c-.154-.28-.318-.56-.489-.829h0s-.016-.027-.022-.038c-.082-.132-.17-.258-.264-.39a8.846,8.846,0,0,0-3.854-3.234c-.176-.066-.351-.126-.522-.176a4.382,4.382,0,0,0-.939-.143,4.116,4.116,0,0,0-.785.055,3.075,3.075,0,0,0-1.526.747,3.161,3.161,0,0,0-.373.39c-1.834,2.207-1.3,6.863,1.2,10.387a9.6,9.6,0,0,0,2.964,2.822,5.876,5.876,0,0,0,1.076.494,4.468,4.468,0,0,0,1.274.247,3.545,3.545,0,0,0,1.213-.165,3.207,3.207,0,0,0,1.455-1.01c.011-.011.011-.016.022-.022a6.568,6.568,0,0,0,.944-5.2,11.08,11.08,0,0,0-.291-1.3,12.922,12.922,0,0,0-1.082-2.641Zm-7.768,5.545c-1.856-3.184-2.174-6.978-.631-8.833a3.125,3.125,0,0,1,.258-.275,2.7,2.7,0,0,1,.878-.554h.011a1.713,1.713,0,0,1,.384-.11,2.779,2.779,0,0,1,.752-.071,4.1,4.1,0,0,1,1.241.258,8.223,8.223,0,0,1,3.689,3.1c.115.159.22.318.324.483.187.286.351.571.51.862a12.252,12.252,0,0,1,1.186,3.321,6.23,6.23,0,0,1-.8,5.095c-.022.022-.039.044-.06.066a2.788,2.788,0,0,1-2.223.944,4.024,4.024,0,0,1-1.23-.253,5.46,5.46,0,0,1-1.021-.5,9.273,9.273,0,0,1-2.679-2.6c-.209-.3-.406-.6-.582-.906-.005-.011-.011-.017-.011-.028Z" transform="translate(-954.497 -760.522)" fill="#fff2e2"/>
        <g id="Groupe_776" data-name="Groupe 776" transform="translate(15.19 11.765)" opacity="0.3">
          <path id="Tracé_709" data-name="Tracé 709" d="M988.285,770.411c2.081,3.536,2.031,8.087-.121,10.168s-5.578.9-7.659-2.635-2.031-8.087.121-10.168S986.2,766.876,988.285,770.411Z" transform="translate(-978.978 -766.749)" fill="#fff"/>
        </g>
        <g id="Groupe_777" data-name="Groupe 777" transform="translate(4.748 18.629)" opacity="0.3">
          <path id="Tracé_710" data-name="Tracé 710" d="M968.375,782.973c2.092,3.552,2.284,8.087.428,10.135s-5.051.823-7.142-2.729-2.284-8.092-.428-10.135S966.283,779.421,968.375,782.973Z" transform="translate(-959.957 -779.253)" fill="#fff"/>
        </g>
        <path id="Tracé_711" data-name="Tracé 711" d="M987.862,769.66c-.11-.225-.236-.45-.368-.675-.126-.209-.258-.417-.4-.609a7.106,7.106,0,0,0-4.639-3.261,4.088,4.088,0,0,0-3.481,1.12,5.594,5.594,0,0,0-1.422,2.355,10.456,10.456,0,0,0,.439,7.093c.121.3.258.588.406.878.1.209.22.417.34.615a7.409,7.409,0,0,0,5.045,3.876,4.366,4.366,0,0,0,.884.027,3.864,3.864,0,0,0,1.01-.187,4.128,4.128,0,0,0,1.576-.966,1.853,1.853,0,0,0,.2-.214,6.935,6.935,0,0,0,1.641-4.43,11.163,11.163,0,0,0-.428-3.536,11.733,11.733,0,0,0-.818-2.086Zm-5.66,10.316a8.314,8.314,0,0,1-3.031-3.063c-.1-.159-.187-.324-.269-.489-.154-.286-.291-.576-.417-.878a9.926,9.926,0,0,1-.434-6.868,5.174,5.174,0,0,1,1.274-2.086,3.617,3.617,0,0,1,3.063-.983,5.461,5.461,0,0,1,2.536,1.147,7.265,7.265,0,0,1,.961.889c.005,0,.005.011.011.017a6.171,6.171,0,0,1,.516.609,10.716,10.716,0,0,1,.659.972c.143.247.28.494.406.752a10.87,10.87,0,0,1,1.125,5.342,6.374,6.374,0,0,1-1.466,3.991c-.066.077-.143.148-.22.225a3.64,3.64,0,0,1-2.449,1.016,3.742,3.742,0,0,1-.6-.027,4.937,4.937,0,0,1-1.609-.544.26.26,0,0,1-.055-.027Z" transform="translate(-962.953 -754.228)" fill="#fff2e2"/>
        <path id="Tracé_712" data-name="Tracé 712" d="M974.707,786.672a.457.457,0,0,0,.247-.2h0a4.183,4.183,0,0,1,3-1.625.485.485,0,0,0,.406-.527.459.459,0,0,0-.516-.406,5.047,5.047,0,0,0-3.678,2.048.482.482,0,0,0,.148.653A.445.445,0,0,0,974.707,786.672Z" transform="translate(-961.585 -762.724)" fill="#fff2e2"/>
        <path id="Tracé_713" data-name="Tracé 713" d="M984.144,800.1a.113.113,0,0,1-.049-.011.146.146,0,0,1-.082-.187,6.42,6.42,0,0,1,3.821-3.651.137.137,0,0,1,.176.1.149.149,0,0,1-.1.181,6.24,6.24,0,0,0-3.634,3.475A.148.148,0,0,1,984.144,800.1Z" transform="translate(-966.054 -768.287)" fill="#33353b"/>
      </g>
      <g id="Groupe_779" data-name="Groupe 779" transform="translate(24.349 4.392)">
        <path id="Tracé_714" data-name="Tracé 714" d="M938.906,759.853c2.251-3.042,3.6-3.552,3.6-3.552s7.313-4.584,7.631-2.383-6.083,6.122-6.083,6.122,9.13-4.749,8.768-2.575-7.329,5.737-7.329,5.737,7.993-4.2,7.516-1.68-5.2,4.3-4.886,6.5c.027.187,5.177-3.81,4.485-.269-.274,1.411-2.421,4.606-2.421,4.606-.028.467-.708,1.224-1.054,1.609a16.7,16.7,0,0,0-3.453,5.54l-12.951-8.389s3.31-7.384,6.187-11.266Z" transform="translate(-932.73 -753.32)" fill="#d38854"/>
        <path id="Tracé_715" data-name="Tracé 715" d="M947.648,768.559a.134.134,0,0,1-.066-.017.182.182,0,0,1-.093-.236,6.25,6.25,0,0,1,3.151-3.058.174.174,0,0,1,.231.1.18.18,0,0,1-.1.236,6.016,6.016,0,0,0-2.959,2.86.171.171,0,0,1-.165.11Z" transform="translate(-939.38 -758.694)" fill="#d38854"/>
        <path id="Tracé_716" data-name="Tracé 716" d="M950.6,774.141a.152.152,0,0,1-.071-.017.182.182,0,0,1-.093-.236,4.693,4.693,0,0,1,2.992-2.882.175.175,0,0,1,.209.137.178.178,0,0,1-.132.214,4.432,4.432,0,0,0-2.745,2.679.179.179,0,0,1-.165.11Z" transform="translate(-940.71 -761.294)" fill="#d38854"/>
        <path id="Tracé_717" data-name="Tracé 717" d="M955.028,792.735H955a.177.177,0,0,1-.143-.208c.028-.181.747-4.414,2.569-6.456,1.976-2.212,5.517-7.2,4.958-8.455a1.09,1.09,0,0,0-.615-.664c-.549-.176-1.351.324-2.273.9l-.044.027c-1.416.878-3.217,2.026-3.217,2.026l-.187-.3s1.806-1.142,3.223-2.026l.044-.028c.994-.62,1.856-1.153,2.558-.939a1.407,1.407,0,0,1,.835.862c.725,1.625-3.486,7.132-5.018,8.845-1.757,1.965-2.476,6.231-2.487,6.275a.177.177,0,0,1-.176.148Z" transform="translate(-942.708 -763.802)" fill="#d38854"/>
        <path id="Tracé_718" data-name="Tracé 718" d="M933.39,773.2s.933-3.991,1.307-6.978-1-5.781.807-6.462,3.492,4.271,3.146,6.456-5.26,6.983-5.26,6.983Z" transform="translate(-933.028 -756.195)" fill="#d38854"/>
      </g>
      <g id="Groupe_780" data-name="Groupe 780" transform="translate(107.044 112.223)">
        <path id="Tracé_719" data-name="Tracé 719" d="M1105.253,949.83s-11.364-1.032-16.229,3.607-7.631,14.3-4.013,12.073a44.2,44.2,0,0,0,7.472-6.369s-7.818,9.24-4.9,10.157,9.641-7.181,9.641-7.181-8.438,11.743-5.4,11.7,9.383-9,9.383-9-7.423,11.244-3.893,11.117,6.072-9.333,8.993-8.416,10.574,2.888,17.3-4.409l-18.353-13.286Z" transform="translate(-1083.358 -949.732)" fill="#d38854"/>
        <path id="Tracé_720" data-name="Tracé 720" d="M1099.778,964.421a.243.243,0,0,1-.132-.038.254.254,0,0,1-.077-.346c.077-.126,1.927-3.08,4.123-3.157h.011a.25.25,0,0,1,.011.5c-1.932.071-3.706,2.893-3.722,2.921a.243.243,0,0,1-.209.115Z" transform="translate(-1090.652 -954.76)" fill="#d38854"/>
        <path id="Tracé_721" data-name="Tracé 721" d="M1107.848,969.96a.242.242,0,0,1-.132-.039.254.254,0,0,1-.077-.346c.077-.126,1.927-3.08,4.123-3.157a.231.231,0,0,1,.253.242.25.25,0,0,1-.236.258c-1.938.071-3.706,2.893-3.722,2.921a.243.243,0,0,1-.209.115Z" transform="translate(-1094.292 -957.257)" fill="#d38854"/>
        <path id="Tracé_722" data-name="Tracé 722" d="M1115.668,974.457a.243.243,0,0,1-.132-.039.253.253,0,0,1-.077-.346c.093-.148,2.267-3.634,4.623-3.525a.251.251,0,0,1,.236.264.231.231,0,0,1-.258.236c-2.064-.082-4.156,3.261-4.178,3.294a.243.243,0,0,1-.209.115Z" transform="translate(-1097.819 -959.119)" fill="#d38854"/>
      </g>
      <path id="Tracé_723" data-name="Tracé 723" d="M1116.421,910.485l-13.044-17.338a14.639,14.639,0,0,0,9.086-12.676c0-8.669-3.009-12.463-12.2-24.442-7.971-10.382-19.2-20.308-19.292-20.384,0,0-.5-2.482,3.947-4.98,9.064-5.095,14.878-6.226,17.019-6.478a2.251,2.251,0,0,1,1.636.456c4.266,3.272,8.614,8.164,16.251,17.508,13.774,16.854,16.206,31.815,14.164,44.381-1.2,7.368-7.186,19.671-17.568,23.948Z" transform="translate(-975.227 -780.881)" fill="#d38854"/>
    </g>
    <g id="Groupe_782" data-name="Groupe 782" transform="translate(230.723 92.575)">
      <path id="Tracé_724" data-name="Tracé 724" d="M500.885,568.341s-14.126-64,16.591-102.724,129.653-86.545,110.339-141.456S541.7,262.53,514.989,289.217s-11.8,55.394-29.866,58.985-123.059,8.652-115.346-52.5,74.9-146.353,164.471-149.208,208.731-1.658,234.606,116.773S750.556,428.23,687.19,458.8s-33.9,100.007-56.882,109.548-126.688,20.67-129.422,0Z" transform="translate(-369.373 -145.838)" fill="#18a291"/>
      <path id="Tracé_725" data-name="Tracé 725" d="M567.173,1067.077c6.884-49,35.1-79.567,78.4-79.567s79.364,22.6,90.256,79.15c8.312,43.13-46.962,79.99-90.256,79.99s-84.508-36.064-78.4-79.567Z" transform="translate(-458.308 -525.429)" fill="#18a291"/>
    </g>
    <g id="Groupe_783" data-name="Groupe 783" transform="translate(209.739 97.034)">
      <path id="Tracé_726" data-name="Tracé 726" d="M506.024,589.314c-14.6,0-30.53-1.219-38.4-5.841-2.943-1.729-4.6-3.854-4.941-6.319a180.268,180.268,0,0,1-3.234-36.953c.286-19.111,3.975-46.111,19.945-66.248,9.536-12.023,25.616-24.914,42.636-38.562,37.876-30.371,80.808-64.788,67.6-102.318a72.917,72.917,0,0,0-53.182-47.681c-22.526-5.237-45.556-.148-58.683,12.962-14.027,14.016-16.421,28.307-18.342,39.786-1.647,9.833-2.943,17.6-11.826,19.358-7.675,1.526-27.456,2.855-47.417,1.027-18.205-1.664-42.91-6.5-57.228-20.1-9.306-8.839-13.138-20.308-11.4-34.082,1.932-15.317,7.609-32.232,16.421-48.916a205.942,205.942,0,0,1,35.284-47.9,188.15,188.15,0,0,1,50.69-36.942,152.349,152.349,0,0,1,62.641-15.976c45.315-1.444,97.349-1.751,141.4,12.935,23.876,7.961,43.618,19.874,58.672,35.405,17.2,17.744,29.02,40.923,35.131,68.9,12.094,55.356,9.668,98.25-7.423,131.118-7.5,14.433-17.744,26.929-31.315,38.205-11.589,9.635-25.737,18.419-43.25,26.868-39.193,18.908-42.63,53.1-45.134,78.063-1.559,15.515-2.789,27.769-11.776,31.5-10.354,4.3-36.591,8.817-62.389,10.749-5.792.434-14.856.966-24.5.966Zm12.891-307.151a78.611,78.611,0,0,1,17.81,2.059,74.089,74.089,0,0,1,54.027,48.444c13.489,38.337-29.794,73.039-67.983,103.657-16.97,13.6-33,26.451-42.449,38.375-8.7,10.969-19.177,31.238-19.682,65.518a178.747,178.747,0,0,0,3.206,36.7l.011.049c.275,2.092,1.746,3.931,4.365,5.473,9,5.287,31.678,7.005,62.219,4.716,25.688-1.922,51.776-6.407,62.032-10.662,8.334-3.459,9.531-15.4,11.052-30.514,2.536-25.249,6.006-59.825,45.8-79.024,17.426-8.405,31.5-17.145,43.009-26.714,13.445-11.172,23.591-23.552,31.019-37.837C740.306,369.8,742.7,327.171,730.666,272.1c-6.061-27.752-17.777-50.739-34.818-68.318-14.922-15.394-34.5-27.209-58.205-35.109-43.865-14.625-95.774-14.318-140.99-12.874-40.341,1.285-80.308,19.956-112.535,52.567a204.892,204.892,0,0,0-35.076,47.615c-8.746,16.558-14.378,33.33-16.289,48.5-1.685,13.379,2.026,24.5,11.04,33.061,14.071,13.368,38.507,18.139,56.525,19.786,19.846,1.812,39.479.5,47.088-1.01,8.087-1.609,9.262-8.647,10.892-18.386,1.845-11.035,4.376-26.149,18.672-40.434,9.915-9.9,25.331-15.334,41.955-15.334Z" transform="translate(-331.151 -153.96)" fill="#33353b"/>
      <path id="Tracé_727" data-name="Tracé 727" d="M607.974,1155.937a84.614,84.614,0,0,1-63.207-29.026c-12.72-14.883-18.326-33.077-15.773-51.228,3.431-24.442,12.32-44.667,25.7-58.491,13.67-14.126,32.095-21.592,53.275-21.592,23.014,0,42.4,6.226,57.645,18.5,16.816,13.544,27.983,34.115,33.193,61.132,2.855,14.8-1.543,29.9-12.7,43.657-17.694,21.812-49.822,37.047-78.134,37.047Zm-78.4-80.166.582.083c-2.5,17.8,3,35.658,15.5,50.272a83.45,83.45,0,0,0,62.323,28.614c13.335,0,28.34-3.6,42.24-10.135,14.076-6.616,26.5-16.02,34.982-26.473,10.931-13.478,15.24-28.23,12.457-42.669-5.15-26.731-16.174-47.066-32.77-60.429-15.026-12.106-34.175-18.238-56.915-18.238-20.857,0-38.99,7.34-52.435,21.236-13.209,13.643-21.982,33.637-25.381,57.827l-.582-.082Z" transform="translate(-420.106 -533.536)" fill="#33353b"/>
    </g>
    <g id="Groupe_784" data-name="Groupe 784" transform="translate(61.942 123.817)">
      <path id="Tracé_728" data-name="Tracé 728" d="M106.218,344.995s-4.754-21.548,5.589-34.587,43.651-29.141,37.151-47.626-28.993-20.752-37.986-11.765-3.975,18.65-10.058,19.857-41.433,2.91-38.837-17.672,25.216-49.273,55.373-50.234,70.278-.56,78.985,39.314-6.16,55.537-27.494,65.831-11.414,33.67-19.149,36.882-42.652,6.961-43.574,0Z" transform="translate(-61.942 -202.745)" fill="#8be3d7"/>
      <path id="Tracé_729" data-name="Tracé 729" d="M128.533,512.911c2.317-16.5,11.82-26.791,26.4-26.791s26.72,7.609,30.387,26.649c2.8,14.521-15.811,26.934-30.387,26.934S126.474,527.559,128.533,512.911Z" transform="translate(-91.882 -330.546)" fill="#8be3d7"/>
    </g>
    <g id="Groupe_785" data-name="Groupe 785" transform="translate(599.954 27.737)">
      <path id="Tracé_730" data-name="Tracé 730" d="M1065.165,102.4s-2.5-11.309,2.932-18.15,22.91-15.3,19.495-25-15.218-10.892-19.94-6.176-2.086,9.789-5.276,10.426-21.746,1.526-20.385-9.278,13.236-25.864,29.064-26.369,36.882-.291,41.455,20.637-3.234,29.152-14.433,34.549-5.99,17.672-10.052,19.358-22.388,3.651-22.871,0Z" transform="translate(-1041.92 -27.737)" fill="#44474f"/>
      <path id="Tracé_731" data-name="Tracé 731" d="M1076.882,190.53c1.219-8.658,6.2-14.06,13.851-14.06s14.022,3.991,15.949,13.989c1.466,7.62-8.3,14.137-15.949,14.137s-14.933-6.374-13.851-14.06Z" transform="translate(-1057.64 -94.815)" fill="#44474f"/>
    </g>
    <g id="Groupe_786" data-name="Groupe 786" transform="translate(759.991 163.239)">
      <path id="Tracé_732" data-name="Tracé 732" d="M1368.268,386.465s-3.739-16.953,4.392-27.209,34.34-22.926,29.224-37.47-22.811-16.322-29.888-9.256-3.129,14.675-7.911,15.625-32.594,2.289-30.552-13.906,19.835-38.765,43.563-39.523,55.29-.439,62.142,30.931-4.848,43.7-21.631,51.788-8.976,26.489-15.065,29.015-33.555,5.474-34.28,0Z" transform="translate(-1333.425 -274.551)" fill="#8be3d7"/>
      <path id="Tracé_733" data-name="Tracé 733" d="M1385.838,518.566c1.823-12.978,9.295-21.076,20.764-21.076s21.021,5.984,23.909,20.966c2.2,11.425-12.44,21.186-23.909,21.186S1384.219,530.09,1385.838,518.566Z" transform="translate(-1356.991 -375.096)" fill="#8be3d7"/>
    </g>
    <g id="Groupe_787" data-name="Groupe 787" transform="translate(186.996 320.93)">
      <path id="Tracé_734" data-name="Tracé 734" d="M310.25,627.623s-2.2-9.975,2.586-16.009,20.225-13.489,17.211-22.042-13.434-9.6-17.6-5.446-1.839,8.63-4.661,9.19-19.2,1.345-18-8.18,11.683-22.806,25.655-23.25,32.561-.258,36.6,18.194-2.855,25.7-12.737,30.47-5.287,15.586-8.872,17.069-19.764,3.223-20.187,0Z" transform="translate(-289.725 -561.783)" fill="#44474f"/>
      <path id="Tracé_735" data-name="Tracé 735" d="M320.6,705.332c1.076-7.637,5.474-12.4,12.232-12.4s12.38,3.519,14.082,12.336c1.3,6.72-7.324,12.462-14.082,12.462s-13.182-5.622-12.232-12.4Z" transform="translate(-303.609 -620.93)" fill="#44474f"/>
    </g>
    <g id="Groupe_792" data-name="Groupe 792" transform="translate(652.286 356.881)">
      <g id="Groupe_790" data-name="Groupe 790" transform="translate(16.475)">
        <path id="Tracé_736" data-name="Tracé 736" d="M1167.772,766.6c-3.058-3.228,8.339-17.42,8.339-17.42,1.224-.824,20.719,18.968,43.838,12.221,8.235-2.4,19.907-16.6,20.78-18.727.115-.285,17.909,6.8,17.909,6.8-1.576,3.86-1.224,17.6-10.228,25.567-18.628,16.487-50.349,17.431-80.638-8.444Z" transform="translate(-1167.251 -679.31)" fill="#d38854"/>
        <path id="Tracé_737" data-name="Tracé 737" d="M1340,1213.16s-.324,6.292-4.568,7.955-16.448,2.932-12.012,7.1c2.547,2.393,14.878,1.23,18.348,1.323s6.687,1.718,9.328-.566c2.9-2.515.412-15.5.412-15.5a13.742,13.742,0,0,1-5.726,1.356,10.953,10.953,0,0,1-5.776-1.669Z" transform="translate(-1237.253 -891.502)" fill="#33353b"/>
        <path id="Tracé_738" data-name="Tracé 738" d="M1297.523,865.23s-1.592,28.394,5.9,83.147c5.4,39.528,11.968,79.391,15.2,98.508a14.71,14.71,0,0,0,13.33,12.419l3.585.247c7.214.494,13.242-5.644,12.912-13.143L1342.8,917.539l-1.109-42.394-44.167-9.915Z" transform="translate(-1225.939 -734.587)" fill="#44474f"/>
        <path id="Tracé_739" data-name="Tracé 739" d="M1412.425,1215.14s-.324,6.292-4.568,7.955-16.448,2.932-12.012,7.1c2.547,2.394,14.878,1.23,18.348,1.323s6.687,1.718,9.328-.565c2.9-2.515.412-15.5.412-15.5a13.733,13.733,0,0,1-5.726,1.356,10.952,10.952,0,0,1-5.776-1.669Z" transform="translate(-1269.915 -892.395)" fill="#33353b"/>
        <path id="Tracé_740" data-name="Tracé 740" d="M1369.944,867.21s-1.592,28.394,5.9,83.147c5.4,39.528,11.968,79.391,15.2,98.508a14.71,14.71,0,0,0,13.33,12.418l3.585.247c7.214.494,13.242-5.644,12.913-13.143l-5.644-128.868-1.109-42.394-44.167-9.915Z" transform="translate(-1258.601 -735.48)" fill="#44474f"/>
        <path id="Tracé_741" data-name="Tracé 741" d="M1382.625,917.951c-.176,3.426-20.637,4.227-45.88,2.74s-45.337-5.589-45.156-9.015,20.56-4.881,45.8-3.393S1382.8,914.525,1382.625,917.951Z" transform="translate(-1223.326 -753.741)" fill="#33353b"/>
        <path id="Tracé_742" data-name="Tracé 742" d="M1379.029,733.484s-3.991-18.09-36.943-19.177c-47.521-1.565-44.3,42.883-50.486,110.125,0,0,46.995-5.441,91.085,5.435,0,0,5.94-68.647-3.651-96.389Z" transform="translate(-1223.332 -666.503)" fill="#18a291"/>
        <path id="Tracé_743" data-name="Tracé 743" d="M1393.281,731.124l-21.85,11.5s-47.253,3.052-59.709.62-15.641-11.853-15.641-11.853a68.589,68.589,0,0,1,36.448-16.745q3.2-.445,6.643-.582a63.983,63.983,0,0,1,11.441.543c28.62,4.068,42.658,16.52,42.658,16.52Z" transform="translate(-1225.352 -666.389)" fill="#18a291"/>
        <path id="Tracé_744" data-name="Tracé 744" d="M1381.316,686.808l-2.273-8.219-.659-2.394L1374.5,662.13l-.928,13.862-.554,8.317-.176,2.635c-.121,1.79-1.2,2.136-2.553,3.656-.549.615-4.041,4.343-.236,6.176,4.738,2.284,13.791-.73,17.31-4.9-.028-.005-5.3-2.41-6.039-5.067Z" transform="translate(-1257.922 -642.989)" fill="#d38854"/>
        <path id="Tracé_745" data-name="Tracé 745" d="M1298.7,918.428s27.588-7.423,83.981,5.347l.214,8.29-83.185.708-1.016-14.34Z" transform="translate(-1226.529 -757.611)" fill="#44474f"/>
        <path id="Tracé_746" data-name="Tracé 746" d="M1457.9,744.816c1.757,2.668-1.071,7.774-6.314,11.4s-10.914,4.4-12.671,1.729,1.071-7.774,6.313-11.4S1456.14,742.148,1457.9,744.816Z" transform="translate(-1289.534 -679.564)" fill="#33353b"/>
        <g id="Groupe_788" data-name="Groupe 788" transform="translate(166.122 165.554)">
          <path id="Tracé_747" data-name="Tracé 747" d="M1498.259,950.475h0a2,2,0,0,1,1.515,2.366l-3.486,16.651a1.975,1.975,0,0,1-2.328,1.537h0a2,2,0,0,1-1.515-2.366l3.486-16.651A1.975,1.975,0,0,1,1498.259,950.475Z" transform="translate(-1480.014 -938.567)" fill="#d38854"/>
          <path id="Tracé_748" data-name="Tracé 748" d="M1488.96,948.545h0a2,2,0,0,1,1.515,2.366l-3.9,18.622a1.975,1.975,0,0,1-2.328,1.537h0a2,2,0,0,1-1.516-2.366l3.9-18.622A1.975,1.975,0,0,1,1488.96,948.545Z" transform="translate(-1475.635 -937.697)" fill="#d38854"/>
          <path id="Tracé_749" data-name="Tracé 749" d="M1483.866,929.693l.445.549a2.442,2.442,0,0,1-.324,3.393l-9.822,8.218a2.357,2.357,0,0,1-3.343-.324l-.445-.549a2.442,2.442,0,0,1,.324-3.393l9.822-8.218A2.357,2.357,0,0,1,1483.866,929.693Z" transform="translate(-1469.839 -928.82)" fill="#d38854"/>
          <path id="Tracé_750" data-name="Tracé 750" d="M1480.626,946.615h0a2,2,0,0,1,1.515,2.366l-3.124,14.927a1.975,1.975,0,0,1-2.328,1.537h0a2,2,0,0,1-1.515-2.366l3.124-14.927A1.975,1.975,0,0,1,1480.626,946.615Z" transform="translate(-1472.226 -936.826)" fill="#d38854"/>
          <path id="Tracé_751" data-name="Tracé 751" d="M1498.268,934.55s3.552,10.81-.851,17.568c-1.521,2.339-15.921-1.186-16.673-4.233s2.328-12.918,2.328-12.918l15.191-.412Z" transform="translate(-1474.704 -931.404)" fill="#d38854"/>
          <path id="Tracé_752" data-name="Tracé 752" d="M1507.471,952.364h0a2,2,0,0,1,1.51,2.361l-3.118,14.9a1.964,1.964,0,0,1-2.328,1.532h0a1.994,1.994,0,0,1-1.51-2.361l3.118-14.9A1.964,1.964,0,0,1,1507.471,952.364Z" transform="translate(-1484.335 -939.418)" fill="#d38854"/>
        </g>
        <path id="Tracé_753" data-name="Tracé 753" d="M1463,853.16c-1.395-22.2-5.1-53.978-14.84-79.336a75.927,75.927,0,0,0-5-11.309c-1.444-2.591,1.411-8.131,5.759-10.689,4.079-2.4,10.31-1.817,11.266-.549,1.625,2.158,3.311,6.259,5.929,12.764,9.1,22.608,14.142,51.623,15.509,88.895l-18.628.219Z" transform="translate(-1291.514 -682.697)" fill="#d38854"/>
        <g id="Groupe_789" data-name="Groupe 789" transform="translate(104.063)">
          <path id="Tracé_754" data-name="Tracé 754" d="M1363.71,647.886a18.541,18.541,0,0,0-1.51,7.455c.011,4.326,6.231-5.007,6.231-5.007l-4.721-2.454Z" transform="translate(-1359.235 -636.563)" fill="#5c305d"/>
          <path id="Tracé_755" data-name="Tracé 755" d="M1360.066,654.722c2.663-7.807,9.986-12.314,16.366-10.074s9.388,10.382,6.731,18.188-9.986,12.314-16.366,10.074S1357.409,662.529,1360.066,654.722Z" transform="translate(-1357.837 -634.846)" fill="#d38854"/>
          <path id="Tracé_756" data-name="Tracé 756" d="M1383.273,651.122,1377.6,649.3a4.34,4.34,0,0,1-2.74-2.575c-.807-2.136-2.037-3.4-7.483-4.321-6.9-1.164-10.579-6.248-10.579-10.036,0-3.865,4.008-5.649,7.088-3.168s2.481-2.158,5.88-1.932c6.352.428,6.528,5.5,11.617,6.4,6.671,1.175,17.513,8.768,9.481,19.44l-7.6-1.987Z" transform="translate(-1356.8 -627.265)" fill="#33353b"/>
          <path id="Tracé_757" data-name="Tracé 757" d="M1380.906,669.142a.273.273,0,0,1-.077-.214.247.247,0,0,1,.274-.22,2.692,2.692,0,0,1,2.47,2.2.251.251,0,0,1-.175.307.271.271,0,0,1-.3-.181,4.237,4.237,0,0,0-2.048-1.828A.264.264,0,0,1,1380.906,669.142Z" transform="translate(-1367.637 -645.955)" fill="#33353b"/>
          <path id="Tracé_758" data-name="Tracé 758" d="M1380.457,674.513c-.269.533-.8.807-1.175.615a.978.978,0,0,1-.209-1.323c.269-.533.8-.807,1.175-.615A.978.978,0,0,1,1380.457,674.513Z" transform="translate(-1366.776 -647.949)" fill="#33353b"/>
          <path id="Tracé_759" data-name="Tracé 759" d="M1364.8,664.2a.181.181,0,0,1-.1-.148.31.31,0,0,1,.159-.313,1.723,1.723,0,0,1,2.416.8.306.306,0,0,1-.066.346.184.184,0,0,1-.275-.017,2.568,2.568,0,0,0-2-.67A.168.168,0,0,1,1364.8,664.2Z" transform="translate(-1360.361 -643.617)" fill="#33353b"/>
          <path id="Tracé_760" data-name="Tracé 760" d="M1366.715,669.261c-.044.6-.428,1.054-.857,1.021s-.736-.549-.692-1.142.428-1.054.857-1.021S1366.759,668.668,1366.715,669.261Z" transform="translate(-1360.571 -645.689)" fill="#33353b"/>
          <path id="Tracé_761" data-name="Tracé 761" d="M1406.953,670.71s-5.776,7.928-11.578,7.39c0,0,5.94-5.721-2.9-11.809C1392.47,666.29,1401.633,666.724,1406.953,670.71Z" transform="translate(-1372.887 -644.865)" fill="#33353b"/>
          <path id="Tracé_762" data-name="Tracé 762" d="M1399.647,676.25a2.518,2.518,0,0,1-3.333-1.29,2.574,2.574,0,0,1,1.636-3.212,2.517,2.517,0,0,1,3.332,1.29A2.574,2.574,0,0,1,1399.647,676.25Z" transform="translate(-1374.558 -647.238)" fill="#ad612d"/>
          <path id="Tracé_763" data-name="Tracé 763" d="M1377.268,666.29s-.714,7.516-2.471,8.6-11.617-.351-15.8-3.08h0a9.84,9.84,0,0,0,5.836,11.3,13.857,13.857,0,0,0,4.65.955h0c3.294.1,6.66-.593,8.575-3.311.582-.829.56-6.676.56-6.676s.23-3.382,2.465-4.7c0,0-1.773-2.438-3.815-3.08Z" transform="translate(-1357.684 -644.865)" fill="#33353b"/>
          <path id="Tracé_764" data-name="Tracé 764" d="M1371.717,629.03a2.5,2.5,0,0,1-.637-.082l.077-.329a1.516,1.516,0,0,0,1.982-.928l.318.1A1.839,1.839,0,0,1,1371.717,629.03Z" transform="translate(-1363.24 -627.457)" fill="#33353b"/>
          <path id="Tracé_765" data-name="Tracé 765" d="M1367.869,642.2a22.186,22.186,0,0,1-3.437-2.372c-2.224-1.889-3.288-3.761-3.091-5.413a2.684,2.684,0,0,1,1.071-2.2c.922-.521,2.213.082,3.354.615.17.077.335.154.494.225l-.066.154q-.239-.107-.494-.231c-1.1-.516-2.355-1.1-3.206-.62a2.573,2.573,0,0,0-.983,2.07c-.467,3.87,6.369,7.576,6.44,7.615l-.077.148Z" transform="translate(-1358.838 -629.408)" fill="#fff"/>
          <path id="Tracé_766" data-name="Tracé 766" d="M1397.984,638a13.74,13.74,0,0,1-7.84-2.893,9.226,9.226,0,0,1-2.234-2.515l.148-.082a9.177,9.177,0,0,0,2.2,2.471,13.535,13.535,0,0,0,7.736,2.855l-.011.17Z" transform="translate(-1370.831 -629.631)" fill="#fff"/>
          <path id="Tracé_767" data-name="Tracé 767" d="M1368.841,686.385a1.079,1.079,0,1,0,1.29-1.109A1.23,1.23,0,0,0,1368.841,686.385Z" transform="translate(-1362.215 -653.421)" fill="#fff"/>
        </g>
        <path id="Tracé_768" data-name="Tracé 768" d="M1488.713,839.975c-1.576,0-3.042-1.7-3.349-3.964-.324-2.41.779-4.562,2.471-4.8s3.327,1.532,3.651,3.942-.78,4.562-2.471,4.8A1.869,1.869,0,0,1,1488.713,839.975Zm-.577-7.955a1.137,1.137,0,0,0-.192.011c-1.219.17-2.031,1.938-1.773,3.865s1.5,3.4,2.734,3.239,2.031-1.938,1.773-3.865C1490.431,833.447,1489.294,832.02,1488.136,832.02Z" transform="translate(-1310.693 -719.235)" fill="#ad612d"/>
      </g>
      <path id="Tracé_769" data-name="Tracé 769" d="M1310.636,754.448l-.516-.159c1.521-5.056,6.341-11.3,6.39-11.359l.428.34c-.049.06-4.8,6.22-6.3,11.178Z" transform="translate(-1215.21 -679.43)" fill="#33353b"/>
      <path id="Tracé_770" data-name="Tracé 770" d="M1367.937,999.765c-.033-.236-3.091-23.464-5.391-31.787-2.278-8.241-12.841-15.4-12.945-15.476l.3-.461c.11.071,10.837,7.351,13.171,15.789,2.311,8.356,5.375,31.628,5.408,31.864Z" transform="translate(-1233.015 -773.738)" fill="#33353b"/>
      <g id="Groupe_791" data-name="Groupe 791" transform="translate(0 61.179)">
        <path id="Tracé_771" data-name="Tracé 771" d="M1157.817,765.473h0a2.023,2.023,0,0,1-2.756.818l-15.207-8.449a2.087,2.087,0,0,1-.807-2.8h0a2.023,2.023,0,0,1,2.756-.818l15.207,8.449A2.085,2.085,0,0,1,1157.817,765.473Z" transform="translate(-1137.944 -745.589)" fill="#d38854"/>
        <path id="Tracé_772" data-name="Tracé 772" d="M1160.877,756.222h0a2.023,2.023,0,0,1-2.756.818l-17.008-9.448a2.087,2.087,0,0,1-.807-2.8h0a2.023,2.023,0,0,1,2.756-.818l17.008,9.448A2.085,2.085,0,0,1,1160.877,756.222Z" transform="translate(-1138.512 -740.966)" fill="#d38854"/>
        <path id="Tracé_773" data-name="Tracé 773" d="M1187.8,759.134l-.664.285a2.449,2.449,0,0,1-3.217-1.334l-5.095-12.309a2.51,2.51,0,0,1,1.312-3.261l.664-.285a2.449,2.449,0,0,1,3.217,1.334l5.094,12.309A2.51,2.51,0,0,1,1187.8,759.134Z" transform="translate(-1155.91 -740.206)" fill="#d38854"/>
        <path id="Tracé_774" data-name="Tracé 774" d="M1168.2,749.33h0a2.023,2.023,0,0,1-2.756.818l-13.631-7.576a2.087,2.087,0,0,1-.807-2.8h0a2.023,2.023,0,0,1,2.756-.818l13.632,7.576A2.087,2.087,0,0,1,1168.2,749.33Z" transform="translate(-1143.338 -738.702)" fill="#d38854"/>
        <path id="Tracé_775" data-name="Tracé 775" d="M1172.035,771.694s-11.6.357-16.882-6.072c-1.828-2.224,5.891-15.647,9.086-15.493s11.913,6.182,11.913,6.182L1172.04,771.7Z" transform="translate(-1145.195 -743.855)" fill="#d38854"/>
        <path id="Tracé_776" data-name="Tracé 776" d="M1154.65,774.6h0a2.017,2.017,0,0,1-2.751.818l-13.6-7.56a2.086,2.086,0,0,1-.807-2.794h0a2.017,2.017,0,0,1,2.75-.818l13.6,7.56A2.086,2.086,0,0,1,1154.65,774.6Z" transform="translate(-1137.243 -750.108)" fill="#d38854"/>
      </g>
    </g>
    <g id="Groupe_795" data-name="Groupe 795" transform="translate(69.3 400.883)">
      <path id="Tracé_777" data-name="Tracé 777" d="M270.2,864.591a19.13,19.13,0,0,1-7.8-2.811c-7.922-4.941-13.231-15.378-17.228-33.846-1.839-8.5-7.208-18.754-7.263-18.853l17.854-9.717c.274.516,6.747,12.83,9.2,24.167,1.389,6.412,2.125-34.071,5.539-37.9,2.092-2.35,10.53,1.515,10.53,1.515a207,207,0,0,1,6.692,32.122,158.93,158.93,0,0,1,1.482,23.9,39.926,39.926,0,0,1-1.537,10.508c-2.333,7.379-7.214,9.668-9.915,10.376a19.941,19.941,0,0,1-7.554.538Z" transform="translate(-148.661 -742.347)" fill="#d38854"/>
      <path id="Tracé_778" data-name="Tracé 778" d="M298.375,923.172a6.587,6.587,0,0,1-2.69-.516c-.8-.368-1.235-.878-1.235-1.449,0-1.109,1.729-1.982,3.936-1.987h0a6.477,6.477,0,0,1,2.712.516c.8.368,1.235.884,1.235,1.449,0,1.109-1.729,1.982-3.936,1.987Zm.033-3.415h-.022c-2.015,0-3.415.769-3.415,1.449,0,.34.34.692.928.961a6.1,6.1,0,0,0,2.471.472h.022c2.015,0,3.415-.769,3.415-1.449,0-.34-.34-.692-.928-.961A6.1,6.1,0,0,0,298.408,919.758Z" transform="translate(-174.16 -802.938)" fill="#ad612d"/>
      <path id="Tracé_779" data-name="Tracé 779" d="M283.068,876.13a.271.271,0,0,1-.264-.236c-.017-.115-1.373-11.419,2.767-20.28a.261.261,0,0,1,.351-.126.273.273,0,0,1,.126.357c-4.074,8.724-2.734,19.874-2.718,19.989a.263.263,0,0,1-.231.3Z" transform="translate(-168.807 -774.184)" fill="#ad612d"/>
      <path id="Tracé_780" data-name="Tracé 780" d="M144.334,769.208s1.114-4.128-3.662-5.529-1.5,9.728-13.385,8.532-7.873,3.881-11.7,7.582-20.571-4.8-26.583,9.794,4.551,25.315,25.309,26.056,12.561,12.369,30.129,5.907,9.794-34.873,4.853-39.331-4.963-13.006-4.963-13.006Z" transform="translate(-80.751 -732.735)" fill="#44474f"/>
      <path id="Tracé_781" data-name="Tracé 781" d="M209.987,1267.75s.159,6.489,4.485,8.318,16.854,3.481,12.171,7.653c-2.685,2.394-15.35.846-18.924.846s-6.934,1.581-9.586-.846c-2.921-2.674,0-15.97,0-15.97a14.146,14.146,0,0,0,5.858,1.559A11.256,11.256,0,0,0,209.987,1267.75Z" transform="translate(-130.136 -960.124)" fill="#33353b"/>
      <path id="Tracé_782" data-name="Tracé 782" d="M119.517,1267.75s.159,6.489,4.485,8.318,16.854,3.481,12.171,7.653c-2.685,2.394-15.35.846-18.924.846s-6.934,1.581-9.586-.846c-2.921-2.674,0-15.97,0-15.97a14.146,14.146,0,0,0,5.858,1.559A11.256,11.256,0,0,0,119.517,1267.75Z" transform="translate(-89.335 -960.124)" fill="#33353b"/>
      <path id="Tracé_783" data-name="Tracé 783" d="M233.543,943.835s-.307,29.9-2.679,82.647c-1.856,41.356-1.477,79.682-5.045,97.849-1.279,6.5-48.521,3.184-48.021-3.969l11.183-127.77,2.136-40.451,42.422-8.312Z" transform="translate(-121.548 -814.038)" fill="#18a291"/>
      <path id="Tracé_784" data-name="Tracé 784" d="M137.059,975.939c.4,3.3,18.8,2.9,41.351.005s40.088-7.851,39.7-11.156-18.578-3.706-41.12-.813-40.319,8.658-39.924,11.963Z" transform="translate(-103.177 -822.248)" fill="#33353b"/>
      <path id="Tracé_785" data-name="Tracé 785" d="M164.364,977.077,122.4,1138.144c-2.015,6.566-41.818,5.688-40.577-1.285l32.556-152.343a4.835,4.835,0,0,1,3.321-3.634c9.026-2.641,47.544-10.3,46.654-3.8Z" transform="translate(-78.255 -827.883)" fill="#18a291"/>
      <path id="Tracé_786" data-name="Tracé 786" d="M145.605,806.332s4.282-14.609,27.093-13.78c12.517.456,25.688-3.124,31.551,16.788a391.123,391.123,0,0,1,13.764,79s-37.354-8.312-81.11,11.079c0,0-1.312-66.435,8.707-93.084Z" transform="translate(-103.082 -745.797)" fill="#fff2e2"/>
      <path id="Tracé_787" data-name="Tracé 787" d="M123.2,803.461l14.3,11.919s53.929,13.939,61.8,5.841c5.4-5.561,8.29-13.489,6.451-17.6a55.649,55.649,0,0,0-38.194-12.649,78.207,78.207,0,0,1-9,.071c-19.105-1.093-35.356,12.418-35.356,12.418Z" transform="translate(-96.927 -745.072)" fill="#fff2e2"/>
      <path id="Tracé_788" data-name="Tracé 788" d="M187.9,1089.689l-.791-.187,12.814-55.427a31.02,31.02,0,0,1,13.857-17.365l.4.714A30.2,30.2,0,0,0,200.7,1034.3l-12.8,55.389Z" transform="translate(-125.75 -846.906)" fill="#33353b"/>
      <path id="Tracé_789" data-name="Tracé 789" d="M185.488,769.685a6.992,6.992,0,0,0,5.682-4.216l3.124-7.362.906-2.136,5.331-12.561-.922,13.022-.554,7.812-.159,2.229a3.548,3.548,0,0,0,2.888,3.75h.033c.95,1.57,2.256,4.754-1.658,6.017-4.6,1.488-12.04-2.191-14.708-6.544h.038Z" transform="translate(-125.002 -723.649)" fill="#d38854"/>
      <path id="Tracé_790" data-name="Tracé 790" d="M202.75,768.186c.307,4.2,4.074,6.687,4.074,6.687l.027-.022.554-7.812C206.055,766.533,202.745,768.115,202.75,768.186Z" transform="translate(-132.804 -734.26)" fill="#33353b"/>
      <path id="Tracé_791" data-name="Tracé 791" d="M212.349,729.624c-2.734-7.862-10.041-12.408-16.316-10.157s-9.146,10.448-6.412,18.3,10.041,12.408,16.316,10.157S215.083,737.48,212.349,729.624Z" transform="translate(-126.416 -712.591)" fill="#d38854"/>
      <path id="Tracé_792" data-name="Tracé 792" d="M210.579,744.961a.3.3,0,0,0,.121-.22.277.277,0,0,0-.264-.291,2.973,2.973,0,0,0-3.085,1.954.28.28,0,0,0,.137.368.3.3,0,0,0,.362-.143,4.72,4.72,0,0,1,2.558-1.63.277.277,0,0,0,.165-.05Z" transform="translate(-134.868 -724.113)" fill="#33353b"/>
      <path id="Tracé_793" data-name="Tracé 793" d="M211.3,750.8c.2.631.725,1.027,1.18.884a1.091,1.091,0,0,0,.461-1.411c-.2-.631-.725-1.027-1.18-.884A1.091,1.091,0,0,0,211.3,750.8Z" transform="translate(-136.625 -726.331)" fill="#33353b"/>
      <path id="Tracé_794" data-name="Tracé 794" d="M227.964,741.137a.27.27,0,0,0,.192-.154.281.281,0,0,0-.132-.368,2.933,2.933,0,0,0-3.585.615.283.283,0,0,0-.011.4.305.305,0,0,0,.39.011,4.629,4.629,0,0,1,2.976-.516A.232.232,0,0,0,227.964,741.137Z" transform="translate(-142.547 -722.226)" fill="#33353b"/>
      <path id="Tracé_795" data-name="Tracé 795" d="M226.7,746.284c-.055.664.285,1.23.758,1.268s.9-.467.955-1.125-.285-1.23-.758-1.268S226.75,745.625,226.7,746.284Z" transform="translate(-143.6 -724.437)" fill="#33353b"/>
      <path id="Tracé_796" data-name="Tracé 796" d="M170.08,976.149s44.991-8.724,59.578-4.606l-6.994,10.519-26.006,1.493-26.577-7.406Z" transform="translate(-118.07 -826.038)" fill="#18a291"/>
      <path id="Tracé_797" data-name="Tracé 797" d="M191.706,721.077c1.307,2.432,7.4,2.3,11.628,1.032,5.27-1.581,7.2,5.237,8.2,2.075s.637-12.105-5.386-15.482-19.929.423-20.8,5.243c-1.285,7.1,5.243,5.051,6.363,7.126Z" transform="translate(-124.878 -707.416)" fill="#44474f"/>
      <path id="Tracé_798" data-name="Tracé 798" d="M181.3,724.351s3.739-.362,4.129,1.252,3.838,3.695,1.9,5.5-2.267,2.586-1.658,4.31c.423,1.2-.725,4.6-.626,7.28a8.762,8.762,0,0,0,1.433,3.168s-9.717.137-11.666-10.475c-1.268-6.907,4-11.134,6.489-11.024Z" transform="translate(-120.116 -715.038)" fill="#44474f"/>
      <path id="Tracé_799" data-name="Tracé 799" d="M190.344,752.509c1.724.785,3.569.269,4.118-1.158s-.4-3.217-2.114-4-3.569-.269-4.118,1.158S188.625,751.724,190.344,752.509Z" transform="translate(-126.184 -725.26)" fill="#ad612d"/>
      <path id="Tracé_800" data-name="Tracé 800" d="M147.3,828.813c-1.1,1.768-7.423-.28-14.115-4.584s-11.222-9.218-10.118-10.991,7.423.28,14.115,4.584S148.4,827.04,147.3,828.813Z" transform="translate(-96.791 -754.855)" fill="#33353b"/>
      <g id="Groupe_793" data-name="Groupe 793" transform="translate(29.002 118.214)">
        <path id="Tracé_801" data-name="Tracé 801" d="M130.756,929.18s7.554-7.016,13.516-6.4,13.121,5.99,9.344,6.4a39.034,39.034,0,0,1-8.746-.412s10.535,2.273,8.943,4.54-10.733.209-10.733.209,12.325,3.717,10.14,5.369-11.529-1.241-11.529-1.241,11.331,3.926,8.746,5.781-9.344-3.305-10.936-1.032-4.573,11.145-11.331,7.433l2.586-20.642Z" transform="translate(-128.17 -922.74)" fill="#d38854"/>
        <path id="Tracé_802" data-name="Tracé 802" d="M154.768,933.355a.185.185,0,0,1-.077-.016c-.027-.011-2.811-1.049-4.227-.027a.216.216,0,0,1-.307-.055.223.223,0,0,1,.055-.313c1.609-1.158,4.513-.071,4.639-.027a.23.23,0,0,1,.132.291.225.225,0,0,1-.209.148Z" transform="translate(-138.067 -927.102)" fill="#d38854"/>
        <path id="Tracé_803" data-name="Tracé 803" d="M145.517,941.99a.225.225,0,0,1-.093-.428,7.662,7.662,0,0,1,5.463,0,.225.225,0,0,1,.126.291.215.215,0,0,1-.285.126,7.35,7.35,0,0,0-5.122,0,.259.259,0,0,1-.088.022Z" transform="translate(-135.893 -930.994)" fill="#d38854"/>
        <path id="Tracé_804" data-name="Tracé 804" d="M148.537,949.447a.17.17,0,0,1-.077-.017c-.033-.011-3.332-1.252-4.749-.038a.22.22,0,0,1-.313-.027.232.232,0,0,1,.027-.318c1.614-1.384,5.045-.093,5.188-.039a.233.233,0,0,1,.132.291A.225.225,0,0,1,148.537,949.447Z" transform="translate(-135.015 -934.317)" fill="#d38854"/>
      </g>
      <g id="Groupe_794" data-name="Groupe 794" transform="translate(120.575 34.696)">
        <path id="Tracé_805" data-name="Tracé 805" d="M308.679,793.956s10.848.939,15.092-3.36,6.473-13.039,3.283-10.947a39.787,39.787,0,0,0-6.533,5.913s6.769-8.5,4.128-9.245-8.466,6.7-8.466,6.7,7.263-10.766,4.54-10.651-8.186,8.334-8.186,8.334,6.363-10.294,3.2-10.085-5.2,8.542-7.851,7.8-12.918-3.311-12.918,4.222l13.709,11.315Z" transform="translate(-294.97 -770.614)" fill="#d38854"/>
        <path id="Tracé_806" data-name="Tracé 806" d="M335.059,800.732a.222.222,0,0,1-.22-.209.227.227,0,0,1,.209-.242c1.735-.115,3.25-2.7,3.267-2.723a.22.22,0,1,1,.379.225c-.066.115-1.652,2.817-3.618,2.943h-.016Z" transform="translate(-312.951 -782.716)" fill="#d38854"/>
        <path id="Tracé_807" data-name="Tracé 807" d="M325.938,796.651a.224.224,0,0,1-.06-.439,7.51,7.51,0,0,0,3.975-3.278.22.22,0,0,1,.3-.088.229.229,0,0,1,.082.307,7.822,7.822,0,0,1-4.244,3.492c-.022,0-.038.006-.06.006Z" transform="translate(-308.836 -780.628)" fill="#d38854"/>
        <path id="Tracé_808" data-name="Tracé 808" d="M319.788,792.227h-.038a.226.226,0,0,1-.22-.231.218.218,0,0,1,.225-.22h.033c1.839,0,3.612-3.036,3.629-3.069a.219.219,0,0,1,.3-.082.222.222,0,0,1,.077.307c-.077.137-1.922,3.289-4.013,3.289Z" transform="translate(-306.046 -778.724)" fill="#d38854"/>
      </g>
      <path id="Tracé_809" data-name="Tracé 809" d="M215.171,761.116l-.291-.494c.17-.1,4.139-2.47,6.478-1.087l-.285.5C219.025,758.815,215.209,761.094,215.171,761.116Z" transform="translate(-138.274 -730.726)" fill="#33353b"/>
      <path id="Tracé_810" data-name="Tracé 810" d="M104.351,901.718c-10.3-4-25.529-13.95-28.427-29.4-2.234-11.891,2-25.446,12.572-40.28a72.352,72.352,0,0,1,15.592-15.9s3.1-.736,9.866,3.42c8.158,5.007,9.393,9.679,9.393,9.679-7.818,7.318-26.588,22.427-25.913,34.038.4,6.791,4.809,13.1,12.309,16.02l-5.4,22.432Z" transform="translate(-75.344 -756.422)" fill="#d38854"/>
    </g>
  </g>
</svg>
