<svg id="logo" xmlns="http://www.w3.org/2000/svg" xmlns:xlink="http://www.w3.org/1999/xlink" width="228.097" height="61.493" viewBox="0 0 228.097 61.493">
  <defs>
    <clipPath id="clip-path">
      <rect id="Rectangle_101" data-name="Rectangle 101" width="228.097" height="61.493" fill="none"/>
    </clipPath>
  </defs>
  <g id="Groupe_460" data-name="Groupe 460" clip-path="url(#clip-path)">
    <path id="Tracé_42" data-name="Tracé 42" d="M225.355,79.355H213.107V72.3H223.84a.787.787,0,0,0,.895-.895V66.348a.787.787,0,0,0-.895-.895H213.107V58.8h12a.787.787,0,0,0,.895-.9V52.648a.787.787,0,0,0-.895-.895H206.651a.787.787,0,0,0-.895.895V85.509a.787.787,0,0,0,.895.895h18.7a.787.787,0,0,0,.9-.895V80.252a.788.788,0,0,0-.9-.9" transform="translate(-167.869 -42.223)" fill="#18a291"/>
    <path id="Tracé_43" data-name="Tracé 43" d="M360.573,51.753h-13.9a.787.787,0,0,0-.895.895V85.509a.787.787,0,0,0,.895.895h13.9c9.59,0,16.821-7.448,16.821-17.325s-7.231-17.325-16.821-17.325m0,27.6h-7.445V58.8h7.445c5.846,0,9.772,4.13,9.772,10.277s-3.926,10.277-9.772,10.277" transform="translate(-282.106 -42.223)" fill="#18a291"/>
    <path id="Tracé_44" data-name="Tracé 44" d="M552.654,51.753h-5.561a.788.788,0,0,0-.9.895V85.509a.788.788,0,0,0,.9.895h5.561a.787.787,0,0,0,.895-.895V52.648a.787.787,0,0,0-.895-.895" transform="translate(-445.622 -42.223)" fill="#18a291"/>
    <path id="Tracé_45" data-name="Tracé 45" d="M648.8,70.856H642.83c-.514,0-.816.223-1.081.8-1.464,3.187-4.867,5.169-8.879,5.169a10.543,10.543,0,0,1-7.771-3,11,11,0,0,1-2.911-7.885,10.994,10.994,0,0,1,2.911-7.885,10.543,10.543,0,0,1,7.771-3c4.014,0,7.415,1.981,8.879,5.169a1.1,1.1,0,0,0,1.081.8H648.8a.843.843,0,0,0,.667-.247.861.861,0,0,0,.087-.716C647.509,52.794,640.8,47.9,632.87,47.9a17.64,17.64,0,0,0-18.034,18.034A17.64,17.64,0,0,0,632.87,83.972c7.894,0,14.753-5.043,16.681-12.265a.725.725,0,0,0-.066-.609.863.863,0,0,0-.689-.241" transform="translate(-501.623 -39.082)" fill="#18a291"/>
    <path id="Tracé_46" data-name="Tracé 46" d="M840,85.474,829.28,52.56a1.062,1.062,0,0,0-1.116-.807h-8.089a1.057,1.057,0,0,0-1.112.794L808.24,85.47a.816.816,0,0,0,.006.694.858.858,0,0,0,.707.239h6.218a.95.95,0,0,0,1.059-.788l1.411-4.773H830.6L832,85.606a.955.955,0,0,0,1.062.8h6.218a.853.853,0,0,0,.705-.239.814.814,0,0,0,.007-.691M819.666,74l4.452-15.064L828.573,74Z" transform="translate(-659.353 -42.223)" fill="#18a291"/>
    <path id="Tracé_47" data-name="Tracé 47" d="M1022.476,79.355h-11.238V52.648a.787.787,0,0,0-.895-.895h-5.563a.787.787,0,0,0-.895.895V85.509a.787.787,0,0,0,.895.895h17.7a.787.787,0,0,0,.895-.895V80.252a.787.787,0,0,0-.895-.9" transform="translate(-819.035 -42.223)" fill="#18a291"/>
    <path id="Tracé_48" data-name="Tracé 48" d="M1151.516,79.355h-11.238V52.648a.787.787,0,0,0-.9-.895h-5.561a.787.787,0,0,0-.9.895V85.509a.787.787,0,0,0,.9.895h17.694a.787.787,0,0,0,.895-.895V80.252a.787.787,0,0,0-.895-.9" transform="translate(-924.314 -42.223)" fill="#18a291"/>
    <path id="Tracé_49" data-name="Tracé 49" d="M98.991,48.393,99,48.385V75.156h-.064l.064.063v6.466H98.83L92.47,75.325V54.915l-.652.652L85.94,61.444l-.357.358-1.446-1.446L80.982,57.2l1.633-1.634,3.324-3.324,3.206-3.206,3.324-3.324v.007l.053-.06.268-.268A3.718,3.718,0,0,1,99,48.152c0,.082,0,.162-.008.242" transform="translate(-66.07 -36.253)" fill="#18a291"/>
    <path id="Tracé_50" data-name="Tracé 50" d="M18.957,102.1l-1.519,1.518-2.854,2.854-.227.227-1.446-1.446L9.756,102.1l-1.7-1.7v13.191l-.065.066-6.464,6.464V96.567a4.928,4.928,0,0,1,.508-2.185h0c.052-.107.109-.209.168-.311a4.938,4.938,0,0,1,7.4-1.315l.007.006,7.9,7.9Z" transform="translate(-1.244 -74.755)" fill="#18a291"/>
    <path id="Tracé_51" data-name="Tracé 51" d="M6.623,51.553a3.312,3.312,0,1,1-3.311-3.312,3.312,3.312,0,0,1,3.311,3.312" transform="translate(0 -39.358)" fill="#18a291"/>
    <path id="Tracé_52" data-name="Tracé 52" d="M149.818,3.312A3.312,3.312,0,1,1,146.507,0a3.312,3.312,0,0,1,3.311,3.311" transform="translate(-116.828 -0.001)" fill="#18a291"/>
    <path id="Tracé_53" data-name="Tracé 53" d="M436.348,292.2c.085.081.052.159-.066.159h-.323a.219.219,0,0,1-.169-.063l-5.024-4.4v4.335a.119.119,0,0,1-.136.128H430.4a.118.118,0,0,1-.136-.128v-8.669c0-.083.048-.127.136-.127h.227c.088,0,.136.044.136.127v4.084l4.887-4.149a.225.225,0,0,1,.165-.062h.322c.119,0,.157.082.07.158l-4.9,4.18,5.034,4.427Z" transform="translate(-351.039 -231.244)" fill="#18a291"/>
    <path id="Tracé_54" data-name="Tracé 54" d="M435.207,291.527h-.324a.46.46,0,0,1-.34-.133l-4.61-4.038v3.8a.358.358,0,0,1-.379.37h-.227a.358.358,0,0,1-.378-.37v-8.669a.358.358,0,0,1,.378-.37h.227a.358.358,0,0,1,.379.37v3.56l4.488-3.81a.466.466,0,0,1,.322-.12h.322a.347.347,0,0,1,.34.21.336.336,0,0,1-.108.372l-4.687,4,4.831,4.249a.337.337,0,0,1,.1.374.341.341,0,0,1-.336.2m-5.772-.485h.013V282.6h-.013Z" transform="translate(-349.964 -230.169)" fill="#18a291"/>
    <path id="Tracé_55" data-name="Tracé 55" d="M482.9,292.053v.179a.12.12,0,0,1-.136.127h-4.894a.121.121,0,0,1-.136-.127v-8.67a.12.12,0,0,1,.136-.127h4.826a.12.12,0,0,1,.136.127v.179a.12.12,0,0,1-.136.127h-4.463v3.774h4.123a.12.12,0,0,1,.136.127v.178a.12.12,0,0,1-.136.128h-4.123v3.85h4.531a.12.12,0,0,1,.136.127" transform="translate(-389.764 -231.244)" fill="#18a291"/>
    <path id="Tracé_56" data-name="Tracé 56" d="M481.687,291.527h-4.893a.362.362,0,0,1-.379-.37v-8.67a.362.362,0,0,1,.379-.37h4.825a.362.362,0,0,1,.379.37v.178a.362.362,0,0,1-.379.37H477.4v3.289h3.881a.362.362,0,0,1,.378.37v.178a.362.362,0,0,1-.378.37H477.4v3.365h4.288a.362.362,0,0,1,.379.37v.179a.362.362,0,0,1-.379.37m-4.787-.485h.013V282.6H476.9Z" transform="translate(-388.69 -230.169)" fill="#18a291"/>
    <path id="Tracé_57" data-name="Tracé 57" d="M527.191,292.053v.179a.12.12,0,0,1-.136.127h-4.894a.121.121,0,0,1-.136-.127v-8.67a.121.121,0,0,1,.136-.127h4.826a.12.12,0,0,1,.136.127v.179a.12.12,0,0,1-.136.127h-4.463v3.774h4.123a.12.12,0,0,1,.136.127v.178a.12.12,0,0,1-.136.128h-4.123v3.85h4.531a.12.12,0,0,1,.136.127" transform="translate(-425.902 -231.244)" fill="#18a291"/>
    <path id="Tracé_58" data-name="Tracé 58" d="M525.98,291.527h-4.894a.362.362,0,0,1-.379-.37v-8.67a.362.362,0,0,1,.379-.37h4.826a.362.362,0,0,1,.378.37v.178a.362.362,0,0,1-.378.37h-4.221v3.289h3.881a.362.362,0,0,1,.378.37v.178a.362.362,0,0,1-.378.37h-3.881v3.365h4.288a.362.362,0,0,1,.378.37v.179a.362.362,0,0,1-.378.37m-4.787-.485h.013V282.6h-.013Z" transform="translate(-424.827 -230.169)" fill="#18a291"/>
    <path id="Tracé_59" data-name="Tracé 59" d="M572.207,286.026a2.69,2.69,0,0,1-2.764,2.592h-2.628v3.612a.12.12,0,0,1-.136.127h-.227a.12.12,0,0,1-.136-.127v-8.669a.12.12,0,0,1,.136-.127h2.991a2.687,2.687,0,0,1,2.764,2.592m-2.764,2.159a2.161,2.161,0,1,0,0-4.318h-2.628v4.318h2.628Z" transform="translate(-462.038 -231.244)" fill="#18a291"/>
    <path id="Tracé_60" data-name="Tracé 60" d="M565.606,291.526h-.227a.362.362,0,0,1-.378-.37v-8.669a.362.362,0,0,1,.378-.37h2.991a2.84,2.84,0,1,1,0,5.67h-2.385v3.37a.362.362,0,0,1-.378.37m-.12-.485h.013V282.6h-.013Zm.5-4.173h2.385a1.919,1.919,0,1,0,0-3.833h-2.385Zm4.642-2.964a2.308,2.308,0,0,1,0,2.1,2.206,2.206,0,0,0,0-2.1" transform="translate(-460.964 -230.169)" fill="#18a291"/>
    <path id="Tracé_61" data-name="Tracé 61" d="M643.046,283.434c.11,0,.15.069.088.154l-3.257,4.587v4.057a.118.118,0,0,1-.136.127h-.227c-.088,0-.136-.045-.136-.127v-4.063l-3.252-4.581c-.062-.084-.021-.154.088-.154h.252a.185.185,0,0,1,.163.083l3,4.227,3-4.227a.186.186,0,0,1,.164-.083h.252Z" transform="translate(-518.969 -231.244)" fill="#18a291"/>
    <path id="Tracé_62" data-name="Tracé 62" d="M638.666,291.527h-.227a.358.358,0,0,1-.379-.37v-3.986l-3.208-4.517a.339.339,0,0,1-.04-.356.352.352,0,0,1,.326-.181h.252a.426.426,0,0,1,.361.185l2.8,3.949,2.8-3.949a.426.426,0,0,1,.361-.185h.252a.352.352,0,0,1,.326.181.34.34,0,0,1-.042.358l-3.211,4.521v3.979a.358.358,0,0,1-.378.37m-.12-.485h.013v-3.959l0,.006-.009-.012Zm3.425-8.439h0v0Zm-.109-.23h0Zm-6.614,0h0" transform="translate(-517.894 -230.169)" fill="#18a291"/>
    <path id="Tracé_63" data-name="Tracé 63" d="M681.552,287.294a4.913,4.913,0,1,1,4.9,4.6,4.744,4.744,0,0,1-4.9-4.6m9.307,0a4.412,4.412,0,1,0-4.4,4.156,4.268,4.268,0,0,0,4.4-4.156" transform="translate(-556.054 -230.642)" fill="#18a291"/>
    <path id="Tracé_64" data-name="Tracé 64" d="M685.38,291.06a4.85,4.85,0,1,1,5.145-4.841,5.005,5.005,0,0,1-5.145,4.841m0-8.755a3.921,3.921,0,1,0,4.161,3.914,4.048,4.048,0,0,0-4.161-3.914m4.095,1.836a4.188,4.188,0,0,1-.005,4.165,4.1,4.1,0,0,0,.005-4.165m-8.2.014a4.1,4.1,0,0,0,.006,4.136,4.187,4.187,0,0,1-.006-4.136" transform="translate(-554.979 -229.567)" fill="#18a291"/>
    <path id="Tracé_65" data-name="Tracé 65" d="M750.426,289.86v-6.3a.12.12,0,0,1,.136-.127h.227a.12.12,0,0,1,.136.127v6.3c0,1.347.992,2.193,2.628,2.193s2.628-.846,2.628-2.193v-6.3a.12.12,0,0,1,.136-.127h.227a.12.12,0,0,1,.136.127v6.3c0,1.679-1.337,2.635-3.127,2.635s-3.126-.956-3.126-2.635" transform="translate(-612.246 -231.244)" fill="#18a291"/>
    <path id="Tracé_66" data-name="Tracé 66" d="M752.477,291.662c-2.015,0-3.369-1.156-3.369-2.878v-6.3a.362.362,0,0,1,.379-.37h.227a.362.362,0,0,1,.378.37v6.3c0,1.221.892,1.95,2.385,1.95s2.386-.729,2.386-1.95v-6.3a.362.362,0,0,1,.378-.37h.227a.362.362,0,0,1,.378.37v6.3c0,1.721-1.354,2.878-3.369,2.878m-2.884-9.06v6.183a2.389,2.389,0,0,0,.165.9,2.57,2.57,0,0,1-.152-.9V282.6Zm5.755,0v6.183a2.573,2.573,0,0,1-.149.889,2.4,2.4,0,0,0,.162-.889V282.6Z" transform="translate(-611.17 -230.169)" fill="#18a291"/>
    <path id="Tracé_67" data-name="Tracé 67" d="M836.058,283.433c.1,0,.143.057.114.146l-2.979,8.671a.145.145,0,0,1-.151.107h-.42a.145.145,0,0,1-.151-.107l-1.777-5.17-1.778,5.17a.145.145,0,0,1-.151.107h-.42a.145.145,0,0,1-.151-.107l-2.98-8.671c-.028-.089.018-.146.114-.146h.21a.145.145,0,0,1,.151.107l2.865,8.329,1.9-5.5-.959-2.789c-.028-.089.018-.146.114-.146h.21a.145.145,0,0,1,.151.107l2.865,8.329,2.865-8.329a.145.145,0,0,1,.151-.107h.211Z" transform="translate(-673.255 -231.243)" fill="#18a291"/>
    <path id="Tracé_68" data-name="Tracé 68" d="M831.757,291.54l-.005-.015h-.2a.387.387,0,0,1-.383-.278l-1.545-4.5-1.549,4.5a.384.384,0,0,1-.38.271h-.206l0,.014,0-.014h-.2a.387.387,0,0,1-.383-.278l-2.977-8.664a.353.353,0,0,1,.042-.326.361.361,0,0,1,.3-.142h.21a.387.387,0,0,1,.383.278l2.634,7.655,1.638-4.755-.931-2.71a.353.353,0,0,1,.042-.326.361.361,0,0,1,.3-.141h.21a.387.387,0,0,1,.383.278l2.633,7.655,2.635-7.662a.385.385,0,0,1,.38-.271h.211a.361.361,0,0,1,.3.142.35.35,0,0,1,.043.321l-2.981,8.676a.384.384,0,0,1-.38.271h-.206Z" transform="translate(-672.182 -230.168)" fill="#18a291"/>
    <path id="Tracé_69" data-name="Tracé 69" d="M904.709,292.053v.179a.12.12,0,0,1-.136.127h-4.894a.121.121,0,0,1-.136-.127v-8.67a.121.121,0,0,1,.136-.127H904.5a.12.12,0,0,1,.136.127v.179a.12.12,0,0,1-.136.127h-4.463v3.774h4.123a.12.12,0,0,1,.136.127v.178a.12.12,0,0,1-.136.128h-4.123v3.85h4.531a.12.12,0,0,1,.136.127" transform="translate(-733.905 -231.244)" fill="#18a291"/>
    <path id="Tracé_70" data-name="Tracé 70" d="M903.5,291.527H898.6a.362.362,0,0,1-.379-.37v-8.67a.362.362,0,0,1,.379-.37h4.826a.362.362,0,0,1,.379.37v.178a.362.362,0,0,1-.379.37h-4.22v3.289h3.881a.362.362,0,0,1,.378.37v.178a.362.362,0,0,1-.378.37H899.21v3.365H903.5a.362.362,0,0,1,.379.37v.179a.362.362,0,0,1-.379.37m-4.787-.485h.013V282.6h-.013Z" transform="translate(-732.83 -230.169)" fill="#18a291"/>
    <path id="Tracé_71" data-name="Tracé 71" d="M948.821,291.925a.12.12,0,0,1,.136.127v.179a.12.12,0,0,1-.136.127h-4.848a.12.12,0,0,1-.136-.127v-8.67a.12.12,0,0,1,.136-.127h.227a.12.12,0,0,1,.136.127v8.364h4.486Z" transform="translate(-770.043 -231.244)" fill="#18a291"/>
    <path id="Tracé_72" data-name="Tracé 72" d="M947.746,291.527H942.9a.362.362,0,0,1-.379-.37v-8.67a.362.362,0,0,1,.379-.37h.227a.362.362,0,0,1,.378.37v8.121h4.243a.362.362,0,0,1,.378.37v.179a.362.362,0,0,1-.378.37M943,291.041h.013V282.6H943Z" transform="translate(-768.967 -230.169)" fill="#18a291"/>
    <path id="Tracé_73" data-name="Tracé 73" d="M991.415,291.925a.12.12,0,0,1,.136.127v.179a.12.12,0,0,1-.136.127h-4.848a.12.12,0,0,1-.136-.127v-8.67a.12.12,0,0,1,.136-.127h.227a.12.12,0,0,1,.136.127v8.364h4.485Z" transform="translate(-804.794 -231.244)" fill="#18a291"/>
    <path id="Tracé_74" data-name="Tracé 74" d="M990.34,291.527h-4.848a.362.362,0,0,1-.379-.37v-8.67a.362.362,0,0,1,.379-.37h.227a.362.362,0,0,1,.378.37v8.121h4.243a.362.362,0,0,1,.378.37v.179a.362.362,0,0,1-.378.37m-4.741-.485h.013V282.6H985.6Z" transform="translate(-803.718 -230.169)" fill="#18a291"/>
    <line id="Ligne_36" data-name="Ligne 36" x2="21.195" transform="translate(194.096 56.653)" fill="none" stroke="#18a291" stroke-miterlimit="10" stroke-width="2"/>
    <line id="Ligne_37" data-name="Ligne 37" x2="21.195" transform="translate(50.693 56.653)" fill="none" stroke="#18a291" stroke-miterlimit="10" stroke-width="2"/>
  </g>
</svg>
