<?xml version="1.0" encoding="UTF-8"?><svg id="a" xmlns="http://www.w3.org/2000/svg" viewBox="0 0 174.4 104.7"><defs><style>.b{fill:#ed7d23;}.b,.c{fill-rule:evenodd;}.c,.d{fill:#0073b1;}</style></defs><path class="b" d="M101.91,9.25c10.88,3.52,18.87,8.32,23.67,13.76,3.2,3.52,5.44,6.72,6.72,10.24,1.92,4.16,2.88,9.28,2.88,15.04,0,3.84-.96,7.68-2.56,11.52-1.6,4.16-4.16,8-7.04,10.88-6.4,6.4-15.35,11.2-27.19,14.72-13.12,3.52-29.11,5.44-47.99,5.12-12.8-.32-28.47-1.6-46.71-4.48-.96,0-1.28,.32-1.28,.64s.32,.64,.96,.96c13.44,3.52,29.11,6.4,46.71,8,16.32,1.28,31.03,.96,44.15-.64,12.48-1.6,23.35-4.8,32.31-8.96,8.96-4.16,15.68-9.6,20.47-15.67,4.48-6.4,6.72-13.44,6.72-21.11,0-15.67-7.68-26.87-23.35-34.23-5.44-2.56-11.2-4.48-17.6-5.44l-10.24-1.28-.96,.32,.32,.64"/><path class="b" d="M163.33,54.67q.32-.64,.64,0c1.28,2.56,2.24,5.12,3.2,7.36l-.32,1.28c-1.6,3.2-3.84,6.4-6.4,9.6-.32,.64-.64,.96-.96,.64l-4.16-6.08c-.32-.32,0-.96,.32-1.6,2.88-3.52,5.44-7.04,7.68-11.2"/><path class="b" d="M163.33,43.8q.32,.64,.64,.32c1.6-2.88,2.56-5.44,3.2-7.68l-.32-1.28c-1.6-3.2-3.84-6.4-6.4-9.6l-.96-.32-4.16,5.76,.32,1.6,7.68,11.2"/><path class="b" d="M169.73,40.6c.96,2.88,1.92,5.44,2.24,8v1.28c-.32,2.24-1.28,5.12-2.56,8-.32,.32-.32,.64-.32,.32-.32-2.56-1.28-5.12-2.56-8v-1.6c1.28-2.88,2.24-5.44,2.88-8.32q0-.32,.32,.32"/><path class="c" d="M141.58,48.28l9.6-11.84c.32-.64,.96-.64,1.6,0,2.88,3.84,5.76,7.68,8,11.84,.32,.64,.32,1.28,0,1.92-2.24,3.84-5.12,7.68-8.32,11.52-.32,.96-.96,.96-1.28,.32l-4.48-5.12-5.12-6.4c-.64-.64-.64-1.28,0-2.24"/><path class="c" d="M67.04,36.12c.96-.96,2.24-1.28,4.16-1.28v2.88c-.32,1.28-1.28,1.92-2.88,1.92-1.28,0-1.92-.64-1.92-1.92l.64-1.6m4.16-4.48c-3.52,0-5.76,.96-7.36,2.56-.96,.96-1.28,2.24-1.6,3.84,0,1.6,.32,2.56,1.28,3.52,.96,.96,2.24,1.6,3.84,1.6s3.2-.64,4.16-1.92l.32,1.6h3.84v-.32l-.32-3.84v-5.76c0-4.8-2.24-7.36-6.4-7.36-2.24,0-3.84,.64-5.44,1.6h0l.96,3.2c.96-.96,2.24-1.28,3.84-1.28,.96,0,1.92,.32,2.24,.64,.32,.32,.64,.96,.64,1.92h0Z"/><path class="c" d="M87.52,25.88h-.96c-1.6,0-2.88,.96-3.84,2.88l-.32-2.56h-3.52v16.64h4.16v-9.92c.32-1.92,1.6-2.88,3.2-2.88h1.28v-4.16"/><path class="c" d="M96.47,29.08c.96,0,1.92,.64,2.56,1.92,.32,.96,.64,1.92,.64,3.52s-.32,2.88-.96,3.84c-.64,.96-1.28,1.28-2.24,1.6-.96-.32-1.92-.64-2.56-1.6s-.96-2.24-.96-3.84,.32-2.56,.64-3.52c.64-1.28,1.6-1.92,2.88-1.92m-5.76-.96c-1.6,1.6-2.24,3.84-2.24,6.4s.64,4.8,2.24,6.4c1.6,1.6,3.2,2.24,5.44,2.24s3.84-.64,5.44-1.92c1.6-1.6,2.56-3.84,2.56-6.72s-.64-4.8-2.24-6.4c-1.28-1.6-3.2-2.24-5.44-2.24s-4.16,.64-5.76,2.24Z"/><path class="c" d="M108.31,28.12c-1.6,1.6-2.56,3.84-2.56,6.72,0,2.56,.64,4.48,2.24,6.08,1.6,1.6,3.52,2.24,5.76,2.24,1.6,.32,3.2,0,4.16-.64l-.64-3.52c-.96,.32-1.92,.64-2.88,.64-1.28,0-2.24-.32-3.2-1.28-.64-.96-.96-2.24-.96-3.84s.32-2.88,1.28-3.84c.64-.96,1.6-1.28,2.88-1.28,.96,0,1.92,.32,2.88,.64l.64-3.52c-.96-.32-1.92-.64-3.52-.64-2.56,0-4.48,.64-6.08,2.24"/><polyline class="c" points="37.61 19.48 37.61 42.84 41.77 42.84 41.45 24.6 46.57 42.84 50.73 42.84 55.85 24.6 55.85 42.84 59.69 42.84 59.69 19.48 53.29 19.48 48.81 36.12 44.01 19.48 37.61 19.48"/><rect class="d" x="41.77" y="50.52" width="4.16" height="22.39"/><path class="c" d="M72.8,55.95c-2.56,0-4.48,.64-6.08,2.24-1.6,1.6-2.56,3.84-2.56,6.4,0,2.88,.64,4.8,2.24,6.4,1.6,1.6,3.52,2.24,5.76,2.24,1.6,0,3.2-.32,4.16-.64l-.64-3.52c-.96,.32-1.92,.64-2.88,.64-1.28,0-2.24-.64-3.2-1.6-.64-.96-.96-1.92-.96-3.52s.32-2.88,1.28-3.84c.64-.96,1.6-1.28,2.88-1.28,.96,0,1.92,.32,2.88,.64l.64-3.52c-.96-.32-1.92-.64-3.52-.64"/><path class="c" d="M91.04,58.19c-1.28-1.6-3.2-2.24-5.44-2.24s-4.16,.64-5.76,2.24c-1.6,1.6-2.24,3.84-2.24,6.4s.64,4.8,2.24,6.4c1.6,1.6,3.2,2.56,5.44,2.56s3.84-.64,5.44-2.24c1.6-1.6,2.56-3.84,2.56-6.72,0-2.56-.64-4.8-2.24-6.4m-3.2,10.24c-.64,.96-1.6,1.6-2.56,1.6s-1.6-.64-2.24-1.6c-.96-.96-1.28-2.24-.96-3.84l.64-3.52c.64-.96,1.6-1.6,2.88-1.6,.96,0,1.92,.64,2.56,1.6,.32,.96,.64,1.92,.64,3.52s-.32,2.88-.96,3.84Z"/><path class="c" d="M113.11,55.95c-1.28,0-2.24,.32-3.2,.96l-1.6,1.92c-.96-2.24-2.24-3.2-4.48-3.2-1.92,0-3.52,.96-4.48,2.56v-1.92h-3.52v16.63h4.16v-11.2c.32-1.6,1.28-2.24,2.56-2.24,1.6,0,2.56,1.28,2.24,3.84v9.6h4.16v-9.92l.32-1.28c.32-1.6,1.28-2.24,2.24-2.24,1.6,0,2.56,1.28,2.56,4.16v9.28h4.16v-9.92c0-2.24-.64-4.16-1.6-5.44-.96-.96-2.24-1.6-3.52-1.6"/><polyline class="c" points="11.06 49.87 11.06 53.71 17.14 53.71 17.14 72.91 21.3 72.91 21.3 53.71 27.37 53.71 27.37 49.87 11.06 49.87"/><path class="c" d="M58.72,62.67h-6.08c.32-2.24,1.28-3.52,3.2-3.52,.96,0,1.6,.32,1.92,.64,.32,.64,.64,1.6,.96,2.88m2.56-4.16c-1.28-1.92-2.88-2.88-5.12-2.88-2.56,0-4.48,.96-5.76,2.88-1.28,1.6-1.92,3.84-1.92,6.08,0,2.88,.64,4.8,2.24,6.4,1.28,1.6,3.2,2.24,5.76,2.24,1.92,0,3.52-.32,5.12-.96h0l-.64-3.2c-1.28,.32-2.56,.64-4.16,.64-1.28,0-2.24-.32-2.88-.96-.96-.96-1.28-1.92-1.28-2.88h9.92v-1.92c0-2.24-.32-3.84-1.28-5.44Z"/><path class="c" d="M35.05,62.67h-6.08c.32-2.24,1.6-3.52,3.2-3.52,.96,0,1.6,.32,1.92,.64,.64,.64,.96,1.6,.96,2.88m-2.56-7.04c-2.24,0-4.16,.96-5.76,2.88-1.28,1.6-1.92,3.84-1.6,6.08-.32,2.88,.32,4.8,1.92,6.4,1.6,1.6,3.52,2.24,5.76,2.24,1.92,0,3.52-.32,5.12-.96h.32l-.96-3.2c-.96,.32-2.24,.64-3.84,.64-1.28,0-2.24-.32-3.2-.96-.64-.96-.96-1.92-1.28-2.88h9.92l.32-1.92c0-2.24-.64-3.84-1.6-5.44-.96-1.92-2.88-2.88-5.12-2.88Z"/></svg>