<?xml version="1.0" encoding="UTF-8"?><svg id="a" xmlns="http://www.w3.org/2000/svg" viewBox="0 0 82.14 41.22"><defs><style>.b{fill:#fff;}.c{fill:#bc301d;}.d{fill:#1d87c2;}</style></defs><g><path class="c" d="M48.63,7.88c1.42-1.27,2.95-2.17,4.85-2.34,4.17-.36,7.42,2.27,7.93,6.42,.34,2.76-.38,5.29-1.59,7.72-2.27,4.57-5.62,8.11-10.12,10.54-.87,.47-1.48,.15-1.66-.81-.08-.4,.06-.59,.42-.79,3.77-2.1,6.66-5,8.17-9.11,.94-2.55,1.22-5.15,.31-7.78-.12-.36-.29-.71-.48-1.03-.92-1.6-2.35-2.23-4.16-1.85-1.37,.28-2.58,.93-3.74,1.65-.39,.24-.6,.19-.89-.15-1.15-1.33-2.48-2.43-4.2-2.95-2.84-.86-5.38,.68-5.76,3.62-.82,6.48,.61,12.41,4.59,17.66,.44,.58,.45,1.17,0,1.48-.48,.34-1.31,.14-1.63-.38-2.46-4.16-4.58-8.46-5.77-13.18-.95-3.75-.51-7.35,1.2-10.78,1.55-3.12,4-3.89,7.12-2.34,1.94,.96,3.52,2.39,4.99,3.96,.13,.14,.26,.28,.41,.45Z"/><path class="d" d="M68.15,7.82c-.74,2.66-1.42,5.22-2.29,7.82,1.23-.12,2.32-.39,3.41-.59,.71-.13,1.42-.31,2.13-.43,.36-.06,.56-.24,.71-.57,.74-1.71,1.28-3.5,1.94-5.25,.29-.77,.72-1.46,1.09-2.19,.18-.36,.5-.3,.78-.13,.42,.25,.5,.71,.24,1.13-.61,.98-.91,2.09-1.39,3.13-.37,.79-.61,1.64-.92,2.46-.17,.44-.39,.87-.35,1.37,.03,.29-.23,.47-.32,.71-.75,2.04-1.45,4.1-1.39,6.32,0,.38,.03,.76,.12,1.14,.07,.3,.07,.57,.5,.63,.31,.04,.28,.31,.06,.51-.37,.32-.8,.27-1.13-.12-.73-.86-.93-1.89-.93-2.99,.01-1.53,.48-2.96,.86-4.42,.05-.18,.14-.35,.07-.59-.63,.02-1.23,.2-1.82,.39-.86,.28-1.8,.37-2.58,.88-.08,.05-.22,.05-.33,.04-.92-.09-1.27,.05-1.55,.93-.45,1.47-.85,2.96-1.32,4.42-.1,.31-.08,.64,.11,.94,.16,.23,.41,.47-.01,.69-.34,.18-.89,0-1.01-.34-.19-.55-.22-1.13-.13-1.7,.24-1.59,.78-3.1,1.2-4.64,.09-.33,.02-.44-.2-.59-.11-.07-.24-.13-.33-.22-.21-.19-.35-.44-.22-.71,.12-.25,.39-.35,.64-.27,.54,.16,.67-.12,.84-.55,.85-2.14,1.37-4.35,1.78-6.6,.08-.44,.08-.89,.67-1.07,.59-.18,.74,.33,1.08,.46Z"/><path class="d" d="M7.43,21.75l.78-.65c-.2,.99-.58,1.8-1.09,2.53-.25,.36-.69,.41-1.1,.34-.42-.07-.33-.46-.31-.74,.09-.96,.45-1.84,.92-2.68,.49-.86,1-1.7,1.41-2.64-.1-.06-.18-.11-.26-.14-.42-.14-.75-.35-.59-.86,.15-.49,.78-.8,1.25-.58,.45,.21,.65,.06,.91-.32,1.41-2.08,2.89-4.11,4.11-6.32,.14-.25,.32-.51,.32-.78,0-.59,.39-.97,.64-1.43,.2-.36,.58-.27,.93-.21,.33,.06,.44,.27,.44,.57-.02,1.57,.2,3.15-.25,4.72-.2,.72-.25,1.51,.09,2.26,.69,.06,1.47-.4,2.12,.25-.26,.68-.88,.79-1.45,.91-.47,.1-.64,.32-.63,.78,.04,1.55,.47,3,1,4.43,.25,.68,.57,1.33,.91,1.97,.23,.43-.02,.63-.3,.85-.33,.26-.48-.06-.65-.24-.3-.32-.49-.72-.67-1.13-.79-1.78-1.48-3.59-1.61-5.56,0-.11-.05-.22-.09-.36-.54,.03-1.04,.22-1.54,.36-.93,.27-1.83,.68-2.8,.77-.55,.05-.79,.43-1.08,.82-.68,.92-1.19,1.9-1.51,2.99,0,.05-.02,.1-.03,.15l.12-.06Zm3.43-5.61c.91-.21,1.81-.41,2.72-.64,.37-.09,.62-.27,.58-.76-.05-.66,0-1.33,0-2,0-.58,.13-1.15,0-1.87-1.2,1.78-2.36,3.43-3.36,5.2-.02,.03-.07,.07-.07,.08,.05,.07,.09,.03,.13-.01Z"/><path class="d" d="M21.64,21.77l.82-.69c-.22,.97-.58,1.77-1.05,2.5-.26,.41-.74,.45-1.19,.4-.33-.03-.28-.35-.28-.54,0-.42,.09-.83,.2-1.23,.27-.91,.76-1.7,1.21-2.51,.32-.58,.63-1.17,.95-1.78-.13-.06-.21-.11-.3-.14-.41-.15-.76-.34-.59-.86,.16-.48,.75-.81,1.18-.6,.53,.26,.77,.04,1.03-.4,.75-1.29,1.77-2.39,2.52-3.67,.53-.9,1.08-1.79,1.61-2.69,.12-.21,.22-.46,.23-.7,.04-.57,.42-.96,.68-1.41,.2-.35,.6-.23,.94-.16,.34,.07,.41,.3,.4,.6-.06,1.59,.19,3.19-.28,4.77-.2,.67-.22,1.43,.11,2.17,.69,.08,1.48-.42,2.13,.25-.26,.7-.9,.77-1.47,.91-.42,.1-.61,.27-.61,.73,.02,1.57,.48,3.04,1.01,4.49,.25,.68,.57,1.33,.9,1.97,.2,.39,.01,.6-.26,.82-.35,.27-.52-.02-.7-.23-.37-.42-.57-.94-.8-1.44-.75-1.68-1.32-3.4-1.48-5.24,0-.11-.05-.21-.09-.36-1.02,.17-1.97,.52-2.92,.82-.18,.06-.36,.17-.54,.17-1.19,0-1.89,.68-2.42,1.66-.41,.75-.82,1.5-1.03,2.34-.07,.04-.11,.13-.06,.17,.08,.06,.1-.06,.14-.09Zm3.4-5.64c.76-.17,1.52-.34,2.28-.52,1.04-.24,1.04-.24,1.03-1.3-.02-1.09,.14-2.18,.05-3.43-1.23,1.79-2.38,3.45-3.39,5.21l-.07,.06s.09,.04,.1-.03Z"/><path class="c" d="M45.16,19.35c-.11-1.96-.23-3.84-.33-5.72-.01-.27-.07-.48-.27-.7-.62-.68-.51-1.67,.21-2.21,.64-.48,1.53-.33,2.01,.35,.51,.72,.34,1.65-.45,2.12-.28,.17-.34,.33-.29,.63,.09,.62,.14,1.25,.21,1.93l3.28-.17c.15,.36,.09,.74,.09,1.17l-3.22,.19,.14,1.15c1.22-.06,2.42-.11,3.61-.19,.34-.02,.49,.06,.64,.37,.58,1.21,1.21,2.41,1.82,3.62l1.12-.55,.54,1.05-2.19,1.13c-.64-1.3-1.3-2.56-1.89-3.85-.22-.48-.47-.6-.99-.56-1.32,.12-2.66,.16-4.04,.23Z"/><path class="c" d="M49.65,20.75c.23,.53,.46,1.06,.69,1.59,.13,.3-.09,.51-.22,.72-1.12,1.91-3.45,2.7-5.38,1.83-2.13-.95-3.2-3.27-2.5-5.44,.39-1.23,1.2-2.18,2.18-2.56,.1,.68,.1,1.26-.47,1.84-.97,1-.98,2.65-.18,3.87,.73,1.13,2.11,1.66,3.38,1.32,1.42-.38,2.33-1.5,2.42-2.96,0-.07-.05-.15,.09-.22Z"/><path class="b" d="M7.43,21.75l-.12,.06s.02-.1,.03-.15l.1,.09Z"/><path class="b" d="M10.86,16.14s-.08,.09-.13,.01c0,0,.04-.05,.07-.08l.06,.06Z"/><path class="b" d="M21.64,21.77s-.06,.16-.14,.09c-.06-.05-.02-.13,.06-.17l.09,.08Z"/><path class="b" d="M25.04,16.13c-.02,.07-.06,.07-.1,.03l.07-.06,.04,.03Z"/></g><g><path class="d" d="M8.02,37.37h-.51l-.2-.94h-.93l-.19,.94h-.5l.9-4.15h.49l.93,4.15Zm-.86-1.64l-.32-1.54-.31,1.54h.63Z"/><path class="d" d="M8.11,36.51l.45-.12c.02,.15,.06,.27,.12,.35s.14,.12,.24,.12c.11,0,.2-.04,.26-.11,.04-.05,.06-.12,.06-.21,0-.06-.01-.11-.03-.15-.02-.04-.07-.07-.15-.1-.36-.14-.59-.27-.68-.39-.13-.16-.2-.39-.2-.68,0-.26,.06-.48,.17-.66s.29-.27,.53-.27,.4,.07,.51,.2c.11,.13,.19,.33,.23,.59l-.42,.14c-.02-.12-.05-.21-.1-.27-.05-.06-.12-.09-.21-.09-.12,0-.2,.03-.25,.09-.03,.04-.05,.1-.05,.16,0,.06,.01,.1,.04,.14,.04,.05,.18,.13,.42,.22,.24,.1,.4,.21,.5,.35,.09,.14,.14,.34,.14,.59,0,.28-.06,.51-.19,.71-.13,.2-.32,.3-.57,.3-.23,0-.41-.08-.54-.25-.13-.17-.22-.39-.26-.68Z"/><path class="d" d="M9.91,36.51l.45-.12c.02,.15,.06,.27,.12,.35s.14,.12,.24,.12c.11,0,.2-.04,.26-.11,.04-.05,.06-.12,.06-.21,0-.06-.01-.11-.03-.15-.02-.04-.07-.07-.15-.1-.36-.14-.59-.27-.68-.39-.13-.16-.2-.39-.2-.68,0-.26,.06-.48,.17-.66s.29-.27,.53-.27,.4,.07,.51,.2c.11,.13,.19,.33,.23,.59l-.42,.14c-.02-.12-.05-.21-.1-.27-.05-.06-.12-.09-.21-.09-.12,0-.2,.03-.25,.09-.03,.04-.05,.1-.05,.16,0,.06,.01,.1,.04,.14,.04,.05,.18,.13,.42,.22,.24,.1,.4,.21,.5,.35,.09,.14,.14,.34,.14,.59,0,.28-.06,.51-.19,.71-.13,.2-.32,.3-.57,.3-.23,0-.41-.08-.54-.25-.13-.17-.22-.39-.26-.68Z"/><path class="d" d="M11.76,35.82c0-.26,.04-.52,.11-.77,.07-.25,.18-.44,.31-.57,.13-.13,.28-.2,.45-.2,.25,0,.46,.15,.62,.44,.16,.3,.24,.67,.24,1.12s-.08,.83-.25,1.13c-.16,.3-.37,.45-.62,.45-.15,0-.3-.06-.44-.19s-.25-.31-.32-.55-.11-.53-.11-.88Zm.46,.04c0,.3,.04,.53,.12,.69s.18,.24,.29,.24,.21-.08,.29-.24c.08-.16,.12-.39,.12-.69s-.04-.52-.12-.68c-.08-.16-.18-.24-.29-.24s-.21,.08-.29,.24-.12,.39-.12,.69Z"/><path class="d" d="M15.31,35.25l-.44,.14c-.01-.16-.05-.27-.1-.35s-.12-.12-.2-.12c-.11,0-.2,.07-.26,.21s-.1,.37-.1,.69c0,.36,.03,.61,.1,.76s.16,.22,.27,.22c.08,0,.15-.04,.21-.13,.05-.09,.09-.23,.11-.44l.44,.13c-.05,.36-.13,.63-.26,.81s-.3,.27-.52,.27c-.25,0-.44-.14-.59-.42-.15-.28-.22-.66-.22-1.15s.07-.88,.22-1.16,.34-.41,.59-.41c.2,0,.37,.08,.49,.24s.21,.4,.26,.72Z"/><path class="d" d="M15.65,33.96v-.74h.44v.74h-.44Zm0,3.42v-3.01h.44v3.01h-.44Z"/><path class="d" d="M16.88,35.28l-.4-.13c.05-.29,.12-.51,.23-.65,.11-.14,.28-.21,.49-.21,.2,0,.35,.04,.44,.13s.17,.19,.2,.32c.04,.13,.06,.37,.06,.71v.93c0,.26,0,.46,.02,.58,.01,.13,.04,.26,.08,.4h-.44c-.01-.05-.03-.13-.04-.24,0-.05-.01-.08-.02-.09-.08,.13-.16,.23-.24,.3s-.18,.1-.28,.1c-.17,0-.31-.08-.41-.25s-.15-.38-.15-.64c0-.17,.02-.32,.07-.45,.05-.13,.11-.24,.19-.31,.08-.07,.2-.13,.35-.19,.21-.07,.35-.13,.43-.2v-.08c0-.15-.02-.26-.06-.33s-.12-.1-.24-.1c-.08,0-.14,.03-.19,.08-.04,.06-.08,.15-.11,.29Zm.59,.65c-.06,.03-.15,.07-.27,.12-.12,.05-.2,.09-.24,.14-.06,.07-.09,.17-.09,.28s.02,.21,.07,.29c.05,.08,.11,.12,.18,.12,.08,0,.16-.05,.23-.14,.05-.07,.09-.16,.11-.26,.01-.07,.02-.2,.02-.39v-.16Z"/><path class="d" d="M19.12,34.36v.63h-.3v1.21c0,.25,0,.39,0,.43,0,.04,.02,.07,.04,.1,.02,.03,.05,.04,.08,.04,.04,0,.1-.03,.18-.08l.04,.62c-.1,.08-.22,.12-.35,.12-.08,0-.15-.02-.22-.07-.06-.05-.11-.11-.14-.19-.03-.08-.05-.18-.06-.31,0-.09-.01-.28-.01-.56v-1.31h-.2v-.63h.2v-.6l.45-.46v1.06h.3Z"/><path class="d" d="M19.43,33.96v-.74h.44v.74h-.44Zm0,3.42v-3.01h.44v3.01h-.44Z"/><path class="d" d="M20.22,35.82c0-.26,.04-.52,.11-.77,.07-.25,.18-.44,.31-.57,.13-.13,.28-.2,.45-.2,.25,0,.46,.15,.62,.44,.16,.3,.24,.67,.24,1.12s-.08,.83-.25,1.13c-.16,.3-.37,.45-.62,.45-.15,0-.3-.06-.44-.19s-.25-.31-.32-.55-.11-.53-.11-.88Zm.46,.04c0,.3,.04,.53,.12,.69s.18,.24,.29,.24,.21-.08,.29-.24c.08-.16,.12-.39,.12-.69s-.04-.52-.12-.68c-.08-.16-.18-.24-.29-.24s-.21,.08-.29,.24-.12,.39-.12,.69Z"/><path class="d" d="M23.83,37.37h-.44v-1.53c0-.32,0-.53-.03-.63-.02-.1-.05-.17-.09-.22-.04-.05-.09-.08-.15-.08-.08,0-.15,.04-.21,.11-.06,.08-.1,.18-.13,.3-.02,.12-.03,.35-.03,.69v1.36h-.44v-3.01h.41v.44c.15-.34,.33-.51,.55-.51,.1,0,.19,.03,.27,.09,.08,.06,.14,.14,.18,.24,.04,.1,.07,.21,.09,.33s.02,.3,.02,.54v1.87Z"/><path class="d" d="M27.16,37.37h-.51l-.2-.94h-.93l-.19,.94h-.5l.9-4.15h.49l.93,4.15Zm-.86-1.64l-.32-1.54-.31,1.54h.63Z"/><path class="d" d="M27.4,37.37v-4.15h.7l.42,2.83,.42-2.83h.7v4.15h-.43v-3.27l-.46,3.27h-.45l-.46-3.27v3.27h-.43Z"/><path class="d" d="M32.19,37.37h-.51l-.2-.94h-.93l-.19,.94h-.5l.9-4.15h.49l.93,4.15Zm-.86-1.64l-.32-1.54-.31,1.54h.63Z"/><path class="d" d="M32.45,37.37v-4.12h.47v3.42h1.16v.7h-1.63Z"/><path class="d" d="M35.25,37.37v-4.15h.7l.42,2.83,.42-2.83h.7v4.15h-.43v-3.27l-.46,3.27h-.45l-.46-3.27v3.27h-.43Z"/><path class="d" d="M38.29,35.28l-.4-.13c.05-.29,.12-.51,.23-.65,.11-.14,.28-.21,.49-.21,.2,0,.35,.04,.44,.13s.17,.19,.2,.32c.04,.13,.06,.37,.06,.71v.93c0,.26,0,.46,.02,.58,.01,.13,.04,.26,.08,.4h-.44c-.01-.05-.03-.13-.04-.24,0-.05-.01-.08-.02-.09-.08,.13-.16,.23-.24,.3s-.18,.1-.28,.1c-.17,0-.31-.08-.41-.25s-.15-.38-.15-.64c0-.17,.02-.32,.07-.45,.05-.13,.11-.24,.19-.31,.08-.07,.2-.13,.35-.19,.21-.07,.35-.13,.43-.2v-.08c0-.15-.02-.26-.06-.33s-.12-.1-.24-.1c-.08,0-.14,.03-.19,.08-.04,.06-.08,.15-.11,.29Zm.59,.65c-.06,.03-.15,.07-.27,.12-.12,.05-.2,.09-.24,.14-.06,.07-.09,.17-.09,.28s.02,.21,.07,.29c.05,.08,.11,.12,.18,.12,.08,0,.16-.05,.23-.14,.05-.07,.09-.16,.11-.26,.01-.07,.02-.2,.02-.39v-.16Z"/><path class="d" d="M40.18,37.37h-.44v-3.01h.41v.43c.07-.2,.13-.34,.19-.4,.06-.06,.12-.1,.19-.1,.1,0,.2,.05,.29,.15l-.14,.69c-.07-.09-.14-.13-.21-.13s-.11,.03-.16,.09c-.04,.06-.08,.17-.1,.33-.02,.16-.04,.5-.04,1.01v.93Z"/><path class="d" d="M40.91,35.82c0-.26,.04-.52,.11-.77,.07-.25,.18-.44,.31-.57,.13-.13,.28-.2,.45-.2,.25,0,.46,.15,.62,.44s.24,.67,.24,1.12-.08,.83-.25,1.13c-.16,.3-.37,.45-.62,.45-.15,0-.3-.06-.44-.19s-.25-.31-.32-.55c-.07-.24-.11-.53-.11-.88Zm.46,.04c0,.3,.04,.53,.12,.69,.08,.16,.18,.24,.29,.24s.21-.08,.29-.24,.12-.39,.12-.69-.04-.52-.12-.68-.18-.24-.29-.24-.21,.08-.29,.24c-.08,.16-.12,.39-.12,.69Z"/><path class="d" d="M44.46,35.25l-.44,.14c-.01-.16-.05-.27-.1-.35s-.12-.12-.2-.12c-.11,0-.2,.07-.26,.21-.07,.14-.1,.37-.1,.69,0,.36,.03,.61,.1,.76,.07,.15,.16,.22,.27,.22,.08,0,.15-.04,.21-.13s.09-.23,.11-.44l.44,.13c-.05,.36-.13,.63-.26,.81-.13,.18-.3,.27-.52,.27-.25,0-.44-.14-.59-.42-.15-.28-.22-.66-.22-1.15s.07-.88,.22-1.16,.34-.41,.59-.41c.2,0,.37,.08,.49,.24s.21,.4,.26,.72Z"/><path class="d" d="M45.13,35.28l-.4-.13c.05-.29,.12-.51,.23-.65,.11-.14,.28-.21,.49-.21,.2,0,.35,.04,.44,.13s.17,.19,.2,.32c.04,.13,.06,.37,.06,.71v.93c0,.26,0,.46,.02,.58,.01,.13,.04,.26,.08,.4h-.44c-.01-.05-.03-.13-.04-.24,0-.05-.01-.08-.02-.09-.08,.13-.16,.23-.24,.3-.09,.07-.18,.1-.28,.1-.17,0-.31-.08-.41-.25s-.15-.38-.15-.64c0-.17,.02-.32,.07-.45,.05-.13,.11-.24,.19-.31,.08-.07,.2-.13,.35-.19,.21-.07,.35-.13,.43-.2v-.08c0-.15-.02-.26-.06-.33-.04-.07-.12-.1-.24-.1-.08,0-.14,.03-.18,.08-.04,.06-.08,.15-.11,.29Zm.59,.65c-.06,.03-.15,.07-.27,.12-.12,.05-.2,.09-.24,.14-.06,.07-.09,.17-.09,.28s.02,.21,.07,.29c.05,.08,.11,.12,.18,.12,.08,0,.16-.05,.23-.14,.05-.07,.09-.16,.11-.26,.01-.07,.02-.2,.02-.39v-.16Z"/><path class="d" d="M46.6,33.96v-.74h.44v.74h-.44Zm0,3.42v-3.01h.44v3.01h-.44Z"/><path class="d" d="M49.02,37.37h-.44v-1.53c0-.32,0-.53-.03-.63-.02-.1-.05-.17-.09-.22s-.09-.08-.15-.08c-.08,0-.15,.04-.21,.11-.06,.08-.1,.18-.13,.3-.02,.12-.03,.35-.03,.69v1.36h-.44v-3.01h.41v.44c.15-.34,.33-.51,.55-.51,.1,0,.19,.03,.27,.09s.14,.14,.18,.24c.04,.1,.07,.21,.09,.33s.02,.3,.02,.54v1.87Z"/><path class="d" d="M50.45,36.41l.44,.13c-.06,.29-.15,.51-.27,.66s-.28,.23-.46,.23c-.29,0-.51-.17-.65-.51-.11-.27-.17-.62-.17-1.04,0-.5,.07-.89,.22-1.17,.15-.28,.33-.42,.55-.42,.25,0,.45,.15,.59,.44s.21,.75,.21,1.36h-1.11c0,.24,.04,.42,.11,.55s.15,.2,.26,.2c.07,0,.13-.03,.18-.1s.08-.18,.11-.33Zm.03-.8c0-.23-.04-.41-.1-.53s-.14-.18-.23-.18c-.1,0-.18,.06-.24,.19-.06,.13-.09,.3-.09,.52h.66Z"/><path class="d" d="M53.71,37.37h-.41v-.44c-.07,.17-.15,.3-.24,.38-.09,.08-.19,.13-.28,.13-.19,0-.36-.14-.5-.42-.14-.28-.21-.67-.21-1.17s.07-.9,.2-1.16c.13-.27,.3-.4,.51-.4,.19,0,.35,.14,.49,.42v-1.5h.44v4.15Zm-1.19-1.57c0,.32,.02,.55,.07,.7,.07,.21,.17,.31,.3,.31,.1,0,.19-.08,.26-.23,.07-.16,.11-.39,.11-.7,0-.35-.03-.59-.1-.75s-.16-.23-.27-.23-.19,.08-.26,.23c-.07,.15-.11,.37-.11,.67Z"/><path class="d" d="M55.12,36.41l.44,.13c-.06,.29-.15,.51-.27,.66s-.28,.23-.46,.23c-.29,0-.51-.17-.65-.51-.11-.27-.17-.62-.17-1.04,0-.5,.07-.89,.22-1.17,.15-.28,.33-.42,.55-.42,.25,0,.45,.15,.59,.44s.21,.75,.21,1.36h-1.11c0,.24,.04,.42,.11,.55s.15,.2,.26,.2c.07,0,.13-.03,.18-.1s.08-.18,.11-.33Zm.03-.8c0-.23-.04-.41-.1-.53s-.14-.18-.23-.18c-.1,0-.18,.06-.24,.19-.06,.13-.09,.3-.09,.52h.66Z"/><path class="d" d="M55.8,36.51l.45-.12c.02,.15,.06,.27,.12,.35,.06,.08,.14,.12,.24,.12,.11,0,.2-.04,.26-.11,.04-.05,.06-.12,.06-.21,0-.06-.01-.11-.03-.15-.02-.04-.07-.07-.15-.1-.36-.14-.59-.27-.68-.39-.13-.16-.2-.39-.2-.68,0-.26,.06-.48,.17-.66s.29-.27,.53-.27,.4,.07,.51,.2c.11,.13,.19,.33,.23,.59l-.42,.14c-.02-.12-.05-.21-.1-.27-.05-.06-.12-.09-.21-.09-.12,0-.2,.03-.25,.09-.03,.04-.05,.1-.05,.16,0,.06,.01,.1,.04,.14,.04,.05,.18,.13,.42,.22,.24,.1,.4,.21,.5,.35,.09,.14,.14,.34,.14,.59,0,.28-.06,.51-.19,.71-.13,.2-.32,.3-.57,.3-.23,0-.41-.08-.54-.25-.13-.17-.22-.39-.26-.68Z"/><path class="d" d="M58.66,37.37v-4.15h.47v1.63h.92v-1.63h.47v4.15h-.47v-1.82h-.92v1.82h-.47Z"/><path class="d" d="M61.32,35.28l-.4-.13c.05-.29,.12-.51,.23-.65,.11-.14,.28-.21,.49-.21,.2,0,.35,.04,.44,.13s.17,.19,.2,.32c.04,.13,.06,.37,.06,.71v.93c0,.26,0,.46,.02,.58,.01,.13,.04,.26,.08,.4h-.44c-.01-.05-.03-.13-.04-.24,0-.05-.01-.08-.02-.09-.08,.13-.16,.23-.24,.3-.09,.07-.18,.1-.28,.1-.17,0-.31-.08-.41-.25s-.15-.38-.15-.64c0-.17,.02-.32,.07-.45,.05-.13,.11-.24,.19-.31,.08-.07,.2-.13,.35-.19,.21-.07,.35-.13,.43-.2v-.08c0-.15-.02-.26-.06-.33-.04-.07-.12-.1-.24-.1-.08,0-.14,.03-.18,.08-.04,.06-.08,.15-.11,.29Zm.59,.65c-.06,.03-.15,.07-.27,.12-.12,.05-.2,.09-.24,.14-.06,.07-.09,.17-.09,.28s.02,.21,.07,.29c.05,.08,.11,.12,.18,.12,.08,0,.16-.05,.23-.14,.05-.07,.09-.16,.11-.26,.01-.07,.02-.2,.02-.39v-.16Z"/><path class="d" d="M64.32,37.37h-.44v-1.53c0-.32,0-.53-.03-.63-.02-.1-.05-.17-.09-.22s-.09-.08-.15-.08c-.08,0-.15,.04-.21,.11-.06,.08-.1,.18-.13,.3-.02,.12-.03,.35-.03,.69v1.36h-.44v-3.01h.41v.44c.15-.34,.33-.51,.55-.51,.1,0,.19,.03,.27,.09s.14,.14,.18,.24c.04,.1,.07,.21,.09,.33s.02,.3,.02,.54v1.87Z"/><path class="d" d="M66.31,37.37h-.41v-.44c-.07,.17-.15,.3-.24,.38-.09,.08-.19,.13-.28,.13-.19,0-.36-.14-.5-.42-.14-.28-.21-.67-.21-1.17s.07-.9,.2-1.16c.13-.27,.3-.4,.51-.4,.19,0,.35,.14,.49,.42v-1.5h.44v4.15Zm-1.19-1.57c0,.32,.02,.55,.07,.7,.07,.21,.17,.31,.3,.31,.1,0,.19-.08,.26-.23,.07-.16,.11-.39,.11-.7,0-.35-.03-.59-.1-.75s-.16-.23-.27-.23-.19,.08-.26,.23c-.07,.15-.11,.37-.11,.67Z"/><path class="d" d="M66.75,33.96v-.74h.44v.74h-.44Zm0,3.42v-3.01h.44v3.01h-.44Z"/><path class="d" d="M69.11,35.25l-.44,.14c-.01-.16-.05-.27-.1-.35s-.12-.12-.2-.12c-.11,0-.2,.07-.26,.21-.07,.14-.1,.37-.1,.69,0,.36,.03,.61,.1,.76,.07,.15,.16,.22,.27,.22,.08,0,.15-.04,.21-.13s.09-.23,.11-.44l.44,.13c-.05,.36-.13,.63-.26,.81-.13,.18-.3,.27-.52,.27-.25,0-.44-.14-.59-.42-.15-.28-.22-.66-.22-1.15s.07-.88,.22-1.16,.34-.41,.59-.41c.2,0,.37,.08,.49,.24s.21,.4,.26,.72Z"/><path class="d" d="M69.78,35.28l-.4-.13c.05-.29,.12-.51,.23-.65,.11-.14,.28-.21,.49-.21,.2,0,.35,.04,.44,.13s.17,.19,.2,.32c.04,.13,.06,.37,.06,.71v.93c0,.26,0,.46,.02,.58,.01,.13,.04,.26,.08,.4h-.44c-.01-.05-.03-.13-.04-.24,0-.05-.01-.08-.02-.09-.08,.13-.16,.23-.24,.3-.09,.07-.18,.1-.28,.1-.17,0-.31-.08-.41-.25s-.15-.38-.15-.64c0-.17,.02-.32,.07-.45,.05-.13,.11-.24,.19-.31,.08-.07,.2-.13,.35-.19,.21-.07,.35-.13,.43-.2v-.08c0-.15-.02-.26-.06-.33-.04-.07-.12-.1-.24-.1-.08,0-.14,.03-.18,.08-.04,.06-.08,.15-.11,.29Zm.59,.65c-.06,.03-.15,.07-.27,.12-.12,.05-.2,.09-.24,.14-.06,.07-.09,.17-.09,.28s.02,.21,.07,.29c.05,.08,.11,.12,.18,.12,.08,0,.16-.05,.23-.14,.05-.07,.09-.16,.11-.26,.01-.07,.02-.2,.02-.39v-.16Z"/><path class="d" d="M71.24,34.36h.41v.44c.05-.15,.13-.27,.22-.37,.09-.09,.19-.14,.31-.14,.2,0,.36,.14,.5,.41,.14,.27,.2,.66,.2,1.14s-.07,.89-.21,1.17c-.14,.28-.3,.42-.5,.42-.09,0-.18-.03-.25-.1s-.15-.18-.24-.34v1.52h-.44v-4.15Zm.44,1.45c0,.34,.04,.59,.11,.75s.17,.24,.27,.24,.19-.07,.26-.22c.07-.15,.1-.39,.1-.73,0-.32-.04-.55-.11-.7-.07-.15-.16-.23-.26-.23s-.2,.07-.27,.23c-.07,.15-.11,.37-.11,.67Z"/><path class="d" d="M74.2,36.41l.44,.13c-.06,.29-.15,.51-.27,.66s-.28,.23-.46,.23c-.29,0-.51-.17-.65-.51-.11-.27-.17-.62-.17-1.04,0-.5,.07-.89,.22-1.17,.15-.28,.33-.42,.55-.42,.25,0,.45,.15,.59,.44s.21,.75,.21,1.36h-1.11c0,.24,.04,.42,.11,.55s.15,.2,.26,.2c.07,0,.13-.03,.18-.1s.08-.18,.11-.33Zm.03-.8c0-.23-.04-.41-.1-.53s-.14-.18-.23-.18c-.1,0-.18,.06-.24,.19-.06,.13-.09,.3-.09,.52h.66Zm-.57-1.61l.22-.85h.5l-.43,.85h-.28Z"/><path class="d" d="M74.87,36.51l.45-.12c.02,.15,.06,.27,.12,.35,.06,.08,.14,.12,.24,.12,.11,0,.2-.04,.26-.11,.04-.05,.06-.12,.06-.21,0-.06-.01-.11-.03-.15-.02-.04-.07-.07-.15-.1-.36-.14-.59-.27-.68-.39-.13-.16-.2-.39-.2-.68,0-.26,.06-.48,.17-.66s.29-.27,.53-.27,.4,.07,.51,.2c.11,.13,.19,.33,.23,.59l-.42,.14c-.02-.12-.05-.21-.1-.27-.05-.06-.12-.09-.21-.09-.12,0-.2,.03-.25,.09-.03,.04-.05,.1-.05,.16,0,.06,.01,.1,.04,.14,.04,.05,.18,.13,.42,.22,.24,.1,.4,.21,.5,.35,.09,.14,.14,.34,.14,.59,0,.28-.06,.51-.19,.71-.13,.2-.32,.3-.57,.3-.23,0-.41-.08-.54-.25-.13-.17-.22-.39-.26-.68Z"/></g></svg>