<svg id="Group_938" data-name="Group 938" xmlns="http://www.w3.org/2000/svg" xmlns:xlink="http://www.w3.org/1999/xlink" width="77.559" height="99.151" viewBox="0 0 77.559 99.151">
  <defs>
    <clipPath id="clip-path">
      <rect id="Rectangle_1061" data-name="Rectangle 1061" width="77.559" height="99.15" fill="none"/>
    </clipPath>
  </defs>
  <g id="Group_937" data-name="Group 937" clip-path="url(#clip-path)">
    <path id="Path_1603" data-name="Path 1603" d="M195.189,279.361l-.329-.277c-.23.008-.748.771-.759,1.1a5.888,5.888,0,0,1-.636,2.819,3.91,3.91,0,0,1-.843,1.074,7.231,7.231,0,0,1-.584-1.839c-.206-.823-.408-1.644-.684-2.448a5.165,5.165,0,0,1-.1-1.545,38.98,38.98,0,0,1,1.08-11.776,21.644,21.644,0,0,1,10.94-13.7,25.836,25.836,0,0,1,10.741-3.04,26.292,26.292,0,0,1,8.229.693.59.59,0,0,1,.373.183,4.217,4.217,0,0,0,1.833,1.19c.367.177.738.348,1.1.525a1.833,1.833,0,0,1,.965,1.1,10.616,10.616,0,0,0,1.769,2.7,7.394,7.394,0,0,1,1.656,3.082,2.813,2.813,0,0,1-.669,1.827.445.445,0,0,1-.664-.039,18.285,18.285,0,0,0-4.456-3.371,8.842,8.842,0,0,0-4.165-1.029,27.18,27.18,0,0,0-15.4,4.2,17.752,17.752,0,0,0-6.711,7.712,19.8,19.8,0,0,0-1.21,4.635,32.52,32.52,0,0,1-1.309,5.824c-.044.116-.1.228-.168.4" transform="translate(-164.215 -214.419)" fill="#c1004e"/>
    <path id="Path_1604" data-name="Path 1604" d="M96.768,175.991a5.077,5.077,0,0,1-.659-2.4c.017-.428.2-.956-.415-1.2-.061-.024-.054-.231-.072-.354-.257-1.771-.283-3.567-.615-5.33a17.082,17.082,0,0,0-5.576-10.255,10.9,10.9,0,0,0-5.178-2.643,3.965,3.965,0,0,0-2.172.238c-.441.172-.5.087-.615-.38a1.7,1.7,0,0,1,.642-1.791,8.251,8.251,0,0,0,1.366-1.216,2.511,2.511,0,0,1,1.774-.889c2.111-.492,3.753.553,5.386,1.528a16.473,16.473,0,0,1,6.005,6.375,17.722,17.722,0,0,1,2.182,7.489,26.383,26.383,0,0,1-.924,8.438,9.1,9.1,0,0,1-1.13,2.383" transform="translate(-69.918 -128.525)" fill="#c1004e"/>
    <path id="Path_1605" data-name="Path 1605" d="M259.171,137.56a.567.567,0,0,0,.125-.041c.645-.475.782-.48,1.454-.027a2.988,2.988,0,0,1,1.329,2.273,6.93,6.93,0,0,1-3.456,6.574,4.558,4.558,0,0,1-5.018-.684c-2.635-1.946-2.64-5.055-.688-7.59a5.22,5.22,0,0,1,3-2.123,2.6,2.6,0,0,1,3.131,1.442c.029.054.067.1.117.177" transform="translate(-216.022 -116.671)" fill="#629721"/>
    <path id="Path_1606" data-name="Path 1606" d="M99.1,6.041a.438.438,0,1,0,0-.875.438.438,0,1,0,0,.875" transform="translate(-84.733 -4.437)" fill="#161615"/>
    <path id="Path_1607" data-name="Path 1607" d="M91.8,6.041a.438.438,0,1,0,0-.875.438.438,0,0,0,0,.875" transform="translate(-78.473 -4.437)" fill="#161615"/>
    <path id="Path_1608" data-name="Path 1608" d="M127.392,41.824a.441.441,0,1,0,0,.883.441.441,0,0,0,0-.883" transform="translate(-109.025 -35.92)" fill="#161615"/>
    <path id="Path_1609" data-name="Path 1609" d="M134.454,41.824a.441.441,0,0,0,0,.883.442.442,0,1,0,0-.883" transform="translate(-115.097 -35.92)" fill="#161615"/>
    <path id="Path_1610" data-name="Path 1610" d="M98.085,16.7a.533.533,0,0,0-.591-.607H97.21v1.267c0,.353-.138.545-.491.584h-1.29c-.576,0-.775-.238-.806-.776V16.7a.529.529,0,0,0-.6-.6h-.276v1.267c0,.353-.138.545-.5.576H90.506l.008-.66c.008-.891-.43-1.835-1.513-1.835a1.531,1.531,0,0,0-1.543,1.689c0,1.374,1.244,1.559,2.18,1.582.468-.023,1.82,0,1.774-.008h1.905a1.4,1.4,0,0,0,.96-.361,1.6,1.6,0,0,0,1.037.358v0h1.474a1.229,1.229,0,0,0,1.3-1.305Zm-8.339,1.244c-.507-.015-1.528.107-1.528-.906,0-.553.238-.944.714-.944.737,0,.821.653.821,1.3,0,.192-.008.384-.008.553" transform="translate(-75.111 -13.265)" fill="#161615"/>
    <path id="Path_1611" data-name="Path 1611" d="M154.463,41.551a.442.442,0,0,0,0,.883.442.442,0,1,0,0-.883" transform="translate(-132.287 -35.685)" fill="#161615"/>
    <path id="Path_1612" data-name="Path 1612" d="M191.295,6.041a.439.439,0,0,0,.438-.445.426.426,0,0,0-.438-.43.422.422,0,0,0-.438.43.435.435,0,0,0,.438.445" transform="translate(-163.913 -4.437)" fill="#161615"/>
    <path id="Path_1613" data-name="Path 1613" d="M173.23,5.71h-.284V9c0,.345-.13.545-.491.576H172.4c-.645,0-.891-.223-.891-.806a1.529,1.529,0,0,0-1.543-1.682,1.485,1.485,0,0,0-1.482,1.559c-.016.683-.2.929-.906.929h-.139c-.123,0-.123.008-.63.008a.977.977,0,0,1-.522-.13,4.743,4.743,0,0,0,1.167-1.574,3.189,3.189,0,0,0-1.774-.768,1.989,1.989,0,0,0-.891.253c-.338.184-.729.422-.929.507,0,.207-.039.53-.039.653a2.454,2.454,0,0,1,1.213.929.846.846,0,0,1-.545.123h-1.513a1,1,0,0,1-.176-.015V8.336c0-.438-.138-.614-.568-.614h-.33V9.58c0,.829.084,1.351-.537,1.351a2.5,2.5,0,0,1-.315-.031v.322c0,.3.253.468.63.468a1.047,1.047,0,0,0,1.075-1.044v-.3h1.521a2.381,2.381,0,0,0,1.336-.415,2.984,2.984,0,0,0,1.8.415h.361v0a1.568,1.568,0,0,0,1.152-.443,1.52,1.52,0,0,0,1.113.445,1.42,1.42,0,0,0,1.044-.43,1.553,1.553,0,0,0,1.168.429h.276a1.233,1.233,0,0,0,1.313-1.305V6.309a.535.535,0,0,0-.607-.6m-7.5,3.325c-.376-.215-.691-.637-1.1-.837a2.136,2.136,0,0,1,1.136-.407,1.909,1.909,0,0,1,.875.23,4.929,4.929,0,0,1-.914,1.013m4.239.668c-.484,0-.722-.384-.722-.929,0-.653.246-1.037.791-1.037.468,0,.706.384.706.937,0,.645-.23,1.029-.775,1.029" transform="translate(-138.315 -4.904)" fill="#161615"/>
    <path id="Path_1614" data-name="Path 1614" d="M257.992,5.765H257.6V9.8a.53.53,0,0,0,.53.591h.353V6.2a.491.491,0,0,0-.491-.438" transform="translate(-221.233 -4.951)" fill="#161615"/>
    <path id="Path_1615" data-name="Path 1615" d="M294.209,6.041a.438.438,0,1,0,0-.875.438.438,0,0,0,0,.875" transform="translate(-252.298 -4.437)" fill="#161615"/>
    <path id="Path_1616" data-name="Path 1616" d="M286.912,6.041a.438.438,0,1,0,0-.875.438.438,0,0,0,0,.875" transform="translate(-246.038 -4.437)" fill="#161615"/>
    <path id="Path_1617" data-name="Path 1617" d="M306.762.806h-.284V4.1c0,.345-.13.545-.491.576h-.054c-.645,0-.891-.223-.891-.806A1.529,1.529,0,0,0,303.5,2.188a1.485,1.485,0,0,0-1.482,1.559c-.014.635-.175.891-.764.925-.577-.021-.8-.247-.8-.8a1.529,1.529,0,0,0-1.543-1.682,1.485,1.485,0,0,0-1.482,1.559c-.015.645-.18.9-.793.926-.546-.026-.623-.248-.659-.773V1.4a.532.532,0,0,0-.6-.6H295.1V4.092c0,.353-.138.545-.5.584h-2.45a2.083,2.083,0,0,0-1.443-2.234,1.3,1.3,0,0,0-.276-.046c.7-.53,1.4-1.044,2.1-1.574a.36.36,0,0,0,.131-.292.457.457,0,0,0-.077-.261L292.372,0c-.967.722-1.943,1.451-2.9,2.173a.5.5,0,0,0-.215.392c0,.2.161.345.277.5a2.25,2.25,0,0,1,.376-.031,1.371,1.371,0,0,1,.76.23,1.673,1.673,0,0,1,.683,1.413h-5.736l.008-.66c.008-.891-.43-1.835-1.513-1.835a1.531,1.531,0,0,0-1.543,1.689c0,1.374,1.244,1.559,2.181,1.582.468-.023,1.82,0,1.774-.008h8.163v-.01a1.435,1.435,0,0,0,.944-.351,1.269,1.269,0,0,0,.814.353v.007h.384V5.437a1.527,1.527,0,0,1,2.15.006,1.42,1.42,0,0,0,1.044-.43,1.473,1.473,0,0,0,1.014.424v.006h.383V5.437a1.528,1.528,0,0,1,2.151.006,1.42,1.42,0,0,0,1.044-.43,1.553,1.553,0,0,0,1.168.429h.276a1.233,1.233,0,0,0,1.313-1.305V1.4a.535.535,0,0,0-.607-.6m-21.908,3.87c-.507-.015-1.528.107-1.528-.906,0-.553.238-.944.714-.944.737,0,.822.653.822,1.3,0,.192-.008.384-.008.553m14.052.123c-.484,0-.722-.384-.722-.929,0-.653.246-1.037.791-1.037.468,0,.706.384.706.937,0,.645-.23,1.029-.776,1.029m4.592,0c-.484,0-.722-.384-.722-.929,0-.653.246-1.037.791-1.037.468,0,.706.384.706.937,0,.645-.231,1.029-.776,1.029" transform="translate(-242.675)" fill="#161615"/>
    <path id="Path_1618" data-name="Path 1618" d="M464.631,5.765h-.392V9.8a.53.53,0,0,0,.53.591h.353V6.2a.491.491,0,0,0-.491-.438" transform="translate(-398.7 -4.951)" fill="#161615"/>
    <path id="Path_1619" data-name="Path 1619" d="M89.664,70.006q0,.212,0,.339t.01.2c0,.055.009.1.014.123a1.014,1.014,0,0,1-.643-.175.706.706,0,0,1-.219-.585v-2.9a1.158,1.158,0,0,1,.116-.548.949.949,0,0,1,.318-.353,1.371,1.371,0,0,1,.483-.192,4.376,4.376,0,0,1,.609-.079,2.371,2.371,0,0,1,.452.017,2.521,2.521,0,0,1,.476.11,2.4,2.4,0,0,1,.448.2,1.5,1.5,0,0,1,.373.3,1.4,1.4,0,0,1,.253.414,1.238,1.238,0,0,1,.079.52,1.216,1.216,0,0,1-.257.719,1.337,1.337,0,0,1-.7.452.644.644,0,0,1,.267.175,1.294,1.294,0,0,1,.2.287q.085.168.171.366t.188.4a1.951,1.951,0,0,0,.164.284q.089.127.164.222a1.4,1.4,0,0,0,.171.192.6.6,0,0,1-.137.1.819.819,0,0,1-.178.055.746.746,0,0,1-.246,0,.831.831,0,0,1-.3-.1,1.029,1.029,0,0,1-.274-.233,2.862,2.862,0,0,1-.291-.417q-.154-.26-.352-.65a.911.911,0,0,0-.281-.332,1.383,1.383,0,0,0-.4-.181.594.594,0,0,0-.079-.02.367.367,0,0,1-.072-.021q-.048-.007-.133-.024t-.174-.031l-.212-.041Zm.691-3.491a1.325,1.325,0,0,0-.339.072.671.671,0,0,0-.212.123.426.426,0,0,0-.113.161.492.492,0,0,0-.034.178v.236q0,.147,0,.3t0,.277v.168q.157.034.322.062c.091.014.192.026.3.038a3.1,3.1,0,0,0,.322.017,1.171,1.171,0,0,0,.678-.171.754.754,0,0,0,.294-.561.711.711,0,0,0-.075-.435.774.774,0,0,0-.281-.287,1.257,1.257,0,0,0-.411-.15,1.64,1.64,0,0,0-.459-.024" transform="translate(-76.289 -56.546)" fill="#161615"/>
    <path id="Path_1620" data-name="Path 1620" d="M122.127,77.8a1.583,1.583,0,0,1,.332.517,1.7,1.7,0,0,1,.12.64,1.84,1.84,0,0,1-.11.64,1.568,1.568,0,0,1-.308.517,1.422,1.422,0,0,1-.483.356,1.5,1.5,0,0,1-.633.13,1.376,1.376,0,0,1-.592-.13,1.6,1.6,0,0,1-.489-.356,1.645,1.645,0,0,1-.325-.517,1.7,1.7,0,0,1-.12-.64,1.885,1.885,0,0,1,.106-.64,1.517,1.517,0,0,1,.3-.517,1.42,1.42,0,0,1,.483-.356,1.5,1.5,0,0,1,.633-.13,1.394,1.394,0,0,1,.6.13,1.518,1.518,0,0,1,.483.356m-1.082,2.211a.658.658,0,0,0,.209-.041.577.577,0,0,0,.229-.157.937.937,0,0,0,.185-.322,1.581,1.581,0,0,0,.075-.534,1.612,1.612,0,0,0-.075-.537.9.9,0,0,0-.185-.322.59.59,0,0,0-.229-.154.551.551,0,0,0-.417,0,.589.589,0,0,0-.229.154.891.891,0,0,0-.185.322,1.6,1.6,0,0,0-.075.537,1.573,1.573,0,0,0,.075.534.933.933,0,0,0,.185.322.576.576,0,0,0,.229.157.658.658,0,0,0,.209.041" transform="translate(-102.646 -66.398)" fill="#161615"/>
    <path id="Path_1621" data-name="Path 1621" d="M144.336,77.975a.532.532,0,0,1,.253-.3.937.937,0,0,1,.322-.092,1.3,1.3,0,0,1,.39.034q-.438,1.054-.787,1.889l-.3.705q-.147.349-.264.63t-.195.465q-.079.185-.092.212a.587.587,0,0,1-.253.3.834.834,0,0,1-.315.1.976.976,0,0,1-.39-.041l.178-.417.188-.455q.106-.257.229-.544l-.085-.2q-.065-.151-.151-.363t-.192-.462q-.106-.25-.209-.5-.246-.6-.554-1.314a1.3,1.3,0,0,1,.39-.034.9.9,0,0,1,.318.092.563.563,0,0,1,.257.3l.072.174q.058.14.144.353t.2.469l.219.517q.123-.287.233-.547l.2-.465q.086-.205.137-.339c.034-.089.056-.143.065-.161" transform="translate(-122.049 -66.629)" fill="#161615"/>
    <path id="Path_1622" data-name="Path 1622" d="M166.272,78.736a1.425,1.425,0,0,1,.418-.175,2,2,0,0,1,.486-.058,2.219,2.219,0,0,1,.678.1,1.308,1.308,0,0,0-.089-.376.6.6,0,0,0-.267-.308.627.627,0,0,0-.147-.051.861.861,0,0,0-.181-.017h-.075a1.122,1.122,0,0,0-.192.031c-.064.016-.127.036-.192.058s-.128.042-.191.058a.763.763,0,0,1-.185.024.437.437,0,0,1-.185-.041.4.4,0,0,1-.143-.157l-.014-.027.014-.021a1.61,1.61,0,0,1,1.088-.507.3.3,0,0,1,.058-.007h.058a1.426,1.426,0,0,1,.575.113,1.393,1.393,0,0,1,.452.311,1.634,1.634,0,0,1,.4,1.116v.055a1.772,1.772,0,0,1-.363,1.157,1.437,1.437,0,0,1-.428.356,1.491,1.491,0,0,1-.558.171.5.5,0,0,1-.082.007h-.089a2,2,0,0,1-.3-.024,1.5,1.5,0,0,1-.6-.253.828.828,0,0,1-.219-.257.906.906,0,0,1-.137-.486v-.041a.833.833,0,0,1,.11-.445.854.854,0,0,1,.294-.308m1.417.329q-.089-.014-.2-.027a1.894,1.894,0,0,0-.229-.014,1.629,1.629,0,0,0-.185.01.734.734,0,0,0-.164.038.512.512,0,0,0-.26.171.341.341,0,0,0-.055.092.43.43,0,0,0-.027.113.206.206,0,0,0-.007.062.581.581,0,0,0,.02.147.35.35,0,0,0,.082.147.425.425,0,0,0,.161.116.7.7,0,0,0,.284.048.366.366,0,0,0,.082-.007.6.6,0,0,0,.336-.11.449.449,0,0,0,.116-.1.672.672,0,0,0,.082-.127.87.87,0,0,0,.1-.267,1.311,1.311,0,0,0,.027-.253.013.013,0,0,1-.01,0,.014.014,0,0,0-.01,0l-.062-.014c-.023,0-.05-.011-.082-.02" transform="translate(-142.452 -66.356)" fill="#161615"/>
    <path id="Path_1623" data-name="Path 1623" d="M192.132,79.571a1.747,1.747,0,0,1-.137.746,1.208,1.208,0,0,1-.353.452,1.25,1.25,0,0,1-.483.226,2.287,2.287,0,0,1-1.054,0,1.251,1.251,0,0,1-.483-.226,1.176,1.176,0,0,1-.349-.452,1.784,1.784,0,0,1-.133-.746l.007-.965a.7.7,0,0,1,.222-.585,1.03,1.03,0,0,1,.647-.175c0,.027-.009.068-.014.123s-.008.119-.01.205,0,.2,0,.335L190,79.571a1.586,1.586,0,0,0,.055.462.671.671,0,0,0,.147.27.472.472,0,0,0,.205.13.784.784,0,0,0,.459,0,.474.474,0,0,0,.205-.13.673.673,0,0,0,.147-.27,1.584,1.584,0,0,0,.055-.462l.007-.965a.694.694,0,0,1,.226-.585,1.046,1.046,0,0,1,.65-.175q-.007.041-.014.123c0,.05-.008.119-.01.205s0,.2,0,.335Z" transform="translate(-162.439 -66.856)" fill="#161615"/>
    <path id="Path_1624" data-name="Path 1624" d="M218.627,78.8a1.5,1.5,0,0,0-.058-.462.714.714,0,0,0-.154-.274.486.486,0,0,0-.212-.133.821.821,0,0,0-.233-.034.784.784,0,0,0-.229.034.466.466,0,0,0-.205.133.74.74,0,0,0-.15.274,1.5,1.5,0,0,0-.058.462v1.061q0,.205.007.335c0,.087.009.155.014.205s.009.1.014.123a1.03,1.03,0,0,1-.65-.178.7.7,0,0,1-.226-.582l.007-.965a1.507,1.507,0,0,0-.058-.462.711.711,0,0,0-.154-.274.484.484,0,0,0-.212-.133.819.819,0,0,0-.233-.034.786.786,0,0,0-.229.034.466.466,0,0,0-.205.133.707.707,0,0,0-.147.274,1.585,1.585,0,0,0-.055.462v1.061q0,.205,0,.335c0,.087.006.155.01.205s.009.1.014.123a1.03,1.03,0,0,1-.65-.178.7.7,0,0,1-.226-.582l.007-.965a1.808,1.808,0,0,1,.134-.749,1.145,1.145,0,0,1,.821-.678,2.428,2.428,0,0,1,.524-.058,2.39,2.39,0,0,1,.568.068.61.61,0,0,0,1,0,2.391,2.391,0,0,1,.568-.068,2.475,2.475,0,0,1,.527.058,1.212,1.212,0,0,1,.483.222,1.173,1.173,0,0,1,.349.455,1.808,1.808,0,0,1,.133.749v1.061q0,.205,0,.335c0,.087.006.155.01.205s.009.1.014.123a1.015,1.015,0,0,1-.647-.178.7.7,0,0,1-.222-.582Z" transform="translate(-184.088 -66.398)" fill="#161615"/>
    <path id="Path_1625" data-name="Path 1625" d="M256.976,79.859a.5.5,0,0,1,.157.164l.021.021-.021.02a1.625,1.625,0,0,1-1.211.527,1.407,1.407,0,0,1-.592-.127,1.549,1.549,0,0,1-.489-.353,1.643,1.643,0,0,1-.325-.517,1.7,1.7,0,0,1-.12-.64,1.885,1.885,0,0,1,.106-.64,1.594,1.594,0,0,1,.3-.524,1.468,1.468,0,0,1,.483-.349,1.5,1.5,0,0,1,.633-.13,1.727,1.727,0,0,1,.421.058,1.457,1.457,0,0,1,.428.185,1.063,1.063,0,0,1,.329.332.9.9,0,0,1,.13.493.692.692,0,0,1-.144.455,1.044,1.044,0,0,1-.342.274,1.492,1.492,0,0,1-.421.137,2.36,2.36,0,0,1-.387.038,2.777,2.777,0,0,1-.442-.031q-.188-.031-.257-.044a1.117,1.117,0,0,0,.11.4.835.835,0,0,0,.185.243.565.565,0,0,0,.205.12.651.651,0,0,0,.185.031,1.321,1.321,0,0,0,.274-.027,2.11,2.11,0,0,0,.233-.062q.1-.034.2-.068a.521.521,0,0,1,.181-.034.312.312,0,0,1,.171.048m-1.054-1.964a.942.942,0,0,0-.178.038.584.584,0,0,0-.2.113.789.789,0,0,0-.181.233,1.147,1.147,0,0,0-.116.383,2.227,2.227,0,0,0,.311.065,1.6,1.6,0,0,0,.4.01.82.82,0,0,0,.356-.116.378.378,0,0,0,.168-.322A.334.334,0,0,0,256.35,78a.6.6,0,0,0-.428-.109" transform="translate(-218.482 -66.398)" fill="#161615"/>
    <path id="Path_1626" data-name="Path 1626" d="M292.12,69.545a1.819,1.819,0,0,1-.11.633,1.649,1.649,0,0,1-.308.524,1.464,1.464,0,0,1-.483.349,1.5,1.5,0,0,1-.633.13,1.376,1.376,0,0,1-.592-.13,1.564,1.564,0,0,1-.815-.866,1.7,1.7,0,0,1-.12-.64,1.886,1.886,0,0,1,.106-.64,1.6,1.6,0,0,1,.3-.524,1.467,1.467,0,0,1,.483-.349,1.5,1.5,0,0,1,.633-.13,1.4,1.4,0,0,1,.7.178l-.007-.965a.7.7,0,0,1,.226-.585,1.046,1.046,0,0,1,.65-.175c0,.027-.009.069-.014.123s-.008.119-.01.205,0,.2,0,.335Zm-1.533,1.047a.658.658,0,0,0,.209-.041.59.59,0,0,0,.229-.154.9.9,0,0,0,.185-.322,1.957,1.957,0,0,0,0-1.075.9.9,0,0,0-.185-.322.59.59,0,0,0-.229-.154.551.551,0,0,0-.417,0,.591.591,0,0,0-.229.154.892.892,0,0,0-.185.322,1.953,1.953,0,0,0,0,1.075.892.892,0,0,0,.185.322.591.591,0,0,0,.229.154.657.657,0,0,0,.209.041" transform="translate(-248.252 -56.987)" fill="#161615"/>
    <path id="Path_1627" data-name="Path 1627" d="M317.844,79.571a1.748,1.748,0,0,1-.137.746,1.208,1.208,0,0,1-.353.452,1.25,1.25,0,0,1-.483.226,2.287,2.287,0,0,1-1.054,0,1.251,1.251,0,0,1-.483-.226,1.176,1.176,0,0,1-.349-.452,1.784,1.784,0,0,1-.133-.746l.007-.965a.7.7,0,0,1,.222-.585,1.03,1.03,0,0,1,.647-.175c0,.027-.009.068-.014.123s-.008.119-.01.205,0,.2,0,.335l.007,1.061a1.585,1.585,0,0,0,.055.462.671.671,0,0,0,.147.27.472.472,0,0,0,.205.13.784.784,0,0,0,.459,0,.474.474,0,0,0,.205-.13.673.673,0,0,0,.147-.27,1.584,1.584,0,0,0,.055-.462l.007-.965a.694.694,0,0,1,.226-.585,1.045,1.045,0,0,1,.65-.175c0,.027-.009.068-.014.123s-.008.119-.01.205,0,.2,0,.335Z" transform="translate(-270.404 -66.856)" fill="#161615"/>
    <path id="Path_1628" data-name="Path 1628" d="M355.953,70.448q0,.205,0,.335t.01.205q.007.082.014.123a1.033,1.033,0,0,1-.644-.175.7.7,0,0,1-.226-.585l.041-3.2q-.192.554-.37,1.033l-.154.421q-.079.216-.15.407l-.134.353q-.062.161-.11.264a.635.635,0,0,1-.26.311.791.791,0,0,1-.3.1.85.85,0,0,1-.349-.048l-1.054-2.84.027,3.292c0,.137,0,.249,0,.335s.006.155.01.205.009.1.014.123a1.029,1.029,0,0,1-.647-.175.7.7,0,0,1-.223-.585V66.41l.027-.014q.041-.007.1-.02l.106-.014a1.159,1.159,0,0,1,.133-.007,1.491,1.491,0,0,1,.411.055,1.091,1.091,0,0,1,.359.181,1.386,1.386,0,0,1,.311.342,2.727,2.727,0,0,1,.267.537c0,.018.017.055.038.11s.044.121.072.2l.089.253q.048.137.1.281.116.329.253.732l.541-1.574a2.722,2.722,0,0,1,.267-.537,1.382,1.382,0,0,1,.311-.342,1.09,1.09,0,0,1,.359-.181,1.492,1.492,0,0,1,.411-.055,1.166,1.166,0,0,1,.133.007l.106.014c.037.009.068.016.1.02l.027.014Z" transform="translate(-301.839 -56.987)" fill="#161615"/>
    <path id="Path_1629" data-name="Path 1629" d="M387.786,78.736a1.426,1.426,0,0,1,.418-.175,2,2,0,0,1,.486-.058,2.219,2.219,0,0,1,.678.1,1.3,1.3,0,0,0-.089-.376.6.6,0,0,0-.267-.308.626.626,0,0,0-.147-.051.858.858,0,0,0-.181-.017h-.075a1.12,1.12,0,0,0-.192.031q-.1.024-.192.058t-.192.058a.761.761,0,0,1-.185.024.437.437,0,0,1-.185-.041.4.4,0,0,1-.144-.157l-.014-.027.014-.021a1.61,1.61,0,0,1,1.088-.507.306.306,0,0,1,.058-.007h.058a1.426,1.426,0,0,1,.575.113,1.393,1.393,0,0,1,.452.311,1.634,1.634,0,0,1,.4,1.116v.055a1.772,1.772,0,0,1-.363,1.157,1.436,1.436,0,0,1-.428.356,1.491,1.491,0,0,1-.558.171.5.5,0,0,1-.082.007h-.089a2.005,2.005,0,0,1-.3-.024,1.5,1.5,0,0,1-.6-.253.83.83,0,0,1-.219-.257.907.907,0,0,1-.137-.486v-.041a.835.835,0,0,1,.11-.445.856.856,0,0,1,.294-.308m1.417.329q-.089-.014-.2-.027a1.9,1.9,0,0,0-.229-.014,1.627,1.627,0,0,0-.185.01.736.736,0,0,0-.164.038.512.512,0,0,0-.26.171.341.341,0,0,0-.055.092.429.429,0,0,0-.027.113.2.2,0,0,0-.007.062.583.583,0,0,0,.021.147.351.351,0,0,0,.082.147.426.426,0,0,0,.161.116.7.7,0,0,0,.284.048.367.367,0,0,0,.082-.007.6.6,0,0,0,.335-.11.447.447,0,0,0,.116-.1.673.673,0,0,0,.082-.127.869.869,0,0,0,.1-.267,1.3,1.3,0,0,0,.027-.253.013.013,0,0,1-.01,0,.014.014,0,0,0-.01,0l-.062-.014c-.023,0-.05-.011-.082-.02" transform="translate(-332.694 -66.356)" fill="#161615"/>
    <path id="Path_1630" data-name="Path 1630" d="M410.652,79.33a1.8,1.8,0,0,1,.134-.749,1.144,1.144,0,0,1,.821-.678,2.421,2.421,0,0,1,.524-.058h.335a.673.673,0,0,1,.014.267.394.394,0,0,1-.092.2.372.372,0,0,1-.257.116,1.164,1.164,0,0,0-.229.051.5.5,0,0,0-.2.13.7.7,0,0,0-.147.264,1.464,1.464,0,0,0-.058.459v.992c0,.137,0,.248,0,.332s.006.152.01.2.009.1.014.123a1.033,1.033,0,0,1-.643-.174.7.7,0,0,1-.226-.585Z" transform="translate(-352.678 -66.855)" fill="#161615"/>
    <path id="Path_1631" data-name="Path 1631" d="M427.125,77.8a1.583,1.583,0,0,1,.332.517,1.7,1.7,0,0,1,.12.64,1.84,1.84,0,0,1-.11.64,1.568,1.568,0,0,1-.308.517,1.421,1.421,0,0,1-.483.356,1.5,1.5,0,0,1-.633.13,1.376,1.376,0,0,1-.592-.13,1.594,1.594,0,0,1-.489-.356,1.645,1.645,0,0,1-.325-.517,1.7,1.7,0,0,1-.12-.64,1.886,1.886,0,0,1,.106-.64,1.518,1.518,0,0,1,.3-.517,1.42,1.42,0,0,1,.483-.356,1.5,1.5,0,0,1,.633-.13,1.394,1.394,0,0,1,.6.13,1.518,1.518,0,0,1,.483.356m-1.082,2.211a.658.658,0,0,0,.209-.041.577.577,0,0,0,.229-.157.938.938,0,0,0,.185-.322,1.58,1.58,0,0,0,.075-.534,1.611,1.611,0,0,0-.075-.537.9.9,0,0,0-.185-.322.591.591,0,0,0-.229-.154.551.551,0,0,0-.417,0,.589.589,0,0,0-.229.154.89.89,0,0,0-.185.322,1.6,1.6,0,0,0-.075.537,1.573,1.573,0,0,0,.075.534.932.932,0,0,0,.185.322.575.575,0,0,0,.229.157.658.658,0,0,0,.209.041" transform="translate(-364.586 -66.398)" fill="#161615"/>
    <path id="Path_1632" data-name="Path 1632" d="M451.108,77.895a.657.657,0,0,0-.209.041.59.59,0,0,0-.229.154.893.893,0,0,0-.185.322,1.952,1.952,0,0,0,0,1.075.892.892,0,0,0,.185.322.589.589,0,0,0,.229.154.654.654,0,0,0,.209.041,1.322,1.322,0,0,0,.274-.027,2.114,2.114,0,0,0,.233-.062c.069-.027.133-.051.2-.072a.573.573,0,0,1,.181-.031.373.373,0,0,1,.178.048.639.639,0,0,1,.157.157l.014.028-.021.02a1.623,1.623,0,0,1-.537.387,1.607,1.607,0,0,1-.667.14,1.4,1.4,0,0,1-.6-.13,1.565,1.565,0,0,1-.815-.866,1.7,1.7,0,0,1-.12-.64,1.84,1.84,0,0,1,.11-.64,1.646,1.646,0,0,1,.308-.524,1.461,1.461,0,0,1,1.109-.479,1.625,1.625,0,0,1,1.211.527l.021.021-.021.027a.367.367,0,0,1-.157.157.28.28,0,0,1-.171.048.573.573,0,0,1-.181-.031l-.2-.065a1.674,1.674,0,0,0-.233-.072,1.183,1.183,0,0,0-.274-.031" transform="translate(-386.112 -66.398)" fill="#161615"/>
    <path id="Path_1633" data-name="Path 1633" d="M2.036,526.274A1.769,1.769,0,0,0,3.9,524.868a1.225,1.225,0,0,0,.6.114h9.445v0a1.319,1.319,0,0,0,.937-.391,1.336,1.336,0,0,0,.971.389,1.289,1.289,0,0,0,1.286-1.373,1.333,1.333,0,0,0-1.346-1.466,1.3,1.3,0,0,0-1.292,1.359c-.013.6-.174.817-.79.817H4.6a.961.961,0,0,1-.6-.141c.013-.2.007-.362.007-.429v-.522a.469.469,0,0,0-.522-.529H3.241v1.051c0,1.426-.529,1.841-1.312,1.841a1.265,1.265,0,0,1-1.205-1.319,1.394,1.394,0,0,1,.375-1H.858c-.475,0-.71.429-.71,1a1.913,1.913,0,0,0,1.888,2M15.847,522.7c.408,0,.616.341.616.817,0,.563-.2.9-.676.9-.415,0-.623-.335-.623-.81,0-.562.208-.9.683-.9" transform="translate(-0.127 -448.424)" fill="#161615"/>
    <path id="Path_1634" data-name="Path 1634" d="M11.724,520.921a.39.39,0,0,0,.4-.388.386.386,0,0,0-.4-.388.379.379,0,0,0-.382.388.383.383,0,0,0,.382.388" transform="translate(-9.741 -446.713)" fill="#161615"/>
    <path id="Path_1635" data-name="Path 1635" d="M189.222,513.983a.387.387,0,0,0,.382-.388.385.385,0,0,0-.77,0,.385.385,0,0,0,.388.388" transform="translate(-162.175 -440.766)" fill="#161615"/>
    <path id="Path_1636" data-name="Path 1636" d="M135.976,517.69h4a1.221,1.221,0,0,0,.837-.315,1.355,1.355,0,0,0,.837.31v0h.241a1.076,1.076,0,0,0,1.145-1.138v-2.384a.467.467,0,0,0-.529-.522h-.248v2.872c0,.3-.114.476-.429.5h-.013c-.5-.013-.676-.208-.7-.676v-.408a.462.462,0,0,0-.522-.522h-.241v1.1c0,.308-.121.476-.435.5h-4.545v-.194c0-.837-.4-1.975-1.5-1.975a2.164,2.164,0,0,0-1.708,1.239v-.114c0-.5-.147-.5-.515-.5h-.154v1.54h-6.045a.4.4,0,0,1-.422-.382v-2.6a.419.419,0,0,0-.429-.388h-.348v2.906a1.076,1.076,0,0,0,1.145,1.138h10.584Zm-1.279-.67H132.26c.121-.5.663-1.393,1.446-1.42.877.04,1,.629,1,1.185,0,.08,0,.161-.007.234" transform="translate(-106.706 -441.132)" fill="#161615"/>
    <path id="Path_1637" data-name="Path 1637" d="M241.662,518.116a.385.385,0,1,0-.382-.382.383.383,0,0,0,.382.382" transform="translate(-207.217 -444.31)" fill="#161615"/>
    <path id="Path_1638" data-name="Path 1638" d="M235.454,518.116a.385.385,0,1,0-.388-.382.381.381,0,0,0,.388.382" transform="translate(-201.881 -444.31)" fill="#161615"/>
    <path id="Path_1639" data-name="Path 1639" d="M262.986,517.732h.308v-3.656a.428.428,0,0,0-.429-.382h-.341v3.522a.462.462,0,0,0,.462.516" transform="translate(-225.462 -441.173)" fill="#161615"/>
    <path id="Path_1640" data-name="Path 1640" d="M286.123,522.176v.007a1.275,1.275,0,0,0-.489-.094,1.335,1.335,0,0,0-1.346,1.473c0,1.2,1.085,1.366,1.9,1.379-.167.308-.576.583-1.48.6v.248c0,.181.181.321.469.321,1.373,0,1.754-.89,1.761-1.373l.013-1.051a2.726,2.726,0,0,0-.06-.529,1.286,1.286,0,0,0-.77-.984m-.248,2.1c-.435,0-.924-.08-.924-.8,0-.475.208-.823.623-.823.784,0,.683.964.71,1.62-.114,0-.261.007-.408.007" transform="translate(-244.154 -448.383)" fill="#161615"/>
    <path id="Path_1641" data-name="Path 1641" d="M330.1,514.1a.371.371,0,0,0,.368-.368.367.367,0,0,0-.368-.368.361.361,0,0,0-.375.368.365.365,0,0,0,.375.368" transform="translate(-283.172 -440.889)" fill="#161615"/>
    <path id="Path_1642" data-name="Path 1642" d="M324.071,514.1a.375.375,0,0,0,.382-.368.37.37,0,0,0-.382-.368.361.361,0,0,0-.375.368.365.365,0,0,0,.375.368" transform="translate(-277.998 -440.889)" fill="#161615"/>
    <path id="Path_1643" data-name="Path 1643" d="M322.588,523.515a1.3,1.3,0,0,0-1.292-1.379,1.33,1.33,0,0,0-1.346,1.467,1.287,1.287,0,0,0,1.286,1.379,1.331,1.331,0,0,0,1.353-1.466m-1.975,0c0-.475.207-.817.623-.817.469,0,.683.341.683.9,0,.482-.2.817-.623.817-.476,0-.683-.335-.683-.9" transform="translate(-274.781 -448.424)" fill="#161615"/>
    <path id="Path_1644" data-name="Path 1644" d="M344.169,526.244h1.747a1.594,1.594,0,0,0,.937-.214.184.184,0,0,1,.04-.033,1.871,1.871,0,0,0,.964.248h.06a1.081,1.081,0,0,0,1.145-1.145v-.971a.467.467,0,0,0-.529-.522h-.248v1.46c0,.3-.114.475-.515.509-.295,0-.455-.06-.542-.187a3.945,3.945,0,0,0,.047-.71v-.549a.464.464,0,0,0-.522-.522h-.241v1.46c0,.308-.12.475-.435.509h-.582v-1.587a.428.428,0,0,0-.429-.382h-.341v1.969h-5.69a.872.872,0,0,1-.154-.013V524.49c0-.382-.121-.536-.5-.536H338.1v1.62c0,.723.074,1.179-.469,1.179a2.136,2.136,0,0,1-.274-.027v.281c0,.261.221.408.549.408a.913.913,0,0,0,.937-.911v-.261h5.329Z" transform="translate(-289.728 -449.686)" fill="#161615"/>
    <path id="Path_1645" data-name="Path 1645" d="M424.181,517.568h1.761a1.077,1.077,0,0,0,1.138-1.138v-2.4a.471.471,0,0,0-.529-.529h-.241V516.4c0,.3-.114.476-.429.5h-.73v-3.006a.433.433,0,0,0-.428-.382h-.348V516.9h-.763v.194c0,.315.174.475.569.475" transform="translate(-363.809 -441.01)" fill="#161615"/>
    <path id="Path_1646" data-name="Path 1646" d="M428.407,506.2h.736a.143.143,0,0,0,.147-.141v-.12h-.529c-.053-.033-.06-.107-.06-.2,0-.121.04-.214.141-.214.067,0,.221.047.295.308a.9.9,0,0,0,.087-.268.343.343,0,0,0-.362-.268.424.424,0,0,0-.428.462.4.4,0,0,0,.027.181h-.2v.12a.143.143,0,0,0,.147.141" transform="translate(-367.801 -433.963)" fill="#161615"/>
    <path id="Path_1647" data-name="Path 1647" d="M454.8,517.732h.308v-3.656a.428.428,0,0,0-.429-.382h-.341v3.522a.462.462,0,0,0,.462.516" transform="translate(-390.2 -441.173)" fill="#161615"/>
    <path id="Path_1648" data-name="Path 1648" d="M481.651,514.1a.375.375,0,0,0,.382-.368.37.37,0,0,0-.382-.368.361.361,0,0,0-.375.368.365.365,0,0,0,.375.368" transform="translate(-413.332 -440.889)" fill="#161615"/>
    <path id="Path_1649" data-name="Path 1649" d="M478.816,524.982a1.332,1.332,0,0,0,1.353-1.466,1.3,1.3,0,0,0-1.292-1.379,1.33,1.33,0,0,0-1.346,1.466,1.287,1.287,0,0,0,1.286,1.379m0-2.283c.469,0,.683.341.683.9,0,.482-.2.817-.623.817-.475,0-.683-.335-.683-.9,0-.475.207-.817.623-.817" transform="translate(-410.115 -448.424)" fill="#161615"/>
    <path id="Path_1650" data-name="Path 1650" d="M487.674,514.1a.371.371,0,0,0,.368-.368.367.367,0,0,0-.368-.368.361.361,0,0,0-.375.368.365.365,0,0,0,.375.368" transform="translate(-418.505 -440.889)" fill="#161615"/>
    <path id="Path_1651" data-name="Path 1651" d="M495.729,526.074h-.288v1.62c0,.723.054,1.178-.475,1.178a2.205,2.205,0,0,1-.268-.027v.281c0,.261.221.409.549.409a.943.943,0,0,0,.971-.911V526.61c0-.382-.114-.536-.489-.536" transform="translate(-424.859 -451.806)" fill="#161615"/>
    <path id="Path_1652" data-name="Path 1652" d="M511.14,517.732h.308v-3.656a.428.428,0,0,0-.428-.382h-.341v3.522a.462.462,0,0,0,.462.516" transform="translate(-438.583 -441.173)" fill="#161615"/>
    <path id="Path_1653" data-name="Path 1653" d="M516.355,526.074h-.288v1.62c0,.723.054,1.178-.475,1.178a2.208,2.208,0,0,1-.268-.027v.281c0,.261.221.409.549.409a.943.943,0,0,0,.971-.911V526.61c0-.382-.114-.536-.489-.536" transform="translate(-442.573 -451.806)" fill="#161615"/>
    <path id="Path_1654" data-name="Path 1654" d="M520.544,518.449a.392.392,0,0,0,.382-.388.381.381,0,0,0-.382-.382.377.377,0,0,0-.382.382.387.387,0,0,0,.382.388" transform="translate(-446.728 -444.596)" fill="#161615"/>
    <path id="Path_1655" data-name="Path 1655" d="M532.259,524.941c-.167.308-.576.583-1.48.6v.248c0,.181.181.321.469.321,1.373,0,1.754-.891,1.761-1.373l.013-1.051a2.721,2.721,0,0,0-.06-.529,1.286,1.286,0,0,0-.77-.984v.007a1.274,1.274,0,0,0-.489-.094,1.335,1.335,0,0,0-1.346,1.473c0,1.2,1.085,1.366,1.9,1.379m-.616-2.29c.783,0,.683.964.71,1.62-.114,0-.261.007-.409.007-.435,0-.924-.08-.924-.8,0-.475.207-.823.623-.823" transform="translate(-455.485 -448.383)" fill="#161615"/>
    <path id="Path_1656" data-name="Path 1656" d="M9.771,570.454a.385.385,0,1,0,.382-.375.383.383,0,0,0-.382.375" transform="translate(-8.392 -489.598)" fill="#161615"/>
    <path id="Path_1657" data-name="Path 1657" d="M3.415,570.454a.378.378,0,0,0,.375.388.382.382,0,1,0,0-.763.374.374,0,0,0-.375.375" transform="translate(-2.933 -489.598)" fill="#161615"/>
    <path id="Path_1658" data-name="Path 1658" d="M23.909,602.047a.385.385,0,1,0,0,.77.385.385,0,0,0,0-.77" transform="translate(-20.2 -517.053)" fill="#161615"/>
    <path id="Path_1659" data-name="Path 1659" d="M30.069,602.047a.385.385,0,0,0,0,.77.385.385,0,1,0,0-.77" transform="translate(-25.496 -517.053)" fill="#161615"/>
    <path id="Path_1660" data-name="Path 1660" d="M6.487,580.381c0-.475.208-.823.616-.823a1.045,1.045,0,0,1,1,.777l.1-.234a.754.754,0,0,0,.067-.308,1.059,1.059,0,0,0-1.111-.8,1.335,1.335,0,0,0-1.346,1.473,1.462,1.462,0,0,0,.167.71H5.41c-.5,0-.676-.207-.7-.676v-.408a.462.462,0,0,0-.522-.522H3.943v1.1c0,.308-.121.475-.435.5h-.85l.007-.576c.007-.777-.375-1.6-1.319-1.6A1.335,1.335,0,0,0,0,580.475c0,1.2,1.085,1.359,1.9,1.379.408-.02,1.587,0,1.547-.007h.12a1.222,1.222,0,0,0,.837-.315,1.355,1.355,0,0,0,.837.31v0H8.121a.389.389,0,0,0,.388-.368v-.3H6.8a.9.9,0,0,1-.308-.8m-4.492.8c-.442-.013-1.332.094-1.332-.79,0-.482.208-.823.623-.823.643,0,.716.569.716,1.132,0,.167-.007.335-.007.482" transform="translate(0 -497.256)" fill="#161615"/>
    <path id="Path_1661" data-name="Path 1661" d="M102.194,574.641a.385.385,0,1,0,.388-.388.383.383,0,0,0-.388.388" transform="translate(-87.767 -493.183)" fill="#161615"/>
    <path id="Path_1662" data-name="Path 1662" d="M108.407,574.641a.385.385,0,1,0,.382-.388.381.381,0,0,0-.382.388" transform="translate(-93.103 -493.183)" fill="#161615"/>
    <path id="Path_1663" data-name="Path 1663" d="M124.581,602.047a.385.385,0,0,0,0,.77.385.385,0,0,0,0-.77" transform="translate(-106.665 -517.053)" fill="#161615"/>
    <path id="Path_1664" data-name="Path 1664" d="M72.7,571.752c-.964,0-1.085.348-1.085.8v.254a1.232,1.232,0,0,1,.931-.375c.81,0,1.132,1.071,1.232,1.5h-2.4c-.5-.013-.676-.208-.7-.676v-.408a.462.462,0,0,0-.522-.522H69.9v1.1c0,.308-.121.475-.435.5h-.12c-.562,0-.777-.194-.777-.7a1.334,1.334,0,0,0-1.346-1.467,1.3,1.3,0,0,0-1.292,1.359c-.013.56-.156.783-.685.808a.4.4,0,0,1-.406-.379v-2.6a.419.419,0,0,0-.428-.389h-.348v2.906a1.058,1.058,0,0,0,1.011,1.128v.01h.268v0a1.35,1.35,0,0,0,.971-.385,1.325,1.325,0,0,0,.971.388,1.238,1.238,0,0,0,.911-.375,1.337,1.337,0,0,0,.984.373v0h.348a1.223,1.223,0,0,0,.837-.315,1.374,1.374,0,0,0,.87.311v0h2.156c.475.034.917.161,1.045.429a3.061,3.061,0,0,0,.054-.629c0-1.152-.482-2.645-1.794-2.645m-5.47,2.283c-.422,0-.629-.335-.629-.81,0-.569.214-.9.69-.9.408,0,.616.335.616.817,0,.563-.2.9-.676.9" transform="translate(-55.022 -490.005)" fill="#161615"/>
    <path id="Path_1665" data-name="Path 1665" d="M145.109,570.411h-.241V573.3c0,.308-.114.482-.428.509h-.73V570.8a.433.433,0,0,0-.429-.382h-.348v3.388h-.763V574c0,.308.174.475.569.475H144.5a1.077,1.077,0,0,0,1.138-1.138v-2.4a.469.469,0,0,0-.529-.522" transform="translate(-122.098 -489.883)" fill="#161615"/>
    <path id="Path_1666" data-name="Path 1666" d="M173.242,570.6H172.9v3.522a.462.462,0,0,0,.462.516h.308v-3.656a.428.428,0,0,0-.428-.382" transform="translate(-148.491 -490.046)" fill="#161615"/>
    <path id="Path_1667" data-name="Path 1667" d="M198.08,570.454a.378.378,0,0,0,.375.388.382.382,0,1,0,0-.763.374.374,0,0,0-.375.375" transform="translate(-170.116 -489.598)" fill="#161615"/>
    <path id="Path_1668" data-name="Path 1668" d="M204.436,570.454a.385.385,0,1,0,.381-.375.383.383,0,0,0-.381.375" transform="translate(-175.575 -489.598)" fill="#161615"/>
    <path id="Path_1669" data-name="Path 1669" d="M224.734,602.047a.385.385,0,0,0,0,.77.385.385,0,1,0,0-.77" transform="translate(-192.679 -517.053)" fill="#161615"/>
    <path id="Path_1670" data-name="Path 1670" d="M218.574,602.047a.385.385,0,1,0,0,.77.385.385,0,0,0,0-.77" transform="translate(-187.384 -517.053)" fill="#161615"/>
    <path id="Path_1671" data-name="Path 1671" d="M265.039,574.967a.387.387,0,0,0,.382.388.406.406,0,0,0,.382-.388.381.381,0,0,0-.382-.382.373.373,0,0,0-.382.382" transform="translate(-227.622 -493.468)" fill="#161615"/>
    <path id="Path_1672" data-name="Path 1672" d="M282.495,575.023a.385.385,0,1,0-.382-.382.383.383,0,0,0,.382.382" transform="translate(-242.286 -493.183)" fill="#161615"/>
    <path id="Path_1673" data-name="Path 1673" d="M276.288,575.023a.385.385,0,1,0-.388-.382.381.381,0,0,0,.388.382" transform="translate(-236.95 -493.183)" fill="#161615"/>
    <path id="Path_1674" data-name="Path 1674" d="M208.744,570.553H208.5v2.873c0,.3-.114.475-.429.5h-.013c-.5-.013-.676-.208-.7-.676v-.408a.462.462,0,0,0-.522-.522h-.241v1.1c0,.308-.12.475-.435.5h-.087c-.5-.013-.676-.208-.7-.676v-.408a.462.462,0,0,0-.522-.522H204.6v1.1c0,.308-.121.475-.435.5h-.12c-.562,0-.777-.194-.777-.7a1.334,1.334,0,0,0-1.346-1.467,1.3,1.3,0,0,0-1.292,1.359c-.012.546-.149.771-.646.805-.43-.026-.587-.233-.612-.671v-.408a.462.462,0,0,0-.522-.522h-.241v1.1c0,.308-.121.475-.435.5h-.85l.007-.576c.007-.777-.375-1.6-1.319-1.6a1.335,1.335,0,0,0-1.346,1.473c0,1.2,1.085,1.359,1.9,1.379.409-.02,1.587,0,1.547-.007h.12a1.222,1.222,0,0,0,.837-.315,1.291,1.291,0,0,0,.7.3v.018h.174l.049,0,.052,0h.027v0a1.371,1.371,0,0,1,1.908,0,1.239,1.239,0,0,0,.911-.375,1.336,1.336,0,0,0,.984.373v0h.348a1.223,1.223,0,0,0,.837-.315,1.338,1.338,0,0,0,.8.307v.007h.348a1.223,1.223,0,0,0,.837-.315,1.354,1.354,0,0,0,.837.31v0h.241a1.075,1.075,0,0,0,1.145-1.138v-2.384a.466.466,0,0,0-.529-.522m-12.084,3.375c-.442-.013-1.333.094-1.333-.79,0-.482.208-.823.623-.823.643,0,.716.569.716,1.131,0,.167-.007.335-.007.482m5.262.107c-.422,0-.629-.335-.629-.81,0-.569.214-.9.69-.9.408,0,.616.335.616.817,0,.563-.2.9-.676.9" transform="translate(-167.183 -490.005)" fill="#161615"/>
    <path id="Path_1675" data-name="Path 1675" d="M303.7,570.6h-.341v3.522a.462.462,0,0,0,.462.516h.308v-3.656a.428.428,0,0,0-.428-.382" transform="translate(-260.531 -490.046)" fill="#161615"/>
    <path id="Path_1676" data-name="Path 1676" d="M326.957,579.082v.007a1.273,1.273,0,0,0-.489-.094,1.335,1.335,0,0,0-1.346,1.473c0,1.2,1.085,1.366,1.9,1.379-.167.308-.576.583-1.48.6v.248c0,.181.181.321.469.321,1.373,0,1.754-.89,1.761-1.373l.013-1.051a2.727,2.727,0,0,0-.06-.529,1.286,1.286,0,0,0-.77-.984m-.248,2.1c-.435,0-.924-.08-.924-.8,0-.475.208-.823.623-.823.783,0,.683.964.71,1.62-.114,0-.261.007-.408.007" transform="translate(-279.223 -497.256)" fill="#161615"/>
    <path id="Path_1677" data-name="Path 1677" d="M362.129,579.043a1.33,1.33,0,0,0-1.346,1.466,1.288,1.288,0,0,0,1.286,1.379,1.332,1.332,0,0,0,1.353-1.466,1.3,1.3,0,0,0-1.292-1.379m0,2.283c-.475,0-.683-.335-.683-.9,0-.475.207-.817.623-.817.469,0,.683.341.683.9,0,.482-.2.817-.623.817" transform="translate(-309.85 -497.297)" fill="#161615"/>
    <path id="Path_1678" data-name="Path 1678" d="M365.288,570.637a.37.37,0,0,0-.382-.368.361.361,0,0,0-.375.368.365.365,0,0,0,.375.368.375.375,0,0,0,.382-.368" transform="translate(-313.068 -489.761)" fill="#161615"/>
    <path id="Path_1679" data-name="Path 1679" d="M371.3,570.637a.367.367,0,0,0-.368-.368.361.361,0,0,0-.375.368.365.365,0,0,0,.375.368.372.372,0,0,0,.368-.368" transform="translate(-318.241 -489.761)" fill="#161615"/>
    <path id="Path_1680" data-name="Path 1680" d="M384.551,570.6h-.341v3.522a.462.462,0,0,0,.462.516h.308v-3.656a.428.428,0,0,0-.428-.382" transform="translate(-329.969 -490.046)" fill="#161615"/>
    <path id="Path_1681" data-name="Path 1681" d="M396.24,579.082v.007a1.273,1.273,0,0,0-.489-.094,1.335,1.335,0,0,0-1.346,1.473c0,1.2,1.085,1.366,1.9,1.379-.167.308-.576.583-1.48.6v.248c0,.181.181.321.469.321,1.373,0,1.754-.89,1.761-1.373l.013-1.051a2.727,2.727,0,0,0-.06-.529,1.286,1.286,0,0,0-.77-.984m-.248,2.1c-.435,0-.924-.08-.924-.8,0-.475.208-.823.623-.823.783,0,.683.964.71,1.62-.114,0-.261.007-.408.007" transform="translate(-338.725 -497.256)" fill="#161615"/>
    <path id="Path_1682" data-name="Path 1682" d="M428.749,570.553H428.5v2.873c0,.3-.114.475-.428.5h-.046c-.562,0-.777-.194-.777-.7a1.334,1.334,0,0,0-1.346-1.467,1.3,1.3,0,0,0-1.292,1.359c-.013.6-.174.81-.79.81h-.106a.4.4,0,0,1-.428-.428c0-.429-.007-.469-.007-1.018a.466.466,0,0,0-.529-.522H422.5v1.467c0,.3-.114.469-.515.5-.295,0-.449-.054-.536-.181a4.648,4.648,0,0,0,.047-.71v-.556a.465.465,0,0,0-.522-.522h-.241v1.467a.431.431,0,0,1-.435.5h-.583v-1.587a.428.428,0,0,0-.428-.382h-.341v1.969h-.676a.4.4,0,0,1-.422-.382v-2.6a.419.419,0,0,0-.428-.389h-.348v2.906a1.076,1.076,0,0,0,1.145,1.138h1.922a1.405,1.405,0,0,0,.971-.241,1.838,1.838,0,0,0,.971.241h.054A1.3,1.3,0,0,0,423,574.3a.992.992,0,0,0,.756.294h.269v0a1.351,1.351,0,0,0,.97-.385,1.325,1.325,0,0,0,.971.388,1.238,1.238,0,0,0,.911-.375,1.354,1.354,0,0,0,1.017.374h.241a1.076,1.076,0,0,0,1.145-1.138v-2.384a.466.466,0,0,0-.529-.522m-2.845,3.482c-.422,0-.629-.335-.629-.81,0-.569.214-.9.69-.9.409,0,.616.335.616.817,0,.563-.2.9-.676.9" transform="translate(-358.193 -490.005)" fill="#161615"/>
    <path id="Path_1683" data-name="Path 1683" d="M509.079,570.6h-.341v3.522a.462.462,0,0,0,.462.516h.308v-3.656a.428.428,0,0,0-.428-.382" transform="translate(-436.917 -490.046)" fill="#161615"/>
    <path id="Path_1684" data-name="Path 1684" d="M533.109,580.066a1.286,1.286,0,0,0-.77-.984v.007a1.273,1.273,0,0,0-.489-.094,1.335,1.335,0,0,0-1.346,1.473c0,1.2,1.085,1.366,1.9,1.379-.167.308-.576.583-1.48.6v.248c0,.181.181.321.469.321,1.373,0,1.754-.89,1.761-1.373l.013-1.051a2.731,2.731,0,0,0-.06-.529m-1.018,1.118c-.435,0-.924-.08-.924-.8,0-.475.208-.823.623-.823.783,0,.683.964.71,1.62-.114,0-.261.007-.408.007" transform="translate(-455.61 -497.256)" fill="#161615"/>
    <path id="Path_1685" data-name="Path 1685" d="M11.09,628.983h-.176a.75.75,0,0,1-.161-.016.291.291,0,0,1-.129-.064.3.3,0,0,1-.085-.131.644.644,0,0,1-.029-.212V626.6l-.991,2.071a.257.257,0,0,1-.146,0,.4.4,0,0,1-.134-.067.483.483,0,0,1-.134-.174l-.869-1.813,0,2.366H8.063a.752.752,0,0,1-.161-.016.292.292,0,0,1-.129-.064.3.3,0,0,1-.085-.131.648.648,0,0,1-.029-.212v-3.031h.171c.059,0,.124,0,.2.005a.677.677,0,0,1,.22.051.716.716,0,0,1,.22.148.938.938,0,0,1,.2.3l.09.212q.051.121.11.255t.117.276q.059.142.117.271.132.311.273.638l.488-.891q.1-.177.2-.362t.188-.354q.088-.169.159-.311t.11-.233h.171a.748.748,0,0,1,.161.016.289.289,0,0,1,.129.064.3.3,0,0,1,.085.131.648.648,0,0,1,.029.212Z" transform="translate(-6.577 -537.219)" fill="#161615"/>
    <path id="Path_1686" data-name="Path 1686" d="M35.3,626.465a.258.258,0,0,1-.2-.094.332.332,0,0,1-.083-.228.315.315,0,0,1,.083-.22.262.262,0,0,1,.2-.091.274.274,0,0,1,.208.091.311.311,0,0,1,.085.22.326.326,0,0,1-.085.228.27.27,0,0,1-.208.094m-.112.279h-.171v2.076a.649.649,0,0,0,.029.212.3.3,0,0,0,.085.131.29.29,0,0,0,.129.064.75.75,0,0,0,.161.016h.171v-2.081a.649.649,0,0,0-.029-.212.283.283,0,0,0-.086-.129.306.306,0,0,0-.129-.062.754.754,0,0,0-.161-.016" transform="translate(-30.069 -537.48)" fill="#161615"/>
    <path id="Path_1687" data-name="Path 1687" d="M43.233,631.931a.953.953,0,0,1,.388.051.9.9,0,0,1,.354.225,1.208,1.208,0,0,1,.256.413,1.666,1.666,0,0,1,.1.609v1.25h-.171a.75.75,0,0,1-.161-.016.29.29,0,0,1-.129-.064.3.3,0,0,1-.085-.131.648.648,0,0,1-.029-.212v-.8a1.923,1.923,0,0,0-.037-.41.755.755,0,0,0-.1-.26.379.379,0,0,0-.154-.137.52.52,0,0,0-.4-.013.434.434,0,0,0-.181.129.7.7,0,0,0-.127.247,1.307,1.307,0,0,0-.049.386v1.282H42.54a.749.749,0,0,1-.161-.016.29.29,0,0,1-.129-.064.3.3,0,0,1-.085-.131.649.649,0,0,1-.029-.212v-2.076h.171a.6.6,0,0,1,.244.046.268.268,0,0,1,.142.19c.013-.014.037-.037.071-.067a.907.907,0,0,1,.12-.089,1.089,1.089,0,0,1,.159-.08.69.69,0,0,1,.193-.048" transform="translate(-36.187 -542.716)" fill="#161615"/>
    <path id="Path_1688" data-name="Path 1688" d="M60.675,626.465a.258.258,0,0,1-.2-.094.332.332,0,0,1-.083-.228.315.315,0,0,1,.083-.22.262.262,0,0,1,.2-.091.275.275,0,0,1,.208.091.311.311,0,0,1,.085.22.326.326,0,0,1-.085.228.27.27,0,0,1-.208.094m-.112.279h-.171v2.076a.649.649,0,0,0,.029.212.3.3,0,0,0,.085.131.29.29,0,0,0,.129.064.75.75,0,0,0,.161.016h.171v-2.081a.649.649,0,0,0-.029-.212.284.284,0,0,0-.085-.129.306.306,0,0,0-.129-.062.754.754,0,0,0-.161-.016" transform="translate(-51.866 -537.48)" fill="#161615"/>
    <path id="Path_1689" data-name="Path 1689" d="M69.194,633.844a.719.719,0,0,1-.149.4.82.82,0,0,1-.3.228,1.168,1.168,0,0,1-.369.1,1.917,1.917,0,0,1-.688-.056q-.151-.043-.264-.086t-.23-.107a.48.48,0,0,1,.078-.266.183.183,0,0,1,.161-.051,1.145,1.145,0,0,1,.254.064,1.549,1.549,0,0,0,.352.075.8.8,0,0,0,.461-.059.268.268,0,0,0,.168-.252.2.2,0,0,0-.12-.166,1.632,1.632,0,0,0-.286-.121l-.364-.118a1.843,1.843,0,0,1-.356-.156.823.823,0,0,1-.266-.239.551.551,0,0,1-.088-.365.621.621,0,0,1,.142-.389.768.768,0,0,1,.3-.209,1.175,1.175,0,0,1,.371-.075,2.471,2.471,0,0,1,.352.008,2.3,2.3,0,0,1,.334.062q.149.04.261.083t.234.107a.48.48,0,0,1-.078.266.183.183,0,0,1-.161.051,1.136,1.136,0,0,1-.254-.064,1.543,1.543,0,0,0-.352-.075,1.112,1.112,0,0,0-.471.03q-.183.062-.163.217a.2.2,0,0,0,.127.145,1.907,1.907,0,0,0,.29.113q.173.054.369.118a1.607,1.607,0,0,1,.356.166.862.862,0,0,1,.261.252.571.571,0,0,1,.081.375" transform="translate(-57.705 -542.768)" fill="#161615"/>
    <path id="Path_1690" data-name="Path 1690" d="M85.3,626.483a.994.994,0,0,1-.015.177.326.326,0,0,1-.059.139.282.282,0,0,1-.12.091.5.5,0,0,1-.193.032h-.229v2.06h-.171a.749.749,0,0,1-.161-.016.291.291,0,0,1-.129-.064.3.3,0,0,1-.085-.131.648.648,0,0,1-.029-.212v-3.031h.171a.747.747,0,0,1,.161.016.289.289,0,0,1,.129.064.3.3,0,0,1,.086.131.648.648,0,0,1,.029.212v.531Z" transform="translate(-72.238 -537.219)" fill="#161615"/>
    <path id="Path_1691" data-name="Path 1691" d="M95.572,626.8a.6.6,0,0,1-.251.274,1.062,1.062,0,0,1-.466.126,2.423,2.423,0,0,1-.73-.086.831.831,0,0,0,.176.477.468.468,0,0,0,.342.15,2.917,2.917,0,0,0,.371-.021,1.336,1.336,0,0,1,.283-.011.271.271,0,0,1,.178.075.342.342,0,0,1,.056.241,1.5,1.5,0,0,1-.239.086,2.394,2.394,0,0,1-.286.056,2.753,2.753,0,0,1-.388.024,1.2,1.2,0,0,1-.4-.07.933.933,0,0,1-.352-.222,1.126,1.126,0,0,1-.249-.4,1.673,1.673,0,0,1-.1-.6,1.63,1.63,0,0,1,.1-.6,1.1,1.1,0,0,1,.249-.391.981.981,0,0,1,.352-.223,1.507,1.507,0,0,1,.4-.089,1.132,1.132,0,0,1,.378.032,1,1,0,0,1,.337.156.815.815,0,0,1,.239.271.7.7,0,0,1,.081.378.939.939,0,0,1-.081.362m-1.076-.032a.894.894,0,0,0,.3-.011.416.416,0,0,0,.2-.107.341.341,0,0,0,.093-.212.359.359,0,0,0-.093-.292.416.416,0,0,0-.356-.11.475.475,0,0,0-.342.164.886.886,0,0,0-.176.491,2.137,2.137,0,0,0,.371.078m-.315-1.95a.479.479,0,0,0,.176.212,1.165,1.165,0,0,0,.354.166,1.5,1.5,0,0,0,.5.056,2.35,2.35,0,0,1-.234-.233,3.262,3.262,0,0,0-.269-.268,1,1,0,0,0-.264-.174.182.182,0,0,0-.22.043.177.177,0,0,0-.042.2" transform="translate(-80.316 -536.385)" fill="#161615"/>
    <path id="Path_1692" data-name="Path 1692" d="M112.046,632.38a.315.315,0,0,0-.329.15,1.206,1.206,0,0,0-.125.644v1.282h-.171a.753.753,0,0,1-.161-.016.291.291,0,0,1-.129-.064.3.3,0,0,1-.085-.131.648.648,0,0,1-.029-.212v-2.076h.171a.6.6,0,0,1,.244.046.268.268,0,0,1,.142.19c.016-.021.037-.047.063-.078a.688.688,0,0,1,.093-.089.613.613,0,0,1,.122-.075.51.51,0,0,1,.156-.043.938.938,0,0,1,.269.005,1.219,1.219,0,0,1,.186.048.6.6,0,0,1,.147.086.409.409,0,0,1-.068.2.384.384,0,0,1-.166.123.6.6,0,0,1-.327.011" transform="translate(-95.343 -542.693)" fill="#161615"/>
    <path id="Path_1693" data-name="Path 1693" d="M125.251,632.762a.939.939,0,0,1-.081.362.6.6,0,0,1-.251.274,1.062,1.062,0,0,1-.466.126,2.423,2.423,0,0,1-.73-.086.831.831,0,0,0,.176.477.468.468,0,0,0,.342.15,2.912,2.912,0,0,0,.371-.021,1.324,1.324,0,0,1,.283-.011.27.27,0,0,1,.178.075.342.342,0,0,1,.056.241,1.5,1.5,0,0,1-.239.086,2.392,2.392,0,0,1-.286.056,2.772,2.772,0,0,1-.388.024,1.2,1.2,0,0,1-.4-.07.934.934,0,0,1-.352-.223,1.125,1.125,0,0,1-.249-.4,1.673,1.673,0,0,1-.1-.6,1.629,1.629,0,0,1,.1-.6,1.1,1.1,0,0,1,.249-.392.981.981,0,0,1,.352-.223,1.51,1.51,0,0,1,.4-.089,1.129,1.129,0,0,1,.378.032.993.993,0,0,1,.337.156.817.817,0,0,1,.239.271.7.7,0,0,1,.081.378m-1.528.252a2.126,2.126,0,0,0,.371.078.892.892,0,0,0,.3-.011.417.417,0,0,0,.2-.107.34.34,0,0,0,.093-.212.359.359,0,0,0-.093-.292.416.416,0,0,0-.356-.11.475.475,0,0,0-.342.163.886.886,0,0,0-.176.491" transform="translate(-105.737 -542.71)" fill="#161615"/>
    <path id="Path_1694" data-name="Path 1694" d="M149.654,627.733a1.742,1.742,0,0,1-.081.552,1.158,1.158,0,0,1-.225.405.947.947,0,0,1-.347.249,1.121,1.121,0,0,1-.442.086.928.928,0,0,1-.432-.1,1.149,1.149,0,0,1-.349-.279,1.381,1.381,0,0,1-.232-.411,1.446,1.446,0,0,1-.085-.5,1.664,1.664,0,0,1,.1-.609,1.208,1.208,0,0,1,.256-.413.9.9,0,0,1,.351-.225.935.935,0,0,1,.386-.051.651.651,0,0,1,.22.056,1.567,1.567,0,0,1,.166.089,1.26,1.26,0,0,1,.137.118v-1.169h.171a.763.763,0,0,1,.161.016.289.289,0,0,1,.129.064.3.3,0,0,1,.085.131.644.644,0,0,1,.029.212Zm-1.162-.832a.426.426,0,0,0-.3.182.751.751,0,0,0-.112.266,1.388,1.388,0,0,0-.022.427,1.319,1.319,0,0,0,.088.416.773.773,0,0,0,.151.242.388.388,0,0,0,.173.107.459.459,0,0,0,.154.019.428.428,0,0,0,.146-.046.418.418,0,0,0,.154-.14.783.783,0,0,0,.112-.268,1.387,1.387,0,0,0,.022-.427,1.325,1.325,0,0,0-.088-.416.744.744,0,0,0-.151-.239.4.4,0,0,0-.173-.1.469.469,0,0,0-.154-.019" transform="translate(-126.644 -537.219)" fill="#161615"/>
    <path id="Path_1695" data-name="Path 1695" d="M167.127,632.762a.939.939,0,0,1-.081.362.6.6,0,0,1-.251.274,1.062,1.062,0,0,1-.466.126,2.423,2.423,0,0,1-.73-.086.831.831,0,0,0,.176.477.468.468,0,0,0,.342.15,2.912,2.912,0,0,0,.371-.021,1.324,1.324,0,0,1,.283-.011.27.27,0,0,1,.178.075.342.342,0,0,1,.056.241,1.5,1.5,0,0,1-.239.086,2.392,2.392,0,0,1-.286.056,2.772,2.772,0,0,1-.388.024,1.2,1.2,0,0,1-.4-.07.934.934,0,0,1-.352-.223,1.125,1.125,0,0,1-.249-.4,1.672,1.672,0,0,1-.1-.6,1.628,1.628,0,0,1,.1-.6,1.1,1.1,0,0,1,.249-.392.981.981,0,0,1,.352-.223,1.51,1.51,0,0,1,.4-.089,1.129,1.129,0,0,1,.378.032.993.993,0,0,1,.337.156.817.817,0,0,1,.239.271.7.7,0,0,1,.081.378m-1.528.252a2.126,2.126,0,0,0,.371.078.892.892,0,0,0,.3-.011.417.417,0,0,0,.2-.107.34.34,0,0,0,.093-.212.359.359,0,0,0-.093-.292.416.416,0,0,0-.356-.11.475.475,0,0,0-.342.163.886.886,0,0,0-.176.491" transform="translate(-141.701 -542.71)" fill="#161615"/>
    <path id="Path_1696" data-name="Path 1696" d="M190.361,625.544a.291.291,0,0,1,.129.064.3.3,0,0,1,.085.132.643.643,0,0,1,.029.212v3.031h-.171a.751.751,0,0,1-.161-.016.29.29,0,0,1-.129-.064.3.3,0,0,1-.085-.131.648.648,0,0,1-.029-.212v-3.031h.171a.755.755,0,0,1,.161.016" transform="translate(-163.202 -537.219)" fill="#161615"/>
    <path id="Path_1697" data-name="Path 1697" d="M197.336,631.95q.127,0,.293.013a.672.672,0,0,1,.312.107.725.725,0,0,1,.249.306,1.438,1.438,0,0,1,.1.609V634.5h-.171a.566.566,0,0,1-.229-.043.266.266,0,0,1-.142-.166.773.773,0,0,1-.186.158.692.692,0,0,1-.347.094,1.161,1.161,0,0,1-.352-.043.828.828,0,0,1-.3-.156.748.748,0,0,1-.208-.271.875.875,0,0,1-.071-.389.64.64,0,0,1,.4-.636,1.96,1.96,0,0,1,1.072-.046.8.8,0,0,0-.01-.306.464.464,0,0,0-.125-.215.422.422,0,0,0-.31-.1,1.633,1.633,0,0,0-.359.035,1.369,1.369,0,0,1-.256.038.182.182,0,0,1-.156-.064.481.481,0,0,1-.054-.276,2.487,2.487,0,0,1,.239-.081,2.583,2.583,0,0,1,.268-.059,2.03,2.03,0,0,1,.342-.027m-.107,2.119a.682.682,0,0,0,.2-.03.411.411,0,0,0,.173-.1.5.5,0,0,0,.117-.207,1.051,1.051,0,0,0,.037-.335,1.4,1.4,0,0,0-.151-.038c-.046-.007-.1-.014-.166-.021a1.346,1.346,0,0,0-.21-.005.788.788,0,0,0-.139.024.385.385,0,0,0-.132.064.363.363,0,0,0-.1.115.358.358,0,0,0-.039.177.429.429,0,0,0,.032.177.27.27,0,0,0,.088.11.348.348,0,0,0,.132.056.763.763,0,0,0,.159.016" transform="translate(-168.575 -542.735)" fill="#161615"/>
    <path id="Path_1698" data-name="Path 1698" d="M221.317,625.973v.933h1.259a.993.993,0,0,1-.015.177.35.35,0,0,1-.059.142.274.274,0,0,1-.12.094.5.5,0,0,1-.193.032h-.874v1.631h-.176a.749.749,0,0,1-.161-.016.29.29,0,0,1-.129-.064.3.3,0,0,1-.085-.131.649.649,0,0,1-.029-.212v-2.484a.745.745,0,0,1,.046-.29.382.382,0,0,1,.125-.164.438.438,0,0,1,.181-.075,1.194,1.194,0,0,1,.215-.019h1.523a.994.994,0,0,1-.015.177.35.35,0,0,1-.058.142.276.276,0,0,1-.12.094.493.493,0,0,1-.193.032Z" transform="translate(-189.574 -537.219)" fill="#161615"/>
    <path id="Path_1699" data-name="Path 1699" d="M237.725,631.95q.127,0,.293.013a.672.672,0,0,1,.312.107.725.725,0,0,1,.249.306,1.438,1.438,0,0,1,.1.609V634.5h-.171a.566.566,0,0,1-.229-.043.267.267,0,0,1-.142-.166.773.773,0,0,1-.186.158.692.692,0,0,1-.347.094,1.161,1.161,0,0,1-.352-.043.828.828,0,0,1-.3-.156.748.748,0,0,1-.208-.271.875.875,0,0,1-.071-.389.64.64,0,0,1,.4-.636,1.96,1.96,0,0,1,1.072-.046.8.8,0,0,0-.01-.306.464.464,0,0,0-.125-.215.422.422,0,0,0-.31-.1,1.633,1.633,0,0,0-.359.035,1.369,1.369,0,0,1-.256.038.182.182,0,0,1-.156-.064.481.481,0,0,1-.054-.276,2.488,2.488,0,0,1,.239-.081,2.585,2.585,0,0,1,.269-.059,2.03,2.03,0,0,1,.342-.027m-.107,2.119a.682.682,0,0,0,.2-.03.412.412,0,0,0,.173-.1.5.5,0,0,0,.117-.207,1.05,1.05,0,0,0,.037-.335,1.4,1.4,0,0,0-.151-.038c-.046-.007-.1-.014-.166-.021a1.346,1.346,0,0,0-.21-.005.788.788,0,0,0-.139.024.386.386,0,0,0-.132.064.363.363,0,0,0-.1.115.358.358,0,0,0-.039.177.428.428,0,0,0,.032.177.27.27,0,0,0,.088.11.348.348,0,0,0,.132.056.763.763,0,0,0,.159.016" transform="translate(-203.262 -542.735)" fill="#161615"/>
    <path id="Path_1700" data-name="Path 1700" d="M256.007,631.928a.849.849,0,0,1,.371.051.793.793,0,0,1,.32.225,1.191,1.191,0,0,1,.224.413,1.921,1.921,0,0,1,.086.609v1.25h-.171a.754.754,0,0,1-.161-.016.291.291,0,0,1-.129-.065.3.3,0,0,1-.085-.131.649.649,0,0,1-.029-.212v-.8a3.175,3.175,0,0,0-.022-.41.891.891,0,0,0-.068-.26.3.3,0,0,0-.12-.137.4.4,0,0,0-.176-.046.409.409,0,0,0-.188.032.345.345,0,0,0-.146.129.726.726,0,0,0-.1.247,1.845,1.845,0,0,0-.034.386v1.282h-.171a.754.754,0,0,1-.161-.016.29.29,0,0,1-.129-.065.3.3,0,0,1-.086-.131.649.649,0,0,1-.029-.212v-.8a3.166,3.166,0,0,0-.022-.41.886.886,0,0,0-.068-.26.3.3,0,0,0-.117-.137.388.388,0,0,0-.173-.046.423.423,0,0,0-.193.032.343.343,0,0,0-.146.129.694.694,0,0,0-.093.247,1.979,1.979,0,0,0-.032.386v1.282h-.176a.756.756,0,0,1-.161-.016.274.274,0,0,1-.127-.065.31.31,0,0,1-.083-.131.645.645,0,0,1-.029-.212v-2.076h.171a.585.585,0,0,1,.239.046.268.268,0,0,1,.142.19c.013-.014.031-.037.054-.067a.537.537,0,0,1,.085-.089.647.647,0,0,1,.127-.081.524.524,0,0,1,.178-.048.837.837,0,0,1,.459.089.853.853,0,0,1,.361.367q.029-.053.081-.129a.816.816,0,0,1,.124-.142.841.841,0,0,1,.173-.121.578.578,0,0,1,.227-.064" transform="translate(-217.786 -542.713)" fill="#161615"/>
    <path id="Path_1701" data-name="Path 1701" d="M280.806,626.465a.257.257,0,0,1-.2-.094.332.332,0,0,1-.083-.228.315.315,0,0,1,.083-.22.261.261,0,0,1,.2-.091.274.274,0,0,1,.208.091.311.311,0,0,1,.085.22.327.327,0,0,1-.085.228.27.27,0,0,1-.208.094m-.112.279h-.171v2.076a.645.645,0,0,0,.029.212.3.3,0,0,0,.085.131.29.29,0,0,0,.129.064.748.748,0,0,0,.161.016h.171v-2.081a.644.644,0,0,0-.029-.212.282.282,0,0,0-.085-.129.307.307,0,0,0-.129-.062.754.754,0,0,0-.161-.016" transform="translate(-240.92 -537.48)" fill="#161615"/>
    <path id="Path_1702" data-name="Path 1702" d="M287.978,625.544a.291.291,0,0,1,.129.064.3.3,0,0,1,.085.132.644.644,0,0,1,.029.212v3.031h-.171a.75.75,0,0,1-.161-.016.289.289,0,0,1-.129-.064.3.3,0,0,1-.085-.131.647.647,0,0,1-.029-.212v-3.031h.171a.755.755,0,0,1,.161.016" transform="translate(-247.038 -537.219)" fill="#161615"/>
    <path id="Path_1703" data-name="Path 1703" d="M295.1,625.544a.292.292,0,0,1,.129.064.3.3,0,0,1,.085.132.644.644,0,0,1,.029.212v3.031h-.171a.753.753,0,0,1-.161-.016.29.29,0,0,1-.129-.064.3.3,0,0,1-.086-.131.649.649,0,0,1-.029-.212v-3.031h.171a.755.755,0,0,1,.161.016" transform="translate(-253.155 -537.219)" fill="#161615"/>
    <path id="Path_1704" data-name="Path 1704" d="M303.333,632.762a.934.934,0,0,1-.08.362.6.6,0,0,1-.251.274,1.062,1.062,0,0,1-.466.126,2.423,2.423,0,0,1-.73-.086.832.832,0,0,0,.176.477.468.468,0,0,0,.342.15,2.917,2.917,0,0,0,.371-.021,1.324,1.324,0,0,1,.283-.011.27.27,0,0,1,.178.075.343.343,0,0,1,.056.241,1.5,1.5,0,0,1-.239.086,2.386,2.386,0,0,1-.286.056,2.772,2.772,0,0,1-.388.024,1.2,1.2,0,0,1-.4-.07.933.933,0,0,1-.352-.223,1.125,1.125,0,0,1-.249-.4,1.672,1.672,0,0,1-.1-.6,1.628,1.628,0,0,1,.1-.6,1.1,1.1,0,0,1,.249-.392.981.981,0,0,1,.352-.223,1.508,1.508,0,0,1,.4-.089,1.129,1.129,0,0,1,.378.032.993.993,0,0,1,.337.156.817.817,0,0,1,.239.271.7.7,0,0,1,.08.378m-1.528.252a2.126,2.126,0,0,0,.371.078.891.891,0,0,0,.3-.011.417.417,0,0,0,.205-.107.341.341,0,0,0,.093-.212.359.359,0,0,0-.093-.292.416.416,0,0,0-.356-.11.475.475,0,0,0-.342.163.887.887,0,0,0-.176.491" transform="translate(-258.678 -542.71)" fill="#161615"/>
    <path id="Path_1705" data-name="Path 1705" d="M318.971,645.548a.169.169,0,0,1,.176.1.509.509,0,0,1,.037.3,1.446,1.446,0,0,1-.134.429,2.052,2.052,0,0,1-.332.488q0-.145-.01-.365a3.7,3.7,0,0,1,0-.427,1.314,1.314,0,0,1,.071-.359.217.217,0,0,1,.188-.164" transform="translate(-273.711 -554.412)" fill="#161615"/>
    <path id="Path_1706" data-name="Path 1706" d="M334.236,627.733a1.741,1.741,0,0,1-.08.552,1.161,1.161,0,0,1-.225.405.947.947,0,0,1-.347.249,1.122,1.122,0,0,1-.442.086.928.928,0,0,1-.432-.1,1.148,1.148,0,0,1-.349-.279,1.387,1.387,0,0,1-.232-.411,1.445,1.445,0,0,1-.086-.5,1.665,1.665,0,0,1,.1-.609,1.206,1.206,0,0,1,.256-.413.9.9,0,0,1,.352-.225.935.935,0,0,1,.386-.051.653.653,0,0,1,.22.056,1.581,1.581,0,0,1,.166.089,1.272,1.272,0,0,1,.137.118v-1.169h.171a.763.763,0,0,1,.161.016.289.289,0,0,1,.129.064.3.3,0,0,1,.085.131.645.645,0,0,1,.029.212Zm-1.162-.832a.426.426,0,0,0-.3.182.75.75,0,0,0-.112.266,1.388,1.388,0,0,0-.022.427,1.315,1.315,0,0,0,.088.416.776.776,0,0,0,.151.242.391.391,0,0,0,.173.107.459.459,0,0,0,.154.019.43.43,0,0,0,.146-.046.421.421,0,0,0,.154-.14.786.786,0,0,0,.112-.268,1.387,1.387,0,0,0,.022-.427,1.321,1.321,0,0,0-.088-.416.742.742,0,0,0-.151-.239.4.4,0,0,0-.173-.1.469.469,0,0,0-.154-.019" transform="translate(-285.168 -537.219)" fill="#161615"/>
    <path id="Path_1707" data-name="Path 1707" d="M351.71,632.762a.933.933,0,0,1-.08.362.6.6,0,0,1-.251.274,1.063,1.063,0,0,1-.466.126,2.423,2.423,0,0,1-.73-.086.832.832,0,0,0,.176.477.468.468,0,0,0,.342.15,2.917,2.917,0,0,0,.371-.021,1.324,1.324,0,0,1,.283-.011.27.27,0,0,1,.178.075.343.343,0,0,1,.056.241,1.5,1.5,0,0,1-.239.086,2.387,2.387,0,0,1-.286.056,2.772,2.772,0,0,1-.388.024,1.2,1.2,0,0,1-.4-.07.934.934,0,0,1-.352-.223,1.125,1.125,0,0,1-.249-.4,1.672,1.672,0,0,1-.1-.6,1.628,1.628,0,0,1,.1-.6,1.1,1.1,0,0,1,.249-.392.981.981,0,0,1,.352-.223,1.509,1.509,0,0,1,.4-.089,1.129,1.129,0,0,1,.378.032.993.993,0,0,1,.337.156.817.817,0,0,1,.239.271.7.7,0,0,1,.08.378m-1.528.252a2.126,2.126,0,0,0,.371.078.891.891,0,0,0,.3-.011.417.417,0,0,0,.205-.107.341.341,0,0,0,.093-.212.359.359,0,0,0-.093-.292.416.416,0,0,0-.356-.11.475.475,0,0,0-.342.163.887.887,0,0,0-.176.491" transform="translate(-300.226 -542.71)" fill="#161615"/>
    <path id="Path_1708" data-name="Path 1708" d="M374.943,625.544a.292.292,0,0,1,.129.064.3.3,0,0,1,.085.132.643.643,0,0,1,.029.212v3.031h-.171a.751.751,0,0,1-.161-.016.289.289,0,0,1-.129-.064.3.3,0,0,1-.086-.131.647.647,0,0,1-.029-.212v-3.031h.171a.755.755,0,0,1,.161.016" transform="translate(-321.725 -537.219)" fill="#161615"/>
    <path id="Path_1709" data-name="Path 1709" d="M381.918,631.95q.127,0,.293.013a.673.673,0,0,1,.312.107.725.725,0,0,1,.249.306,1.436,1.436,0,0,1,.1.609V634.5H382.7a.566.566,0,0,1-.229-.043.267.267,0,0,1-.142-.166.771.771,0,0,1-.185.158.692.692,0,0,1-.347.094,1.161,1.161,0,0,1-.352-.043.828.828,0,0,1-.3-.156.746.746,0,0,1-.207-.271.873.873,0,0,1-.071-.389.64.64,0,0,1,.4-.636,1.959,1.959,0,0,1,1.072-.046.8.8,0,0,0-.01-.306.464.464,0,0,0-.124-.215.421.421,0,0,0-.31-.1,1.63,1.63,0,0,0-.359.035,1.372,1.372,0,0,1-.256.038.181.181,0,0,1-.156-.064.48.48,0,0,1-.054-.276,2.5,2.5,0,0,1,.239-.081,2.6,2.6,0,0,1,.269-.059,2.028,2.028,0,0,1,.342-.027m-.107,2.119a.682.682,0,0,0,.2-.03.412.412,0,0,0,.173-.1.5.5,0,0,0,.117-.207,1.053,1.053,0,0,0,.037-.335,1.4,1.4,0,0,0-.151-.038c-.046-.007-.1-.014-.166-.021a1.346,1.346,0,0,0-.21-.005.788.788,0,0,0-.139.024.386.386,0,0,0-.132.064.366.366,0,0,0-.1.115.358.358,0,0,0-.039.177.428.428,0,0,0,.032.177.271.271,0,0,0,.088.11.349.349,0,0,0,.132.056.762.762,0,0,0,.159.016" transform="translate(-327.099 -542.735)" fill="#161615"/>
    <path id="Path_1710" data-name="Path 1710" d="M407.087,628.072a.979.979,0,0,1-.117.386.925.925,0,0,1-.229.268,1.129,1.129,0,0,1-.3.169,1.732,1.732,0,0,1-.325.089,2.169,2.169,0,0,1-.31.029,2.2,2.2,0,0,1-.256-.008,2.359,2.359,0,0,1-.352-.056q-.166-.04-.293-.083a2.35,2.35,0,0,1-.278-.107.4.4,0,0,1,.088-.268.249.249,0,0,1,.2-.054,1.35,1.35,0,0,1,.288.064,1.817,1.817,0,0,0,.366.075,1.287,1.287,0,0,0,.322-.008.832.832,0,0,0,.269-.089.579.579,0,0,0,.193-.169.5.5,0,0,0,.09-.249.4.4,0,0,0-.117-.335,1.219,1.219,0,0,0-.337-.22,4.73,4.73,0,0,0-.442-.174,2.266,2.266,0,0,1-.435-.2.949.949,0,0,1-.315-.3.7.7,0,0,1-.083-.475.836.836,0,0,1,.183-.461.994.994,0,0,1,.347-.26,1.328,1.328,0,0,1,.41-.11,1.914,1.914,0,0,1,.374-.005,3.518,3.518,0,0,1,.349.059,2.881,2.881,0,0,1,.3.081,2.359,2.359,0,0,1,.278.107.387.387,0,0,1-.088.266.256.256,0,0,1-.2.051,1.411,1.411,0,0,1-.288-.062,1.976,1.976,0,0,0-.366-.072,1.246,1.246,0,0,0-.283,0,.8.8,0,0,0-.242.064.391.391,0,0,0-.164.134.326.326,0,0,0-.049.215.312.312,0,0,0,.164.241,2.151,2.151,0,0,0,.361.172l.454.169a1.881,1.881,0,0,1,.439.228,1.037,1.037,0,0,1,.315.354.918.918,0,0,1,.083.542" transform="translate(-347.503 -537.21)" fill="#161615"/>
    <path id="Path_1711" data-name="Path 1711" d="M425.659,632.331a1.327,1.327,0,0,1,.237.41,1.464,1.464,0,0,1,.085.507,1.57,1.57,0,0,1-.078.5,1.327,1.327,0,0,1-.22.41,1.02,1.02,0,0,1-.347.279,1.008,1.008,0,0,1-.454.1.92.92,0,0,1-.427-.1,1.15,1.15,0,0,1-.349-.279,1.33,1.33,0,0,1-.237-.41,1.45,1.45,0,0,1-.085-.5,1.586,1.586,0,0,1,.078-.507,1.318,1.318,0,0,1,.22-.41,1.083,1.083,0,0,1,.347-.276.986.986,0,0,1,.454-.1.915.915,0,0,1,.43.1,1.156,1.156,0,0,1,.347.276m-.84,1.743a.447.447,0,0,0,.151-.019.409.409,0,0,0,.173-.107.717.717,0,0,0,.151-.242,1.463,1.463,0,0,0,.09-.416,1.38,1.38,0,0,0-.022-.426.753.753,0,0,0-.112-.266.426.426,0,0,0-.3-.182.465.465,0,0,0-.154.019.4.4,0,0,0-.173.1.737.737,0,0,0-.151.239,1.719,1.719,0,0,0-.071.842.778.778,0,0,0,.112.268.412.412,0,0,0,.156.14.448.448,0,0,0,.149.046" transform="translate(-363.956 -542.735)" fill="#161615"/>
    <path id="Path_1712" data-name="Path 1712" d="M442.027,625.544a.292.292,0,0,1,.129.064.3.3,0,0,1,.085.132.643.643,0,0,1,.029.212v3.031H442.1a.751.751,0,0,1-.161-.016.289.289,0,0,1-.129-.064.3.3,0,0,1-.086-.131.648.648,0,0,1-.029-.212v-3.031h.171a.754.754,0,0,1,.161.016" transform="translate(-379.339 -537.219)" fill="#161615"/>
    <path id="Path_1713" data-name="Path 1713" d="M449.1,626.465a.258.258,0,0,1-.2-.094.332.332,0,0,1-.083-.228.315.315,0,0,1,.083-.22.262.262,0,0,1,.2-.091.275.275,0,0,1,.208.091.311.311,0,0,1,.085.22.327.327,0,0,1-.085.228.27.27,0,0,1-.208.094m-.112.279h-.171v2.076a.645.645,0,0,0,.029.212.3.3,0,0,0,.086.131.289.289,0,0,0,.129.064.75.75,0,0,0,.161.016h.171v-2.081a.644.644,0,0,0-.029-.212.282.282,0,0,0-.085-.129.308.308,0,0,0-.129-.062.754.754,0,0,0-.161-.016" transform="translate(-385.457 -537.48)" fill="#161615"/>
    <path id="Path_1714" data-name="Path 1714" d="M457.442,627.733a1.742,1.742,0,0,1-.081.552,1.161,1.161,0,0,1-.225.405.947.947,0,0,1-.347.249,1.122,1.122,0,0,1-.442.086.929.929,0,0,1-.432-.1,1.147,1.147,0,0,1-.349-.279,1.384,1.384,0,0,1-.232-.411,1.445,1.445,0,0,1-.086-.5,1.664,1.664,0,0,1,.1-.609,1.206,1.206,0,0,1,.256-.413.9.9,0,0,1,.352-.225.935.935,0,0,1,.386-.051.653.653,0,0,1,.22.056,1.587,1.587,0,0,1,.166.089,1.27,1.27,0,0,1,.137.118v-1.169h.171a.763.763,0,0,1,.161.016.289.289,0,0,1,.129.064.3.3,0,0,1,.085.131.646.646,0,0,1,.029.212Zm-1.162-.832a.426.426,0,0,0-.3.182.75.75,0,0,0-.112.266,1.388,1.388,0,0,0-.022.427,1.314,1.314,0,0,0,.088.416.775.775,0,0,0,.151.242.391.391,0,0,0,.173.107.459.459,0,0,0,.154.019.43.43,0,0,0,.146-.046.421.421,0,0,0,.154-.14.787.787,0,0,0,.112-.268,1.388,1.388,0,0,0,.022-.427,1.319,1.319,0,0,0-.088-.416.741.741,0,0,0-.151-.239.4.4,0,0,0-.173-.1.469.469,0,0,0-.154-.019" transform="translate(-390.98 -537.219)" fill="#161615"/>
    <path id="Path_1715" data-name="Path 1715" d="M473.658,631.95q.127,0,.293.013a.673.673,0,0,1,.312.107.726.726,0,0,1,.249.306,1.435,1.435,0,0,1,.1.609V634.5h-.171a.566.566,0,0,1-.229-.043.267.267,0,0,1-.142-.166.771.771,0,0,1-.185.158.692.692,0,0,1-.347.094,1.161,1.161,0,0,1-.352-.043.828.828,0,0,1-.3-.156.746.746,0,0,1-.208-.271.873.873,0,0,1-.071-.389.64.64,0,0,1,.4-.636,1.959,1.959,0,0,1,1.071-.046.8.8,0,0,0-.01-.306.464.464,0,0,0-.124-.215.422.422,0,0,0-.31-.1,1.631,1.631,0,0,0-.359.035,1.372,1.372,0,0,1-.256.038.181.181,0,0,1-.156-.064.48.48,0,0,1-.054-.276,2.5,2.5,0,0,1,.239-.081,2.6,2.6,0,0,1,.269-.059,2.029,2.029,0,0,1,.342-.027m-.107,2.119a.683.683,0,0,0,.2-.03.412.412,0,0,0,.173-.1.5.5,0,0,0,.117-.207,1.054,1.054,0,0,0,.037-.335,1.4,1.4,0,0,0-.151-.038c-.046-.007-.1-.014-.166-.021a1.346,1.346,0,0,0-.21-.005.789.789,0,0,0-.139.024.386.386,0,0,0-.132.064.366.366,0,0,0-.1.115.358.358,0,0,0-.039.177.429.429,0,0,0,.032.177.271.271,0,0,0,.088.11.349.349,0,0,0,.132.056.762.762,0,0,0,.159.016" transform="translate(-405.888 -542.735)" fill="#161615"/>
    <path id="Path_1716" data-name="Path 1716" d="M490.549,632.38a.315.315,0,0,0-.33.15,1.207,1.207,0,0,0-.124.644v1.282h-.171a.753.753,0,0,1-.161-.016.29.29,0,0,1-.129-.064.3.3,0,0,1-.086-.131.643.643,0,0,1-.029-.212v-2.076h.171a.6.6,0,0,1,.244.046.268.268,0,0,1,.142.19c.016-.021.037-.047.064-.078a.672.672,0,0,1,.093-.089.617.617,0,0,1,.122-.075.51.51,0,0,1,.156-.043.937.937,0,0,1,.268.005,1.215,1.215,0,0,1,.185.048.6.6,0,0,1,.147.086.4.4,0,0,1-.068.2.383.383,0,0,1-.166.123.6.6,0,0,1-.327.011" transform="translate(-420.411 -542.693)" fill="#161615"/>
    <path id="Path_1717" data-name="Path 1717" d="M502.6,626.465a.258.258,0,0,1-.2-.094.332.332,0,0,1-.083-.228.316.316,0,0,1,.083-.22.262.262,0,0,1,.2-.091.275.275,0,0,1,.208.091.311.311,0,0,1,.085.22.327.327,0,0,1-.085.228.27.27,0,0,1-.208.094m-.112.279h-.171v2.076a.646.646,0,0,0,.029.212.3.3,0,0,0,.086.131.289.289,0,0,0,.129.064.749.749,0,0,0,.161.016h.171v-2.081a.646.646,0,0,0-.029-.212.283.283,0,0,0-.085-.129.308.308,0,0,0-.129-.062.754.754,0,0,0-.161-.016" transform="translate(-431.399 -537.48)" fill="#161615"/>
    <path id="Path_1718" data-name="Path 1718" d="M510.627,626.483a1.008,1.008,0,0,1-.015.177.326.326,0,0,1-.059.139.282.282,0,0,1-.119.091.5.5,0,0,1-.193.032h-.229v2.06h-.171a.753.753,0,0,1-.161-.016.29.29,0,0,1-.129-.064.3.3,0,0,1-.085-.131.64.64,0,0,1-.029-.212v-3.031h.171a.747.747,0,0,1,.161.016.291.291,0,0,1,.129.064.3.3,0,0,1,.086.131.649.649,0,0,1,.029.212v.531Z" transform="translate(-437.517 -537.219)" fill="#161615"/>
    <path id="Path_1719" data-name="Path 1719" d="M520.974,626.437a.934.934,0,0,1-.08.362.6.6,0,0,1-.251.274,1.063,1.063,0,0,1-.466.126,2.422,2.422,0,0,1-.73-.086.832.832,0,0,0,.176.477.468.468,0,0,0,.342.15,2.915,2.915,0,0,0,.371-.021,1.328,1.328,0,0,1,.283-.011.27.27,0,0,1,.178.075.343.343,0,0,1,.056.241,1.494,1.494,0,0,1-.239.086,2.389,2.389,0,0,1-.286.056,2.771,2.771,0,0,1-.388.024,1.2,1.2,0,0,1-.4-.07.935.935,0,0,1-.352-.223,1.124,1.124,0,0,1-.249-.4,1.673,1.673,0,0,1-.1-.6,1.628,1.628,0,0,1,.1-.6,1.1,1.1,0,0,1,.249-.392.98.98,0,0,1,.352-.223,1.506,1.506,0,0,1,.4-.089,1.129,1.129,0,0,1,.378.032.994.994,0,0,1,.337.156.818.818,0,0,1,.239.271.7.7,0,0,1,.08.378m-.552-1.819a.189.189,0,0,1,.041.2.442.442,0,0,1-.173.212,1.2,1.2,0,0,1-.356.166,1.5,1.5,0,0,1-.5.056,2.34,2.34,0,0,0,.234-.233,3.214,3.214,0,0,1,.268-.268.991.991,0,0,1,.264-.174.182.182,0,0,1,.22.043m-.976,2.071a2.137,2.137,0,0,0,.371.078.89.89,0,0,0,.3-.011.418.418,0,0,0,.205-.107.341.341,0,0,0,.093-.212.36.36,0,0,0-.093-.292.416.416,0,0,0-.356-.11.475.475,0,0,0-.342.164.886.886,0,0,0-.176.491" transform="translate(-445.594 -536.385)" fill="#161615"/>
    <path id="Path_1720" data-name="Path 1720" d="M536.613,645.548a.169.169,0,0,1,.176.1.509.509,0,0,1,.037.3,1.446,1.446,0,0,1-.134.429,2.05,2.05,0,0,1-.332.488q0-.145-.01-.365a3.675,3.675,0,0,1,0-.427,1.308,1.308,0,0,1,.071-.359.217.217,0,0,1,.188-.164" transform="translate(-460.627 -554.412)" fill="#161615"/>
    <path id="Path_1721" data-name="Path 1721" d="M3.35,673.332a1.74,1.74,0,0,1-.081.552,1.157,1.157,0,0,1-.225.405.946.946,0,0,1-.347.249,1.121,1.121,0,0,1-.442.086.928.928,0,0,1-.432-.1,1.149,1.149,0,0,1-.349-.279,1.381,1.381,0,0,1-.232-.411,1.446,1.446,0,0,1-.085-.5,1.664,1.664,0,0,1,.1-.609,1.207,1.207,0,0,1,.256-.413.9.9,0,0,1,.351-.225.935.935,0,0,1,.386-.051.653.653,0,0,1,.22.056,1.6,1.6,0,0,1,.166.089,1.266,1.266,0,0,1,.137.118v-1.17h.171a.759.759,0,0,1,.161.016.29.29,0,0,1,.129.064.3.3,0,0,1,.085.131.645.645,0,0,1,.029.212ZM2.188,672.5a.426.426,0,0,0-.3.182.752.752,0,0,0-.112.266,1.388,1.388,0,0,0-.022.427,1.318,1.318,0,0,0,.088.416.774.774,0,0,0,.151.242.389.389,0,0,0,.173.107.455.455,0,0,0,.154.019.426.426,0,0,0,.146-.045.419.419,0,0,0,.154-.14.784.784,0,0,0,.112-.268,1.388,1.388,0,0,0,.022-.427,1.324,1.324,0,0,0-.088-.416.745.745,0,0,0-.151-.239.4.4,0,0,0-.173-.1.469.469,0,0,0-.154-.019" transform="translate(-0.995 -576.381)" fill="#161615"/>
    <path id="Path_1722" data-name="Path 1722" d="M20.822,678.362a.939.939,0,0,1-.081.362.6.6,0,0,1-.251.274,1.064,1.064,0,0,1-.466.126,2.425,2.425,0,0,1-.73-.086.831.831,0,0,0,.176.477.467.467,0,0,0,.342.15,2.914,2.914,0,0,0,.371-.021,1.325,1.325,0,0,1,.283-.011.27.27,0,0,1,.178.075.342.342,0,0,1,.056.241,1.5,1.5,0,0,1-.239.086,2.416,2.416,0,0,1-.286.056,2.782,2.782,0,0,1-.388.024,1.205,1.205,0,0,1-.4-.07.935.935,0,0,1-.352-.223,1.124,1.124,0,0,1-.249-.4,1.672,1.672,0,0,1-.1-.6,1.629,1.629,0,0,1,.1-.6,1.1,1.1,0,0,1,.249-.392.98.98,0,0,1,.352-.223,1.512,1.512,0,0,1,.4-.089,1.13,1.13,0,0,1,.378.032.993.993,0,0,1,.337.156.816.816,0,0,1,.239.271.7.7,0,0,1,.081.378m-1.528.252a2.125,2.125,0,0,0,.371.078.9.9,0,0,0,.3-.011.417.417,0,0,0,.2-.107.34.34,0,0,0,.093-.212.359.359,0,0,0-.093-.292.416.416,0,0,0-.356-.11.475.475,0,0,0-.342.164.886.886,0,0,0-.176.491" transform="translate(-16.051 -581.873)" fill="#161615"/>
    <path id="Path_1723" data-name="Path 1723" d="M44.056,671.144a.292.292,0,0,1,.129.064.3.3,0,0,1,.085.131.644.644,0,0,1,.029.212v3.031h-.171a.752.752,0,0,1-.161-.016.29.29,0,0,1-.129-.064.3.3,0,0,1-.085-.131.648.648,0,0,1-.029-.212v-3.031h.171a.759.759,0,0,1,.161.016" transform="translate(-37.551 -576.382)" fill="#161615"/>
    <path id="Path_1724" data-name="Path 1724" d="M50.329,670.721q.044-.134.088-.29.039-.134.078-.3t.073-.354a.879.879,0,0,1,.11-.317.5.5,0,0,1,.139-.15.279.279,0,0,1,.171-.048.168.168,0,0,1,.173.1.446.446,0,0,1,.015.249,1.323,1.323,0,0,1-.112.33,2.142,2.142,0,0,1-.2.341,1.765,1.765,0,0,1-.256.284.647.647,0,0,1-.276.156" transform="translate(-43.224 -574.779)" fill="#161615"/>
    <path id="Path_1725" data-name="Path 1725" d="M61.309,667.656a.993.993,0,0,1-.015.177.348.348,0,0,1-.059.142.277.277,0,0,1-.12.094.5.5,0,0,1-.193.032h-.5a2.985,2.985,0,0,1-.615-.054,1.076,1.076,0,0,1-.4-.164.624.624,0,0,1-.222-.282,1.1,1.1,0,0,1-.068-.408v-2a.742.742,0,0,1,.046-.29.382.382,0,0,1,.124-.164.44.44,0,0,1,.181-.075,1.178,1.178,0,0,1,.215-.019H61.2a.98.98,0,0,1-.015.177.35.35,0,0,1-.058.142.276.276,0,0,1-.12.094.494.494,0,0,1-.193.032H59.693v.933h1.26a.992.992,0,0,1-.015.177.347.347,0,0,1-.059.142.274.274,0,0,1-.12.094.5.5,0,0,1-.193.032h-.874v.7q0,.091.007.177a.249.249,0,0,0,.071.153.465.465,0,0,0,.208.11,1.543,1.543,0,0,0,.417.043Zm-.547-4.013a.185.185,0,0,1,.039.2.474.474,0,0,1-.176.215,1.165,1.165,0,0,1-.354.169,1.483,1.483,0,0,1-.5.056,3,3,0,0,0,.234-.239,3.193,3.193,0,0,1,.269-.268.986.986,0,0,1,.264-.174.182.182,0,0,1,.22.043" transform="translate(-50.767 -569.901)" fill="#161615"/>
    <path id="Path_1726" data-name="Path 1726" d="M78.213,677.555v2.157a1.673,1.673,0,0,1-.1.6,1.127,1.127,0,0,1-.249.4.936.936,0,0,1-.352.223,1.207,1.207,0,0,1-.4.07,2.585,2.585,0,0,1-.359-.024c-.116-.016-.221-.035-.315-.056a2.6,2.6,0,0,1-.308-.08.442.442,0,0,1,.107-.3.322.322,0,0,1,.217-.075,1.319,1.319,0,0,1,.293.038,1.512,1.512,0,0,0,.339.038.491.491,0,0,0,.21-.046.43.43,0,0,0,.168-.145.755.755,0,0,0,.11-.257,1.629,1.629,0,0,0,.039-.384v-.145a.662.662,0,0,1-.286.182.944.944,0,0,1-.227.043,1.25,1.25,0,0,1-.417-.037.877.877,0,0,1-.359-.19.947.947,0,0,1-.249-.367,1.529,1.529,0,0,1-.093-.569,1.5,1.5,0,0,1,.071-.469,1.031,1.031,0,0,1,.21-.373.838.838,0,0,1,.349-.231,1.12,1.12,0,0,1,.488-.048.732.732,0,0,1,.364.129,1.5,1.5,0,0,1,.188.161.27.27,0,0,1,.142-.2.6.6,0,0,1,.244-.046Zm-.6,1.121a.9.9,0,0,0-.022-.344.541.541,0,0,0-.115-.212.423.423,0,0,0-.159-.11.573.573,0,0,0-.159-.038.818.818,0,0,0-.156.005.457.457,0,0,0-.185.067.487.487,0,0,0-.164.18.86.86,0,0,0-.09.349.977.977,0,0,0,.022.386.58.58,0,0,0,.12.223.369.369,0,0,0,.161.1.739.739,0,0,0,.156.032.747.747,0,0,0,.161-.008.389.389,0,0,0,.181-.08.583.583,0,0,0,.156-.2,1.024,1.024,0,0,0,.093-.357" transform="translate(-65.26 -581.854)" fill="#161615"/>
    <path id="Path_1727" data-name="Path 1727" d="M94.982,677.549q.127,0,.293.013a.672.672,0,0,1,.312.107.725.725,0,0,1,.249.306,1.437,1.437,0,0,1,.1.609V680.1h-.171a.566.566,0,0,1-.229-.043.267.267,0,0,1-.142-.166.773.773,0,0,1-.186.158.692.692,0,0,1-.347.094,1.163,1.163,0,0,1-.352-.043.827.827,0,0,1-.3-.156.746.746,0,0,1-.208-.271.875.875,0,0,1-.071-.389.64.64,0,0,1,.4-.636A1.96,1.96,0,0,1,95.4,678.6a.8.8,0,0,0-.01-.306.464.464,0,0,0-.125-.215.423.423,0,0,0-.31-.1,1.632,1.632,0,0,0-.359.035,1.363,1.363,0,0,1-.256.038.181.181,0,0,1-.156-.064.48.48,0,0,1-.054-.276,2.454,2.454,0,0,1,.239-.081,2.568,2.568,0,0,1,.269-.059,2.043,2.043,0,0,1,.342-.027m-.107,2.119a.682.682,0,0,0,.2-.029.412.412,0,0,0,.173-.1.5.5,0,0,0,.117-.207,1.05,1.05,0,0,0,.037-.335,1.442,1.442,0,0,0-.151-.038c-.046-.007-.1-.014-.166-.021a1.324,1.324,0,0,0-.21-.005.783.783,0,0,0-.139.024.383.383,0,0,0-.132.064.363.363,0,0,0-.1.115.358.358,0,0,0-.039.177.428.428,0,0,0,.032.177.269.269,0,0,0,.088.11.348.348,0,0,0,.132.056.763.763,0,0,0,.159.016" transform="translate(-80.671 -581.896)" fill="#161615"/>
    <path id="Path_1728" data-name="Path 1728" d="M111.175,671.144a.292.292,0,0,1,.129.064.3.3,0,0,1,.085.131.644.644,0,0,1,.029.212v3.031h-.171a.752.752,0,0,1-.161-.016.29.29,0,0,1-.129-.064.3.3,0,0,1-.085-.131.648.648,0,0,1-.029-.212v-3.031h.171a.759.759,0,0,1,.161.016" transform="translate(-95.195 -576.382)" fill="#161615"/>
    <path id="Path_1729" data-name="Path 1729" d="M118.25,672.064a.258.258,0,0,1-.2-.094.332.332,0,0,1-.083-.228.316.316,0,0,1,.083-.22.262.262,0,0,1,.2-.091.274.274,0,0,1,.208.091.311.311,0,0,1,.085.22.326.326,0,0,1-.085.228.27.27,0,0,1-.208.094m-.112.279h-.171v2.076a.649.649,0,0,0,.029.212.3.3,0,0,0,.085.131.293.293,0,0,0,.129.064.754.754,0,0,0,.161.016h.171v-2.082a.649.649,0,0,0-.029-.212.282.282,0,0,0-.086-.129.307.307,0,0,0-.129-.062.754.754,0,0,0-.161-.016" transform="translate(-101.313 -576.642)" fill="#161615"/>
    <path id="Path_1730" data-name="Path 1730" d="M126.28,672.082a.994.994,0,0,1-.015.177.327.327,0,0,1-.059.139.283.283,0,0,1-.12.091.5.5,0,0,1-.193.032h-.229v2.06h-.171a.757.757,0,0,1-.161-.016.291.291,0,0,1-.129-.064.3.3,0,0,1-.085-.131.649.649,0,0,1-.029-.212v-3.031h.171a.75.75,0,0,1,.161.016.29.29,0,0,1,.129.064.3.3,0,0,1,.086.131.649.649,0,0,1,.029.212v.531Z" transform="translate(-107.43 -576.381)" fill="#161615"/>
    <path id="Path_1731" data-name="Path 1731" d="M136.627,672.037a.94.94,0,0,1-.081.362.6.6,0,0,1-.251.274,1.062,1.062,0,0,1-.466.126,2.417,2.417,0,0,1-.73-.086.831.831,0,0,0,.176.477.468.468,0,0,0,.342.15,2.913,2.913,0,0,0,.371-.021,1.324,1.324,0,0,1,.283-.011.27.27,0,0,1,.178.075.342.342,0,0,1,.056.241,1.5,1.5,0,0,1-.239.086,2.391,2.391,0,0,1-.286.056,2.762,2.762,0,0,1-.388.024,1.2,1.2,0,0,1-.4-.07.933.933,0,0,1-.352-.223,1.125,1.125,0,0,1-.249-.4,1.672,1.672,0,0,1-.1-.6,1.628,1.628,0,0,1,.1-.6,1.1,1.1,0,0,1,.249-.392.983.983,0,0,1,.352-.223,1.512,1.512,0,0,1,.4-.089,1.127,1.127,0,0,1,.378.032.993.993,0,0,1,.337.156.816.816,0,0,1,.239.271.7.7,0,0,1,.081.378m-.552-1.819a.189.189,0,0,1,.042.2.443.443,0,0,1-.173.212,1.2,1.2,0,0,1-.356.166,1.5,1.5,0,0,1-.5.056,2.364,2.364,0,0,0,.234-.233,3.2,3.2,0,0,1,.269-.268.984.984,0,0,1,.264-.174.182.182,0,0,1,.22.043m-.976,2.071a2.126,2.126,0,0,0,.371.078.889.889,0,0,0,.3-.011.416.416,0,0,0,.2-.107.34.34,0,0,0,.093-.212.359.359,0,0,0-.093-.292.416.416,0,0,0-.356-.11.475.475,0,0,0-.342.163.886.886,0,0,0-.176.491" transform="translate(-115.507 -575.547)" fill="#161615"/>
    <path id="Path_1732" data-name="Path 1732" d="M160.971,678.362a.939.939,0,0,1-.081.362.6.6,0,0,1-.251.274,1.064,1.064,0,0,1-.466.126,2.425,2.425,0,0,1-.73-.086.831.831,0,0,0,.176.477.468.468,0,0,0,.342.15,2.914,2.914,0,0,0,.371-.021,1.325,1.325,0,0,1,.283-.011.27.27,0,0,1,.178.075.342.342,0,0,1,.056.241,1.5,1.5,0,0,1-.239.086,2.416,2.416,0,0,1-.286.056,2.782,2.782,0,0,1-.388.024,1.205,1.205,0,0,1-.4-.07.935.935,0,0,1-.352-.223,1.124,1.124,0,0,1-.249-.4,1.673,1.673,0,0,1-.1-.6,1.629,1.629,0,0,1,.1-.6,1.1,1.1,0,0,1,.249-.392.981.981,0,0,1,.352-.223,1.512,1.512,0,0,1,.4-.089,1.13,1.13,0,0,1,.378.032.993.993,0,0,1,.337.156.816.816,0,0,1,.239.271.7.7,0,0,1,.081.378m-1.528.252a2.126,2.126,0,0,0,.371.078.9.9,0,0,0,.3-.011.417.417,0,0,0,.2-.107.339.339,0,0,0,.093-.212.359.359,0,0,0-.093-.292.416.416,0,0,0-.356-.11.475.475,0,0,0-.342.164.886.886,0,0,0-.176.491" transform="translate(-136.414 -581.873)" fill="#161615"/>
    <path id="Path_1733" data-name="Path 1733" d="M177.526,672.082a.992.992,0,0,1-.015.177.327.327,0,0,1-.059.139.283.283,0,0,1-.12.091.5.5,0,0,1-.193.032h-.229v2.06h-.171a.757.757,0,0,1-.161-.016.291.291,0,0,1-.129-.064.3.3,0,0,1-.085-.131.649.649,0,0,1-.029-.212v-3.031h.171a.75.75,0,0,1,.161.016.29.29,0,0,1,.129.064.3.3,0,0,1,.086.131.649.649,0,0,1,.029.212v.531Z" transform="translate(-151.441 -576.381)" fill="#161615"/>
    <path id="Path_1734" data-name="Path 1734" d="M195.471,673.332a1.74,1.74,0,0,1-.081.552,1.158,1.158,0,0,1-.225.405.947.947,0,0,1-.347.249,1.121,1.121,0,0,1-.442.086.928.928,0,0,1-.432-.1,1.149,1.149,0,0,1-.349-.279,1.381,1.381,0,0,1-.232-.411,1.445,1.445,0,0,1-.085-.5,1.664,1.664,0,0,1,.1-.609,1.207,1.207,0,0,1,.256-.413.9.9,0,0,1,.351-.225.935.935,0,0,1,.386-.051.652.652,0,0,1,.22.056,1.6,1.6,0,0,1,.166.089,1.267,1.267,0,0,1,.137.118v-1.17h.171a.759.759,0,0,1,.161.016.29.29,0,0,1,.129.064.3.3,0,0,1,.085.131.646.646,0,0,1,.029.212Zm-1.162-.832a.426.426,0,0,0-.3.182.751.751,0,0,0-.112.266,1.389,1.389,0,0,0-.022.427,1.319,1.319,0,0,0,.088.416.774.774,0,0,0,.151.242.389.389,0,0,0,.173.107.454.454,0,0,0,.154.019.426.426,0,0,0,.146-.045.419.419,0,0,0,.154-.14.784.784,0,0,0,.112-.268,1.387,1.387,0,0,0,.022-.427,1.324,1.324,0,0,0-.088-.416.745.745,0,0,0-.151-.239.4.4,0,0,0-.173-.1.469.469,0,0,0-.154-.019" transform="translate(-165.993 -576.381)" fill="#161615"/>
    <path id="Path_1735" data-name="Path 1735" d="M212.255,680.434a.952.952,0,0,1-.388-.051.9.9,0,0,1-.354-.225,1.21,1.21,0,0,1-.256-.41,1.642,1.642,0,0,1-.1-.606v-1.25h.171a.742.742,0,0,1,.161.016.306.306,0,0,1,.129.062.283.283,0,0,1,.086.129.65.65,0,0,1,.029.212v.8a1.914,1.914,0,0,0,.037.413.751.751,0,0,0,.1.257.379.379,0,0,0,.154.137.512.512,0,0,0,.19.046.54.54,0,0,0,.2-.029.4.4,0,0,0,.181-.129.724.724,0,0,0,.127-.247,1.3,1.3,0,0,0,.049-.389v-1.277h.171a.742.742,0,0,1,.161.016.307.307,0,0,1,.129.062.282.282,0,0,1,.085.129.65.65,0,0,1,.029.212v2.081h-.171a.568.568,0,0,1-.244-.048.274.274,0,0,1-.142-.188l-.073.064a1.076,1.076,0,0,1-.117.089.819.819,0,0,1-.159.081.76.76,0,0,1-.193.045" transform="translate(-181.347 -582.19)" fill="#161615"/>
    <path id="Path_1736" data-name="Path 1736" d="M238.607,671.108a1.546,1.546,0,0,1,.63.158,1.567,1.567,0,0,1,.486.375,1.666,1.666,0,0,1,.313.547,2.01,2.01,0,0,1,.11.668,1.986,1.986,0,0,1-.11.665,1.671,1.671,0,0,1-.313.545,1.569,1.569,0,0,1-.486.375,1.543,1.543,0,0,1-.63.158,2.564,2.564,0,0,1-.613-.035,1,1,0,0,1-.405-.166.653.653,0,0,1-.222-.292,1.143,1.143,0,0,1-.068-.413v-2.419q.176-.053.381-.1.176-.032.412-.057a3.694,3.694,0,0,1,.515-.013m-.024,3.063a.83.83,0,0,0,.391-.121.853.853,0,0,0,.273-.279,1.309,1.309,0,0,0,.159-.408,2.371,2.371,0,0,0,.051-.507,2.452,2.452,0,0,0-.041-.448,1.355,1.355,0,0,0-.142-.405.931.931,0,0,0-.269-.306.891.891,0,0,0-.422-.155,1.531,1.531,0,0,0-.308-.011,1.066,1.066,0,0,0-.22.037.694.694,0,0,0-.176.07v2.049q0,.091.007.182a.271.271,0,0,0,.073.164.435.435,0,0,0,.208.113,1.322,1.322,0,0,0,.415.024" transform="translate(-203.798 -576.361)" fill="#161615"/>
    <path id="Path_1737" data-name="Path 1737" d="M261.251,672.037a.939.939,0,0,1-.081.362.6.6,0,0,1-.251.274,1.062,1.062,0,0,1-.466.126,2.417,2.417,0,0,1-.73-.086.831.831,0,0,0,.176.477.468.468,0,0,0,.342.15,2.913,2.913,0,0,0,.371-.021,1.324,1.324,0,0,1,.283-.011.27.27,0,0,1,.178.075.342.342,0,0,1,.056.241,1.5,1.5,0,0,1-.239.086,2.392,2.392,0,0,1-.286.056,2.762,2.762,0,0,1-.388.024,1.2,1.2,0,0,1-.4-.07.933.933,0,0,1-.352-.223,1.124,1.124,0,0,1-.249-.4,1.672,1.672,0,0,1-.1-.6,1.628,1.628,0,0,1,.1-.6,1.1,1.1,0,0,1,.249-.392.982.982,0,0,1,.352-.223,1.512,1.512,0,0,1,.4-.089,1.127,1.127,0,0,1,.378.032.993.993,0,0,1,.337.156.817.817,0,0,1,.239.271.7.7,0,0,1,.081.378m-.552-1.819a.189.189,0,0,1,.042.2.443.443,0,0,1-.173.212,1.2,1.2,0,0,1-.356.166,1.5,1.5,0,0,1-.5.056,2.367,2.367,0,0,0,.234-.233,3.2,3.2,0,0,1,.268-.268.984.984,0,0,1,.264-.174.182.182,0,0,1,.22.043m-.976,2.071a2.126,2.126,0,0,0,.371.078.889.889,0,0,0,.3-.011.416.416,0,0,0,.2-.107.34.34,0,0,0,.093-.212.359.359,0,0,0-.093-.292.416.416,0,0,0-.356-.11.475.475,0,0,0-.342.163.886.886,0,0,0-.176.491" transform="translate(-222.537 -575.547)" fill="#161615"/>
    <path id="Path_1738" data-name="Path 1738" d="M276.94,677.968a.531.531,0,0,1,.166-.306.441.441,0,0,1,.225-.1.57.57,0,0,1,.278.043c-.007.029-.015.059-.025.091s-.014.059-.022.091-.017.066-.027.1q-.054.209-.125.467t-.159.523q-.088.266-.19.523t-.21.467a.44.44,0,0,1-.2.22.664.664,0,0,1-.234.059.75.75,0,0,1-.273-.043,2.109,2.109,0,0,1-.271-.461q-.124-.279-.232-.588t-.19-.617q-.083-.309-.146-.55-.015-.054-.027-.1c-.008-.032-.015-.063-.022-.091a.539.539,0,0,1-.019-.091.583.583,0,0,1,.283-.043.429.429,0,0,1,.222.1.54.54,0,0,1,.163.306q.1.44.2.738t.166.485a3.448,3.448,0,0,0,.156.354,3.093,3.093,0,0,0,.147-.333q.068-.182.164-.485t.212-.759" transform="translate(-236.375 -581.908)" fill="#161615"/>
    <path id="Path_1739" data-name="Path 1739" d="M295.174,678.362a.933.933,0,0,1-.08.362.6.6,0,0,1-.251.274,1.064,1.064,0,0,1-.466.126,2.425,2.425,0,0,1-.73-.086.832.832,0,0,0,.176.477.468.468,0,0,0,.342.15,2.919,2.919,0,0,0,.371-.021,1.324,1.324,0,0,1,.283-.011.27.27,0,0,1,.178.075.343.343,0,0,1,.056.241,1.5,1.5,0,0,1-.239.086,2.411,2.411,0,0,1-.286.056,2.782,2.782,0,0,1-.388.024,1.2,1.2,0,0,1-.4-.07.934.934,0,0,1-.352-.223,1.124,1.124,0,0,1-.249-.4,1.676,1.676,0,0,1-.1-.6,1.632,1.632,0,0,1,.1-.6,1.1,1.1,0,0,1,.249-.392.98.98,0,0,1,.352-.223,1.511,1.511,0,0,1,.4-.089,1.13,1.13,0,0,1,.378.032.993.993,0,0,1,.337.156.816.816,0,0,1,.239.271.7.7,0,0,1,.08.378m-1.528.252a2.126,2.126,0,0,0,.371.078.9.9,0,0,0,.3-.011.417.417,0,0,0,.205-.107.341.341,0,0,0,.093-.212.359.359,0,0,0-.093-.292.416.416,0,0,0-.356-.11.475.475,0,0,0-.342.164.887.887,0,0,0-.176.491" transform="translate(-251.671 -581.873)" fill="#161615"/>
    <path id="Path_1740" data-name="Path 1740" d="M310.868,671.144a.293.293,0,0,1,.129.064.3.3,0,0,1,.085.131.645.645,0,0,1,.029.212v3.031h-.171a.75.75,0,0,1-.161-.016.289.289,0,0,1-.129-.064.3.3,0,0,1-.086-.131.648.648,0,0,1-.029-.212v-3.031h.171a.759.759,0,0,1,.161.016" transform="translate(-266.696 -576.382)" fill="#161615"/>
    <path id="Path_1741" data-name="Path 1741" d="M318.843,677.931a1.328,1.328,0,0,1,.237.41,1.464,1.464,0,0,1,.085.507,1.569,1.569,0,0,1-.078.5,1.324,1.324,0,0,1-.22.41,1.02,1.02,0,0,1-.347.279,1.009,1.009,0,0,1-.454.1.921.921,0,0,1-.427-.1,1.151,1.151,0,0,1-.349-.279,1.328,1.328,0,0,1-.237-.41,1.45,1.45,0,0,1-.085-.5,1.587,1.587,0,0,1,.078-.507,1.319,1.319,0,0,1,.22-.41,1.084,1.084,0,0,1,.347-.276.986.986,0,0,1,.454-.1.915.915,0,0,1,.43.1,1.158,1.158,0,0,1,.347.276m-.84,1.744a.452.452,0,0,0,.151-.019.409.409,0,0,0,.173-.107.717.717,0,0,0,.151-.242,1.462,1.462,0,0,0,.09-.416,1.381,1.381,0,0,0-.022-.426.752.752,0,0,0-.112-.266.426.426,0,0,0-.3-.182.46.46,0,0,0-.154.019.4.4,0,0,0-.173.1.735.735,0,0,0-.151.239,1.719,1.719,0,0,0-.071.842.778.778,0,0,0,.112.268.41.41,0,0,0,.156.14.449.449,0,0,0,.149.046" transform="translate(-272.22 -581.897)" fill="#161615"/>
    <path id="Path_1742" data-name="Path 1742" d="M335.891,677.517a.959.959,0,0,1,.513.078.933.933,0,0,1,.351.293,1.233,1.233,0,0,1,.2.432,1.9,1.9,0,0,1,.056.5,1.726,1.726,0,0,1-.081.5,1.236,1.236,0,0,1-.222.41,1.067,1.067,0,0,1-.351.279,1.028,1.028,0,0,1-.464.1.636.636,0,0,1-.183-.024.844.844,0,0,1-.139-.054.446.446,0,0,1-.1-.062q-.037-.032-.051-.048v1.094h-.171a.747.747,0,0,1-.161-.016.291.291,0,0,1-.129-.064.3.3,0,0,1-.085-.132.65.65,0,0,1-.029-.212v-3.015h.171a.605.605,0,0,1,.222.037.263.263,0,0,1,.144.15,1.273,1.273,0,0,1,.2-.145.744.744,0,0,1,.31-.1m-.513,1.244a1.329,1.329,0,0,0,.024.429.748.748,0,0,0,.12.266.443.443,0,0,0,.315.185.5.5,0,0,0,.161-.019.434.434,0,0,0,.181-.1.722.722,0,0,0,.159-.236,1.245,1.245,0,0,0,.09-.413,1.51,1.51,0,0,0-.02-.435.7.7,0,0,0-.112-.268.431.431,0,0,0-.161-.137.476.476,0,0,0-.161-.045.553.553,0,0,0-.161.016.412.412,0,0,0-.183.1.733.733,0,0,0-.161.239,1.252,1.252,0,0,0-.09.418" transform="translate(-287.574 -581.864)" fill="#161615"/>
    <path id="Path_1743" data-name="Path 1743" d="M353.595,677.517a.959.959,0,0,1,.513.078.933.933,0,0,1,.351.293,1.233,1.233,0,0,1,.2.432,1.894,1.894,0,0,1,.056.5,1.727,1.727,0,0,1-.081.5,1.236,1.236,0,0,1-.222.41,1.067,1.067,0,0,1-.351.279,1.028,1.028,0,0,1-.464.1.636.636,0,0,1-.183-.024.845.845,0,0,1-.139-.054.448.448,0,0,1-.1-.062q-.037-.032-.051-.048v1.094h-.171a.747.747,0,0,1-.161-.016.291.291,0,0,1-.129-.064.3.3,0,0,1-.085-.132.648.648,0,0,1-.029-.212v-3.015h.171a.605.605,0,0,1,.222.037.263.263,0,0,1,.144.15,1.275,1.275,0,0,1,.2-.145.745.745,0,0,1,.31-.1m-.513,1.244a1.328,1.328,0,0,0,.024.429.747.747,0,0,0,.12.266.443.443,0,0,0,.315.185.5.5,0,0,0,.161-.019.434.434,0,0,0,.181-.1.721.721,0,0,0,.159-.236,1.244,1.244,0,0,0,.09-.413,1.511,1.511,0,0,0-.02-.435.7.7,0,0,0-.112-.268.431.431,0,0,0-.161-.137.476.476,0,0,0-.161-.045.552.552,0,0,0-.161.016.412.412,0,0,0-.183.1.733.733,0,0,0-.161.239,1.252,1.252,0,0,0-.09.418" transform="translate(-302.779 -581.864)" fill="#161615"/>
    <path id="Path_1744" data-name="Path 1744" d="M371.731,678.362a.934.934,0,0,1-.08.362.6.6,0,0,1-.251.274,1.064,1.064,0,0,1-.466.126,2.425,2.425,0,0,1-.73-.086.832.832,0,0,0,.176.477.468.468,0,0,0,.342.15,2.918,2.918,0,0,0,.371-.021,1.324,1.324,0,0,1,.283-.011.27.27,0,0,1,.178.075.343.343,0,0,1,.056.241,1.5,1.5,0,0,1-.239.086,2.411,2.411,0,0,1-.286.056,2.782,2.782,0,0,1-.388.024,1.2,1.2,0,0,1-.4-.07.935.935,0,0,1-.352-.223,1.124,1.124,0,0,1-.249-.4,1.672,1.672,0,0,1-.1-.6,1.629,1.629,0,0,1,.1-.6,1.1,1.1,0,0,1,.249-.392.981.981,0,0,1,.352-.223,1.511,1.511,0,0,1,.4-.089,1.13,1.13,0,0,1,.378.032.993.993,0,0,1,.337.156.816.816,0,0,1,.239.271.7.7,0,0,1,.08.378m-1.528.252a2.125,2.125,0,0,0,.371.078.9.9,0,0,0,.3-.011.416.416,0,0,0,.205-.107.341.341,0,0,0,.093-.212.359.359,0,0,0-.093-.292.416.416,0,0,0-.356-.11.475.475,0,0,0-.342.164.887.887,0,0,0-.176.491" transform="translate(-317.42 -581.873)" fill="#161615"/>
    <path id="Path_1745" data-name="Path 1745" d="M389.516,677.528a.852.852,0,0,1,.371.051.793.793,0,0,1,.32.225,1.19,1.19,0,0,1,.224.413,1.921,1.921,0,0,1,.086.609v1.25h-.171a.751.751,0,0,1-.161-.016.291.291,0,0,1-.129-.065.3.3,0,0,1-.085-.131.645.645,0,0,1-.029-.212v-.8a3.191,3.191,0,0,0-.022-.41.886.886,0,0,0-.068-.26.293.293,0,0,0-.12-.137.4.4,0,0,0-.176-.046.409.409,0,0,0-.188.032.343.343,0,0,0-.146.129.725.725,0,0,0-.1.247,1.844,1.844,0,0,0-.034.386v1.282h-.171a.749.749,0,0,1-.161-.016.289.289,0,0,1-.129-.065.3.3,0,0,1-.086-.131.65.65,0,0,1-.029-.212v-.8a3.165,3.165,0,0,0-.022-.41.885.885,0,0,0-.068-.26.3.3,0,0,0-.117-.137.388.388,0,0,0-.173-.046.422.422,0,0,0-.193.032.343.343,0,0,0-.146.129.691.691,0,0,0-.093.247,1.978,1.978,0,0,0-.032.386v1.282H387.5a.75.75,0,0,1-.161-.016.272.272,0,0,1-.127-.065.31.31,0,0,1-.083-.131.645.645,0,0,1-.029-.212v-2.076h.171a.584.584,0,0,1,.239.046.268.268,0,0,1,.142.191c.013-.014.031-.037.054-.067a.54.54,0,0,1,.085-.089.638.638,0,0,1,.127-.08.521.521,0,0,1,.178-.048.838.838,0,0,1,.459.089.853.853,0,0,1,.361.367c.02-.036.046-.079.08-.129a.823.823,0,0,1,.125-.142.844.844,0,0,1,.173-.121.581.581,0,0,1,.227-.064" transform="translate(-332.447 -581.876)" fill="#161615"/>
    <path id="Path_1746" data-name="Path 1746" d="M415.473,678.362a.933.933,0,0,1-.08.362.6.6,0,0,1-.251.274,1.064,1.064,0,0,1-.466.126,2.425,2.425,0,0,1-.73-.086.832.832,0,0,0,.176.477.468.468,0,0,0,.342.15,2.918,2.918,0,0,0,.371-.021,1.324,1.324,0,0,1,.283-.011.27.27,0,0,1,.178.075.343.343,0,0,1,.056.241,1.5,1.5,0,0,1-.239.086,2.408,2.408,0,0,1-.286.056,2.782,2.782,0,0,1-.388.024,1.2,1.2,0,0,1-.4-.07.934.934,0,0,1-.352-.223,1.124,1.124,0,0,1-.249-.4,1.672,1.672,0,0,1-.1-.6,1.629,1.629,0,0,1,.1-.6,1.1,1.1,0,0,1,.249-.392.98.98,0,0,1,.352-.223,1.511,1.511,0,0,1,.4-.089,1.13,1.13,0,0,1,.378.032.993.993,0,0,1,.337.156.816.816,0,0,1,.239.271.7.7,0,0,1,.08.378m-1.528.252a2.126,2.126,0,0,0,.371.078.9.9,0,0,0,.3-.011.417.417,0,0,0,.205-.107.34.34,0,0,0,.093-.212.359.359,0,0,0-.093-.292.416.416,0,0,0-.356-.11.475.475,0,0,0-.342.164.887.887,0,0,0-.176.491" transform="translate(-354.987 -581.873)" fill="#161615"/>
    <path id="Path_1747" data-name="Path 1747" d="M431.937,677.531a.951.951,0,0,1,.388.051.9.9,0,0,1,.354.226,1.208,1.208,0,0,1,.256.413,1.663,1.663,0,0,1,.1.609v1.25h-.171a.753.753,0,0,1-.161-.016.29.29,0,0,1-.129-.064.3.3,0,0,1-.086-.131.649.649,0,0,1-.029-.212v-.8a1.92,1.92,0,0,0-.037-.41.753.753,0,0,0-.1-.26.378.378,0,0,0-.154-.137.52.52,0,0,0-.4-.013.433.433,0,0,0-.181.129.7.7,0,0,0-.127.247,1.309,1.309,0,0,0-.049.386v1.282h-.171a.755.755,0,0,1-.161-.016.291.291,0,0,1-.129-.064.3.3,0,0,1-.085-.131.646.646,0,0,1-.029-.212v-2.076h.171a.6.6,0,0,1,.244.046.267.267,0,0,1,.142.19c.013-.014.037-.037.071-.067a.907.907,0,0,1,.12-.089,1.082,1.082,0,0,1,.159-.08.688.688,0,0,1,.193-.048" transform="translate(-370.015 -581.878)" fill="#161615"/>
    <path id="Path_1748" data-name="Path 1748" d="M450.287,672.082a.994.994,0,0,1-.015.177.328.328,0,0,1-.059.139.283.283,0,0,1-.119.091.5.5,0,0,1-.193.032h-.229v2.06H449.5a.76.76,0,0,1-.161-.016.291.291,0,0,1-.129-.064.3.3,0,0,1-.085-.131.645.645,0,0,1-.029-.212v-3.031h.171a.749.749,0,0,1,.161.016.291.291,0,0,1,.129.064.3.3,0,0,1,.085.131.65.65,0,0,1,.029.212v.531Z" transform="translate(-385.695 -576.381)" fill="#161615"/>
    <path id="Path_1749" data-name="Path 1749" d="M468.5,673.672a.98.98,0,0,1-.117.386.924.924,0,0,1-.229.268,1.125,1.125,0,0,1-.3.169,1.723,1.723,0,0,1-.325.089,2.16,2.16,0,0,1-.31.029,2.214,2.214,0,0,1-.256-.008,2.359,2.359,0,0,1-.352-.056c-.111-.027-.208-.054-.293-.083a2.365,2.365,0,0,1-.278-.107.4.4,0,0,1,.088-.268.25.25,0,0,1,.2-.054,1.345,1.345,0,0,1,.288.064,1.83,1.83,0,0,0,.366.075,1.293,1.293,0,0,0,.322-.008.831.831,0,0,0,.269-.089.579.579,0,0,0,.193-.169.5.5,0,0,0,.09-.249.4.4,0,0,0-.117-.335,1.217,1.217,0,0,0-.337-.22,4.726,4.726,0,0,0-.442-.174,2.265,2.265,0,0,1-.435-.2.949.949,0,0,1-.315-.3.7.7,0,0,1-.083-.475.837.837,0,0,1,.183-.462,1,1,0,0,1,.347-.26,1.328,1.328,0,0,1,.41-.11,1.915,1.915,0,0,1,.374-.005,3.521,3.521,0,0,1,.349.059,2.88,2.88,0,0,1,.3.081,2.351,2.351,0,0,1,.278.107.386.386,0,0,1-.088.266.256.256,0,0,1-.2.051,1.406,1.406,0,0,1-.288-.062,1.975,1.975,0,0,0-.366-.072,1.245,1.245,0,0,0-.283,0,.8.8,0,0,0-.242.064.392.392,0,0,0-.164.134.326.326,0,0,0-.049.215.312.312,0,0,0,.164.241,2.147,2.147,0,0,0,.361.172l.454.169a1.882,1.882,0,0,1,.439.228,1.037,1.037,0,0,1,.315.354.917.917,0,0,1,.083.542" transform="translate(-400.246 -576.373)" fill="#161615"/>
    <path id="Path_1750" data-name="Path 1750" d="M487.071,677.931a1.326,1.326,0,0,1,.237.41,1.465,1.465,0,0,1,.085.507,1.569,1.569,0,0,1-.078.5,1.325,1.325,0,0,1-.22.41,1.021,1.021,0,0,1-.347.279,1.009,1.009,0,0,1-.454.1.921.921,0,0,1-.427-.1,1.151,1.151,0,0,1-.349-.279,1.328,1.328,0,0,1-.237-.41,1.449,1.449,0,0,1-.085-.5,1.587,1.587,0,0,1,.078-.507,1.317,1.317,0,0,1,.22-.41,1.084,1.084,0,0,1,.347-.276.985.985,0,0,1,.454-.1.915.915,0,0,1,.43.1,1.158,1.158,0,0,1,.347.276m-.84,1.744a.452.452,0,0,0,.151-.019.409.409,0,0,0,.173-.107.718.718,0,0,0,.151-.242,1.464,1.464,0,0,0,.09-.416,1.384,1.384,0,0,0-.022-.426.752.752,0,0,0-.112-.266.426.426,0,0,0-.3-.182.46.46,0,0,0-.154.019.4.4,0,0,0-.173.1.736.736,0,0,0-.151.239,1.722,1.722,0,0,0-.071.842.779.779,0,0,0,.112.268.411.411,0,0,0,.156.14.449.449,0,0,0,.149.046" transform="translate(-416.699 -581.897)" fill="#161615"/>
    <path id="Path_1751" data-name="Path 1751" d="M503.54,679.712a1.608,1.608,0,0,0,.354-.035,1.377,1.377,0,0,1,.256-.037.182.182,0,0,1,.156.064.469.469,0,0,1,.054.271,1.765,1.765,0,0,1-.239.086,2.26,2.26,0,0,1-.266.056,2.194,2.194,0,0,1-.339.024,1.2,1.2,0,0,1-.4-.07.936.936,0,0,1-.352-.223,1.127,1.127,0,0,1-.249-.4,1.674,1.674,0,0,1-.1-.6,1.7,1.7,0,0,1,.1-.6,1.119,1.119,0,0,1,.249-.4.933.933,0,0,1,.352-.223,1.2,1.2,0,0,1,.4-.07,2,2,0,0,1,.339.027,2.637,2.637,0,0,1,.266.059,2.509,2.509,0,0,1,.239.08.481.481,0,0,1-.054.276.181.181,0,0,1-.156.064,1.345,1.345,0,0,1-.256-.037,1.608,1.608,0,0,0-.354-.035.449.449,0,0,0-.381.2,1.152,1.152,0,0,0-.147.66,1.167,1.167,0,0,0,.144.66.447.447,0,0,0,.383.2" transform="translate(-431.488 -581.897)" fill="#161615"/>
    <path id="Path_1752" data-name="Path 1752" d="M518.641,672.064a.258.258,0,0,1-.2-.094.332.332,0,0,1-.083-.228.316.316,0,0,1,.083-.22.262.262,0,0,1,.2-.091.274.274,0,0,1,.207.091.311.311,0,0,1,.085.22.326.326,0,0,1-.085.228.27.27,0,0,1-.207.094m-.112.279h-.171v2.076a.646.646,0,0,0,.029.212.3.3,0,0,0,.086.131.292.292,0,0,0,.129.064.753.753,0,0,0,.161.016h.171v-2.082a.645.645,0,0,0-.029-.212.281.281,0,0,0-.085-.129.309.309,0,0,0-.129-.062.754.754,0,0,0-.161-.016" transform="translate(-445.179 -576.642)" fill="#161615"/>
    <path id="Path_1753" data-name="Path 1753" d="M525.665,677.549q.127,0,.293.013a.672.672,0,0,1,.312.107.726.726,0,0,1,.249.306,1.433,1.433,0,0,1,.1.609V680.1h-.171a.567.567,0,0,1-.229-.043.268.268,0,0,1-.142-.166.769.769,0,0,1-.185.158.691.691,0,0,1-.347.094,1.162,1.162,0,0,1-.352-.043.826.826,0,0,1-.3-.156.745.745,0,0,1-.208-.271.872.872,0,0,1-.071-.389.64.64,0,0,1,.4-.636,1.96,1.96,0,0,1,1.072-.046.8.8,0,0,0-.01-.306.463.463,0,0,0-.124-.215.423.423,0,0,0-.31-.1,1.63,1.63,0,0,0-.359.035,1.369,1.369,0,0,1-.257.038.181.181,0,0,1-.156-.064.478.478,0,0,1-.054-.276,2.476,2.476,0,0,1,.239-.081,2.571,2.571,0,0,1,.268-.059,2.042,2.042,0,0,1,.342-.027m-.107,2.119a.683.683,0,0,0,.2-.029.414.414,0,0,0,.174-.1.5.5,0,0,0,.117-.207,1.054,1.054,0,0,0,.037-.335,1.447,1.447,0,0,0-.151-.038q-.068-.011-.166-.021a1.326,1.326,0,0,0-.21-.005.786.786,0,0,0-.139.024.381.381,0,0,0-.132.064.364.364,0,0,0-.1.115.358.358,0,0,0-.039.177.43.43,0,0,0,.032.177.271.271,0,0,0,.088.11.35.35,0,0,0,.132.056.762.762,0,0,0,.159.016" transform="translate(-450.553 -581.896)" fill="#161615"/>
    <path id="Path_1754" data-name="Path 1754" d="M541.857,671.144a.293.293,0,0,1,.129.064.3.3,0,0,1,.085.131.645.645,0,0,1,.029.212v3.031h-.171a.75.75,0,0,1-.161-.016.289.289,0,0,1-.129-.064.3.3,0,0,1-.086-.131.648.648,0,0,1-.029-.212v-3.031h.171a.76.76,0,0,1,.161.016" transform="translate(-465.075 -576.382)" fill="#161615"/>
  </g>
</svg>
