<?xml version="1.0" encoding="UTF-8"?><svg id="a" xmlns="http://www.w3.org/2000/svg" viewBox="0 0 174.4 141"><defs><style>.b{fill:#239447;}.c{fill:#1f4692;}.d{fill:#d1e7d2;}.e{fill:#1d1d1b;}</style></defs><g><path class="c" d="M132.14,4.8c0,2.36,0,4.73,0,7.09,0,8.18,0,16.36,0,24.54v.55h-3.93V8.78H46.22v29.69h-3.9c-.1-.13-.06-.29-.06-.43,0-10.95,0-21.89,0-32.84,0-.13,.02-.27,.02-.4h89.86Z"/><path class="c" d="M42.28,94.62c0-.13-.02-.27-.02-.4,0-10.29,0-20.57,0-30.86v-.39h3.93v27.66h81.98v-29.17h3.93c.09,.1,.04,.24,.04,.37,0,10.87,0,21.74,0,32.61,0,.06,0,.12,0,.18H42.28Z"/><path class="d" d="M95.98,12.81c.16-.16,.37-.08,.55-.09,2.68-.16,5.29,.12,7.79,1.3,1.77,.83,3.37,1.94,4.74,3.38,1.57,1.65,2.78,3.58,3.58,5.81,.78,2.17,1.09,4.43,.98,6.75-.08,1.71-.45,3.36-1.05,4.94-.82,2.18-2.02,4.09-3.61,5.7-1.2,1.22-2.53,2.23-4.02,2.98-.09,.05-.17,.09-.27,.06-2.16,.23-4.3,.07-6.38-.62-2.5-.83-4.72-2.21-6.57-4.26-3.63-4.05-5.04-8.87-4.08-14.44,.64-3.71,2.41-6.74,5.05-9.18,1.01-.93,2.13-1.67,3.29-2.34Z"/><path class="b" d="M39.76,53.25c.4-.47,.88-.84,1.33-1.23,2.22-1.9,4.66-3.41,7.29-4.53,2.56-1.09,5.21-1.74,7.95-1.93,3.66-.26,7.32-.33,10.98-.11,3.1,.19,6.17,.64,9.2,1.36,2.25,.53,4.49,1.09,6.74,1.61,4.91,1.12,9.89,1.37,14.89,1.29,5.11-.08,10.19-.51,15.25-1.23,1.2-.17,2.39-.52,3.58-.82,4.58-1.18,9.06-2.7,13.47-4.48,2.23-.9,4.44-1.87,6.63-2.9,.17-.08,.34-.17,.51-.26,.05,.21-.13,.24-.22,.32-.44,.41-.88,.8-1.33,1.2-2.78,2.45-5.77,4.54-8.94,6.33-3.48,1.96-7.11,3.5-10.91,4.56-2.59,.73-5.22,1.22-7.88,1.51-3.37,.36-6.75,.48-10.14,.31-2.97-.14-5.93-.44-8.88-.86-3.07-.44-6.12-1.01-9.17-1.61-3.81-.75-7.62-1.55-11.46-2.18-2.93-.48-5.87-.88-8.83-.9-3.19-.02-6.35,.32-9.48,.99-3.26,.7-6.44,1.7-9.51,3.12-.35,.16-.67,.4-1.07,.44Z"/><path class="d" d="M39.76,53.25c.39-.03,.72-.28,1.07-.44,3.07-1.41,6.25-2.41,9.51-3.12,3.13-.68,6.29-1.01,9.48-.99,2.97,.01,5.9,.41,8.83,.9,3.83,.63,7.64,1.42,11.46,2.18,3.05,.6,6.1,1.17,9.17,1.61,2.95,.42,5.91,.72,8.88,.86,3.39,.16,6.77,.05,10.14-.31,2.66-.29,5.29-.78,7.88-1.51,3.8-1.07,7.43-2.6,10.91-4.56,3.17-1.79,6.16-3.89,8.94-6.33,.45-.39,.9-.79,1.33-1.2,.09-.08,.27-.11,.22-.32,.07-.11,.16-.15,.34-.11-.22,.51-.54,.91-.82,1.33-1.05,1.57-2.23,3.02-3.52,4.36-1.62,1.7-3.34,3.26-5.2,4.64-1.86,1.38-3.81,2.59-5.85,3.61-2.99,1.5-6.11,2.59-9.35,3.25-1.64,.33-3.29,.55-4.94,.74-2.9,.33-5.8,.31-8.7,.22-2.1-.07-4.19-.29-6.28-.57-2.87-.38-5.72-.9-8.56-1.47-2.23-.45-4.44-.98-6.66-1.46-2.6-.56-5.19-1.14-7.79-1.65-2.05-.4-4.12-.71-6.2-.93-1.76-.19-3.51-.29-5.27-.37-.93-.04-1.86-.07-2.79-.05-2.08,.03-4.15,.14-6.22,.34-3.09,.29-6.15,.74-9.18,1.5-.37,.09-.74,.16-1.15,.3,.05-.26,.17-.37,.33-.44Z"/><path class="b" d="M95.98,12.81c-1.17,.67-2.28,1.41-3.29,2.34-2.64,2.44-4.41,5.47-5.05,9.18-.96,5.57,.45,10.39,4.08,14.44,1.84,2.05,4.06,3.43,6.57,4.26,2.08,.69,4.22,.86,6.38,.62-.8,.54-1.7,.8-2.59,1.05-1.76,.48-3.56,.68-5.38,.49-2.84-.29-5.44-1.28-7.79-3.06-1.79-1.36-3.27-3.04-4.37-5.1-1.89-3.52-2.5-7.31-1.72-11.31,.87-4.48,3.18-7.91,6.69-10.38,1.97-1.39,4.14-2.23,6.48-2.53Z"/></g><g><path class="e" d="M6.91,104.73c.12-.06,.31-.25,.55-.56,.05,.07,.12,.17,.22,.3,.09,.09,.23,.14,.43,.14,.22,0,.42-.06,.6-.18,.18-.12,.28-.28,.28-.47,0-.13-.06-.29-.19-.47-.13-.18-.28-.28-.47-.28-.28,0-.49,.06-.61,.17-.12,.11-.24,.31-.35,.58-.1-.22-.2-.37-.29-.43-.09-.07-.25-.1-.47-.1-.21,0-.38,.04-.53,.12-.15,.08-.22,.25-.22,.53,0,.23,.07,.42,.2,.55,.13,.14,.28,.2,.44,.2,.15,0,.29-.03,.41-.09Z"/><path class="e" d="M12.11,112.56c-.22,0-.41,.07-.55,.21-.14,.14-.21,.28-.21,.44,0,.18,.08,.35,.23,.51,.15,.16,.29,.24,.42,.24,.24,0,.43-.08,.55-.24,.13-.16,.19-.33,.19-.52,0-.21-.05-.38-.15-.48-.1-.11-.26-.16-.5-.16Z"/><path class="e" d="M13.91,112.52c-.22,0-.4,.07-.54,.21-.14,.14-.21,.28-.21,.44,0,.27,.06,.45,.17,.54,.12,.09,.24,.17,.36,.21,.21,0,.41-.06,.59-.18,.18-.12,.27-.31,.27-.57,0-.19-.04-.34-.13-.46-.09-.12-.26-.18-.52-.18Z"/><path class="e" d="M21.68,109.9c-.15-.12-.38-.18-.69-.18-.18,0-.55,.05-1.1,.14-.56,.09-.98,.14-1.27,.14-.42,0-.78-.1-1.11-.31-.32-.21-.51-.43-.57-.66-.06-.23-.09-.45-.09-.63v-.24c.15,.13,.34,.22,.56,.28,.22,.06,.41,.09,.58,.09,.29,0,.52-.09,.7-.26,.18-.17,.27-.37,.27-.6,0-.72-.43-1.08-1.29-1.08-.68,0-1.22,.2-1.64,.6-.41,.4-.62,.81-.62,1.23,0,.28,.04,.5,.12,.65,.08,.15,.23,.44,.46,.86-.22,.07-.43,.12-.62,.15-.14,.02-.27,.04-.39,.04v-.02h-.43c-.37,0-.68-.19-.92-.58-.25-.39-.39-.58-.42-.58-.25,0-.43,.19-.53,.58-.1,.39-.5,.58-1.19,.58h-1.04c-.05-.22-.09-.56-.11-1.02v-.89c0-.3,0-.59,0-.87s0-.56,0-.84c0-.43-.1-.77-.31-1.03-.21-.26-.47-.39-.78-.39-.28,0-.51,.04-.69,.13-.18,.09-.27,.31-.27,.65,0,.14,.11,.27,.34,.42,.23,.14,.36,.27,.41,.37,.05,.1,.09,.24,.13,.42,.04,.17,.04,.3,0,.38-.66,.18-1.32,.36-1.98,.54-.56,.32-.85,.85-.85,1.58,0,.79,.17,1.29,.52,1.5,.35,.21,.69,.33,1.04,.39,.05-.02,.12-.03,.19-.03,.08,0,.28,0,.61,0h.19c.09,0,.16,0,.23,.01-.04,.1-.16,.24-.34,.42s-.29,.33-.33,.44c.6,0,1.03-.14,1.29-.43,.26-.29,.62-.43,1.07-.43h1.22c.15-.01,.27-.07,.34-.19,.07-.12,.18-.3,.3-.54,.11,.1,.23,.25,.37,.45,.14,.2,.26,.3,.36,.3,.05,0,.12-.01,.2-.04h2.9c.09,0,.47-.04,1.12-.13,.65-.09,1.39-.13,2.22-.13,.04,0,.21,.02,.53,.07s.54,.07,.68,.07c.26,0,.46-.05,.6-.15,.14-.1,.21-.28,.21-.55,0-.32-.08-.55-.23-.67Zm-12.84,.15c-.06,0-.19,0-.4,.01-.21,0-.38-.02-.52-.07-.14-.04-.21-.13-.21-.26,0-.17,.02-.33,.06-.47,.04-.14,.11-.26,.21-.34s.26-.18,.48-.27c.22-.09,.41-.14,.57-.14,.2,0,.3,.08,.3,.24l.07,.63,.03,.23c0,.28-.19,.43-.58,.43Z"/><path class="e" d="M38.67,106.98c.24,0,.43-.08,.55-.23,.13-.16,.19-.33,.19-.52,0-.22-.05-.38-.15-.49-.1-.11-.26-.16-.5-.16s-.41,.07-.55,.21c-.14,.14-.21,.29-.21,.44,0,.18,.08,.35,.23,.51,.15,.16,.29,.24,.42,.24Z"/><path class="e" d="M40.32,106.98c.22,0,.42-.06,.59-.18,.18-.12,.27-.31,.27-.57,0-.19-.04-.34-.13-.47-.09-.12-.26-.18-.51-.18-.22,0-.41,.07-.55,.21-.14,.14-.21,.29-.21,.44,0,.27,.06,.45,.18,.54,.12,.09,.24,.16,.36,.21Z"/><path class="e" d="M49.43,109.97c-.16-.11-.41-.17-.76-.17h-.35c-.25,0-.47-.02-.66-.07-.19-.04-.4-.16-.63-.34s-.6-.62-1.1-1.32-1.12-1.04-1.85-1.04c-.39,0-.73,.09-1,.26-.27,.17-.4,.44-.4,.82,0,.24,.05,.46,.15,.66,.1,.21,.31,.31,.63,.31,.12,0,.24-.04,.36-.13,.12-.09,.26-.2,.42-.34,.29,.13,.59,.25,.89,.37,.38,.19,.56,.51,.56,.97-.43,.04-.94,.07-1.52,.11-.58,.04-1.14,.05-1.68,.05-.24,0-.44,0-.61,0-.08,0-.15,0-.23,0h-.43c-.37,0-.68-.2-.92-.59-.25-.39-.39-.58-.42-.58-.25,0-.43,.19-.53,.58-.1,.39-.5,.58-1.19,.58h-1.14c-.08,0-.26-.25-.53-.74-.27-.49-.69-.74-1.26-.74-.41,0-.72,.15-.94,.45-.22,.3-.39,.64-.51,1.03h-8.1c-.04-.17-.11-.43-.21-.79-.09-.36-.21-.88-.36-1.56-.14-.68-.27-1.42-.39-2.21,0-.1,.02-.35,.09-.77,.07-.41,.11-.71,.11-.88,0-.26-.05-.48-.15-.66-.1-.18-.24-.27-.42-.27-.23,0-.47,.11-.73,.34-.25,.23-.38,.57-.38,1.02,0,.28,.08,.58,.25,.87,.17,.3,.33,.58,.48,.83l.72,4.05c0,.73-.09,1.27-.26,1.63-.24,.31-.4,.55-.49,.72l.07,.2c.42-.14,.75-.37,.98-.69,.23-.31,.39-.49,.48-.54,.09-.04,.23-.07,.42-.07,.12,0,.22,0,.3,0v.04h7.44c.11-.01,.18,0,.22,0,.05,0,.2,.19,.45,.57,.25,.38,.62,.57,1.13,.57,.46,0,.81-.19,1.04-.57s.41-.57,.53-.57h1.73c.15,0,.27-.06,.34-.18,.07-.12,.18-.3,.3-.54,.11,.1,.23,.25,.37,.45,.14,.2,.26,.3,.36,.3,.05,0,.12-.01,.2-.04h1.83c.41-.01,.97-.03,1.67-.07s1.7-.05,2.98-.05c.39,0,.84,.06,1.35,.19s.78,.19,.84,.19c.25,0,.42-.08,.53-.23,.11-.16,.16-.38,.16-.66,0-.41-.08-.67-.24-.79Zm-13.75,1.12c-.04,.13-.14,.2-.3,.2-.25,0-.41-.19-.47-.56-.02-.09-.03-.16-.03-.2,0-.17,.03-.32,.1-.44,.07-.12,.16-.19,.28-.19,.15,0,.27,.07,.34,.2,.07,.13,.12,.29,.14,.48,0,.21-.02,.39-.07,.52Z"/><path class="e" d="M46.35,112.34c-.22,0-.41,.07-.55,.21-.14,.14-.21,.28-.21,.44,0,.18,.08,.35,.23,.51,.15,.16,.29,.24,.42,.24,.23,0,.41-.08,.55-.24,.13-.16,.2-.33,.2-.51,0-.43-.21-.64-.64-.64Z"/><path class="e" d="M58.33,102.02c-.13,0-.28,.05-.46,.16l-.03,.03c-.13,.15-.27,.34-.41,.55-.14,.21-.21,.42-.21,.6,0,.24,.13,.39,.39,.46,.06,.03,.11,.05,.17,.07,.06,.02,.11,.03,.16,.03,.1,.26,.16,.52,.19,.78,.03,.26,.05,.58,.05,.97,0,.15,0,.39-.01,.71,0,.32-.01,.57-.01,.74,0,.37-.04,.77-.13,1.21-.09,.44-.17,.83-.26,1.18v-.99c0-1.44-.43-2.7-1.29-3.8-.86-1.1-1.97-1.65-3.34-1.65-.44,0-.88,.21-1.34,.63s-.76,.87-.93,1.35c-.17,.48-.25,.87-.25,1.17,.03,.02,.06,.03,.09,.04,.34-.71,.64-1.23,.89-1.56s.53-.51,.84-.55c.31-.03,.5-.06,.58-.07,.07,0,.15-.01,.22-.01,1.11,0,2.04,.54,2.78,1.61,.74,1.07,1.11,2.28,1.11,3.61v.53c0,.21-.13,.36-.38,.46-.25,.09-.61,.18-1.06,.25-.46,.07-.85,.11-1.19,.11-.77,0-1.46-.17-2.08-.52-.61-.34-1.13-.88-1.54-1.61-.03-.08-.08-.23-.16-.45-.05-.1-.1-.19-.15-.3,0,.07-.01,.16-.01,.28,0,.33,.06,.67,.17,1,.11,.34,.22,.58,.33,.74,.63,.82,1.21,1.32,1.72,1.49,.51,.18,1.25,.27,2.22,.27l.37-.03c-.02,.16,.01,.33,.1,.51,.08,.18,.18,.3,.29,.38,.11,.08,.25,.11,.41,.11,.31,0,.63-.11,.99-.32,.22-.15,.36-.35,.42-.59,.05-.24,.11-.53,.16-.87,.21-.15,.43-.42,.64-.81,.21-.39,.38-.98,.51-1.78,.12-.8,.18-1.77,.18-2.92l.04-1.31c0-.54-.06-1-.19-1.37-.13-.37-.32-.56-.58-.56Z"/><path class="e" d="M61.54,104.92c0-.29,.03-.55,.1-.79,.07-.24,.13-.47,.19-.68,.03-.14,0-.31-.1-.51-.09-.21-.26-.31-.49-.31-.32,0-.62,.16-.91,.49-.29,.33-.41,.69-.37,1.08,.11,.14,.22,.27,.33,.39,.11,.12,.18,.3,.21,.53l.23,2.54c.02,.21,.03,.43,.05,.68,.02,.25,.03,.46,.03,.62,0,.18,0,.37-.03,.56-.02,.19-.06,.43-.12,.7-.06,.27-.17,.55-.33,.84-.16,.29-.43,.67-.82,1.15,.73-.21,1.31-.66,1.75-1.36,.44-.7,.66-1.24,.66-1.62,0-.47-.06-1.16-.19-2.07-.12-.91-.19-1.65-.19-2.23Z"/><path class="e" d="M66.58,104.73c.12-.06,.31-.25,.55-.56,.05,.07,.12,.17,.22,.3,.09,.09,.23,.14,.43,.14,.22,0,.42-.06,.6-.18,.18-.12,.28-.28,.28-.47,0-.13-.06-.29-.19-.47-.13-.18-.28-.28-.47-.28-.28,0-.49,.06-.61,.17-.12,.11-.24,.31-.35,.58-.1-.22-.2-.37-.29-.43-.09-.07-.25-.1-.47-.1-.21,0-.38,.04-.53,.12-.15,.08-.22,.25-.22,.53,0,.23,.07,.42,.2,.55,.13,.14,.28,.2,.44,.2,.15,0,.29-.03,.41-.09Z"/><path class="e" d="M73.45,111.17c.15-.32,.23-.69,.23-1.11,0-.59-.13-1.08-.4-1.48-.27-.39-.52-.59-.74-.59-.29,0-.52,.09-.69,.28-.17,.19-.26,.38-.26,.58s.06,.35,.19,.5c.13,.14,.28,.21,.46,.21,.21,0,.32,.03,.35,.08s.05,.1,.09,.14c.03,.04,.05,.12,.05,.22,0,.06,0,.11-.01,.15,0,.04-.02,.08-.04,.11-.39-.1-.6-.15-.64-.16-.04,0-.24,0-.61,0h-1.3c-.05-.22-.09-.56-.11-1.02v-.89c0-.3,0-.59,0-.87s0-.56,0-.84c0-.43-.1-.77-.31-1.03-.21-.26-.47-.39-.78-.39-.28,0-.51,.04-.69,.13-.18,.09-.27,.31-.27,.65,0,.14,.11,.27,.34,.42,.23,.14,.36,.27,.41,.37,.05,.1,.09,.24,.13,.42,.04,.17,.04,.3,0,.38-.66,.18-1.32,.36-1.98,.54-.56,.32-.85,.85-.85,1.58,0,.79,.17,1.29,.52,1.5,.35,.21,.69,.33,1.04,.39,.05-.02,.12-.03,.19-.03,.08,0,.28,0,.61,0h.19c.09,0,.16,0,.23,.01-.04,.1-.16,.24-.34,.42s-.29,.33-.33,.44c.6,0,1.03-.14,1.29-.43,.26-.29,.62-.43,1.07-.43h.74c.57-.01,.96,.02,1.16,.08s.35,.11,.46,.16c.22,0,.41-.16,.56-.47Zm-4.93-1.11c-.06,0-.19,0-.4,.01-.21,0-.38-.02-.52-.07-.14-.04-.21-.13-.21-.26,0-.17,.02-.33,.06-.47,.04-.14,.11-.26,.21-.34s.26-.18,.48-.27c.22-.09,.41-.14,.57-.14,.2,0,.3,.08,.3,.24l.07,.63,.03,.23c0,.28-.19,.43-.58,.43Z"/><path class="e" d="M73.44,112.63c-.22,0-.41,.07-.55,.21-.14,.14-.21,.28-.21,.44,0,.27,.06,.45,.17,.55,.12,.09,.24,.16,.36,.21,.21,0,.41-.06,.59-.18,.18-.12,.27-.31,.27-.57,0-.19-.04-.34-.13-.46-.09-.12-.26-.18-.51-.18Z"/><path class="e" d="M71.78,112.77c-.22,0-.41,.07-.55,.21-.14,.14-.21,.29-.21,.44,0,.18,.08,.35,.23,.51,.15,.16,.29,.24,.42,.24,.24,0,.43-.08,.55-.23,.13-.16,.19-.33,.19-.52,0-.21-.05-.38-.15-.49-.1-.11-.26-.16-.5-.16Z"/><path class="e" d="M90.21,111.39c.12,0,.26,.1,.44,.29,.18,.19,.3,.29,.37,.29,.51,0,.86-.34,1.04-1.01,.18-.67,.28-1.35,.28-2.03,0-.29-.02-.61-.07-.94-.04-.33-.08-.6-.11-.8-.03-.2-.09-.58-.19-1.14-.1-.56-.15-1.06-.15-1.5,0-.07,0-.18,.02-.35,.02-.17,.03-.3,.03-.39,0-.28-.08-.53-.23-.76-.16-.23-.31-.34-.48-.34-.25,0-.49,.11-.73,.34-.24,.23-.36,.5-.36,.83s.13,.72,.4,1.15c.26,.44,.42,.75,.46,.94,.04,.19,.1,.46,.18,.8,.08,.35,.12,.75,.12,1.2,0,.38-.01,.78-.03,1.22-.02,.43-.05,.83-.07,1.19-.07-.04-.15-.1-.26-.17s-.22-.1-.33-.1h-.83c-.39-.03-.81-.09-1.24-.17-.44-.08-.79-.22-1.06-.44-.27-.22-.67-.68-1.18-1.39-.52-.71-1.15-1.06-1.89-1.06-.39,0-.73,.09-1,.26-.27,.17-.4,.44-.4,.82,0,.25,.05,.48,.15,.68s.31,.3,.65,.3c.16,0,.31-.06,.44-.18,.13-.12,.24-.22,.33-.3,.29,.13,.59,.25,.89,.37,.38,.19,.56,.51,.56,.97-.46,.04-.94,.08-1.43,.11-.49,.03-1.01,.05-1.55,.05h-.99c-.08-.01-.26-.26-.53-.75-.27-.49-.69-.74-1.26-.74-.41,0-.72,.15-.94,.45-.22,.3-.39,.64-.51,1.03h-1.66c-.04-.17-.11-.43-.21-.79-.09-.36-.21-.88-.36-1.56-.14-.68-.27-1.42-.39-2.21,0-.1,.02-.35,.09-.77,.07-.41,.11-.71,.11-.88,0-.26-.05-.48-.15-.66-.1-.18-.24-.27-.42-.27-.23,0-.47,.11-.73,.34-.25,.23-.38,.57-.38,1.02,0,.28,.08,.58,.25,.87,.17,.3,.33,.58,.48,.83l.72,4.05c0,.73-.09,1.27-.26,1.63-.24,.31-.4,.55-.49,.72l.07,.2c.42-.14,.75-.37,.98-.69,.23-.31,.39-.49,.48-.54,.09-.04,.23-.07,.42-.07,.13,0,.24,0,.32,0v.04c.1,0,.2-.01,.31-.01h.02s.04,0,.06,.01h.59c.11-.01,.18,0,.22,0,.05,0,.2,.19,.45,.57,.25,.38,.62,.57,1.13,.57,.46,0,.81-.19,1.04-.57s.41-.57,.53-.57h.95c.44-.01,.92-.03,1.44-.07s1.42-.05,2.69-.05c.42,0,.88,.02,1.38,.06,.5,.04,.78,.06,.84,.06h.93Zm-9.57-.3c-.04,.13-.14,.2-.3,.2-.25,0-.41-.19-.47-.56-.02-.09-.03-.16-.03-.2,0-.17,.03-.32,.1-.44,.07-.12,.16-.19,.28-.19,.15,0,.27,.07,.34,.2,.07,.13,.12,.29,.14,.48,0,.21-.02,.39-.07,.52Z"/><path class="e" d="M93.69,110.21c-.06,.27-.17,.55-.33,.84-.16,.29-.43,.67-.82,1.15,.73-.21,1.31-.66,1.75-1.36,.44-.7,.66-1.24,.66-1.62,0-.47-.06-1.16-.19-2.07-.12-.91-.19-1.65-.19-2.23,0-.29,.03-.55,.1-.79,.07-.24,.13-.47,.19-.68,.03-.14,0-.31-.1-.51-.09-.21-.26-.31-.49-.31-.32,0-.62,.16-.91,.49-.29,.33-.41,.69-.37,1.08,.11,.14,.22,.27,.33,.39,.11,.12,.18,.3,.21,.53l.23,2.54c.02,.21,.03,.43,.05,.68,.02,.25,.03,.46,.03,.62,0,.18,0,.37-.03,.56-.02,.19-.06,.43-.12,.7Z"/><path class="e" d="M98.13,107.14c-.43,0-.85,.2-1.25,.6-.4,.4-.6,1.04-.6,1.91,0,.56,.07,.99,.22,1.27,.14,.28,.37,.45,.67,.5,.3,.05,.48,.08,.54,.08,.09,0,.27-.03,.54-.1,.27-.07,.46-.1,.56-.1,0,.95-.38,1.76-1.14,2.46-.76,.69-1.66,1.11-2.69,1.27-.21,.03-.4,.04-.59,.04-.38,0-.77-.05-1.17-.15-.4-.1-.85-.31-1.35-.63-.5-.32-.89-.61-1.17-.87-.28-.26-.62-.69-1.01-1.28,0-.07-.02-.15-.03-.24-.01-.09-.06-.14-.13-.15-.07-.03-.11,0-.11,.11,0,.03,.01,.09,.04,.19,.03,.1,.09,.29,.19,.59,.1,.29,.3,.61,.59,.96,.3,.35,.71,.77,1.22,1.27,.52,.5,1.1,.82,1.75,.98,.65,.15,1.21,.23,1.7,.23,1.34,0,2.55-.53,3.64-1.59,1.09-1.06,1.63-2.36,1.63-3.9,0-.95-.19-1.76-.56-2.43-.38-.67-.87-1.01-1.48-1.01Zm.45,2.89c-.09,.09-.26,.15-.54,.19-.13,.02-.27-.06-.42-.22-.15-.17-.21-.32-.2-.45,0-.06,.03-.25,.08-.58,.07-.28,.21-.41,.41-.41,.23-.03,.42,.09,.56,.33,.14,.25,.22,.45,.22,.6,0,.04,0,.1,.01,.2,0,.14-.04,.25-.13,.34Z"/><path class="e" d="M105.12,104.73c.12-.06,.31-.25,.55-.56,.05,.07,.12,.17,.22,.3,.09,.09,.23,.14,.43,.14,.22,0,.42-.06,.6-.18,.18-.12,.28-.28,.28-.47,0-.13-.06-.29-.19-.47-.13-.18-.28-.28-.47-.28-.28,0-.49,.06-.61,.17-.12,.11-.24,.31-.35,.58-.1-.22-.2-.37-.29-.43-.09-.07-.25-.1-.47-.1-.21,0-.38,.04-.53,.12-.15,.08-.22,.25-.22,.53,0,.23,.07,.42,.2,.55,.13,.14,.28,.2,.44,.2,.15,0,.29-.03,.41-.09Z"/><path class="e" d="M135.37,107.19c-.03-.2-.09-.58-.19-1.14-.1-.56-.15-1.06-.15-1.5,0-.07,0-.18,.02-.35,.02-.17,.03-.3,.03-.39,0-.28-.08-.53-.23-.76-.16-.23-.31-.34-.48-.34-.25,0-.49,.11-.73,.34-.24,.23-.36,.5-.36,.83s.13,.72,.4,1.15c.26,.44,.42,.75,.46,.94,.04,.19,.1,.46,.18,.8,.08,.35,.12,.75,.12,1.2,0,.38-.01,.78-.03,1.22-.02,.43-.05,.83-.07,1.19-.07-.04-.15-.1-.26-.17s-.22-.1-.33-.1h-1.55c-.07-.86-.42-1.58-1.04-2.15-.62-.58-1.36-.87-2.21-.87-.96,0-1.75,.18-2.38,.53-.63,.35-1.13,.75-1.51,1.2-.38,.45-.7,.84-.99,1.17-.13-.66-.36-.99-.68-.99-.14,0-.23,.09-.28,.28-.05,.18-.08,.46-.08,.84h-6.73c-.39-.05-.81-.1-1.24-.18-.44-.08-.79-.22-1.06-.44-.27-.22-.67-.68-1.18-1.39-.52-.71-1.15-1.06-1.89-1.06-.39,0-.73,.09-1,.26-.27,.17-.4,.44-.4,.82,0,.25,.05,.48,.15,.68s.31,.3,.65,.3c.16,0,.31-.06,.44-.18,.13-.12,.24-.22,.33-.3,.29,.13,.59,.25,.89,.37,.38,.19,.56,.51,.56,.97-.46,.04-.94,.08-1.43,.11-.49,.03-1.01,.05-1.55,.05h-.89c-.05-.24-.09-.58-.11-1.03v-.89c0-.3,0-.59,0-.87s0-.56,0-.84c0-.43-.1-.77-.31-1.03-.21-.26-.47-.39-.78-.39-.28,0-.51,.04-.69,.13-.18,.09-.27,.31-.27,.65,0,.14,.11,.27,.34,.42,.23,.14,.36,.27,.41,.37,.05,.1,.09,.24,.13,.42,.04,.17,.04,.3,0,.38-.66,.18-1.32,.36-1.98,.54-.56,.32-.85,.85-.85,1.58,0,.79,.17,1.29,.52,1.5,.35,.21,.69,.33,1.04,.39,.05-.02,.12-.03,.19-.03,.08,0,.28,0,.61,0h.19c.09,0,.16,0,.23,.01-.04,.1-.16,.24-.34,.42s-.29,.33-.33,.44c.6,0,1.03-.14,1.29-.43,.26-.29,.62-.43,1.07-.43h.35v-.02h.09c.44,0,.92-.02,1.44-.05s1.42-.05,2.69-.05c.42,0,.88,.02,1.38,.06,.5,.04,.78,.06,.84,.06h6.52s.14,.01,.28,.01h.79c.07,0,.15,.08,.25,.23s.26,.23,.48,.23,.4-.08,.57-.23c.17-.15,.31-.24,.42-.26,.11-.02,.25-.05,.4-.07,.16-.03,.32-.04,.49-.04,.25,.02,.55,.04,.9,.06,.35,.02,.89,.03,1.63,.03,.99,0,1.54-.04,1.66-.12,.12-.08,.28-.12,.47-.12,.16,0,.31,.13,.44,.4,.13,.27,.31,.4,.53,.4,.16,0,.27-.09,.32-.26,.05-.17,.19-.26,.41-.26,.28,0,.43,0,.46,.01,.03,0,.03,.02,.03,.03v-.04h.49c.12,0,.26,.1,.44,.29,.18,.19,.3,.29,.37,.29,.51,0,.86-.34,1.04-1.01,.18-.67,.28-1.35,.28-2.03,0-.29-.02-.61-.07-.94-.04-.33-.08-.6-.11-.8Zm-28.31,2.87c-.06,0-.19,0-.4,.01-.21,0-.38-.02-.52-.07-.14-.04-.21-.13-.21-.26,0-.17,.02-.33,.06-.47,.04-.14,.11-.26,.21-.34s.26-.18,.48-.27c.22-.09,.41-.14,.57-.14,.2,0,.3,.08,.3,.24l.07,.63,.03,.23c0,.28-.19,.43-.58,.43Zm22.06-.02c-.72,.06-1.3,.09-1.76,.09-.56,0-.96-.01-1.2-.04-.25-.03-.44-.06-.6-.11,.32-.51,.74-.91,1.25-1.21,.51-.29,.99-.44,1.44-.44,.09,0,.28,.02,.57,.05,.29,.04,.66,.19,1.1,.47,.44,.28,.73,.59,.86,.94-.39,.1-.95,.18-1.66,.24Z"/><path class="e" d="M137.78,104.92c0-.29,.03-.55,.1-.79,.07-.24,.13-.47,.19-.68,.03-.14,0-.31-.1-.51-.09-.21-.26-.31-.49-.31-.32,0-.62,.16-.91,.49-.29,.33-.41,.69-.37,1.08,.11,.14,.22,.27,.33,.39,.11,.12,.18,.3,.21,.53l.23,2.54c.02,.21,.03,.43,.05,.68,.02,.25,.03,.46,.03,.62,0,.18,0,.37-.03,.56-.02,.19-.06,.43-.12,.7-.06,.27-.17,.55-.33,.84-.16,.29-.43,.67-.82,1.15,.73-.21,1.31-.66,1.75-1.36,.44-.7,.66-1.24,.66-1.62,0-.47-.06-1.16-.19-2.07-.12-.91-.19-1.65-.19-2.23Z"/><path class="e" d="M143.24,105.35c.13-.16,.19-.33,.19-.52,0-.22-.05-.38-.15-.49-.1-.11-.26-.16-.5-.16s-.41,.07-.55,.21c-.14,.14-.21,.29-.21,.44,0,.18,.08,.35,.23,.51,.15,.16,.29,.24,.42,.24,.24,0,.43-.08,.55-.23Z"/><path class="e" d="M144.6,105.36c.21,0,.41-.06,.59-.18,.18-.12,.27-.31,.27-.57,0-.19-.04-.34-.13-.46-.09-.12-.26-.18-.52-.18-.22,0-.4,.07-.54,.21s-.21,.28-.21,.44c0,.27,.06,.45,.17,.54,.12,.09,.24,.16,.36,.21Z"/><path class="e" d="M143.56,111.08c.27,.31,.71,.47,1.32,.47,.28,0,.56-.05,.83-.16,.27-.11,.54-.22,.82-.33-.03,.17-.09,.38-.19,.64-.1,.25-.15,.45-.15,.6,0,.09,0,.16,.01,.21,.58-.35,1-.85,1.26-1.49,.26-.64,.39-1.32,.39-2.04,0-.59-.06-1.14-.17-1.64-.12-.5-.24-.94-.36-1.33,.02-.06,.04-.13,.07-.23s.04-.2,.04-.32c0-.21-.07-.4-.2-.55-.13-.15-.37-.23-.71-.23-.27,0-.48,.09-.65,.28-.17,.18-.25,.41-.25,.69,0,.13,.13,.35,.4,.68,.26,.32,.4,.67,.4,1.05-.04,0-.09,0-.17-.01-.08,0-.14-.01-.19-.01-.77,0-1.45,.24-2.03,.73-.58,.48-.88,1.07-.88,1.77,0,.52,.14,.94,.41,1.25Zm1.03-1.51c.05-.13,.13-.29,.25-.5,.12-.2,.34-.38,.65-.55,.31-.16,.58-.24,.81-.24,.11,0,.21,.04,.31,.12,.1,.08,.16,.28,.19,.61,0,.19-.02,.36-.05,.5-.03,.15-.1,.29-.21,.44-.11,.14-.28,.27-.51,.37-.23,.1-.46,.15-.69,.15-.2,0-.37-.04-.52-.13-.15-.09-.24-.22-.28-.39-.02-.13,0-.26,.04-.38Z"/><path class="e" d="M155.94,110.21c-.06,.27-.17,.55-.33,.84-.16,.29-.43,.67-.82,1.15,.73-.21,1.31-.66,1.75-1.36,.44-.7,.66-1.24,.66-1.62,0-.47-.06-1.16-.19-2.07-.12-.91-.19-1.65-.19-2.23,0-.29,.03-.55,.1-.79,.07-.24,.13-.47,.19-.68,.03-.14,0-.31-.1-.51-.09-.21-.26-.31-.49-.31-.32,0-.62,.16-.91,.49-.29,.33-.41,.69-.37,1.08,.11,.14,.22,.27,.33,.39,.11,.12,.18,.3,.21,.53l.23,2.54c.02,.21,.03,.43,.05,.68,.02,.25,.03,.46,.03,.62,0,.18,0,.37-.03,.56-.02,.19-.06,.43-.12,.7Z"/><path class="e" d="M159.04,105.87c.23,0,.42-.08,.55-.24,.14-.16,.2-.33,.2-.51,0-.43-.22-.65-.65-.65-.22,0-.4,.07-.54,.21-.14,.14-.21,.29-.21,.44,0,.18,.08,.35,.23,.51,.15,.16,.29,.24,.42,.24Z"/><path class="e" d="M167.87,108.15c-.38-.67-.87-1.01-1.48-1.01-.43,0-.85,.2-1.25,.6-.4,.4-.6,1.04-.6,1.91,0,.56,.07,.99,.22,1.27,.14,.28,.37,.45,.67,.5,.3,.05,.48,.08,.54,.08,.09,0,.27-.03,.54-.1,.27-.07,.46-.1,.56-.1,0,.95-.38,1.76-1.14,2.46-.76,.69-1.66,1.11-2.69,1.27-.21,.03-.4,.04-.59,.04-.38,0-.77-.05-1.17-.15-.4-.1-.85-.31-1.35-.63-.07-.04-.13-.09-.2-.13,.19-.11,.38-.23,.56-.36,.37-.33,.78-.9,1.24-1.71,.46-.81,.69-1.56,.69-2.26,0-.66-.15-1.24-.46-1.73-.3-.49-.66-.74-1.08-.74-.52,0-.77,.33-.77,.99,0,.41,.21,.7,.62,.87,.42,.17,.63,.3,.64,.38,0,.09,.01,.19,.01,.32,0,.74-.24,1.44-.72,2.1-.48,.66-.91,1.12-1.29,1.38-.08,.05-.16,.1-.25,.15-.06-.05-.11-.09-.16-.14-.28-.26-.62-.69-1.01-1.28,0-.07-.02-.15-.03-.24-.01-.09-.06-.14-.13-.15-.07-.03-.11,0-.11,.11,0,.03,.01,.09,.04,.19,.03,.1,.09,.29,.19,.59,.1,.29,.3,.61,.59,.96,.05,.06,.1,.12,.16,.18-.22,.09-.46,.17-.71,.23-.56,.14-1.16,.22-1.77,.22-1.16,0-2.1-.25-2.83-.75-.3-.2-.58-.44-.84-.7,.14-.21,.28-.44,.42-.69,.46-.81,.69-1.56,.69-2.26,0-.66-.15-1.24-.46-1.73-.3-.49-.66-.74-1.08-.74-.52,0-.77,.33-.77,.99,0,.41,.21,.7,.62,.87,.42,.17,.63,.3,.64,.38,0,.09,.01,.19,.01,.32,0,.74-.24,1.44-.72,2.1-.14-.18-.27-.38-.39-.58l-.21-.17c.05,.39,.16,.76,.33,1.11-.37,.47-.71,.81-1.02,1.02-.38,.26-.85,.46-1.42,.61-.56,.14-1.16,.22-1.77,.22-1.16,0-2.1-.25-2.83-.75-.73-.5-1.36-1.18-1.88-2.04l-.21-.17c.13,1.09,.74,2,1.83,2.73,1.09,.73,2.22,1.1,3.42,1.1,.82,0,1.56-.12,2.22-.36,.66-.24,1.25-.56,1.77-.94,.16-.14,.32-.33,.49-.55,.25,.27,.55,.53,.9,.76,1.09,.73,2.22,1.1,3.42,1.1,.82,0,1.56-.12,2.22-.36,.21-.08,.41-.17,.61-.26,.12,.12,.25,.25,.39,.39,.52,.5,1.1,.82,1.75,.98,.65,.15,1.21,.23,1.7,.23,1.34,0,2.55-.53,3.64-1.59,1.09-1.06,1.63-2.36,1.63-3.9,0-.95-.19-1.76-.56-2.43Zm-1.03,1.88c-.09,.09-.26,.15-.54,.19-.13,.02-.27-.06-.42-.22-.15-.17-.21-.32-.2-.45,0-.06,.03-.25,.08-.58,.07-.28,.21-.41,.41-.41,.23-.03,.42,.09,.56,.33,.14,.25,.22,.45,.22,.6,0,.04,0,.1,.01,.2,0,.14-.04,.25-.13,.34Z"/></g><g><g><path class="e" d="M10.83,123.52h-1.79v3.29h-1v-3.29h-1.8v-.99h1.8v-3.29h1v3.29h1.79v.99Z"/><path class="e" d="M9.17,126.94h-1.25v-3.29h-1.8v-1.24h1.8v-3.29h1.25v3.29h1.79v1.24h-1.79v3.29Zm-1-.25h.75v-3.29h1.79v-.74h-1.79v-3.29h-.75v3.29h-1.8v.74h1.8v3.29Z"/></g><g><path class="e" d="M13.77,123.32c.49,0,.91,.17,1.24,.51,.33,.34,.5,.75,.5,1.25s-.17,.91-.5,1.25c-.33,.34-.75,.51-1.24,.51s-.9-.17-1.23-.51c-.33-.34-.5-.75-.5-1.25s.17-.91,.5-1.25c.33-.34,.74-.51,1.23-.51Zm.94,1.74c0-.28-.09-.51-.27-.69-.18-.18-.41-.27-.67-.27s-.47,.09-.65,.27c-.18,.18-.27,.41-.27,.69s.09,.5,.27,.69c.18,.19,.4,.28,.65,.28s.49-.09,.67-.28c.18-.19,.27-.42,.27-.69Z"/><path class="e" d="M13.77,126.95c-.52,0-.96-.18-1.32-.54s-.54-.81-.54-1.34,.18-.97,.54-1.34,.8-.54,1.32-.54,.97,.18,1.33,.54,.54,.81,.54,1.34-.18,.97-.54,1.34-.8,.54-1.33,.54Zm0-3.51c-.46,0-.83,.15-1.14,.47-.31,.32-.47,.7-.47,1.16s.15,.84,.47,1.16c.31,.32,.69,.47,1.14,.47s.84-.15,1.15-.47c.31-.32,.47-.7,.47-1.16s-.15-.84-.47-1.16c-.31-.32-.69-.47-1.15-.47Zm0,2.71c-.29,0-.54-.11-.74-.32-.21-.21-.31-.47-.31-.78s.1-.58,.31-.78c.21-.21,.46-.31,.74-.31s.55,.1,.76,.31c.21,.21,.31,.47,.31,.78s-.1,.57-.31,.78c-.21,.21-.46,.32-.76,.32Zm0-1.94c-.22,0-.4,.08-.56,.24-.16,.16-.24,.36-.24,.6s.08,.44,.24,.6c.16,.16,.34,.24,.56,.24,.23,0,.42-.08,.58-.24,.16-.16,.24-.36,.24-.6s-.08-.45-.24-.6c-.16-.16-.35-.24-.58-.24Z"/></g><g><path class="e" d="M22.01,126.81h-5.61v-7.57h5.61v1h-4.61v5.56h4.61v1Z"/><path class="e" d="M22.13,126.94h-5.86v-7.82h5.86v1.25h-4.61v5.31h4.61v1.25Zm-5.61-.25h5.36v-.75h-4.61v-5.81h4.61v-.75h-5.36v7.32Z"/></g><g><path class="e" d="M25.09,123.32c.49,0,.91,.17,1.24,.51,.33,.34,.5,.75,.5,1.25s-.17,.91-.5,1.25c-.33,.34-.75,.51-1.24,.51s-.9-.17-1.23-.51c-.33-.34-.5-.75-.5-1.25s.17-.91,.5-1.25c.33-.34,.74-.51,1.23-.51Zm.94,1.74c0-.28-.09-.51-.27-.69-.18-.18-.41-.27-.67-.27s-.47,.09-.65,.27c-.18,.18-.27,.41-.27,.69s.09,.5,.27,.69c.18,.19,.4,.28,.65,.28s.49-.09,.67-.28c.18-.19,.27-.42,.27-.69Z"/><path class="e" d="M25.09,126.95c-.52,0-.96-.18-1.32-.54s-.54-.81-.54-1.34,.18-.97,.54-1.34,.8-.54,1.32-.54,.97,.18,1.33,.54c.36,.36,.54,.81,.54,1.34s-.18,.97-.54,1.34c-.36,.36-.81,.54-1.33,.54Zm0-3.51c-.46,0-.83,.15-1.14,.47-.31,.32-.47,.7-.47,1.16s.15,.84,.47,1.16c.31,.32,.69,.47,1.14,.47s.84-.15,1.15-.47c.31-.32,.46-.7,.46-1.16s-.15-.84-.46-1.16c-.31-.32-.69-.47-1.15-.47Zm0,2.71c-.29,0-.54-.11-.74-.32-.21-.21-.31-.47-.31-.78s.1-.58,.31-.78c.21-.21,.46-.31,.74-.31s.55,.1,.76,.31,.31,.47,.31,.78-.1,.57-.31,.78c-.21,.21-.46,.32-.76,.32Zm0-1.94c-.22,0-.4,.08-.56,.24-.16,.16-.24,.36-.24,.6s.08,.44,.24,.6c.16,.16,.34,.24,.56,.24,.23,0,.42-.08,.58-.24,.16-.16,.24-.36,.24-.6s-.08-.45-.24-.6c-.16-.16-.35-.24-.58-.24Z"/></g><g><path class="e" d="M32.86,125.82v-6.59h1v7.58h-6.15v-7.58h1.02v6.59h4.13Z"/><path class="e" d="M33.99,126.94h-6.4v-7.83h1.27v6.59h3.88v-6.59h1.25v7.83Zm-6.15-.25h5.9v-7.33h-.75v6.59h-4.38v-6.59h-.77v7.33Z"/></g><g><path class="e" d="M36.78,123.32c.49,0,.91,.17,1.24,.51,.33,.34,.5,.75,.5,1.25s-.17,.91-.5,1.25c-.33,.34-.75,.51-1.24,.51s-.9-.17-1.23-.51c-.33-.34-.5-.75-.5-1.25s.17-.91,.5-1.25c.33-.34,.74-.51,1.23-.51Zm.94,1.74c0-.28-.09-.51-.27-.69-.18-.18-.41-.27-.67-.27s-.47,.09-.65,.27c-.18,.18-.27,.41-.27,.69s.09,.5,.27,.69c.18,.19,.4,.28,.65,.28s.49-.09,.67-.28c.18-.19,.27-.42,.27-.69Z"/><path class="e" d="M36.78,126.95c-.52,0-.96-.18-1.32-.54-.36-.36-.54-.81-.54-1.34s.18-.97,.54-1.34c.36-.36,.8-.54,1.32-.54s.97,.18,1.33,.54c.36,.36,.54,.81,.54,1.34s-.18,.97-.54,1.34c-.36,.36-.81,.54-1.33,.54Zm0-3.51c-.46,0-.83,.15-1.14,.47-.31,.32-.46,.7-.46,1.16s.15,.84,.46,1.16c.31,.32,.69,.47,1.14,.47s.84-.15,1.15-.47c.31-.32,.47-.7,.47-1.16s-.15-.84-.47-1.16c-.31-.32-.69-.47-1.15-.47Zm0,2.71c-.29,0-.54-.11-.74-.32-.21-.21-.31-.47-.31-.78s.1-.58,.31-.78c.21-.21,.46-.31,.74-.31s.55,.1,.76,.31c.21,.21,.31,.47,.31,.78s-.1,.57-.31,.78c-.21,.21-.46,.32-.76,.32Zm0-1.94c-.22,0-.4,.08-.56,.24-.16,.16-.24,.36-.24,.6s.08,.44,.24,.6c.16,.16,.34,.24,.56,.24,.23,0,.42-.08,.58-.24,.16-.16,.24-.36,.24-.6s-.08-.45-.24-.6c-.16-.16-.35-.24-.58-.24Z"/></g><g><path class="e" d="M46.96,123.08c0,1.03-.38,1.91-1.12,2.64-.74,.73-1.63,1.09-2.67,1.09s-1.92-.36-2.64-1.09c-.72-.73-1.09-1.61-1.11-2.63,0-1.05,.35-1.95,1.08-2.7,.73-.75,1.62-1.13,2.66-1.13s1.94,.38,2.68,1.13,1.11,1.65,1.1,2.7Zm-1.05,0c0-.78-.26-1.45-.8-2-.54-.55-1.18-.82-1.94-.82-.76,0-1.4,.29-1.91,.84-.52,.55-.78,1.21-.78,1.96,0,.74,.27,1.38,.79,1.92,.52,.54,1.15,.81,1.9,.82,.75,0,1.39-.26,1.92-.8,.53-.54,.81-1.18,.81-1.92Zm-3.7-.01c-.02-.27,.07-.51,.25-.72,.18-.21,.43-.31,.73-.3,.28,0,.51,.11,.69,.31,.18,.2,.27,.44,.25,.72-.02,.24-.11,.46-.29,.63-.17,.18-.39,.27-.65,.27-.29,0-.52-.08-.69-.26-.17-.18-.27-.4-.29-.65Z"/><path class="e" d="M43.18,126.93c-1.07,0-1.99-.38-2.73-1.13-.74-.75-1.13-1.67-1.14-2.72,0-1.08,.37-2.02,1.12-2.79,.75-.77,1.68-1.17,2.75-1.17s2.01,.39,2.77,1.17c.76,.77,1.14,1.71,1.14,2.79h0c0,1.06-.4,1.98-1.15,2.73-.76,.75-1.68,1.12-2.76,1.12Zm0-7.56c-1.01,0-1.87,.37-2.57,1.09-.7,.72-1.06,1.6-1.05,2.61,.01,.99,.38,1.84,1.07,2.55,.7,.7,1.55,1.06,2.55,1.06s1.87-.35,2.58-1.05c.71-.7,1.07-1.56,1.08-2.55h0c0-1.01-.35-1.89-1.06-2.61s-1.59-1.09-2.6-1.09Zm.03,6.55h-.03c-.78,0-1.45-.3-1.99-.86-.54-.56-.81-1.23-.82-2,0-.79,.27-1.48,.81-2.05,.54-.58,1.21-.87,2-.88h.03c.77,0,1.44,.29,2,.85,.56,.57,.84,1.28,.83,2.09h0c0,.77-.29,1.44-.85,2.01-.55,.56-1.21,.84-1.98,.84Zm0-5.54h-.03c-.72,0-1.33,.28-1.82,.8-.49,.53-.74,1.16-.74,1.88,0,.7,.26,1.32,.75,1.83,.49,.51,1.1,.77,1.81,.78,.72,0,1.32-.24,1.83-.76,.51-.52,.77-1.13,.78-1.83,0-.74-.25-1.39-.76-1.91-.5-.52-1.12-.78-1.82-.78Zm-.06,3.71c-.3,0-.55-.1-.75-.3-.2-.2-.3-.45-.32-.73h0c-.02-.3,.08-.58,.28-.81,.2-.23,.47-.35,.79-.35h.03c.31,0,.57,.13,.78,.36,.21,.23,.3,.5,.28,.82-.02,.27-.13,.51-.32,.71-.21,.21-.47,.3-.78,.3Zm-.82-1.04c.01,.22,.1,.41,.25,.57,.15,.16,.35,.22,.6,.22,.23,0,.42-.08,.57-.23,.15-.16,.24-.34,.25-.55,.02-.25-.05-.45-.22-.63-.16-.18-.36-.27-.6-.27h-.03c-.25,0-.45,.08-.6,.26-.16,.19-.23,.39-.22,.63Z"/></g><g><path class="e" d="M52.79,123.52h-1.79v3.29h-1v-3.29h-1.8v-.99h1.8v-3.29h1v3.29h1.79v.99Z"/><path class="e" d="M51.12,126.94h-1.25v-3.29h-1.8v-1.24h1.8v-3.29h1.25v3.29h1.79v1.24h-1.79v3.29Zm-1-.25h.75v-3.29h1.79v-.74h-1.79v-3.29h-.75v3.29h-1.8v.74h1.8v3.29Z"/></g><g><path class="e" d="M57.99,126.81h-.99v-7.57h.99v7.57Z"/><path class="e" d="M58.12,126.94h-1.24v-7.82h1.24v7.82Zm-.99-.25h.74v-7.32h-.74v7.32Z"/></g><g><path class="e" d="M66.81,123.52h-1.79v3.29h-1v-3.29h-1.8v-.99h1.8v-3.29h1v3.29h1.79v.99Z"/><path class="e" d="M65.14,126.94h-1.25v-3.29h-1.8v-1.24h1.8v-3.29h1.25v3.29h1.79v1.24h-1.79v3.29Zm-1-.25h.75v-3.29h1.79v-.74h-1.79v-3.29h-.75v3.29h-1.8v.74h1.8v3.29Z"/></g><g><path class="e" d="M72.32,119.23l3.19,7.58h-1.08l-2.66-6.29-2.67,6.29h-1.09l3.21-7.58h1.1Z"/><path class="e" d="M75.7,126.94h-1.36l-2.58-6.1-2.59,6.1h-1.36l3.32-7.83h1.27l3.3,7.83Zm-1.19-.25h.81l-3.09-7.33h-.94l-3.11,7.33h.82l2.75-6.49,2.75,6.49Z"/></g><g><path class="e" d="M78.15,123.53c.49,0,.91,.16,1.24,.48,.33,.32,.5,.71,.5,1.17s-.17,.84-.5,1.15c-.33,.31-.75,.47-1.24,.47s-.9-.16-1.23-.47c-.33-.31-.5-.7-.5-1.15s.17-.85,.5-1.17c.33-.32,.74-.48,1.23-.48Zm.04-4.29c.49,0,.91,.16,1.24,.48,.33,.32,.5,.71,.5,1.17s-.17,.84-.5,1.15c-.33,.31-.75,.47-1.24,.47s-.89-.16-1.23-.47c-.34-.31-.5-.7-.5-1.15s.17-.85,.5-1.17c.34-.32,.75-.48,1.23-.48Zm.96,5.92c0-.28-.1-.51-.29-.7-.19-.19-.43-.28-.71-.28s-.5,.09-.69,.28c-.19,.19-.29,.42-.29,.7s.1,.5,.29,.69c.19,.19,.42,.28,.69,.28s.51-.09,.71-.28c.19-.19,.29-.42,.29-.69Zm.03-4.29c0-.28-.1-.51-.29-.7-.19-.19-.43-.28-.71-.28s-.5,.09-.69,.28c-.19,.19-.29,.42-.29,.7s.1,.5,.29,.69c.19,.19,.42,.28,.69,.28s.51-.09,.71-.28c.19-.19,.29-.42,.29-.69Z"/><path class="e" d="M78.15,126.93c-.52,0-.96-.17-1.32-.51-.36-.34-.54-.76-.54-1.25s.18-.92,.54-1.26c.36-.34,.8-.51,1.32-.51s.97,.17,1.33,.51c.36,.34,.54,.77,.54,1.26s-.18,.91-.54,1.25c-.36,.34-.8,.51-1.33,.51Zm0-3.27c-.46,0-.83,.14-1.14,.44-.31,.3-.46,.65-.46,1.08s.15,.77,.46,1.06c.31,.29,.69,.44,1.14,.44s.84-.14,1.16-.44c.31-.29,.46-.64,.46-1.06s-.15-.78-.46-1.08c-.31-.3-.69-.44-1.16-.44Zm0,2.6c-.3,0-.56-.11-.78-.32-.22-.21-.33-.47-.33-.78s.11-.57,.33-.79c.22-.21,.48-.32,.78-.32s.58,.11,.79,.32c.21,.21,.32,.48,.32,.79s-.11,.57-.32,.78c-.21,.21-.48,.32-.79,.32Zm0-1.95c-.24,0-.43,.08-.6,.25-.17,.17-.25,.36-.25,.61s.08,.43,.25,.6c.17,.17,.37,.25,.6,.25,.25,0,.45-.08,.62-.24,.17-.16,.25-.36,.25-.6s-.08-.44-.25-.61c-.17-.17-.37-.25-.62-.25Zm.04-1.67c-.51,0-.95-.17-1.31-.51-.36-.34-.54-.76-.54-1.25s.18-.92,.54-1.26c.36-.34,.8-.51,1.31-.51s.97,.17,1.33,.51c.36,.34,.54,.76,.54,1.26s-.18,.91-.54,1.25c-.36,.34-.8,.51-1.33,.51Zm0-3.27c-.45,0-.83,.14-1.14,.44-.31,.29-.47,.65-.47,1.08s.15,.77,.46,1.06c.31,.3,.69,.44,1.14,.44s.84-.14,1.16-.44c.31-.29,.46-.64,.46-1.06s-.15-.78-.46-1.08c-.31-.3-.69-.44-1.16-.44Zm0,2.6c-.3,0-.56-.11-.78-.32-.21-.21-.32-.47-.32-.78s.11-.58,.32-.79c.21-.21,.48-.32,.78-.32s.58,.11,.79,.32c.21,.21,.32,.47,.32,.79s-.11,.57-.32,.78c-.21,.21-.48,.32-.79,.32Zm0-1.95c-.24,0-.43,.08-.6,.24-.17,.16-.25,.36-.25,.61s.08,.44,.25,.6c.17,.16,.36,.24,.6,.24,.25,0,.45-.08,.62-.24,.17-.16,.25-.36,.25-.6s-.08-.45-.25-.61c-.17-.16-.37-.24-.62-.24Z"/></g><g><path class="e" d="M88.51,123.08c0,1.03-.38,1.91-1.12,2.64-.74,.73-1.63,1.09-2.67,1.09s-1.92-.36-2.64-1.09c-.72-.73-1.09-1.61-1.11-2.63,0-1.05,.35-1.95,1.08-2.7,.73-.75,1.62-1.13,2.66-1.13s1.94,.38,2.68,1.13,1.11,1.65,1.1,2.7Zm-1.05,0c0-.78-.26-1.45-.8-2-.54-.55-1.18-.82-1.94-.82-.76,0-1.4,.29-1.91,.84-.52,.55-.78,1.21-.78,1.96,0,.74,.27,1.38,.79,1.92,.52,.54,1.15,.81,1.9,.82,.75,0,1.39-.26,1.92-.8,.53-.54,.81-1.18,.81-1.92Zm-3.7-.01c-.02-.27,.07-.51,.25-.72,.18-.21,.43-.31,.73-.3,.28,0,.51,.11,.69,.31,.18,.2,.27,.44,.25,.72-.02,.24-.11,.46-.29,.63-.17,.18-.39,.27-.65,.27-.29,0-.52-.08-.69-.26-.17-.18-.27-.4-.29-.65Z"/><path class="e" d="M84.72,126.93c-1.07,0-1.99-.38-2.73-1.13-.74-.75-1.13-1.67-1.14-2.72,0-1.08,.37-2.02,1.12-2.79,.75-.77,1.68-1.17,2.75-1.17s2.01,.39,2.77,1.17,1.14,1.71,1.13,2.79h0c0,1.06-.4,1.98-1.15,2.73-.76,.75-1.68,1.12-2.76,1.12Zm0-7.56c-1.01,0-1.87,.37-2.57,1.09-.7,.72-1.06,1.6-1.05,2.61,.01,.99,.38,1.84,1.07,2.55,.7,.7,1.55,1.06,2.55,1.06s1.87-.35,2.58-1.05c.71-.7,1.07-1.56,1.08-2.55,0-1.01-.35-1.89-1.06-2.61-.71-.72-1.59-1.09-2.6-1.09Zm.03,6.55h-.03c-.78,0-1.45-.3-1.99-.86-.54-.56-.81-1.23-.82-2,0-.79,.27-1.48,.81-2.05,.54-.58,1.21-.87,2-.88h.03c.77,0,1.44,.29,2,.85,.56,.57,.84,1.28,.83,2.09h0c0,.77-.29,1.44-.85,2.01-.55,.56-1.21,.84-1.98,.84Zm0-5.54h-.03c-.72,0-1.33,.28-1.82,.8-.49,.53-.74,1.16-.74,1.88,0,.7,.26,1.32,.75,1.83,.49,.51,1.1,.77,1.81,.78,.71,0,1.32-.24,1.83-.76,.51-.52,.77-1.13,.78-1.83,0-.74-.25-1.39-.76-1.91-.5-.52-1.12-.78-1.82-.78Zm-.06,3.71c-.3,0-.55-.1-.75-.3-.2-.2-.3-.45-.32-.73h0c-.02-.3,.08-.58,.28-.81,.2-.23,.47-.35,.79-.35h.03c.31,0,.57,.13,.78,.36,.21,.23,.3,.5,.28,.82-.02,.27-.13,.51-.32,.71-.21,.21-.48,.3-.78,.3Zm-.82-1.04c.01,.22,.1,.41,.25,.57,.15,.16,.35,.22,.6,.22,.23,0,.42-.08,.57-.23,.15-.16,.24-.34,.25-.55,.02-.25-.05-.45-.22-.63-.16-.18-.36-.27-.6-.27-.28,0-.47,.08-.63,.26-.16,.19-.23,.39-.22,.63Z"/></g><g><path class="e" d="M91.46,124.58l3.32,1.36v1.01l-5.14-2.07,2.38-2.02-2.29-1.99,5.05-1.92v1l-3.15,1.21,1.84,1.61-2.01,1.81Z"/><path class="e" d="M94.91,127.13l-5.5-2.22,.16-.13,2.27-1.92-2.34-2.04,5.41-2.06v1.27l-.08,.03-2.96,1.13,1.79,1.57-1.97,1.77,3.22,1.31v1.28Zm-5.02-2.29l4.77,1.92v-.74l-3.43-1.4,2.05-1.85-1.89-1.66,3.27-1.25v-.74l-4.68,1.79,2.24,1.95-.11,.09-2.22,1.88Z"/></g><g><path class="e" d="M103.02,119.23l3.19,7.58h-1.08l-2.66-6.29-2.67,6.29h-1.09l3.21-7.58h1.1Z"/><path class="e" d="M106.41,126.94h-1.36l-2.58-6.1-2.59,6.1h-1.36l.07-.17,3.25-7.66h1.27l3.3,7.83Zm-1.19-.25h.81l-3.09-7.33h-.94l-3.11,7.33h.82l2.75-6.49,2.75,6.49Z"/></g><g><path class="e" d="M111.85,123.53c.49,0,.91,.16,1.24,.48,.33,.32,.5,.71,.5,1.17s-.17,.84-.5,1.15c-.33,.31-.75,.47-1.24,.47s-.9-.16-1.23-.47c-.33-.31-.5-.7-.5-1.15s.17-.85,.5-1.17c.33-.32,.74-.48,1.23-.48Zm.04-4.29c.49,0,.91,.16,1.24,.48,.33,.32,.5,.71,.5,1.17s-.17,.84-.5,1.15c-.33,.31-.75,.47-1.24,.47s-.89-.16-1.23-.47c-.34-.31-.5-.7-.5-1.15s.17-.85,.5-1.17c.34-.32,.75-.48,1.23-.48Zm.96,5.92c0-.28-.1-.51-.29-.7-.19-.19-.43-.28-.71-.28s-.5,.09-.69,.28c-.19,.19-.29,.42-.29,.7s.1,.5,.29,.69c.19,.19,.42,.28,.69,.28s.51-.09,.71-.28c.19-.19,.29-.42,.29-.69Zm.03-4.29c0-.28-.1-.51-.29-.7-.19-.19-.43-.28-.71-.28s-.5,.09-.69,.28c-.19,.19-.29,.42-.29,.7s.1,.5,.29,.69c.19,.19,.42,.28,.69,.28s.51-.09,.71-.28c.19-.19,.29-.42,.29-.69Z"/><path class="e" d="M111.85,126.93c-.52,0-.96-.17-1.32-.51-.36-.34-.54-.76-.54-1.25s.18-.92,.54-1.26c.36-.34,.8-.51,1.32-.51s.97,.17,1.33,.51c.36,.34,.54,.77,.54,1.26s-.18,.91-.54,1.25c-.36,.34-.8,.51-1.33,.51Zm0-3.27c-.46,0-.83,.14-1.14,.44-.31,.3-.46,.65-.46,1.08s.15,.77,.46,1.06c.31,.29,.69,.44,1.14,.44s.84-.14,1.16-.44c.31-.29,.46-.64,.46-1.06s-.15-.78-.46-1.08c-.31-.3-.69-.44-1.16-.44Zm0,2.6c-.3,0-.56-.11-.78-.32-.22-.21-.33-.47-.33-.78s.11-.58,.33-.79,.48-.32,.78-.32,.58,.11,.79,.32c.21,.21,.32,.48,.32,.79s-.11,.57-.32,.78c-.21,.21-.48,.32-.79,.32Zm0-1.95c-.24,0-.43,.08-.6,.25-.17,.17-.25,.36-.25,.61s.08,.43,.25,.6c.17,.17,.37,.25,.6,.25,.25,0,.45-.08,.62-.24s.25-.36,.25-.6-.08-.44-.25-.61c-.17-.17-.37-.25-.62-.25Zm.04-1.67c-.51,0-.96-.17-1.31-.51-.36-.34-.54-.76-.54-1.25s.18-.92,.54-1.26c.36-.34,.8-.51,1.31-.51s.97,.17,1.33,.51c.36,.34,.54,.76,.54,1.26s-.18,.91-.54,1.25c-.36,.34-.8,.51-1.33,.51Zm0-3.27c-.45,0-.83,.14-1.14,.44-.31,.3-.46,.65-.46,1.08s.15,.77,.46,1.06c.32,.29,.69,.44,1.14,.44s.84-.14,1.16-.44c.31-.29,.46-.64,.46-1.06s-.15-.78-.46-1.08c-.31-.29-.7-.44-1.16-.44Zm0,2.6c-.3,0-.56-.11-.78-.32-.21-.21-.32-.47-.32-.78s.11-.58,.32-.79c.21-.21,.48-.32,.78-.32s.58,.11,.79,.32c.21,.21,.32,.48,.32,.79s-.11,.57-.32,.78c-.21,.21-.48,.32-.79,.32Zm0-1.95c-.24,0-.43,.08-.6,.24-.17,.16-.25,.36-.25,.61s.08,.44,.25,.6c.17,.16,.36,.24,.6,.24,.25,0,.45-.08,.62-.24s.25-.36,.25-.6-.08-.45-.25-.61-.37-.24-.62-.24Z"/></g><g><path class="e" d="M117.02,123.49v3.33h-2.38v-1h1.38v-5.57h-1.35v-.99h2.35v3.25h1.38v-3.25h2.36v.99h-1.36v5.57h1.38v1h-2.38v-3.33h-1.38Z"/><path class="e" d="M120.9,126.94h-2.63v-3.33h-1.13v3.33h-2.63v-1.25h1.38v-5.32h-1.35v-1.24h2.6v3.25h1.13v-3.25h2.61v1.24h-1.36v5.32h1.38v1.25Zm-2.38-.25h2.13v-.75h-1.38v-5.82h1.36v-.74h-2.11v3.25h-1.63v-3.25h-2.1v.74h1.35v5.82h-1.38v.75h2.13v-3.33h1.63v3.33Z"/></g><g><path class="e" d="M129.4,123.08c-.02,1.03-.39,1.91-1.11,2.64-.72,.73-1.6,1.09-2.64,1.09s-1.89-.36-2.61-1.09c-.72-.73-1.09-1.61-1.1-2.63-.01-1.06,.34-1.97,1.07-2.71,.72-.74,1.6-1.12,2.64-1.12s1.93,.37,2.67,1.12c.73,.75,1.1,1.65,1.09,2.71Zm-1.03-.02c0-.78-.27-1.45-.8-2.01-.53-.56-1.16-.83-1.88-.81-.77,0-1.41,.29-1.93,.84-.52,.55-.78,1.22-.78,2,.02,.73,.29,1.37,.8,1.9,.51,.54,1.14,.81,1.88,.82,.72,0,1.34-.28,1.87-.82,.53-.54,.81-1.18,.83-1.92Z"/><path class="e" d="M125.65,126.93c-1.05,0-1.96-.38-2.7-1.13-.74-.75-1.12-1.67-1.13-2.72-.01-1.09,.36-2.04,1.11-2.8,.75-.77,1.66-1.15,2.73-1.15s2,.39,2.76,1.16c.75,.77,1.13,1.71,1.12,2.8h0c-.02,1.06-.41,1.98-1.15,2.73-.74,.75-1.66,1.12-2.73,1.12Zm0-7.56c-.99,0-1.85,.36-2.55,1.08-.7,.72-1.05,1.6-1.04,2.63,0,.99,.36,1.84,1.06,2.55,.7,.7,1.54,1.06,2.52,1.06s1.86-.35,2.55-1.05c.7-.7,1.06-1.56,1.08-2.55,0-1.02-.35-1.9-1.05-2.62-.71-.72-1.57-1.08-2.58-1.08Zm.02,6.55c-.78,0-1.44-.3-1.97-.86-.53-.56-.81-1.23-.84-1.99,0-.81,.27-1.52,.82-2.09,.54-.57,1.22-.87,2.02-.88,.02,0,.05,0,.08,0,.72,0,1.36,.29,1.9,.85,.55,.58,.83,1.28,.83,2.09h0c-.02,.77-.32,1.45-.87,2.01-.55,.56-1.21,.85-1.96,.86Zm.09-5.56s-.04,0-.07,0c-.73,0-1.35,.28-1.84,.8-.5,.53-.75,1.17-.75,1.91,.02,.69,.28,1.3,.77,1.82,.49,.51,1.09,.77,1.79,.78,.68,0,1.27-.26,1.78-.79,.51-.52,.78-1.13,.8-1.84,0-.74-.26-1.39-.76-1.92-.49-.51-1.07-.77-1.72-.77Z"/></g><g><path class="e" d="M132.35,123.32c.49,0,.91,.17,1.24,.51,.33,.34,.5,.75,.5,1.25s-.17,.91-.5,1.25c-.33,.34-.75,.51-1.24,.51s-.9-.17-1.23-.51c-.33-.34-.5-.75-.5-1.25s.17-.91,.5-1.25c.33-.34,.74-.51,1.23-.51Zm.94,1.74c0-.28-.09-.51-.27-.69-.18-.18-.41-.27-.67-.27s-.47,.09-.65,.27c-.18,.18-.27,.41-.27,.69s.09,.5,.27,.69c.18,.19,.4,.28,.65,.28s.49-.09,.67-.28c.18-.19,.27-.42,.27-.69Z"/><path class="e" d="M132.35,126.95c-.52,0-.96-.18-1.32-.54-.36-.36-.54-.81-.54-1.34s.18-.97,.54-1.34c.36-.36,.8-.54,1.32-.54s.97,.18,1.33,.54c.36,.36,.54,.81,.54,1.34s-.18,.97-.54,1.34c-.36,.36-.81,.54-1.33,.54Zm0-3.51c-.46,0-.83,.15-1.14,.47-.31,.32-.46,.7-.46,1.16s.15,.84,.46,1.16c.31,.32,.69,.47,1.14,.47s.84-.15,1.15-.47c.31-.32,.46-.7,.46-1.16s-.15-.84-.46-1.16c-.31-.32-.69-.47-1.15-.47Zm0,2.71c-.29,0-.54-.11-.74-.32s-.31-.47-.31-.78,.1-.58,.31-.78c.21-.21,.46-.31,.74-.31s.55,.1,.76,.31c.21,.21,.31,.47,.31,.78s-.1,.57-.31,.78c-.21,.21-.46,.32-.76,.32Zm0-1.94c-.22,0-.41,.08-.56,.24-.16,.16-.24,.36-.24,.6s.08,.44,.24,.6c.16,.16,.34,.24,.56,.24s.42-.08,.58-.24c.16-.16,.24-.36,.24-.6s-.08-.45-.24-.6c-.16-.16-.35-.24-.58-.24Z"/></g><g><path class="e" d="M140.94,119.26l-2.44,3.76,2.46,3.8h-1.09l-1.92-2.96-1.92,2.96h-1.08l2.46-3.78-2.46-3.77h5.99Zm-4.38,.79l1.39,2.15,1.39-2.15h-2.78Z"/><path class="e" d="M141.19,126.94h-1.39l-1.86-2.86-1.85,2.86h-1.38l2.54-3.91-2.54-3.9h6.45l-2.52,3.88,2.54,3.92Zm-1.25-.25h.79l-2.38-3.67,.04-.07,2.32-3.57h-5.53l2.38,3.65-.04,.07-2.33,3.59h.78l1.99-3.07,1.99,3.07Zm-1.98-4.27l-1.62-2.5h3.24l-1.62,2.5Zm-1.16-2.25l1.16,1.79,1.16-1.79h-2.32Z"/></g><g><path class="e" d="M146.7,123.32c.49,0,.91,.17,1.24,.51,.33,.34,.5,.75,.5,1.25s-.17,.91-.5,1.25c-.33,.34-.75,.51-1.24,.51s-.9-.17-1.23-.51c-.33-.34-.5-.75-.5-1.25s.17-.91,.5-1.25c.33-.34,.74-.51,1.23-.51Zm.94,1.74c0-.28-.09-.51-.27-.69-.18-.18-.41-.27-.67-.27s-.47,.09-.65,.27c-.18,.18-.27,.41-.27,.69s.09,.5,.27,.69c.18,.19,.4,.28,.65,.28s.49-.09,.67-.28c.18-.19,.27-.42,.27-.69Z"/><path class="e" d="M146.71,126.95c-.52,0-.96-.18-1.32-.54-.36-.36-.54-.81-.54-1.34s.18-.97,.54-1.34c.36-.36,.8-.54,1.32-.54s.97,.18,1.33,.54c.36,.36,.54,.81,.54,1.34s-.18,.97-.54,1.34c-.36,.36-.8,.54-1.33,.54Zm0-3.51c-.46,0-.83,.15-1.14,.47-.31,.32-.47,.7-.47,1.16s.15,.84,.47,1.16c.31,.32,.69,.47,1.14,.47s.84-.15,1.15-.47c.31-.32,.47-.7,.47-1.16s-.15-.84-.47-1.16c-.31-.32-.69-.47-1.15-.47Zm0,2.71c-.29,0-.54-.11-.74-.32-.21-.21-.31-.47-.31-.78s.1-.58,.31-.78c.21-.21,.46-.31,.74-.31s.55,.1,.76,.31c.21,.21,.31,.47,.31,.78s-.1,.57-.31,.78c-.21,.21-.46,.32-.76,.32Zm0-1.94c-.22,0-.41,.08-.56,.24-.16,.16-.24,.36-.24,.6s.08,.44,.24,.6c.16,.16,.34,.24,.56,.24s.42-.08,.58-.24c.16-.16,.24-.36,.24-.6s-.08-.45-.24-.6c-.16-.16-.35-.24-.58-.24Z"/></g><g><path class="e" d="M150.31,126.81h-.99v-7.57h.99v7.57Z"/><path class="e" d="M150.43,126.94h-1.24v-7.82h1.24v7.82Zm-.99-.25h.74v-7.32h-.74v7.32Z"/></g><g><path class="e" d="M153.22,123.32c.49,0,.91,.17,1.24,.51,.33,.34,.5,.75,.5,1.25s-.17,.91-.5,1.25c-.33,.34-.75,.51-1.24,.51s-.9-.17-1.23-.51c-.33-.34-.5-.75-.5-1.25s.17-.91,.5-1.25c.33-.34,.74-.51,1.23-.51Zm.94,1.74c0-.28-.09-.51-.27-.69-.18-.18-.41-.27-.67-.27s-.47,.09-.65,.27c-.18,.18-.27,.41-.27,.69s.09,.5,.27,.69c.18,.19,.4,.28,.65,.28s.49-.09,.67-.28c.18-.19,.27-.42,.27-.69Z"/><path class="e" d="M153.22,126.95c-.52,0-.96-.18-1.32-.54-.36-.36-.54-.81-.54-1.34s.18-.97,.54-1.34c.36-.36,.8-.54,1.32-.54s.97,.18,1.33,.54c.36,.36,.54,.81,.54,1.34s-.18,.97-.54,1.34c-.36,.36-.81,.54-1.33,.54Zm0-3.51c-.46,0-.83,.15-1.14,.47-.31,.32-.46,.7-.46,1.16s.15,.84,.46,1.16c.31,.32,.69,.47,1.14,.47s.84-.15,1.15-.47c.31-.32,.46-.7,.46-1.16s-.15-.84-.46-1.16c-.31-.32-.69-.47-1.15-.47Zm0,2.71c-.29,0-.54-.11-.74-.32-.21-.21-.31-.47-.31-.78s.1-.58,.31-.78c.21-.21,.46-.31,.74-.31s.55,.1,.76,.31c.21,.21,.31,.47,.31,.78s-.1,.57-.31,.78-.46,.32-.76,.32Zm0-1.94c-.22,0-.4,.08-.56,.24-.16,.16-.24,.36-.24,.6s.08,.44,.24,.6,.34,.24,.56,.24c.23,0,.42-.08,.58-.24,.16-.16,.24-.36,.24-.6s-.08-.45-.24-.6c-.16-.16-.35-.24-.58-.24Z"/></g><g><path class="e" d="M161.46,126.81h-5.61v-7.57h5.61v1h-4.61v5.56h4.61v1Z"/><path class="e" d="M161.59,126.94h-5.86v-7.82h5.86v1.25h-4.61v5.31h4.61v1.25Zm-5.61-.25h5.36v-.75h-4.61v-5.81h4.61v-.75h-5.36v7.32Z"/></g><g><path class="e" d="M164.54,123.53c.49,0,.91,.16,1.24,.48,.33,.32,.5,.71,.5,1.17s-.17,.84-.5,1.15c-.33,.31-.75,.47-1.24,.47s-.9-.16-1.23-.47c-.33-.31-.5-.7-.5-1.15s.17-.85,.5-1.17c.33-.32,.74-.48,1.23-.48Zm.04-4.29c.49,0,.91,.16,1.24,.48,.33,.32,.5,.71,.5,1.17s-.17,.84-.5,1.15c-.33,.31-.75,.47-1.24,.47s-.89-.16-1.23-.47c-.34-.31-.5-.7-.5-1.15s.17-.85,.5-1.17c.34-.32,.75-.48,1.23-.48Zm.96,5.92c0-.28-.1-.51-.29-.7-.19-.19-.43-.28-.71-.28s-.5,.09-.69,.28c-.19,.19-.29,.42-.29,.7s.1,.5,.29,.69c.19,.19,.42,.28,.69,.28s.51-.09,.71-.28c.19-.19,.29-.42,.29-.69Zm.03-4.29c0-.28-.1-.51-.29-.7-.19-.19-.43-.28-.71-.28s-.5,.09-.69,.28c-.19,.19-.29,.42-.29,.7s.1,.5,.29,.69c.19,.19,.42,.28,.69,.28s.51-.09,.71-.28c.19-.19,.29-.42,.29-.69Z"/><path class="e" d="M164.54,126.93c-.52,0-.96-.17-1.32-.51-.36-.34-.54-.76-.54-1.25s.18-.92,.54-1.26c.36-.34,.8-.51,1.32-.51s.97,.17,1.33,.51c.36,.34,.54,.77,.54,1.26s-.18,.91-.54,1.25c-.36,.34-.8,.51-1.33,.51Zm0-3.27c-.46,0-.83,.14-1.14,.44-.31,.3-.46,.65-.46,1.08s.15,.77,.46,1.06c.31,.29,.69,.44,1.14,.44s.84-.14,1.16-.44c.31-.29,.46-.64,.46-1.06s-.15-.78-.46-1.08c-.31-.3-.69-.44-1.16-.44Zm0,2.6c-.3,0-.56-.11-.78-.32-.22-.21-.33-.47-.33-.78s.11-.57,.33-.79c.22-.21,.48-.32,.78-.32s.58,.11,.79,.32c.21,.21,.32,.48,.32,.79s-.11,.57-.32,.78c-.21,.21-.48,.32-.79,.32Zm0-1.95c-.24,0-.43,.08-.6,.25-.17,.17-.25,.37-.25,.61s.08,.43,.25,.6c.17,.17,.37,.25,.6,.25,.25,0,.45-.08,.62-.24,.17-.16,.25-.36,.25-.6s-.08-.44-.25-.61c-.17-.17-.37-.25-.62-.25Zm.04-1.67c-.51,0-.95-.17-1.31-.51-.36-.34-.54-.76-.54-1.25s.18-.92,.54-1.26c.36-.34,.8-.51,1.31-.51s.97,.17,1.33,.51c.36,.34,.54,.76,.54,1.26s-.18,.91-.54,1.25c-.36,.34-.8,.51-1.33,.51Zm0-3.27c-.45,0-.83,.14-1.14,.44-.31,.3-.46,.65-.46,1.08s.15,.77,.46,1.06c.32,.29,.69,.44,1.14,.44s.84-.14,1.16-.44c.31-.29,.46-.64,.46-1.06s-.15-.78-.46-1.08c-.31-.3-.69-.44-1.16-.44Zm0,2.6c-.3,0-.56-.11-.78-.32-.21-.21-.32-.47-.32-.78s.11-.58,.32-.79c.21-.21,.48-.32,.78-.32s.58,.11,.79,.32c.21,.21,.32,.48,.32,.79s-.11,.57-.32,.78c-.22,.21-.48,.32-.79,.32Zm0-1.95c-.24,0-.43,.08-.6,.24s-.25,.36-.25,.61,.08,.44,.25,.6,.36,.24,.6,.24c.25,0,.45-.08,.62-.25,.17-.16,.25-.36,.25-.6s-.08-.45-.25-.61c-.17-.16-.37-.24-.62-.24Z"/></g><g><path class="e" d="M168.31,126.81h-.99v-7.57h.99v7.57Z"/><path class="e" d="M168.44,126.94h-1.24v-7.82h1.24v7.82Zm-.99-.25h.74v-7.32h-.74v7.32Z"/></g></g><g><g><path class="e" d="M13.32,136.7h-2.04v-.2c.21,0,.36-.05,.44-.13,.08-.08,.12-.23,.12-.44,0-.04,0-.09,0-.14l-.32-3.3c-.47,.84-.81,1.5-1.01,1.97l-1.04,2.44h-.19l-1.94-4.83-.14,1.49c-.06,.67-.1,1.2-.1,1.6,0,.87,.22,1.32,.66,1.35v.2h-1.88v-.2c.24-.06,.43-.26,.57-.61,.07-.16,.15-.44,.24-.85,.12-.51,.21-1.07,.26-1.67l.1-1.1s0-.09,0-.17c0-.2-.04-.33-.13-.4-.07-.06-.21-.1-.42-.1v-.2h1.36l1.78,4.39,1.02-2.41c.38-.9,.63-1.56,.76-1.98h1.48v.2c-.22,0-.38,.04-.47,.1-.12,.08-.17,.22-.17,.43,0,.04,0,.07,0,.1l.32,3.31c.03,.36,.08,.59,.14,.7,.1,.17,.3,.27,.6,.27v.2Z"/><path class="e" d="M9.54,137.02h-.35l-.03-.08-1.75-4.35-.09,.98c-.06,.67-.09,1.2-.09,1.59,0,.79,.18,1.2,.54,1.22h.12v.45h-2.13v-.42l.1-.02c.19-.04,.36-.22,.49-.53,.06-.15,.14-.43,.23-.83,.12-.5,.2-1.06,.26-1.65l.1-1.1s0-.08,0-.16c0-.15-.03-.26-.09-.3-.03-.03-.12-.07-.34-.08h-.12v-.45h1.57l1.7,4.19,.9-2.13c.38-.9,.63-1.56,.76-1.97l.03-.09h1.7v.45h-.12c-.25,0-.36,.05-.41,.08-.08,.05-.12,.16-.12,.33,0,.03,0,.06,0,.08l.32,3.31c.04,.45,.1,.6,.12,.65,.07,.13,.24,.21,.49,.21h.12v.45h-2.29v-.45h.12c.22,0,.32-.06,.36-.1,.04-.04,.09-.13,.09-.36,0-.04,0-.08,0-.13l-.28-2.9c-.37,.67-.64,1.21-.81,1.61l-1.07,2.52Zm-.18-.25h.02l1.01-2.36c.2-.48,.55-1.14,1.02-1.98l.19-.35,.36,3.69c0,.06,0,.11,0,.15,0,.25-.05,.42-.16,.53-.05,.05-.12,.09-.2,.12h1.37c-.17-.05-.29-.15-.37-.29-.07-.12-.12-.36-.16-.75l-.32-3.31s0-.07,0-.11c0-.25,.08-.43,.23-.54,.04-.03,.09-.05,.16-.07h-1c-.13,.42-.38,1.06-.74,1.9l-1.14,2.69-1.86-4.59h-.93c.06,.02,.11,.05,.15,.08,.12,.09,.18,.26,.18,.5,0,.09,0,.15,0,.18l-.1,1.11c-.06,.6-.14,1.17-.26,1.69-.1,.42-.18,.71-.25,.88-.13,.32-.31,.53-.52,.63h1.47c-.36-.15-.54-.63-.54-1.42,0-.39,.03-.94,.1-1.61l.19-2,2.1,5.23Z"/></g><g><path class="e" d="M15.52,136.7h-1.9v-.2c.23,0,.4-.06,.49-.15,.1-.1,.14-.26,.14-.49v-2.27c0-.17-.1-.26-.3-.26-.07,0-.15,.02-.24,.05-.04,.02-.08,.03-.1,.04v-.21l1.06-.42h.2v3.07c0,.23,.05,.4,.14,.49,.1,.1,.26,.15,.49,.15v.2Zm-.55-5.25c0,.11-.04,.2-.12,.28s-.17,.11-.28,.11-.2-.04-.28-.11c-.08-.08-.11-.17-.11-.28s.04-.2,.11-.28c.07-.08,.17-.12,.27-.12,.11,0,.21,.04,.29,.11s.12,.17,.12,.28Z"/><path class="e" d="M15.65,136.82h-2.15v-.45h.12c.19,0,.33-.05,.41-.12,.07-.07,.11-.21,.11-.41v-2.27c0-.08-.01-.14-.17-.14-.05,0-.12,.01-.19,.04-.05,.02-.09,.04-.12,.04l-.16,.04v-.46l1.19-.46h.33v3.2c0,.19,.04,.33,.11,.41,.07,.07,.21,.11,.41,.12h.12v.45Zm-1.68-.25h1.21c-.1-.03-.17-.08-.24-.14-.12-.12-.18-.32-.18-.58v-2.95h-.05l-.73,.29c.26,0,.41,.15,.41,.39v2.27c0,.27-.06,.46-.18,.58-.06,.06-.14,.11-.24,.14Zm.6-4.6c-.15,0-.27-.05-.37-.15-.1-.1-.15-.22-.15-.37s.05-.26,.15-.37c.2-.21,.54-.2,.74,0,.1,.1,.16,.23,.16,.37s-.05,.27-.15,.37c-.1,.1-.23,.15-.37,.15Zm0-.79c-.07,0-.13,.03-.18,.08-.05,.06-.08,.12-.08,.19s.02,.14,.08,.19c.11,.11,.28,.1,.39,0,.05-.05,.08-.11,.08-.19s-.03-.14-.08-.19c-.06-.05-.12-.08-.2-.08Z"/></g><g><path class="e" d="M20.2,136.7h-1.44v-.2c.12,0,.17-.07,.17-.2v-2.56c0-.32-.13-.48-.4-.48-.43,0-.79,.31-1.08,.94-.23,.51-.34,1.01-.34,1.5,0,.29,.04,.49,.12,.6,.1,.13,.28,.2,.56,.2v.2h-1.89v-.2c.23,0,.4-.06,.49-.15,.09-.1,.14-.26,.14-.49v-2.12c0-.27-.09-.41-.27-.41-.07,0-.19,.03-.36,.1v-.21l1.08-.44h.17v1.37c.3-.4,.54-.68,.73-.87,.35-.33,.68-.5,.98-.5,.47,0,.7,.3,.7,.9v2.17c0,.23,.05,.4,.14,.49,.1,.1,.26,.15,.49,.15v.2Z"/><path class="e" d="M20.32,136.82h-1.69v-.44h.12s.06,0,.06-.08v-2.56c0-.31-.13-.35-.28-.35-.38,0-.7,.29-.96,.87-.22,.49-.33,.97-.33,1.45,0,.35,.06,.48,.1,.53,.07,.1,.23,.15,.46,.15h.12v.45h-2.14v-.45h.12c.19,0,.33-.05,.4-.12,.07-.07,.11-.21,.11-.41v-2.12c0-.29-.1-.29-.15-.29-.02,0-.1,0-.31,.1l-.17,.07v-.48l1.2-.48h.3v1.12c.2-.26,.38-.45,.52-.59,.37-.35,.73-.53,1.07-.53,.38,0,.83,.18,.83,1.03v2.17c0,.19,.04,.33,.11,.41,.07,.07,.21,.11,.41,.12h.12v.45Zm-1.4-.25h.93c-.1-.03-.17-.08-.24-.14-.12-.12-.18-.32-.18-.58v-2.17c0-.7-.33-.78-.58-.78-.21,0-.45,.1-.7,.3,.11-.05,.24-.07,.36-.07,.2,0,.53,.08,.53,.6v2.56c0,.13-.05,.22-.13,.28Zm-2.69,0h1.19c-.13-.04-.24-.11-.3-.2-.1-.13-.15-.35-.15-.68,0-.51,.12-1.03,.36-1.55,.01-.03,.03-.06,.04-.09-.04,.05-.08,.11-.13,.17l-.23,.3v-1.62h-.02l-.72,.29c.15,0,.37,.09,.37,.54v2.12c0,.27-.06,.46-.18,.58-.06,.06-.14,.11-.23,.14Z"/></g><g><path class="e" d="M22.52,136.7h-1.9v-.2c.23,0,.4-.06,.49-.15,.1-.1,.14-.26,.14-.49v-2.27c0-.17-.1-.26-.3-.26-.07,0-.15,.02-.24,.05-.04,.02-.08,.03-.1,.04v-.21l1.06-.42h.2v3.07c0,.23,.05,.4,.14,.49,.1,.1,.26,.15,.49,.15v.2Zm-.55-5.25c0,.11-.04,.2-.12,.28s-.17,.11-.28,.11-.2-.04-.28-.11c-.08-.08-.11-.17-.11-.28s.04-.2,.11-.28c.07-.08,.17-.12,.27-.12,.11,0,.21,.04,.29,.11s.12,.17,.12,.28Z"/><path class="e" d="M22.64,136.82h-2.15v-.45h.12c.19,0,.33-.05,.41-.12,.07-.07,.11-.21,.11-.41v-2.27c0-.08-.01-.14-.17-.14-.05,0-.12,.01-.19,.04-.05,.02-.09,.04-.12,.04l-.16,.04v-.46l1.19-.46h.33v3.2c0,.19,.04,.33,.11,.41,.07,.07,.21,.11,.41,.12h.12v.45Zm-1.68-.25h1.21c-.1-.03-.17-.08-.24-.14-.12-.12-.18-.32-.18-.58v-2.95h-.05l-.73,.29c.26,0,.41,.15,.41,.39v2.27c0,.26-.06,.46-.18,.58-.06,.06-.14,.11-.24,.14Zm.61-4.6c-.15,0-.27-.05-.37-.15-.1-.1-.15-.22-.15-.37s.05-.26,.15-.37c.2-.21,.54-.2,.74,0,.1,.1,.16,.23,.16,.37s-.05,.27-.15,.37c-.1,.1-.23,.15-.37,.15Zm0-.79c-.07,0-.13,.03-.18,.08-.05,.06-.08,.12-.08,.19s.02,.14,.08,.19c.11,.11,.28,.11,.39,0,.05-.05,.08-.11,.08-.19s-.03-.14-.08-.19c-.06-.05-.12-.08-.2-.08Z"/></g><g><path class="e" d="M25.56,135.54c0,.37-.16,.68-.49,.93-.3,.24-.64,.35-1.02,.35-.3,0-.64-.08-1.02-.25v-1.15h.28c.02,.31,.11,.57,.26,.78,.18,.24,.41,.36,.71,.36,.21,0,.38-.06,.52-.19s.21-.29,.21-.5-.08-.39-.25-.55c-.08-.07-.25-.2-.52-.37l-.53-.34c-.37-.26-.55-.52-.55-.8,0-.32,.15-.58,.45-.78,.26-.17,.56-.25,.9-.25,.25,0,.52,.06,.81,.17v1.09h-.3c0-.27-.07-.5-.22-.69-.16-.22-.37-.32-.62-.32-.14,0-.26,.05-.35,.14-.09,.09-.14,.21-.14,.35,0,.17,.09,.34,.26,.49,.08,.07,.24,.18,.48,.33,.43,.27,.68,.43,.73,.48,.27,.22,.4,.46,.4,.72Z"/><path class="e" d="M24.04,136.94c-.31,0-.67-.09-1.07-.26l-.08-.03v-1.36h.52v.12c.02,.29,.1,.53,.24,.71,.15,.21,.35,.31,.61,.31,.18,0,.32-.05,.43-.16,.11-.1,.17-.23,.17-.41s-.07-.32-.22-.46c-.05-.05-.18-.15-.5-.35l-.53-.34c-.4-.28-.61-.59-.61-.91,0-.37,.17-.67,.51-.88,.48-.31,1.11-.37,1.83-.1l.08,.03v1.3h-.55v-.12c0-.24-.07-.44-.19-.62-.13-.18-.3-.27-.52-.27-.11,0-.2,.03-.27,.1-.07,.07-.1,.15-.1,.27,0,.14,.07,.27,.22,.4,.05,.05,.17,.14,.46,.32,.65,.41,.72,.47,.75,.49,.3,.25,.45,.52,.45,.82,0,.4-.18,.75-.54,1.03-.33,.25-.69,.38-1.1,.38Zm-.9-.46c.43,.17,.78,.23,1.1,.2-.32,0-.58-.15-.78-.41-.15-.2-.24-.44-.28-.73h-.04v.94Zm.54-3.36h-.02c-.27,.18-.4,.41-.4,.69,0,.23,.17,.47,.49,.7l.53,.33c.28,.17,.45,.3,.54,.38,.19,.19,.29,.41,.29,.64,0,.22-.07,.4-.2,.55,.02-.02,.05-.03,.07-.05,.3-.23,.45-.5,.45-.83,0-.22-.12-.43-.36-.63-.03-.02-.16-.12-.72-.47-.24-.15-.41-.27-.5-.34-.2-.18-.3-.38-.3-.59,0-.15,.04-.28,.12-.38Zm1.45,.78h.05v-.87c-.3-.1-.57-.14-.82-.12,.21,.04,.39,.16,.53,.36,.13,.19,.21,.4,.23,.64Z"/></g><g><path class="e" d="M28.18,133.4h-1.02v2.66c0,.17,.07,.26,.21,.26s.34-.11,.61-.33c.03-.03,.05-.04,.07-.05v.24c-.47,.42-.85,.63-1.12,.63-.26,0-.39-.2-.39-.6v-2.81h-.63v-.19c.24,0,.41-.05,.52-.15s.16-.27,.16-.51v-.63l.85-.34v.22c-.17,.04-.26,.24-.26,.59,0,.38,.09,.62,.27,.73,.1,.06,.24,.09,.4,.09h.34v.19Z"/><path class="e" d="M26.92,136.94c-.23,0-.52-.13-.52-.73v-2.69h-.64v-.44h.12c.21,0,.35-.04,.43-.11,.08-.07,.12-.22,.12-.42v-.71l1.1-.45v.5l-.1,.02c-.14,.03-.17,.27-.17,.47,0,.33,.07,.54,.21,.62,.08,.05,.2,.07,.34,.07h.47v.44h-1.02v2.54c0,.14,.04,.14,.08,.14,.06,0,.21-.04,.53-.3,.04-.03,.06-.05,.08-.06l.19-.12v.53l-.04,.04c-.5,.45-.89,.67-1.21,.67Zm-.61-3.67h.35v2.94c0,.48,.19,.48,.27,.48,.17,0,.39-.1,.65-.29-.08,.03-.14,.04-.2,.04-.08,0-.33-.03-.33-.39v-2.79h.42s-.06-.03-.09-.04c-.22-.13-.34-.41-.34-.84,0-.26,.05-.45,.14-.57l-.48,.19v.54c0,.28-.07,.48-.2,.6-.05,.05-.12,.09-.19,.12Z"/></g><g><path class="e" d="M31.8,135.66c-.62,.77-1.22,1.16-1.81,1.16-.45,0-.82-.2-1.13-.59-.29-.36-.43-.77-.43-1.23,0-.55,.17-1.05,.52-1.49,.38-.48,.83-.72,1.37-.72,.41,0,.74,.15,.99,.45,.23,.28,.35,.63,.37,1.05h-2.68c0,.11,0,.19,0,.24,0,.44,.11,.83,.34,1.16,.25,.37,.59,.56,1.02,.56,.48,0,.96-.29,1.46-.86v.27Zm-.81-1.58c-.03-.29-.12-.53-.27-.71-.17-.21-.39-.32-.66-.32s-.5,.11-.7,.32c-.18,.19-.29,.43-.33,.71h1.96Zm-.4-1.88l-.15,.09-.58-.65c-.18-.2-.27-.34-.27-.4,0-.17,.08-.26,.25-.26,.1,0,.19,.09,.28,.26l.47,.96Z"/><path class="e" d="M30,136.94c-.48,0-.9-.21-1.23-.63-.3-.38-.46-.82-.46-1.31,0-.57,.18-1.1,.55-1.57,.4-.51,.89-.77,1.46-.77,.45,0,.82,.17,1.09,.49,.25,.3,.38,.68,.39,1.13v.13h-2.68s0,.08,0,.11c0,.42,.11,.78,.31,1.09,.23,.34,.53,.51,.91,.51,.44,0,.89-.27,1.36-.82l.22-.25v.65l-.03,.03c-.64,.8-1.28,1.21-1.9,1.21Zm-.91-3.4l-.03,.04c-.33,.42-.5,.9-.5,1.42,0,.43,.13,.81,.4,1.15,.29,.36,.63,.54,1.04,.54,.43,0,.88-.23,1.34-.7-.33,.25-.66,.37-.99,.37-.47,0-.84-.21-1.12-.62-.24-.35-.36-.76-.36-1.23,0-.05,0-.13,0-.24v-.12h.02l.02-.1c.03-.19,.09-.36,.17-.52Zm2.04,.62h.41c-.03-.34-.14-.62-.33-.84-.23-.27-.52-.4-.9-.4-.07,0-.14,0-.2,.01,.29,.01,.53,.14,.71,.37,.16,.2,.26,.46,.29,.77v.1Zm-1.93-.21h1.66c-.04-.2-.11-.37-.22-.51-.15-.18-.33-.27-.57-.27s-.43,.09-.6,.28c-.13,.14-.22,.31-.27,.5Zm1.23-1.51l-.64-.72c-.27-.3-.31-.41-.31-.49,0-.24,.14-.38,.37-.38s.35,.25,.39,.33l.52,1.06-.34,.2Zm-.58-1.34c-.09,0-.12,.02-.12,.13,0,0,.02,.07,.24,.32l.39,.44-.35-.7c-.07-.14-.13-.19-.17-.19Z"/></g><g><path class="e" d="M35.24,134.13h-.29c0-.5-.15-.75-.44-.75-.35,0-.64,.31-.85,.92-.16,.47-.24,.93-.24,1.36,0,.35,.07,.58,.21,.69,.12,.1,.36,.15,.72,.15v.2h-2.16v-.2c.23,0,.4-.06,.49-.15,.1-.1,.15-.26,.15-.49v-2.15c0-.24-.09-.37-.27-.37-.07,0-.2,.03-.37,.09v-.2l1.09-.44h.18v1.35c.52-.89,1.01-1.34,1.45-1.34,.09,0,.2,.02,.33,.06v1.28Z"/><path class="e" d="M34.47,136.82h-2.41v-.45h.12c.19,0,.34-.05,.41-.12,.07-.07,.11-.21,.11-.4v-2.15c0-.24-.09-.24-.15-.24-.03,0-.12,.01-.33,.08l-.17,.06v-.46l1.22-.49h.31v1.04c.46-.69,.9-1.03,1.33-1.03,.1,0,.22,.02,.37,.07l.09,.03v1.49h-.54v-.12c0-.63-.24-.63-.31-.63-.29,0-.54,.28-.73,.84-.16,.46-.24,.9-.24,1.32,0,.3,.06,.5,.16,.59,.07,.06,.24,.12,.64,.12h.12v.45Zm-1.94-.25h1.29c-.12-.03-.21-.07-.28-.13-.17-.14-.26-.4-.26-.79,0-.45,.08-.92,.25-1.4l.02-.05-.22,.38v-1.68h-.03l-.74,.3c.12,0,.39,.05,.39,.49v2.15c0,.27-.06,.46-.18,.58-.06,.06-.14,.11-.24,.14Zm2.54-2.57h.05v-1.06c-.08-.02-.15-.03-.2-.03-.23,0-.47,.14-.73,.42,.1-.06,.21-.08,.33-.08,.24,0,.52,.13,.56,.75Z"/></g><g><path class="e" d="M38.89,135.66c-.62,.77-1.22,1.16-1.81,1.16-.45,0-.82-.2-1.13-.59-.29-.36-.43-.77-.43-1.23,0-.55,.17-1.05,.52-1.49,.38-.48,.83-.72,1.37-.72,.41,0,.74,.15,.99,.45,.23,.28,.35,.63,.37,1.05h-2.68c0,.11,0,.19,0,.24,0,.44,.11,.83,.34,1.16,.25,.37,.59,.56,1.02,.56,.48,0,.96-.29,1.46-.86v.27Zm-.81-1.58c-.03-.29-.12-.53-.27-.71-.17-.21-.39-.32-.66-.32s-.5,.11-.7,.32c-.18,.19-.29,.43-.33,.71h1.96Z"/><path class="e" d="M37.08,136.94c-.48,0-.9-.21-1.23-.63-.3-.38-.46-.82-.46-1.31,0-.57,.18-1.1,.55-1.57,.4-.51,.89-.77,1.46-.77,.45,0,.81,.17,1.09,.49,.25,.3,.38,.68,.39,1.13v.13h-2.68s0,.08,0,.11c0,.41,.11,.78,.31,1.09,.23,.34,.53,.51,.91,.51,.44,0,.89-.27,1.36-.82l.22-.25v.65l-.03,.03c-.64,.8-1.28,1.21-1.9,1.21Zm-.91-3.4s-.02,.03-.03,.04c-.33,.42-.5,.9-.5,1.42,0,.42,.14,.81,.4,1.15,.29,.36,.63,.54,1.03,.54,.43,0,.88-.23,1.34-.7-.33,.25-.66,.37-.99,.37-.47,0-.84-.21-1.12-.62-.24-.35-.36-.76-.36-1.23,0-.05,0-.13,0-.24v-.12h.02l.02-.1c.03-.19,.09-.36,.17-.52Zm2.04,.62h.41c-.03-.33-.14-.62-.33-.84-.23-.27-.52-.4-.9-.4-.07,0-.14,0-.2,.01,.29,.01,.53,.14,.71,.37,.16,.2,.26,.46,.29,.77v.09Zm-1.93-.21h1.66c-.04-.2-.11-.37-.22-.51-.15-.18-.33-.27-.57-.27s-.43,.09-.6,.28c-.13,.14-.22,.31-.27,.5Z"/></g><g><path class="e" d="M45.48,136.4l-1.06,.42h-.2v-1.34c-.34,.44-.59,.72-.73,.86-.34,.32-.66,.49-.98,.49-.38,0-.69-.18-.91-.54-.2-.31-.29-.67-.29-1.07,0-.56,.2-1.1,.6-1.61,.43-.54,.92-.81,1.46-.81,.24,0,.52,.07,.85,.22v-1.12c0-.24-.09-.35-.27-.35-.09,0-.21,.03-.36,.09v-.23l1.44-.55v.17c-.12,.05-.18,.14-.18,.28v4.64c0,.23,.1,.34,.29,.34,.09,0,.2-.03,.33-.09v.21Zm-1.2-2.34c0-.19-.02-.36-.05-.5-.38-.32-.76-.48-1.11-.48-.38,0-.69,.21-.9,.64-.18,.35-.27,.73-.27,1.15,0,.33,.07,.63,.22,.91,.18,.33,.42,.49,.73,.49,.41,0,.75-.28,1.03-.83,.24-.46,.35-.93,.35-1.38Z"/><path class="e" d="M42.52,136.94c-.43,0-.77-.2-1.02-.6-.21-.33-.31-.71-.31-1.14,0-.59,.21-1.15,.63-1.68,.45-.57,.98-.86,1.56-.86,.21,0,.45,.05,.72,.16v-.93c0-.23-.09-.23-.15-.23-.08,0-.18,.03-.31,.08l-.17,.07v-.5l1.69-.64v.44l-.08,.03c-.05,.02-.1,.05-.1,.17v4.64c0,.2,.08,.22,.17,.22,.05,0,.13-.01,.27-.08l.18-.08v.49l-1.18,.46h-.32v-1.11c-.23,.29-.4,.49-.52,.59-.36,.34-.72,.52-1.07,.52Zm-.26-3.55c-.08,.08-.17,.17-.25,.28-.38,.48-.58,1-.58,1.53,0,.38,.09,.72,.28,1.01,.2,.33,.47,.49,.81,.49,.28,0,.58-.15,.89-.45-.16,.1-.33,.15-.52,.15-.36,0-.64-.19-.84-.56-.16-.29-.23-.62-.23-.97,0-.44,.09-.85,.28-1.21,.05-.1,.1-.18,.16-.26Zm2.09,3.29h.05l.73-.29c-.25-.01-.39-.18-.39-.47v-4.64c0-.08,.02-.16,.05-.22l-.88,.34s.04,0,.05,0c.12,0,.4,.05,.4,.48v1.31l-.18-.08c-.31-.14-.58-.21-.8-.21-.13,0-.26,.02-.39,.05,.4-.05,.86,.13,1.31,.5l.03,.03v.04c.04,.16,.06,.33,.06,.53,0,.47-.12,.96-.37,1.44-.01,.02-.02,.04-.03,.06,.04-.05,.08-.1,.13-.16l.22-.28v1.58Zm-1.24-3.49c-.34,0-.6,.19-.79,.57-.17,.33-.25,.7-.25,1.1,0,.31,.07,.6,.21,.85,.16,.29,.36,.43,.62,.43,.36,0,.66-.25,.92-.77,.22-.45,.34-.89,.34-1.33,0-.16-.01-.31-.04-.43-.35-.28-.68-.42-1-.42Z"/></g><g><path class="e" d="M49.11,135.66c-.62,.77-1.22,1.16-1.81,1.16-.45,0-.82-.2-1.13-.59-.29-.36-.43-.77-.43-1.23,0-.55,.17-1.05,.52-1.49,.38-.48,.83-.72,1.37-.72,.41,0,.74,.15,.99,.45,.23,.28,.35,.63,.37,1.05h-2.68c0,.11,0,.19,0,.24,0,.44,.11,.83,.34,1.16,.25,.37,.59,.56,1.02,.56,.48,0,.96-.29,1.46-.86v.27Zm-.81-1.58c-.03-.29-.12-.53-.27-.71-.17-.21-.39-.32-.66-.32s-.5,.11-.7,.32c-.18,.19-.29,.43-.33,.71h1.96Z"/><path class="e" d="M47.3,136.94c-.48,0-.9-.21-1.23-.63-.3-.38-.46-.82-.46-1.31,0-.57,.18-1.1,.55-1.57,.4-.51,.89-.77,1.46-.77,.45,0,.82,.17,1.09,.49,.25,.3,.38,.68,.39,1.13v.13h-2.68s0,.08,0,.11c0,.42,.11,.78,.31,1.09,.23,.34,.53,.51,.91,.51,.44,0,.89-.27,1.36-.82l.22-.25v.65l-.03,.03c-.64,.8-1.28,1.21-1.9,1.21Zm-.91-3.4l-.03,.04c-.33,.42-.5,.9-.5,1.42,0,.43,.13,.81,.4,1.15,.29,.36,.63,.54,1.04,.54,.43,0,.88-.23,1.34-.7-.33,.25-.66,.37-.99,.37-.47,0-.84-.21-1.12-.62-.24-.35-.36-.76-.36-1.23,0-.05,0-.13,0-.24v-.12h.02l.02-.1c.03-.19,.09-.36,.17-.52Zm2.04,.62h.41c-.03-.34-.14-.62-.33-.84-.23-.27-.52-.4-.9-.4-.07,0-.14,0-.2,.01,.29,.01,.53,.14,.71,.37,.16,.2,.26,.46,.29,.77v.1Zm-1.93-.21h1.66c-.04-.2-.11-.37-.22-.51-.15-.18-.33-.27-.57-.27s-.43,.09-.6,.28c-.13,.14-.22,.31-.27,.5Z"/></g><g><path class="e" d="M53.5,136.7h-1.9v-.2c.23,0,.4-.06,.49-.15,.1-.1,.15-.26,.15-.49v-3.95c0-.25-.11-.38-.32-.38-.09,0-.2,.02-.32,.07v-.2l1.45-.57v.17c-.12,.06-.18,.16-.18,.3v4.56c0,.23,.05,.4,.14,.49s.26,.15,.49,.15v.2Z"/><path class="e" d="M53.62,136.82h-2.15v-.45h.12c.19,0,.34-.05,.41-.12,.07-.07,.11-.21,.11-.4v-3.95c0-.24-.1-.26-.19-.26-.08,0-.17,.02-.28,.06l-.17,.06v-.46l1.7-.67v.43l-.07,.03c-.08,.04-.11,.09-.11,.19v4.56c0,.19,.04,.33,.11,.41,.07,.07,.21,.11,.41,.12h.12v.45Zm-1.68-.25h1.21c-.1-.03-.17-.08-.24-.14-.12-.12-.18-.32-.18-.58v-4.56c0-.09,.02-.17,.06-.24l-.88,.35h0c.13,0,.44,.05,.44,.51v3.95c0,.27-.06,.46-.18,.58-.06,.06-.14,.11-.24,.14Z"/></g><g><path class="e" d="M57.59,136.2c-.42,.41-.76,.62-1.03,.62-.24,0-.36-.13-.36-.4v-.61c-.66,.68-1.18,1.01-1.56,1.01-.22,0-.4-.09-.54-.26-.14-.16-.21-.36-.21-.58,0-.6,.77-1.25,2.31-1.94v-.5c0-.35-.17-.53-.51-.53-.32,0-.58,.16-.79,.48-.18,.26-.28,.57-.32,.91h-.28v-1c.64-.42,1.24-.63,1.8-.63,.27,0,.46,.06,.57,.18s.17,.31,.17,.59v2.59c0,.12,.06,.19,.17,.19s.31-.13,.59-.38v.26Zm-1.34-1.82c-.4,.08-.76,.23-1.08,.43-.43,.27-.64,.57-.64,.9,0,.17,.05,.31,.16,.41,.11,.1,.25,.15,.42,.15,.4,0,.7-.23,.91-.69,.15-.34,.23-.74,.24-1.2Z"/><path class="e" d="M56.56,136.94c-.31,0-.48-.19-.48-.52v-.31c-.59,.56-1.06,.84-1.43,.84-.26,0-.47-.1-.64-.3-.16-.18-.24-.41-.24-.66,0-.65,.75-1.31,2.31-2.02v-.42c0-.28-.12-.4-.39-.4s-.5,.14-.69,.42c-.17,.24-.27,.53-.3,.86v.11h-.53v-1.19l.06-.04c.65-.43,1.28-.65,1.87-.65,.3,0,.53,.07,.66,.22,.14,.15,.2,.36,.2,.67v2.59c0,.06,0,.06,.04,.06,.02,0,.14-.02,.5-.35l.21-.19v.59l-.04,.04c-.45,.44-.81,.66-1.12,.66Zm-.23-1.44v.92c0,.23,.09,.27,.23,.27,.12,0,.31-.06,.6-.28-.07,.03-.12,.04-.16,.04-.18,0-.29-.12-.29-.31v-2.59c0-.24-.04-.4-.13-.5-.09-.09-.25-.14-.48-.14-.07,0-.13,0-.2,0,.28,.07,.43,.29,.43,.63v.58l-.07,.03c-.16,.07-.31,.14-.45,.21,.13-.04,.27-.08,.42-.11l.15-.03v.16c0,.48-.09,.9-.25,1.25-.02,.05-.05,.1-.07,.15,.02-.02,.04-.04,.06-.06l.21-.22Zm-1.66-.44c-.51,.39-.64,.7-.64,.93,0,.19,.06,.35,.18,.5,.25,.3,.63,.3,1.21-.13-.1,.03-.2,.04-.3,.04-.2,0-.37-.06-.5-.19-.13-.13-.2-.3-.2-.5,0-.23,.09-.45,.26-.65Zm1.45-.52c-.32,.08-.62,.21-.89,.38-.39,.24-.58,.5-.58,.79,0,.14,.04,.24,.12,.32,.08,.08,.19,.12,.33,.12,.35,0,.61-.2,.79-.62,.13-.28,.2-.62,.22-.99Zm-1.7-.25h.04c.05-.32,.16-.61,.33-.86,.07-.11,.15-.2,.23-.27-.2,.09-.4,.2-.6,.33v.8Z"/></g><g><path class="e" d="M63.29,135.15c0,.46-.21,.86-.64,1.2-.4,.31-.84,.47-1.32,.47-.36,0-.77-.09-1.22-.26v-1.49h.29c0,.38,.11,.72,.32,1,.24,.32,.54,.47,.91,.47,.29,0,.53-.09,.72-.26,.19-.17,.28-.4,.28-.7s-.14-.58-.42-.85c-.11-.1-.38-.29-.8-.58-.35-.24-.62-.43-.79-.57-.26-.22-.39-.5-.39-.83,0-.43,.2-.8,.61-1.1,.36-.27,.77-.4,1.22-.4,.25,0,.57,.07,.98,.21v1.3h-.3c-.02-.33-.12-.61-.29-.84-.2-.26-.46-.39-.77-.39-.23,0-.43,.07-.58,.21-.15,.14-.23,.33-.23,.56,0,.28,.16,.57,.48,.85,.12,.11,.4,.31,.83,.6,.38,.25,.63,.44,.75,.56,.24,.24,.36,.51,.36,.82Z"/><path class="e" d="M61.33,136.94c-.37,0-.8-.09-1.26-.27l-.08-.03v-1.71h.54v.12c0,.36,.1,.67,.29,.93,.21,.28,.48,.42,.81,.42,.26,0,.47-.07,.63-.22,.16-.15,.24-.35,.24-.6s-.12-.52-.38-.76c-.1-.1-.37-.29-.79-.56-.36-.24-.62-.43-.8-.58-.29-.25-.43-.56-.43-.92,0-.47,.22-.88,.66-1.2,.38-.28,.82-.42,1.3-.42,.26,0,.6,.07,1.02,.22l.08,.03v1.52h-.55v-.12c-.02-.3-.11-.56-.27-.77-.17-.23-.4-.34-.67-.34-.2,0-.36,.06-.5,.18-.13,.12-.19,.27-.19,.46,0,.24,.15,.5,.44,.76,.12,.11,.39,.31,.82,.59,.38,.26,.64,.45,.77,.58,.26,.27,.39,.57,.39,.91,0,.5-.23,.94-.69,1.3-.42,.33-.89,.5-1.39,.5Zm-1.09-.47c.55,.2,1.01,.27,1.43,.2-.41,.01-.77-.17-1.04-.52-.21-.27-.32-.6-.34-.96h-.05v1.28Zm.71-4.72l-.03,.02c-.37,.27-.55,.6-.55,1,0,.29,.11,.53,.34,.73,.17,.14,.43,.33,.78,.56,.43,.29,.7,.48,.82,.59,.3,.29,.46,.6,.46,.94,0,.28-.08,.51-.23,.69,.01,0,.03-.02,.04-.03,.4-.31,.6-.67,.6-1.1,0-.27-.1-.51-.32-.73-.08-.08-.27-.24-.73-.54-.44-.29-.71-.49-.84-.61-.35-.31-.52-.63-.52-.95,0-.23,.07-.42,.2-.57Zm1.92,.91h.06v-1.09c-.36-.12-.65-.18-.86-.18-.12,0-.25,.01-.36,.03,.35,0,.63,.15,.85,.44,.17,.22,.27,.49,.31,.79Z"/></g><g><path class="e" d="M67.45,136.2c-.42,.41-.76,.62-1.03,.62-.24,0-.36-.13-.36-.4v-.61c-.66,.68-1.18,1.01-1.56,1.01-.22,0-.4-.09-.54-.26-.14-.16-.21-.36-.21-.58,0-.6,.77-1.25,2.31-1.94v-.5c0-.35-.17-.53-.51-.53-.32,0-.58,.16-.79,.48-.18,.26-.28,.57-.32,.91h-.28v-1c.64-.42,1.24-.63,1.8-.63,.27,0,.46,.06,.57,.18s.17,.31,.17,.59v2.59c0,.12,.06,.19,.17,.19s.31-.13,.59-.38v.26Zm-1.34-1.82c-.4,.08-.76,.23-1.08,.43-.43,.27-.64,.57-.64,.9,0,.17,.05,.31,.16,.41,.11,.1,.25,.15,.42,.15,.4,0,.7-.23,.91-.69,.15-.34,.23-.74,.24-1.2Z"/><path class="e" d="M66.42,136.94c-.31,0-.48-.19-.48-.52v-.31c-.59,.56-1.06,.84-1.43,.84-.26,0-.47-.1-.64-.3-.16-.18-.24-.41-.24-.66,0-.65,.75-1.31,2.31-2.02v-.42c0-.28-.12-.4-.39-.4s-.5,.14-.69,.42c-.17,.25-.27,.53-.3,.86v.11h-.53v-1.19l.06-.04c.65-.43,1.28-.65,1.87-.65,.3,0,.53,.07,.66,.22,.14,.15,.2,.36,.2,.67v2.59c0,.06,0,.06,.05,.06,.02,0,.14-.02,.5-.35l.21-.19v.59l-.04,.04c-.45,.44-.81,.66-1.12,.66Zm-.23-1.45v.92c0,.23,.09,.27,.23,.27,.12,0,.31-.06,.6-.28-.07,.03-.12,.04-.16,.04-.18,0-.3-.12-.3-.31v-2.59c0-.24-.04-.4-.13-.5-.09-.09-.25-.14-.48-.14-.07,0-.13,0-.2,0,.28,.07,.43,.29,.43,.63v.58l-.07,.03c-.16,.07-.31,.14-.45,.21,.13-.04,.27-.08,.42-.11l.15-.03v.16c0,.48-.09,.9-.25,1.25-.02,.05-.05,.1-.07,.15,.02-.02,.04-.04,.06-.06l.21-.22Zm-1.66-.44c-.51,.39-.65,.71-.65,.93,0,.19,.06,.35,.18,.5,.26,.31,.63,.3,1.21-.13-.1,.03-.2,.04-.31,.04-.2,0-.37-.06-.5-.19-.13-.13-.2-.3-.2-.5,0-.23,.09-.45,.26-.65Zm1.45-.52c-.32,.08-.62,.21-.89,.38-.39,.24-.58,.5-.58,.79,0,.14,.04,.24,.12,.32,.08,.08,.19,.12,.33,.12,.35,0,.61-.2,.79-.62,.13-.28,.2-.62,.22-.99Zm-1.7-.25h.04c.05-.32,.16-.61,.33-.86,.07-.11,.15-.2,.23-.27-.2,.09-.4,.19-.6,.33v.8Z"/></g><g><path class="e" d="M72.02,136.7h-1.44v-.2c.12,0,.17-.07,.17-.2v-2.56c0-.32-.13-.48-.4-.48-.43,0-.79,.31-1.08,.94-.23,.51-.34,1.01-.34,1.5,0,.29,.04,.49,.12,.6,.1,.13,.28,.2,.56,.2v.2h-1.89v-.2c.23,0,.4-.06,.49-.15,.09-.1,.14-.26,.14-.49v-2.12c0-.27-.09-.41-.27-.41-.07,0-.19,.03-.36,.1v-.21l1.08-.44h.17v1.37c.3-.4,.54-.68,.73-.87,.35-.33,.68-.5,.98-.5,.47,0,.7,.3,.7,.9v2.17c0,.23,.05,.4,.14,.49,.1,.1,.26,.15,.49,.15v.2Z"/><path class="e" d="M72.15,136.82h-1.69v-.44h.12s.06,0,.06-.08v-2.56c0-.31-.13-.35-.28-.35-.38,0-.7,.29-.96,.87-.22,.49-.33,.97-.33,1.45,0,.35,.06,.48,.1,.53,.07,.1,.23,.15,.46,.15h.12v.45h-2.14v-.45h.12c.19,0,.33-.05,.4-.12,.07-.07,.11-.21,.11-.41v-2.12c0-.29-.1-.29-.15-.29-.02,0-.1,0-.31,.1l-.17,.07v-.48l1.2-.48h.3v1.12c.2-.26,.38-.45,.52-.59,.37-.35,.73-.53,1.07-.53,.38,0,.83,.18,.83,1.03v2.17c0,.19,.04,.33,.11,.41,.07,.07,.21,.11,.41,.12h.12v.45Zm-1.4-.25h.93c-.1-.03-.17-.08-.24-.14-.12-.12-.18-.32-.18-.58v-2.17c0-.7-.33-.78-.58-.78-.21,0-.45,.1-.7,.3,.12-.05,.24-.07,.36-.07,.2,0,.53,.08,.53,.6v2.56c0,.13-.05,.22-.13,.28Zm-2.69,0h1.19c-.13-.04-.24-.11-.3-.2-.1-.13-.15-.35-.15-.68,0-.51,.12-1.03,.36-1.55,.01-.03,.03-.06,.04-.09-.04,.05-.08,.11-.13,.17l-.23,.3v-1.62h-.02l-.72,.29c.15,0,.37,.09,.37,.54v2.12c0,.26-.06,.46-.18,.58-.06,.06-.14,.11-.24,.14Z"/></g><g><path class="e" d="M74.6,133.4h-1.02v2.66c0,.17,.07,.26,.21,.26s.34-.11,.61-.33c.03-.03,.05-.04,.07-.05v.24c-.47,.42-.85,.63-1.12,.63-.26,0-.39-.2-.39-.6v-2.81h-.63v-.19c.24,0,.41-.05,.52-.15s.16-.27,.16-.51v-.63l.85-.34v.22c-.17,.04-.26,.24-.26,.59,0,.38,.09,.62,.27,.73,.1,.06,.24,.09,.4,.09h.34v.19Z"/><path class="e" d="M73.34,136.94c-.23,0-.52-.13-.52-.73v-2.69h-.63v-.44h.12c.21,0,.35-.04,.43-.11,.08-.07,.12-.22,.12-.42v-.71l1.1-.45v.5l-.1,.02c-.14,.03-.17,.27-.17,.47,0,.33,.07,.54,.21,.62,.08,.05,.2,.07,.34,.07h.47v.44h-1.02v2.54c0,.14,.04,.14,.08,.14,.06,0,.21-.04,.53-.3,.04-.03,.06-.05,.08-.06l.19-.12v.53l-.04,.04c-.5,.45-.89,.67-1.21,.67Zm-.61-3.67h.35v2.94c0,.48,.19,.48,.27,.48,.12,0,.33-.06,.65-.28-.07,.03-.14,.04-.2,.04-.08,0-.33-.03-.33-.39v-2.79h.42s-.06-.03-.09-.04c-.22-.13-.34-.41-.34-.84,0-.26,.05-.45,.14-.57l-.48,.19v.54c0,.28-.07,.48-.19,.6-.05,.05-.12,.09-.19,.12Z"/></g><g><path class="e" d="M78.22,135.66c-.62,.77-1.22,1.16-1.81,1.16-.45,0-.82-.2-1.13-.59-.29-.36-.43-.77-.43-1.23,0-.55,.17-1.05,.52-1.49,.38-.48,.83-.72,1.37-.72,.41,0,.74,.15,.99,.45,.23,.28,.35,.63,.37,1.05h-2.68c0,.11,0,.19,0,.24,0,.44,.11,.83,.34,1.16,.25,.37,.59,.56,1.02,.56,.48,0,.96-.29,1.46-.86v.27Zm-.81-1.58c-.03-.29-.12-.53-.27-.71-.17-.21-.39-.32-.66-.32s-.5,.11-.7,.32c-.18,.19-.29,.43-.33,.71h1.96Zm-.15-2.86c0,.07-.05,.16-.15,.27l-.7,.78-.17-.12,.53-.99c.07-.12,.15-.18,.24-.18,.07,0,.13,.02,.18,.07,.05,.05,.08,.11,.08,.17Z"/><path class="e" d="M76.42,136.94c-.48,0-.9-.21-1.23-.63-.3-.38-.46-.82-.46-1.31,0-.57,.18-1.1,.55-1.57,.4-.51,.89-.77,1.46-.77,.45,0,.81,.17,1.09,.49,.25,.3,.38,.68,.39,1.13v.13h-2.68s0,.08,0,.11c0,.41,.11,.78,.31,1.09,.23,.34,.53,.51,.91,.51,.44,0,.89-.27,1.36-.82l.22-.25v.65l-.03,.03c-.64,.8-1.28,1.21-1.9,1.21Zm-.91-3.4s-.02,.03-.03,.04c-.33,.42-.5,.9-.5,1.42,0,.43,.13,.81,.4,1.15,.29,.36,.63,.54,1.03,.54s.88-.23,1.34-.7c-.33,.25-.66,.37-.99,.37-.47,0-.84-.21-1.12-.62-.24-.35-.36-.76-.36-1.23,0-.05,0-.13,0-.24v-.12h.02l.02-.1c.03-.19,.09-.36,.17-.52Zm2.04,.62h.41c-.03-.34-.14-.62-.33-.84-.23-.27-.52-.4-.9-.4-.07,0-.14,0-.2,.01,.29,.01,.53,.14,.71,.37,.16,.2,.26,.46,.29,.77v.09Zm-1.93-.21h1.66c-.04-.2-.11-.37-.22-.51-.15-.18-.33-.27-.57-.27s-.43,.09-.6,.28c-.13,.14-.22,.31-.27,.5Zm.83-1.52l-.36-.25,.58-1.09c.11-.21,.25-.25,.35-.25s.19,.04,.26,.11c.08,.07,.12,.16,.12,.26s-.06,.22-.18,.35l-.77,.86Zm.57-1.33c-.05,0-.1,.06-.13,.12l-.46,.85,.6-.67c.11-.12,.11-.18,.11-.18,0-.03-.01-.06-.04-.08-.03-.03-.06-.04-.09-.04Z"/></g><g><path class="e" d="M84.02,135.66c-.62,.77-1.22,1.16-1.81,1.16-.45,0-.82-.2-1.13-.59-.29-.36-.43-.77-.43-1.23,0-.55,.17-1.05,.52-1.49,.38-.48,.83-.72,1.37-.72,.41,0,.74,.15,.99,.45,.23,.28,.35,.63,.37,1.05h-2.68c0,.11,0,.19,0,.24,0,.44,.11,.83,.34,1.16,.25,.37,.59,.56,1.02,.56,.48,0,.96-.29,1.46-.86v.27Zm-.81-1.58c-.03-.29-.12-.53-.27-.71-.17-.21-.39-.32-.66-.32s-.5,.11-.7,.32c-.18,.19-.29,.43-.33,.71h1.96Z"/><path class="e" d="M82.21,136.94c-.48,0-.9-.21-1.23-.63-.3-.38-.46-.82-.46-1.31,0-.57,.18-1.1,.55-1.57,.4-.51,.89-.77,1.46-.77,.45,0,.81,.17,1.09,.49,.25,.3,.38,.68,.39,1.13v.13h-2.68s0,.08,0,.11c0,.41,.11,.78,.31,1.09,.23,.34,.53,.51,.91,.51,.44,0,.89-.27,1.36-.82l.22-.25v.65l-.03,.03c-.64,.8-1.28,1.21-1.9,1.21Zm-.91-3.4l-.03,.04c-.33,.42-.5,.9-.5,1.42,0,.42,.14,.81,.4,1.15,.29,.36,.63,.54,1.03,.54,.43,0,.88-.23,1.34-.7-.33,.25-.66,.37-.99,.37-.47,0-.84-.21-1.12-.62-.24-.35-.36-.76-.36-1.23,0-.05,0-.13,0-.24v-.12h.02l.02-.1c.03-.19,.09-.36,.17-.52Zm2.04,.62h.41c-.03-.34-.14-.62-.33-.84-.23-.27-.52-.4-.9-.4-.07,0-.14,0-.2,.01,.29,.01,.53,.14,.71,.37,.16,.2,.26,.46,.29,.78v.09Zm-1.93-.21h1.66c-.04-.2-.11-.37-.22-.51-.15-.18-.33-.27-.57-.27s-.43,.09-.6,.28c-.13,.14-.22,.31-.27,.5Z"/></g><g><path class="e" d="M86.59,133.4h-1.02v2.66c0,.17,.07,.26,.21,.26s.34-.11,.61-.33c.03-.03,.05-.04,.07-.05v.24c-.47,.42-.85,.63-1.12,.63-.26,0-.39-.2-.39-.6v-2.81h-.63v-.19c.24,0,.41-.05,.52-.15s.16-.27,.16-.51v-.63l.85-.34v.22c-.17,.04-.26,.24-.26,.59,0,.38,.09,.62,.27,.73,.1,.06,.24,.09,.4,.09h.34v.19Z"/><path class="e" d="M85.33,136.94c-.23,0-.52-.13-.52-.73v-2.69h-.63v-.44h.12c.21,0,.35-.04,.43-.11,.08-.07,.12-.22,.12-.42v-.71l1.1-.45v.5l-.1,.02c-.14,.03-.17,.27-.17,.47,0,.33,.07,.54,.21,.62,.08,.05,.2,.07,.34,.07h.47v.44h-1.02v2.54c0,.14,.04,.14,.08,.14,.06,0,.21-.04,.53-.3,.04-.03,.06-.05,.08-.06l.19-.12v.53l-.04,.04c-.5,.45-.89,.67-1.21,.67Zm-.61-3.67h.35v2.94c0,.48,.19,.48,.27,.48,.12,0,.33-.06,.65-.28-.07,.03-.14,.04-.2,.04-.08,0-.33-.03-.33-.39v-2.79h.42s-.06-.03-.09-.04c-.22-.13-.34-.41-.34-.84,0-.26,.05-.45,.14-.57l-.48,.19v.54c0,.28-.07,.48-.19,.6-.05,.05-.12,.09-.19,.12Z"/></g><g><path class="e" d="M93.08,136.4l-1.06,.42h-.2v-1.34c-.34,.44-.59,.72-.73,.86-.34,.32-.66,.49-.98,.49-.38,0-.69-.18-.91-.54-.2-.31-.29-.67-.29-1.07,0-.56,.2-1.1,.6-1.61,.43-.54,.92-.81,1.46-.81,.24,0,.52,.07,.85,.22v-1.12c0-.24-.09-.35-.27-.35-.09,0-.21,.03-.36,.09v-.23l1.44-.55v.17c-.12,.05-.18,.14-.18,.28v4.64c0,.23,.1,.34,.29,.34,.09,0,.2-.03,.33-.09v.21Zm-1.2-2.34c0-.19-.02-.36-.05-.5-.38-.32-.76-.48-1.11-.48-.38,0-.69,.21-.9,.64-.18,.35-.27,.73-.27,1.15,0,.33,.07,.63,.22,.91,.18,.33,.42,.49,.73,.49,.41,0,.75-.28,1.03-.83,.24-.46,.35-.93,.35-1.38Z"/><path class="e" d="M90.13,136.94c-.43,0-.77-.2-1.02-.6-.21-.33-.31-.72-.31-1.14,0-.59,.21-1.15,.63-1.68,.45-.57,.98-.86,1.56-.86,.21,0,.45,.05,.72,.16v-.93c0-.23-.09-.23-.14-.23-.08,0-.18,.03-.31,.08l-.17,.07v-.5l1.69-.64v.44l-.08,.03c-.05,.02-.1,.05-.1,.17v4.64c0,.2,.08,.22,.17,.22,.05,0,.13-.01,.27-.08l.18-.08v.49l-1.18,.46h-.32v-1.11c-.23,.29-.4,.48-.51,.59-.36,.35-.72,.52-1.07,.52Zm-.26-3.55c-.08,.08-.17,.17-.25,.28-.38,.48-.57,1-.57,1.53,0,.38,.09,.72,.28,1.01,.21,.33,.47,.49,.81,.49,.28,0,.58-.15,.89-.45-.16,.1-.33,.15-.52,.15-.36,0-.64-.19-.84-.56-.16-.29-.23-.62-.23-.97,0-.44,.09-.85,.28-1.21,.05-.1,.1-.19,.16-.26Zm2.09,3.29h.05l.73-.29c-.25-.01-.39-.18-.39-.47v-4.64c0-.08,.02-.16,.05-.22l-.88,.34s.04,0,.05,0c.12,0,.39,.05,.39,.48v1.31l-.18-.08c-.31-.14-.58-.21-.8-.21-.13,0-.26,.02-.39,.05,.41-.05,.86,.13,1.31,.5l.03,.03v.04c.04,.16,.06,.33,.06,.53,0,.47-.12,.96-.37,1.44l-.03,.06c.04-.05,.08-.1,.12-.16l.22-.28v1.58Zm-1.24-3.49c-.34,0-.6,.19-.79,.57-.17,.33-.25,.7-.25,1.1,0,.31,.07,.6,.21,.85,.15,.29,.36,.43,.62,.43,.35,0,.66-.26,.92-.77,.22-.44,.34-.89,.34-1.33,0-.16-.01-.31-.04-.43-.35-.28-.68-.42-1-.42Z"/></g><g><path class="e" d="M96.72,135.66c-.62,.77-1.22,1.16-1.81,1.16-.45,0-.82-.2-1.13-.59-.29-.36-.43-.77-.43-1.23,0-.55,.17-1.05,.52-1.49,.38-.48,.83-.72,1.37-.72,.41,0,.74,.15,.99,.45,.23,.28,.35,.63,.37,1.05h-2.68c0,.11,0,.19,0,.24,0,.44,.11,.83,.34,1.16,.25,.37,.59,.56,1.02,.56,.48,0,.96-.29,1.46-.86v.27Zm-.81-1.58c-.03-.29-.12-.53-.27-.71-.17-.21-.39-.32-.66-.32s-.5,.11-.7,.32c-.18,.19-.29,.43-.33,.71h1.96Z"/><path class="e" d="M94.91,136.94c-.48,0-.9-.21-1.23-.63-.3-.38-.46-.82-.46-1.31,0-.57,.18-1.1,.55-1.57,.4-.51,.89-.77,1.46-.77,.45,0,.81,.17,1.09,.49,.25,.3,.38,.68,.39,1.13v.13h-2.68s0,.08,0,.11c0,.41,.11,.78,.31,1.09,.23,.34,.53,.51,.91,.51,.44,0,.89-.27,1.36-.82l.22-.25v.65l-.03,.03c-.64,.8-1.28,1.21-1.9,1.21Zm-.91-3.4s-.02,.03-.03,.04c-.33,.42-.5,.9-.5,1.42,0,.43,.13,.81,.4,1.15,.29,.36,.63,.54,1.04,.54s.88-.23,1.34-.7c-.33,.25-.66,.37-.99,.37-.46,0-.84-.21-1.12-.62-.24-.35-.36-.76-.36-1.23,0-.05,0-.13,0-.24v-.12h.02v-.1c.04-.19,.1-.36,.19-.51Zm2.04,.62h.41c-.03-.33-.14-.62-.33-.84-.23-.27-.52-.4-.89-.4-.07,0-.14,0-.2,.01,.29,.01,.53,.14,.71,.37,.16,.2,.26,.46,.29,.77v.09Zm-1.93-.21h1.66c-.04-.2-.11-.37-.22-.51-.14-.18-.33-.27-.57-.27s-.43,.09-.6,.28c-.13,.14-.22,.31-.27,.5Z"/></g><g><path class="e" d="M101.11,136.7h-1.9v-.2c.23,0,.4-.06,.49-.15,.1-.1,.15-.26,.15-.49v-3.95c0-.25-.11-.38-.32-.38-.09,0-.2,.02-.32,.07v-.2l1.45-.57v.17c-.12,.06-.18,.16-.18,.3v4.56c0,.23,.05,.4,.14,.49s.26,.15,.49,.15v.2Z"/><path class="e" d="M101.23,136.82h-2.16v-.45h.12c.2,0,.34-.05,.41-.12,.07-.07,.11-.21,.11-.4v-3.95c0-.24-.1-.26-.19-.26-.08,0-.17,.02-.28,.06l-.17,.06v-.46l1.7-.67v.43l-.07,.03c-.08,.04-.11,.09-.11,.19v4.56c0,.19,.04,.33,.11,.41,.07,.07,.21,.11,.41,.12h.12v.45Zm-1.68-.25h1.21c-.1-.03-.18-.08-.24-.14-.12-.12-.18-.31-.18-.58v-4.56c0-.09,.02-.17,.06-.24l-.88,.35h0c.13,0,.44,.05,.44,.51v3.95c0,.26-.06,.46-.18,.58-.06,.06-.14,.11-.24,.14Z"/></g><g><path class="e" d="M105.19,136.2c-.42,.41-.76,.62-1.03,.62-.24,0-.36-.13-.36-.4v-.61c-.66,.68-1.18,1.01-1.56,1.01-.22,0-.4-.09-.54-.26-.14-.16-.21-.36-.21-.58,0-.6,.77-1.25,2.31-1.94v-.5c0-.35-.17-.53-.51-.53-.32,0-.58,.16-.79,.48-.18,.26-.28,.57-.32,.91h-.28v-1c.64-.42,1.24-.63,1.8-.63,.27,0,.46,.06,.57,.18s.17,.31,.17,.59v2.59c0,.12,.06,.19,.17,.19s.31-.13,.59-.38v.26Zm-1.34-1.82c-.4,.08-.76,.23-1.08,.43-.43,.27-.64,.57-.64,.9,0,.17,.05,.31,.16,.41,.11,.1,.25,.15,.42,.15,.4,0,.7-.23,.91-.69,.15-.34,.23-.74,.24-1.2Z"/><path class="e" d="M104.16,136.94c-.31,0-.48-.19-.48-.52v-.31c-.59,.56-1.06,.84-1.43,.84-.26,0-.47-.1-.64-.3-.16-.18-.24-.41-.24-.66,0-.65,.75-1.31,2.31-2.02v-.42c0-.28-.12-.4-.39-.4s-.5,.14-.69,.42c-.16,.25-.26,.53-.3,.86v.11h-.53v-1.19l.06-.04c.65-.43,1.28-.65,1.87-.65,.3,0,.53,.07,.66,.22,.13,.14,.2,.37,.2,.67v2.59c0,.06,0,.06,.04,.06,.02,0,.14-.02,.5-.35l.21-.19v.59l-.04,.04c-.45,.44-.81,.66-1.12,.66Zm-.23-1.45v.92c0,.23,.09,.27,.23,.27,.12,0,.31-.06,.6-.28-.07,.03-.12,.04-.16,.04-.18,0-.29-.12-.29-.31v-2.59c0-.24-.04-.4-.13-.5-.09-.09-.25-.14-.48-.14-.07,0-.13,0-.2,0,.28,.07,.43,.29,.43,.63v.58l-.07,.03c-.16,.07-.31,.14-.45,.21,.13-.04,.27-.08,.42-.11l.15-.03v.16c0,.48-.09,.9-.25,1.25-.02,.05-.05,.1-.07,.15,.02-.02,.04-.04,.06-.06l.21-.22Zm-1.66-.44c-.51,.39-.64,.71-.64,.93,0,.19,.06,.35,.18,.5,.12,.14,.27,.21,.45,.21,.15,0,.39-.07,.76-.34-.09,.03-.19,.04-.3,.04-.2,0-.37-.06-.5-.19-.13-.13-.2-.3-.2-.5,0-.23,.09-.45,.26-.65Zm1.45-.52c-.32,.08-.62,.21-.89,.38-.39,.24-.58,.5-.58,.79,0,.14,.04,.24,.12,.32,.08,.08,.19,.12,.33,.12,.35,0,.61-.2,.79-.62,.13-.28,.2-.62,.22-.99Zm-1.7-.25h.04c.05-.32,.16-.61,.33-.86,.07-.11,.15-.2,.23-.27-.2,.09-.4,.19-.6,.33v.8Z"/></g><g><path class="e" d="M111.51,132.34c0,.46-.21,.88-.62,1.28s-.85,.6-1.31,.6c-.19,0-.4-.05-.63-.15v1.77c0,.43,.21,.65,.63,.66v.2h-2.03v-.2c.25,0,.41-.05,.5-.15,.09-.09,.13-.27,.13-.51v-3.59c0-.25-.04-.42-.13-.51-.09-.09-.25-.14-.5-.15v-.2h2.63c.88,0,1.32,.32,1.32,.95Zm-.82,.53c0-.35-.07-.64-.22-.87-.17-.27-.43-.41-.76-.41-.26,0-.51,.09-.75,.27v1.66c.35,.27,.67,.4,.95,.4,.52,0,.78-.35,.78-1.05Z"/><path class="e" d="M109.72,136.82h-2.28v-.45h.12c.26,0,.37-.06,.41-.11,.04-.05,.1-.16,.1-.43v-3.59c0-.26-.05-.38-.1-.42-.04-.05-.15-.1-.41-.11h-.12v-.45h2.75c1.2,0,1.45,.58,1.45,1.08s-.22,.95-.65,1.37c-.43,.42-.9,.63-1.39,.63-.16,0-.32-.03-.51-.09v1.58c0,.36,.16,.52,.51,.54h.12v.45Zm-1.78-.25h1.35c-.3-.1-.45-.35-.45-.73v-1.96l.17,.08c.4,.18,.71,.17,1.01,.08-.04,0-.07,0-.11,0-.31,0-.65-.14-1.03-.42l-.05-.04v-1.78l.05-.04c.16-.12,.32-.2,.49-.24h-1.45c.1,.03,.17,.08,.23,.13,.11,.12,.17,.31,.17,.59v3.59c0,.28-.05,.48-.16,.6-.05,.06-.13,.1-.22,.13Zm1.15-3.12c.31,.22,.59,.34,.83,.34,.28,0,.66-.1,.66-.92,0-.32-.07-.59-.2-.8-.15-.24-.36-.35-.65-.35-.22,0-.42,.07-.63,.21v1.53Zm.96-1.94c.22,.07,.4,.21,.53,.42,.16,.25,.24,.56,.24,.93,0,.4-.08,.67-.21,.85,.07-.05,.14-.11,.21-.18,.39-.38,.58-.77,.58-1.19,0-.35-.12-.83-1.2-.83h-.15Z"/></g><g><path class="e" d="M114.66,134.13h-.29c0-.5-.15-.75-.44-.75-.35,0-.64,.31-.85,.92-.16,.47-.24,.93-.24,1.36,0,.35,.07,.58,.21,.69,.12,.1,.36,.15,.72,.15v.2h-2.16v-.2c.23,0,.4-.06,.49-.15,.1-.1,.15-.26,.15-.49v-2.15c0-.24-.09-.37-.27-.37-.07,0-.2,.03-.37,.09v-.2l1.09-.44h.18v1.35c.52-.89,1.01-1.34,1.45-1.34,.09,0,.2,.02,.33,.06v1.28Z"/><path class="e" d="M113.88,136.82h-2.41v-.45h.12c.2,0,.34-.05,.41-.12,.07-.07,.11-.21,.11-.4v-2.15c0-.24-.09-.24-.15-.24-.03,0-.12,.01-.33,.08l-.17,.06v-.46l1.22-.49h.31v1.04c.46-.69,.9-1.03,1.33-1.03,.1,0,.22,.02,.37,.07l.09,.03v1.49h-.54v-.12c0-.63-.24-.63-.31-.63-.29,0-.54,.28-.73,.84-.16,.46-.24,.9-.24,1.32,0,.3,.06,.5,.17,.59,.07,.06,.24,.12,.64,.12h.12v.45Zm-1.94-.25h1.29c-.12-.03-.21-.07-.28-.13-.17-.14-.26-.4-.26-.79,0-.45,.08-.92,.25-1.4,0-.02,.01-.03,.02-.05l-.22,.38v-1.69h-.03l-.74,.3c.12,0,.39,.05,.39,.49v2.15c0,.26-.06,.46-.18,.58-.06,.06-.14,.11-.24,.14Zm2.54-2.57h.05v-1.06c-.08-.02-.15-.03-.2-.03-.23,0-.47,.14-.73,.42,.1-.06,.21-.08,.33-.08,.24,0,.52,.13,.56,.75Z"/></g><g><path class="e" d="M118.73,134.59c0,.59-.2,1.11-.6,1.55-.41,.45-.91,.68-1.5,.68-.53,0-.95-.17-1.26-.51-.3-.33-.44-.76-.44-1.29,0-.59,.2-1.1,.59-1.54,.41-.46,.9-.68,1.49-.68,.54,0,.96,.17,1.27,.5,.31,.33,.46,.77,.46,1.31Zm-.56,.46c0-.33-.07-.66-.22-.96-.15-.33-.36-.58-.63-.76-.22-.15-.44-.22-.67-.22-.39,0-.68,.14-.89,.43-.18,.25-.27,.58-.27,.98,0,.46,.14,.89,.43,1.28,.31,.43,.69,.64,1.14,.64,.35,0,.63-.15,.84-.45,.18-.26,.27-.58,.27-.95Z"/><path class="e" d="M116.63,136.94c-.57,0-1.02-.18-1.35-.55-.32-.35-.48-.81-.48-1.38,0-.62,.21-1.17,.62-1.63,.43-.48,.96-.73,1.58-.73,.57,0,1.03,.18,1.36,.54,.33,.35,.49,.82,.49,1.39,0,.62-.21,1.17-.63,1.64-.44,.48-.97,.72-1.59,.72Zm-1.04-3.36c-.35,.41-.53,.89-.53,1.43,0,.5,.14,.91,.41,1.21,.28,.31,.67,.47,1.17,.47,.32,0,.61-.07,.87-.21-.14,.06-.29,.09-.45,.09-.49,0-.91-.23-1.24-.69-.3-.41-.45-.87-.45-1.36,0-.37,.08-.68,.22-.94Zm1.06-.35c-.35,0-.61,.12-.79,.38-.17,.23-.25,.53-.25,.91,0,.43,.14,.84,.4,1.21,.29,.39,.63,.59,1.04,.59,.31,0,.55-.13,.74-.39,.16-.24,.25-.53,.25-.88,0-.31-.07-.62-.21-.91-.14-.3-.34-.54-.58-.71-.2-.13-.4-.2-.6-.2Zm0-.25c.25,0,.5,.08,.74,.24,.28,.19,.51,.46,.67,.8,.15,.32,.23,.67,.23,1.02,0,.39-.1,.73-.29,1.02-.04,.06-.08,.11-.13,.16,.06-.05,.11-.11,.17-.17,.38-.41,.57-.91,.57-1.47,0-.51-.14-.91-.43-1.22-.28-.3-.68-.46-1.17-.46-.21,0-.4,.03-.59,.09,.07-.01,.15-.02,.23-.02Z"/></g><g><path class="e" d="M121.32,133.4h-1.02v2.66c0,.17,.07,.26,.21,.26s.34-.11,.61-.33c.03-.03,.05-.04,.07-.05v.24c-.47,.42-.85,.63-1.12,.63-.26,0-.39-.2-.39-.6v-2.81h-.63v-.19c.24,0,.41-.05,.52-.15s.16-.27,.16-.51v-.63l.85-.34v.22c-.17,.04-.26,.24-.26,.59,0,.38,.09,.62,.27,.73,.1,.06,.24,.09,.4,.09h.34v.19Z"/><path class="e" d="M120.06,136.94c-.24,0-.52-.13-.52-.73v-2.69h-.63v-.44h.12c.21,0,.35-.04,.43-.11,.08-.07,.12-.22,.12-.42v-.71l1.1-.45v.5l-.1,.02c-.14,.03-.17,.27-.17,.47,0,.33,.07,.54,.21,.62,.08,.05,.2,.07,.34,.07h.47v.44h-1.02v2.54c0,.14,.04,.14,.08,.14,.06,0,.21-.04,.53-.3,.04-.03,.06-.05,.08-.06l.19-.12v.53l-.04,.04c-.5,.45-.89,.67-1.21,.67Zm-.61-3.67h.35v2.94c0,.48,.19,.48,.27,.48,.12,0,.33-.06,.65-.28-.07,.03-.14,.04-.2,.04-.08,0-.33-.03-.33-.39v-2.79h.42s-.06-.03-.09-.04c-.22-.13-.33-.41-.33-.84,0-.26,.05-.45,.14-.57l-.48,.19v.54c0,.28-.07,.48-.2,.6-.05,.05-.12,.09-.19,.12Z"/></g><g><path class="e" d="M124.95,135.66c-.62,.77-1.22,1.16-1.81,1.16-.45,0-.82-.2-1.13-.59-.29-.36-.43-.77-.43-1.23,0-.55,.17-1.05,.52-1.49,.38-.48,.83-.72,1.37-.72,.41,0,.74,.15,.99,.45,.23,.28,.35,.63,.37,1.05h-2.68c0,.11,0,.19,0,.24,0,.44,.11,.83,.34,1.16,.25,.37,.59,.56,1.02,.56,.48,0,.96-.29,1.46-.86v.27Zm-.81-1.58c-.03-.29-.12-.53-.27-.71-.17-.21-.39-.32-.66-.32s-.5,.11-.7,.32c-.18,.19-.29,.43-.33,.71h1.96Z"/><path class="e" d="M123.14,136.94c-.48,0-.9-.21-1.23-.63-.3-.38-.46-.82-.46-1.31,0-.57,.18-1.1,.55-1.57,.4-.51,.89-.77,1.46-.77,.45,0,.82,.17,1.09,.49,.25,.3,.38,.68,.39,1.13v.13h-2.68s0,.08,0,.11c0,.42,.11,.78,.32,1.09,.23,.34,.53,.51,.91,.51,.44,0,.89-.27,1.36-.82l.22-.25v.65l-.03,.03c-.64,.8-1.28,1.21-1.9,1.21Zm-.91-3.4l-.04,.04c-.33,.42-.5,.9-.5,1.42,0,.43,.13,.81,.4,1.15,.29,.36,.63,.54,1.04,.54,.43,0,.88-.23,1.34-.7-.33,.25-.66,.37-.99,.37-.47,0-.84-.21-1.12-.62-.24-.35-.36-.76-.36-1.23,0-.05,0-.13,0-.24v-.12h.02v-.1c.04-.19,.1-.36,.19-.52Zm2.04,.62h.41c-.03-.33-.14-.62-.33-.84-.23-.27-.52-.4-.9-.4-.07,0-.14,0-.2,.01,.29,.01,.53,.14,.71,.37,.16,.2,.26,.46,.29,.78v.09Zm-1.93-.21h1.66c-.04-.2-.11-.37-.22-.51-.15-.18-.33-.27-.57-.27s-.43,.09-.6,.28c-.13,.14-.22,.31-.27,.5Z"/></g><g><path class="e" d="M128.61,135.68c-.61,.76-1.19,1.14-1.76,1.14-.46,0-.84-.19-1.14-.56-.27-.35-.41-.76-.41-1.23,0-.59,.19-1.11,.58-1.56,.4-.46,.9-.7,1.49-.7,.35,0,.72,.09,1.12,.27v1.08h-.3c0-.32-.11-.58-.3-.78-.2-.21-.45-.32-.77-.32-.39,0-.7,.18-.93,.53-.2,.3-.29,.66-.29,1.08s.1,.79,.31,1.1c.24,.35,.56,.53,.97,.53s.89-.29,1.43-.88v.29Z"/><path class="e" d="M126.85,136.94c-.5,0-.92-.2-1.24-.6-.29-.37-.44-.81-.44-1.31,0-.62,.21-1.17,.61-1.64,.68-.78,1.62-.97,2.76-.46l.07,.03v1.29h-.55v-.12c0-.29-.1-.52-.27-.7-.17-.19-.4-.28-.68-.28-.35,0-.62,.16-.82,.47-.18,.28-.28,.62-.28,1.01s.1,.74,.29,1.03c.21,.32,.5,.47,.86,.47s.83-.28,1.34-.83l.22-.23v.65l-.03,.03c-.63,.79-1.25,1.18-1.86,1.18Zm-.63-3.63c-.08,.07-.17,.15-.25,.24-.37,.42-.55,.91-.55,1.47,0,.44,.13,.83,.38,1.16,.27,.34,.61,.51,1.04,.51s.91-.26,1.4-.78c-.39,.32-.74,.48-1.07,.48-.45,0-.81-.2-1.07-.58-.22-.33-.33-.72-.33-1.17s.11-.82,.31-1.15c.04-.07,.09-.13,.13-.18Zm2.08,.7h.06v-.88c-.42-.18-.81-.25-1.15-.22,.31,.02,.57,.14,.77,.36,.19,.2,.3,.45,.32,.74Z"/></g><g><path class="e" d="M131.32,133.4h-1.02v2.66c0,.17,.07,.26,.21,.26s.34-.11,.61-.33c.03-.03,.05-.04,.07-.05v.24c-.47,.42-.85,.63-1.12,.63-.26,0-.39-.2-.39-.6v-2.81h-.63v-.19c.24,0,.41-.05,.52-.15s.16-.27,.16-.51v-.63l.85-.34v.22c-.17,.04-.26,.24-.26,.59,0,.38,.09,.62,.27,.73,.1,.06,.24,.09,.4,.09h.34v.19Z"/><path class="e" d="M130.06,136.94c-.24,0-.52-.13-.52-.73v-2.69h-.63v-.44h.12c.21,0,.35-.04,.43-.11,.08-.07,.12-.22,.12-.42v-.71l1.1-.45v.5l-.1,.02c-.14,.03-.17,.27-.17,.47,0,.33,.07,.54,.21,.62,.08,.05,.2,.07,.34,.07h.47v.44h-1.02v2.54c0,.14,.04,.14,.08,.14,.06,0,.21-.04,.53-.3,.04-.03,.06-.05,.08-.06l.19-.12v.53l-.04,.04c-.5,.45-.89,.67-1.21,.67Zm-.61-3.67h.35v2.94c0,.48,.19,.48,.27,.48,.12,0,.33-.06,.65-.28-.07,.03-.14,.04-.2,.04-.08,0-.33-.03-.33-.39v-2.79h.42s-.06-.03-.09-.04c-.22-.13-.33-.41-.33-.84,0-.26,.05-.45,.14-.57l-.48,.19v.54c0,.28-.07,.48-.2,.6-.05,.05-.12,.09-.19,.12Z"/></g><g><path class="e" d="M133.54,136.7h-1.9v-.2c.23,0,.4-.06,.49-.15,.1-.1,.14-.26,.14-.49v-2.27c0-.17-.1-.26-.3-.26-.07,0-.15,.02-.24,.05-.04,.02-.08,.03-.1,.04v-.21l1.06-.42h.2v3.07c0,.23,.05,.4,.14,.49,.1,.1,.26,.15,.49,.15v.2Zm-.55-5.25c0,.11-.04,.2-.12,.28s-.17,.11-.28,.11-.2-.04-.28-.11c-.08-.08-.11-.17-.11-.28s.04-.2,.11-.28c.07-.08,.17-.12,.27-.12,.11,0,.21,.04,.29,.11s.12,.17,.12,.28Z"/><path class="e" d="M133.67,136.82h-2.15v-.45h.12c.19,0,.33-.05,.41-.12,.07-.07,.11-.21,.11-.41v-2.27c0-.08-.01-.14-.17-.14-.05,0-.12,.01-.19,.04-.05,.02-.09,.04-.12,.04l-.16,.04v-.46l1.19-.46h.33v3.2c0,.19,.04,.33,.11,.41,.07,.07,.21,.11,.41,.12h.12v.45Zm-1.68-.25h1.21c-.1-.03-.18-.08-.24-.14-.12-.12-.18-.31-.18-.58v-2.95h-.06l-.73,.29c.26,0,.41,.15,.41,.39v2.27c0,.27-.06,.46-.18,.58-.06,.06-.14,.11-.24,.14Zm.61-4.6c-.14,0-.27-.05-.37-.15-.1-.1-.15-.22-.15-.37s.05-.26,.15-.37c.2-.21,.54-.2,.74,0,.1,.1,.16,.23,.16,.37s-.05,.27-.15,.37c-.1,.1-.23,.15-.37,.15Zm0-.79c-.07,0-.13,.03-.18,.08-.05,.06-.08,.12-.08,.19s.02,.14,.08,.19c.11,.11,.28,.11,.39,0,.05-.05,.08-.11,.08-.19s-.03-.14-.08-.19c-.06-.05-.12-.08-.2-.08Z"/></g><g><path class="e" d="M137.67,134.59c0,.59-.2,1.11-.6,1.55-.41,.45-.91,.68-1.5,.68-.53,0-.95-.17-1.26-.51-.3-.33-.44-.76-.44-1.29,0-.59,.2-1.1,.59-1.54,.41-.46,.9-.68,1.49-.68,.54,0,.96,.17,1.27,.5,.31,.33,.46,.77,.46,1.31Zm-.56,.46c0-.33-.07-.66-.22-.96-.15-.33-.36-.58-.63-.76-.22-.15-.44-.22-.67-.22-.39,0-.68,.14-.89,.43-.18,.25-.27,.58-.27,.98,0,.46,.14,.89,.43,1.28,.31,.43,.69,.64,1.14,.64,.35,0,.63-.15,.84-.45,.18-.26,.27-.58,.27-.95Z"/><path class="e" d="M135.57,136.94c-.57,0-1.02-.18-1.35-.55-.32-.35-.48-.81-.48-1.38,0-.62,.21-1.17,.62-1.63,.43-.48,.96-.73,1.58-.73,.57,0,1.03,.18,1.36,.54,.33,.35,.49,.82,.49,1.39,0,.62-.21,1.17-.63,1.64-.44,.48-.97,.72-1.59,.72Zm-1.04-3.36c-.36,.41-.54,.89-.54,1.43,0,.5,.14,.91,.41,1.21,.29,.31,.67,.47,1.17,.47,.32,0,.61-.07,.87-.21-.13,.06-.28,.08-.44,.08-.49,0-.91-.23-1.24-.69-.3-.41-.45-.87-.45-1.36,0-.37,.08-.69,.23-.94Zm1.06-.34c-.35,0-.61,.12-.79,.38-.17,.23-.25,.54-.25,.91,0,.43,.14,.84,.4,1.21,.29,.39,.63,.59,1.04,.59,.31,0,.55-.13,.74-.39,.16-.24,.25-.53,.25-.88,0-.31-.07-.62-.21-.91-.14-.3-.34-.54-.58-.71-.2-.13-.4-.2-.6-.2Zm0-.25c.25,0,.5,.08,.74,.24,.28,.19,.51,.46,.67,.8,.15,.32,.23,.67,.23,1.02,0,.39-.1,.73-.29,1.02-.04,.06-.08,.11-.12,.15,.06-.05,.11-.1,.16-.16,.38-.41,.57-.91,.57-1.47,0-.51-.14-.91-.43-1.22-.29-.31-.67-.46-1.17-.46-.2,0-.39,.03-.57,.09,.07-.01,.14-.02,.22-.02Z"/></g><g><path class="e" d="M142.38,136.7h-1.44v-.2c.12,0,.17-.07,.17-.2v-2.56c0-.32-.13-.48-.4-.48-.43,0-.79,.31-1.08,.94-.23,.51-.34,1.01-.34,1.5,0,.29,.04,.49,.12,.6,.1,.13,.28,.2,.56,.2v.2h-1.89v-.2c.23,0,.4-.06,.49-.15,.09-.1,.14-.26,.14-.49v-2.12c0-.27-.09-.41-.27-.41-.07,0-.19,.03-.36,.1v-.21l1.08-.44h.17v1.37c.3-.4,.54-.68,.73-.87,.35-.33,.68-.5,.98-.5,.47,0,.7,.3,.7,.9v2.17c0,.23,.05,.4,.14,.49,.1,.1,.26,.15,.49,.15v.2Z"/><path class="e" d="M142.51,136.82h-1.69v-.44h.12s.06,0,.06-.08v-2.56c0-.31-.13-.35-.28-.35-.38,0-.7,.29-.96,.87-.22,.49-.33,.97-.33,1.45,0,.35,.06,.48,.1,.53,.09,.12,.3,.15,.46,.15h.12v.45h-2.14v-.45h.12c.19,0,.33-.05,.4-.12,.07-.07,.1-.21,.1-.41v-2.12c0-.29-.1-.29-.15-.29-.02,0-.1,0-.31,.1l-.17,.07v-.48l1.2-.48h.3v1.12c.2-.25,.38-.45,.52-.59,.37-.35,.73-.53,1.07-.53,.38,0,.83,.18,.83,1.03v2.17c0,.19,.04,.33,.11,.41,.07,.07,.21,.11,.41,.12h.12v.45Zm-1.4-.25h.93c-.1-.03-.18-.08-.24-.14-.12-.12-.18-.32-.18-.58v-2.17c0-.7-.33-.78-.58-.78-.21,0-.45,.1-.7,.3,.12-.05,.24-.07,.36-.07,.2,0,.53,.08,.53,.6v2.56c0,.13-.04,.22-.13,.28Zm-2.69,0h1.19c-.13-.04-.24-.11-.31-.2-.1-.13-.14-.35-.14-.68,0-.51,.12-1.04,.36-1.55,.01-.03,.03-.06,.04-.09-.04,.05-.08,.11-.13,.17l-.22,.3v-1.62h-.03l-.72,.29c.15,0,.37,.09,.37,.54v2.12c0,.27-.06,.46-.18,.58-.06,.06-.14,.11-.24,.14Z"/></g><g><path class="e" d="M148.21,135.15c0,.46-.21,.86-.64,1.2-.4,.31-.84,.47-1.32,.47-.36,0-.77-.09-1.22-.26v-1.49h.29c0,.38,.11,.72,.32,1,.24,.32,.54,.47,.91,.47,.29,0,.53-.09,.72-.26,.19-.17,.28-.4,.28-.7s-.14-.58-.42-.85c-.11-.1-.38-.29-.8-.58-.35-.24-.62-.43-.79-.57-.26-.22-.39-.5-.39-.83,0-.43,.2-.8,.61-1.1,.36-.27,.77-.4,1.22-.4,.25,0,.57,.07,.98,.21v1.3h-.3c-.02-.33-.12-.61-.29-.84-.2-.26-.46-.39-.77-.39-.23,0-.43,.07-.58,.21-.15,.14-.23,.33-.23,.56,0,.28,.16,.57,.48,.85,.12,.11,.4,.31,.83,.6,.38,.25,.63,.44,.75,.56,.24,.24,.36,.51,.36,.82Z"/><path class="e" d="M146.25,136.94c-.37,0-.8-.09-1.26-.27l-.08-.03v-1.71h.54v.12c0,.36,.1,.67,.29,.93,.21,.28,.48,.42,.81,.42,.26,0,.47-.07,.63-.22,.16-.15,.24-.35,.24-.6s-.12-.52-.38-.76c-.07-.07-.27-.22-.79-.56-.36-.24-.62-.43-.8-.58-.29-.25-.43-.56-.43-.92,0-.47,.22-.88,.66-1.2,.38-.28,.82-.42,1.3-.42,.26,0,.6,.07,1.02,.22l.08,.03v1.52h-.55v-.12c-.02-.31-.11-.56-.27-.77-.18-.23-.4-.34-.67-.34-.2,0-.36,.06-.5,.18-.13,.12-.19,.27-.19,.46,0,.24,.15,.5,.44,.76,.12,.11,.39,.3,.82,.59,.38,.26,.64,.45,.77,.58,.26,.27,.39,.57,.39,.91,0,.5-.23,.94-.69,1.3-.42,.33-.89,.5-1.39,.5Zm-1.09-.47c.55,.2,1.01,.27,1.43,.2h-.03c-.41,0-.75-.18-1.01-.52-.21-.27-.32-.6-.34-.96h-.05v1.28Zm.71-4.72l-.03,.02c-.37,.27-.55,.6-.55,1,0,.29,.11,.53,.34,.73,.17,.14,.43,.33,.78,.56,.43,.29,.7,.48,.82,.59,.3,.29,.46,.6,.46,.94,0,.28-.08,.51-.23,.69,.01,0,.03-.02,.04-.03,.4-.31,.6-.67,.6-1.1,0-.27-.1-.51-.32-.73-.08-.08-.27-.24-.73-.54-.44-.29-.72-.49-.84-.61-.35-.31-.52-.63-.52-.95,0-.23,.07-.42,.2-.57Zm1.92,.91h.06v-1.09c-.36-.12-.65-.18-.86-.18-.12,0-.25,.01-.36,.03,.35,0,.63,.15,.85,.44,.17,.22,.27,.49,.31,.79Z"/></g><g><path class="e" d="M152.41,134.59c0,.59-.2,1.11-.6,1.55-.41,.45-.91,.68-1.5,.68-.53,0-.95-.17-1.26-.51-.3-.33-.44-.76-.44-1.29,0-.59,.2-1.1,.59-1.54,.41-.46,.9-.68,1.49-.68,.54,0,.96,.17,1.27,.5,.31,.33,.46,.77,.46,1.31Zm-.56,.46c0-.33-.07-.66-.22-.96-.15-.33-.36-.58-.63-.76-.22-.15-.44-.22-.67-.22-.39,0-.68,.14-.89,.43-.18,.25-.27,.58-.27,.98,0,.46,.14,.89,.43,1.28,.31,.43,.69,.64,1.14,.64,.35,0,.63-.15,.84-.45,.18-.26,.27-.58,.27-.95Z"/><path class="e" d="M150.31,136.94c-.57,0-1.02-.18-1.35-.55-.32-.35-.48-.81-.48-1.38,0-.62,.21-1.17,.62-1.63,.43-.48,.96-.73,1.58-.73,.57,0,1.03,.18,1.36,.54,.33,.35,.49,.82,.49,1.39,0,.62-.21,1.17-.63,1.64-.44,.48-.97,.72-1.59,.72Zm-1.04-3.36c-.35,.41-.53,.89-.53,1.43,0,.5,.14,.91,.41,1.21,.28,.31,.67,.47,1.17,.47,.32,0,.61-.07,.87-.21-.14,.06-.29,.09-.45,.09-.49,0-.91-.23-1.24-.69-.3-.41-.45-.87-.45-1.36,0-.37,.08-.68,.22-.94Zm1.06-.35c-.35,0-.61,.12-.79,.38-.17,.23-.25,.54-.25,.91,0,.43,.14,.84,.4,1.21,.29,.39,.63,.59,1.04,.59,.31,0,.55-.13,.74-.39,.16-.24,.25-.53,.25-.88,0-.31-.07-.62-.21-.91-.14-.3-.34-.54-.58-.71-.2-.13-.4-.2-.6-.2Zm0-.25c.25,0,.5,.08,.74,.24,.28,.19,.51,.46,.67,.8,.15,.32,.23,.67,.23,1.02,0,.39-.1,.73-.29,1.02-.04,.06-.08,.11-.13,.16,.06-.05,.11-.11,.17-.17,.38-.41,.57-.91,.57-1.47,0-.51-.14-.91-.43-1.22-.28-.3-.68-.46-1.17-.46-.21,0-.4,.03-.59,.09,.08-.01,.15-.02,.23-.02Z"/></g><g><path class="e" d="M156.09,135.68c-.61,.76-1.19,1.14-1.76,1.14-.46,0-.84-.19-1.14-.56-.27-.35-.41-.76-.41-1.23,0-.59,.19-1.11,.58-1.56,.4-.46,.9-.7,1.49-.7,.35,0,.72,.09,1.12,.27v1.08h-.3c0-.32-.11-.58-.3-.78-.2-.21-.45-.32-.77-.32-.39,0-.7,.18-.93,.53-.2,.3-.29,.66-.29,1.08s.1,.79,.31,1.1c.24,.35,.56,.53,.97,.53s.89-.29,1.43-.88v.29Z"/><path class="e" d="M154.33,136.94c-.5,0-.92-.2-1.23-.6-.29-.37-.44-.81-.44-1.31,0-.62,.21-1.17,.61-1.64,.68-.78,1.62-.97,2.76-.46l.07,.03v1.29h-.55v-.12c-.01-.29-.1-.52-.27-.7-.17-.19-.4-.28-.68-.28-.35,0-.62,.16-.82,.47-.18,.28-.28,.62-.28,1.01s.1,.75,.29,1.03c.21,.32,.5,.47,.86,.47s.83-.28,1.34-.83l.22-.23v.65l-.03,.03c-.63,.79-1.25,1.18-1.86,1.18Zm-.63-3.63c-.08,.07-.17,.15-.25,.24-.37,.42-.55,.91-.55,1.47,0,.45,.13,.83,.38,1.15,.27,.34,.61,.51,1.04,.51s.91-.26,1.4-.78c-.39,.32-.74,.48-1.07,.48-.45,0-.81-.2-1.07-.58-.22-.33-.33-.72-.33-1.17s.11-.82,.31-1.15c.04-.07,.09-.13,.13-.18Zm2.08,.7h.06v-.88c-.42-.18-.81-.25-1.15-.22,.31,.02,.57,.14,.77,.36,.19,.2,.29,.45,.32,.74Z"/></g><g><path class="e" d="M158.55,136.7h-1.9v-.2c.23,0,.4-.06,.49-.15,.1-.1,.14-.26,.14-.49v-2.27c0-.17-.1-.26-.3-.26-.07,0-.15,.02-.24,.05-.04,.02-.08,.03-.1,.04v-.21l1.06-.42h.2v3.07c0,.23,.05,.4,.14,.49,.1,.1,.26,.15,.49,.15v.2Zm-.55-5.25c0,.11-.04,.2-.12,.28s-.17,.11-.28,.11-.2-.04-.28-.11c-.08-.08-.11-.17-.11-.28s.04-.2,.11-.28c.07-.08,.17-.12,.27-.12,.11,0,.21,.04,.29,.11s.12,.17,.12,.28Z"/><path class="e" d="M158.67,136.82h-2.15v-.45h.12c.19,0,.33-.05,.41-.12,.07-.07,.11-.21,.11-.41v-2.27c0-.08-.01-.14-.17-.14-.05,0-.12,.01-.19,.04-.05,.02-.09,.04-.12,.04l-.16,.04v-.46l1.19-.46h.33v3.2c0,.19,.04,.33,.11,.41,.07,.07,.21,.11,.41,.12h.12v.45Zm-1.68-.25h1.21c-.1-.03-.18-.08-.24-.14-.12-.12-.18-.31-.18-.58v-2.95h-.05l-.73,.29c.26,0,.41,.15,.41,.39v2.27c0,.27-.06,.46-.18,.58-.06,.06-.14,.11-.24,.14Zm.61-4.6c-.14,0-.27-.05-.37-.15-.1-.1-.15-.22-.15-.37s.05-.26,.15-.37c.21-.21,.54-.2,.74,0,.1,.1,.16,.23,.16,.37s-.05,.27-.15,.37c-.1,.1-.22,.15-.37,.15Zm0-.79c-.07,0-.13,.03-.18,.08-.05,.05-.08,.12-.08,.19s.02,.14,.08,.19c.11,.11,.28,.11,.38,0,.05-.05,.08-.11,.08-.19s-.03-.14-.08-.19c-.05-.05-.12-.08-.2-.08Z"/></g><g><path class="e" d="M162.64,136.2c-.42,.41-.76,.62-1.03,.62-.24,0-.36-.13-.36-.4v-.61c-.66,.68-1.18,1.01-1.56,1.01-.22,0-.4-.09-.54-.26-.14-.16-.21-.36-.21-.58,0-.6,.77-1.25,2.31-1.94v-.5c0-.35-.17-.53-.51-.53-.32,0-.58,.16-.79,.48-.18,.26-.28,.57-.32,.91h-.28v-1c.64-.42,1.24-.63,1.8-.63,.27,0,.46,.06,.57,.18s.17,.31,.17,.59v2.59c0,.12,.06,.19,.17,.19s.31-.13,.59-.38v.26Zm-1.34-1.82c-.4,.08-.76,.23-1.08,.43-.43,.27-.64,.57-.64,.9,0,.17,.05,.31,.16,.41,.11,.1,.25,.15,.42,.15,.4,0,.7-.23,.91-.69,.15-.34,.23-.74,.24-1.2Z"/><path class="e" d="M161.61,136.94c-.31,0-.48-.19-.48-.52v-.31c-.59,.56-1.06,.84-1.43,.84-.26,0-.47-.1-.64-.3-.16-.18-.24-.41-.24-.66,0-.65,.75-1.31,2.31-2.02v-.42c0-.28-.12-.4-.39-.4s-.5,.14-.69,.42c-.17,.24-.27,.53-.3,.86v.11h-.53v-1.19l.06-.04c.65-.43,1.28-.65,1.87-.65,.3,0,.53,.07,.66,.22s.2,.36,.2,.67v2.59c0,.06,0,.06,.04,.06,.02,0,.14-.02,.5-.35l.21-.19v.59l-.04,.04c-.45,.44-.81,.66-1.12,.66Zm-.23-1.45v.92c0,.23,.09,.27,.23,.27,.12,0,.31-.06,.6-.28-.07,.03-.12,.04-.16,.04-.18,0-.29-.12-.29-.31v-2.59c0-.24-.04-.41-.13-.5-.09-.09-.25-.14-.48-.14-.07,0-.13,0-.2,0,.28,.07,.43,.29,.43,.63v.58l-.07,.03c-.16,.07-.31,.14-.45,.21,.13-.04,.27-.08,.42-.11l.15-.03v.16c0,.48-.09,.9-.25,1.25-.02,.05-.05,.1-.07,.15l.06-.06,.21-.22Zm-1.66-.44c-.51,.39-.64,.71-.64,.93,0,.19,.06,.35,.18,.5,.25,.31,.63,.3,1.21-.13-.1,.03-.2,.04-.31,.04-.2,0-.37-.06-.5-.19-.13-.13-.2-.3-.2-.5,0-.23,.09-.45,.26-.65Zm1.45-.52c-.32,.08-.62,.21-.89,.38-.39,.24-.58,.51-.58,.79,0,.14,.04,.24,.12,.32,.08,.08,.19,.12,.33,.12,.35,0,.61-.2,.79-.62,.13-.28,.2-.62,.22-.99Zm-1.7-.25h.04c.05-.32,.16-.61,.33-.86,.07-.11,.15-.2,.23-.27-.2,.09-.4,.2-.6,.33v.8Z"/></g><g><path class="e" d="M164.84,136.7h-1.9v-.2c.23,0,.4-.06,.49-.15,.1-.1,.15-.26,.15-.49v-3.95c0-.25-.11-.38-.32-.38-.09,0-.2,.02-.32,.07v-.2l1.45-.57v.17c-.12,.06-.18,.16-.18,.3v4.56c0,.23,.05,.4,.14,.49s.26,.15,.49,.15v.2Z"/><path class="e" d="M164.96,136.82h-2.16v-.45h.12c.2,0,.34-.05,.41-.12,.07-.07,.11-.21,.11-.4v-3.95c0-.24-.1-.26-.19-.26-.08,0-.17,.02-.28,.06l-.17,.06v-.46l1.7-.67v.43l-.07,.03c-.08,.04-.11,.09-.11,.19v4.56c0,.19,.04,.33,.11,.41,.07,.07,.21,.11,.41,.12h.12v.45Zm-1.68-.25h1.21c-.1-.03-.18-.08-.24-.14-.12-.12-.18-.31-.18-.58v-4.56c0-.09,.02-.17,.06-.24l-.88,.35h0c.13,0,.44,.05,.44,.51v3.95c0,.26-.06,.46-.18,.58-.06,.06-.14,.11-.24,.14Z"/></g><g><path class="e" d="M168.54,135.66c-.62,.77-1.22,1.16-1.81,1.16-.45,0-.82-.2-1.13-.59-.29-.36-.43-.77-.43-1.23,0-.55,.17-1.05,.52-1.49,.38-.48,.83-.72,1.37-.72,.41,0,.74,.15,.99,.45,.23,.28,.35,.63,.37,1.05h-2.68c0,.11,0,.19,0,.24,0,.44,.11,.83,.34,1.16,.25,.37,.59,.56,1.02,.56,.48,0,.96-.29,1.46-.86v.27Zm-.81-1.58c-.03-.29-.12-.53-.27-.71-.17-.21-.39-.32-.66-.32s-.5,.11-.7,.32c-.18,.19-.29,.43-.33,.71h1.96Z"/><path class="e" d="M166.74,136.94c-.48,0-.9-.21-1.23-.63-.3-.38-.46-.82-.46-1.31,0-.57,.18-1.1,.55-1.57,.4-.51,.89-.77,1.46-.77,.45,0,.82,.17,1.09,.49,.25,.3,.38,.68,.39,1.13v.13h-2.68s0,.08,0,.11c0,.42,.11,.78,.31,1.09,.23,.34,.53,.51,.91,.51,.44,0,.89-.27,1.36-.82l.22-.25v.65l-.03,.03c-.64,.8-1.28,1.21-1.9,1.21Zm-.91-3.4l-.04,.04c-.33,.42-.5,.9-.5,1.42,0,.43,.13,.81,.4,1.15,.29,.36,.63,.54,1.04,.54,.43,0,.88-.23,1.34-.7-.33,.25-.66,.37-.99,.37-.47,0-.84-.21-1.12-.62-.24-.35-.36-.76-.36-1.23,0-.05,0-.13,0-.24v-.12h.02v-.1c.04-.19,.1-.36,.19-.52Zm2.04,.62h.41c-.03-.33-.14-.62-.33-.84-.23-.27-.52-.4-.9-.4-.07,0-.14,0-.2,.01,.29,.01,.53,.14,.71,.37,.16,.2,.26,.46,.29,.78v.09Zm-1.93-.21h1.66c-.04-.2-.11-.37-.22-.51-.15-.18-.33-.27-.57-.27s-.43,.09-.6,.28c-.13,.14-.22,.31-.27,.5Z"/></g></g></svg>