<svg xmlns="http://www.w3.org/2000/svg" xmlns:xlink="http://www.w3.org/1999/xlink" width="213.144" height="213.906" viewBox="0 0 213.144 213.906">
  <defs>
    <clipPath id="clip-path">
      <rect id="Rectangle_36" data-name="Rectangle 36" width="213.144" height="213.906" fill="none"/>
    </clipPath>
  </defs>
  <g id="successful_email_send" data-name="successful email send" transform="translate(0 0.004)">
    <g id="Groupe_48" data-name="Groupe 48" transform="translate(0 -0.004)">
      <g id="Groupe_47" data-name="Groupe 47" clip-path="url(#clip-path)">
        <path id="Tracé_2" data-name="Tracé 2" d="M21.616,155.192C12.744,145.94,1.328,134.035.106,118.116c-1.358-17.691,10.529-31.821,17.607-38.6a34.184,34.184,0,0,1,7.842-5.633,42.441,42.441,0,0,0,16.72-14.922c5.694-9.134,3.936-15.247,7.075-24.057,8.119-22.782,37.443-31.182,39.34-31.7,21.843-5.944,40.392,1.96,50.189,7.759a34.843,34.843,0,0,1,10.011,9.04,41.516,41.516,0,0,0,9.989,9.521c8.972,6.014,15.334,4.909,23.491,7.925,14.3,5.285,24.758,19.771,28.585,33.4,4.854,17.281-1.183,32.4-5.458,40.225a34.925,34.925,0,0,0-4.222,14.659c-.13,2.17-.216,4.548-.226,7.1-.05,12.943,1.932,15.913,1.415,22.075-1.518,18.108-21.768,29.878-23.491,30.849-15.083,8.5-30.14,6.329-36.707,4.76a33.9,33.9,0,0,0-9.974-.9,44.286,44.286,0,0,0-6.81.954c-10.724,2.368-14.827,7.539-21.792,11.038-13.132,6.6-31.341,4.691-44.151-3.4a46.318,46.318,0,0,1-17.315-20.539,34.815,34.815,0,0,0-10.306-13.143,99.588,99.588,0,0,1-10.3-9.338" transform="translate(0.001 -1.041)" fill="#eeecfb"/>
      </g>
    </g>
    <g id="Groupe_50" data-name="Groupe 50" transform="translate(0 -0.004)">
      <g id="Groupe_49" data-name="Groupe 49" clip-path="url(#clip-path)">
        <path id="Tracé_3" data-name="Tracé 3" d="M543.454,15.878c-.959-4-3.566-6.63-8.119-7.626a.371.371,0,0,1-.045-.714Q541.575,5.37,543.284.25A.372.372,0,0,1,544,.3c.749,3.814,3.5,6.082,7.691,7.227a.372.372,0,0,1-.026.725c-4.056.841-6.472,3.468-7.491,7.615a.372.372,0,0,1-.723.007" transform="translate(-506.443 0.004)" fill="#96d7ff"/>
        <path id="Tracé_4" data-name="Tracé 4" d="M69.513,810.128c-.851-3.3-3.036-5.482-6.791-6.352a.372.372,0,0,1-.031-.713q5.164-1.841,6.662-6.049a.372.372,0,0,1,.717.047c.683,3.126,2.959,5.018,6.4,6a.371.371,0,0,1-.016.719c-3.324.752-5.337,2.932-6.226,6.334a.372.372,0,0,1-.719.011" transform="translate(-59.102 -754.176)" fill="#c9c1f5"/>
        <path id="Tracé_5" data-name="Tracé 5" d="M3403.448,36.607c-.851-3.3-3.036-5.482-6.791-6.352a.372.372,0,0,1-.031-.713q5.164-1.841,6.662-6.049a.372.372,0,0,1,.716.047c.683,3.126,2.959,5.018,6.405,6a.371.371,0,0,1-.016.719c-3.324.752-5.336,2.932-6.226,6.334a.372.372,0,0,1-.719.011" transform="translate(-3214.844 -21.998)" fill="#ff99b1"/>
        <path id="Tracé_6" data-name="Tracé 6" d="M3727.248,996.013c-.851-3.3-3.036-5.482-6.791-6.352a.372.372,0,0,1-.031-.713q5.164-1.841,6.662-6.049a.372.372,0,0,1,.717.047c.683,3.126,2.959,5.018,6.4,6a.371.371,0,0,1-.016.719c-3.324.752-5.336,2.931-6.226,6.334a.372.372,0,0,1-.719.011" transform="translate(-3521.338 -930.126)" fill="#96d7ff"/>
        <path id="Tracé_7" data-name="Tracé 7" d="M3613.318,3760.3c-.851-3.3-3.037-5.482-6.791-6.352a.372.372,0,0,1-.031-.713q5.164-1.841,6.661-6.049a.372.372,0,0,1,.717.047c.683,3.126,2.959,5.018,6.405,6a.371.371,0,0,1-.016.719c-3.324.752-5.337,2.932-6.226,6.334a.372.372,0,0,1-.719.011" transform="translate(-3413.497 -3546.667)" fill="#c9c1f5"/>
        <path id="Tracé_8" data-name="Tracé 8" d="M117.484,3436.5c-.851-3.3-3.036-5.482-6.791-6.352a.372.372,0,0,1-.031-.713q5.164-1.841,6.662-6.049a.372.372,0,0,1,.717.047c.683,3.126,2.959,5.018,6.4,6a.371.371,0,0,1-.016.719c-3.324.752-5.337,2.931-6.226,6.333a.372.372,0,0,1-.719.011" transform="translate(-104.509 -3240.175)" fill="#ff99b1"/>
        <rect id="Rectangle_37" data-name="Rectangle 37" width="128.44" height="76.759" transform="translate(41.333 92.898)" fill="#1a1928"/>
        <path id="Tracé_9" data-name="Tracé 9" d="M773.326,711.92l57.211-55.126a10.069,10.069,0,0,1,13.97,0l57.259,55.128Z" transform="translate(-731.993 -619.022)" fill="#3f3d56"/>
        <path id="Tracé_10" data-name="Tracé 10" d="M1036.921,1363.243H938.154a6.367,6.367,0,0,1-6.367-6.367v-56.4a6.367,6.367,0,0,1,6.367-6.367h98.768a6.367,6.367,0,0,1,6.367,6.367v56.4a6.367,6.367,0,0,1-6.367,6.367" transform="translate(-881.985 -1224.946)" fill="#fff"/>
        <rect id="Rectangle_38" data-name="Rectangle 38" width="64.011" height="6.501" transform="translate(58.771 73.712)" fill="#dbdbdb"/>
        <rect id="Rectangle_39" data-name="Rectangle 39" width="92.257" height="4.366" transform="translate(58.771 89.571)" fill="#dbdbdb"/>
        <rect id="Rectangle_40" data-name="Rectangle 40" width="92.257" height="4.366" transform="translate(58.771 97.804)" fill="#dbdbdb"/>
        <rect id="Rectangle_41" data-name="Rectangle 41" width="92.257" height="4.366" transform="translate(58.771 106.037)" fill="#dbdbdb"/>
        <path id="Tracé_11" data-name="Tracé 11" d="M2632.036,1020.286a15.373,15.373,0,1,1,15.372,15.373,15.372,15.372,0,0,1-15.372-15.373" transform="translate(-2491.358 -951.203)" fill="#39bd81"/>
        <path id="Tracé_12" data-name="Tracé 12" d="M2742.819,1211.712l-3.551-7.651,2.373-1.1,2.449,5.278,13.359-6.2,1.1,2.373Z" transform="translate(-2592.86 -1137.792)" fill="#fff"/>
        <path id="Tracé_13" data-name="Tracé 13" d="M773.326,1738.088l64.195,38.354-64.195,38.405Z" transform="translate(-731.993 -1645.19)" fill="#4b4c61"/>
        <path id="Tracé_14" data-name="Tracé 14" d="M2038.635,1738.088l-64.245,38.354,64.245,38.405Z" transform="translate(-1868.862 -1645.19)" fill="#4b4c61"/>
        <path id="Tracé_15" data-name="Tracé 15" d="M773.326,2281.035l64.195-50.435,64.246,50.435Z" transform="translate(-731.993 -2111.378)" fill="#585870"/>
        <path id="Tracé_16" data-name="Tracé 16" d="M2635.924,3004.769c-.851-3.3-3.037-5.482-6.791-6.352a.372.372,0,0,1-.032-.713q5.164-1.841,6.662-6.049a.372.372,0,0,1,.716.047c.683,3.126,2.959,5.018,6.4,6a.371.371,0,0,1-.016.719c-3.324.752-5.336,2.931-6.226,6.333a.372.372,0,0,1-.719.011" transform="translate(-2488.343 -2831.517)" fill="#96d7ff"/>
      </g>
    </g>
  </g>
</svg>
