<svg xmlns="http://www.w3.org/2000/svg" width="42" height="41" viewBox="0 0 42 41">
  <g id="password_reste" data-name="password reste" transform="translate(-427 -252)">
    <g id="Groupe_1004" data-name="Groupe 1004" transform="translate(427 251.741)">
      <ellipse id="Ellipse_103" data-name="Ellipse 103" cx="21" cy="20.5" rx="21" ry="20.5" transform="translate(0 0.259)" fill="#feede8"/>
      <path id="backup" d="M9.7,2A7.7,7.7,0,0,0,4.4,4.133V2.77a.77.77,0,1,0-1.54,0V6.235a.77.77,0,0,0,.77.77H7.1a.77.77,0,0,0,0-1.54H5.249A6.16,6.16,0,1,1,3.54,9.7.77.77,0,0,0,2,9.7,7.7,7.7,0,1,0,9.7,2Zm0,4.62a.77.77,0,0,0-.77.77V9.7a.77.77,0,0,0,.77.77h1.54a.77.77,0,1,0,0-1.54h-.77V7.39A.77.77,0,0,0,9.7,6.62Z" transform="translate(11.074 11.074)" fill="#e63535"/>
    </g>
  </g>
</svg>
