<svg xmlns="http://www.w3.org/2000/svg" width="42" height="41" viewBox="0 0 42 41">
  <g id="picture_updated" data-name="picture updated" transform="translate(-427 -528)">
    <ellipse id="Ellipse_103" data-name="Ellipse 103" cx="21" cy="20.5" rx="21" ry="20.5" transform="translate(427 528)" fill="#e2edfc"/>
    <g id="image" transform="translate(709.585 760.2)">
      <path id="Tracé_1834" data-name="Tracé 1834" d="M-255.847-206.43h-12.7a1.359,1.359,0,0,1-1.351-1.351v-9.069a1.359,1.359,0,0,1,1.351-1.351h12.7a1.359,1.359,0,0,1,1.351,1.351v9.069a1.359,1.359,0,0,1-1.351,1.351Zm-12.735-10.9a.44.44,0,0,0-.45.45v9.069a.44.44,0,0,0,.45.45h12.7a.44.44,0,0,0,.45-.45v-9.069a.44.44,0,0,0-.45-.45Z" fill="#0071ff"/>
      <path id="Tracé_1835" data-name="Tracé 1835" d="M-242.631-208.962a1.764,1.764,0,0,1-1.769-1.769,1.784,1.784,0,0,1,1.769-1.769,1.784,1.784,0,0,1,1.769,1.769,1.784,1.784,0,0,1-1.769,1.769Zm0-2.734a.933.933,0,0,0-.933.933.933.933,0,0,0,.933.933.933.933,0,0,0,.933-.933.933.933,0,0,0-.933-.933Z" transform="translate(-17.3 -3.867)" fill="#0071ff"/>
      <path id="Tracé_1836" data-name="Tracé 1836" d="M-257.247-199.264l-7.429-6.978-4.245,3.923-.579-.611,4.824-4.47,8.008,7.525-.579.611" transform="translate(-0.271 -7.327)" fill="#0071ff"/>
      <path id="Tracé_1837" data-name="Tracé 1837" d="M-234.919-195.813l-2.476-1.994-2.058,1.7-.547-.675,2.6-2.122,2.991,2.444-.515.643" transform="translate(-20.285 -13.093)" fill="#0071ff"/>
    </g>
  </g>
</svg>
